%TF.GenerationSoftware,KiCad,Pcbnew,10.0.4*%
%TF.CreationDate,2026-08-11T09:57:58+08:00*%
%TF.ProjectId,JRDraws,4a524472-6177-4732-9e6b-696361645f70,rev?*%
%TF.SameCoordinates,Original*%
%TF.FileFunction,Copper,L2,Bot*%
%TF.FilePolarity,Positive*%
%FSLAX46Y46*%
G04 Gerber Fmt 4.6, Leading zero omitted, Abs format (unit mm)*
G04 Created by KiCad (PCBNEW 10.0.4) date 2026-08-11 09:57:58*
%MOMM*%
%LPD*%
G01*
G04 APERTURE LIST*
G04 Aperture macros list*
%AMRoundRect*
0 Rectangle with rounded corners*
0 $1 Rounding radius*
0 $2 $3 $4 $5 $6 $7 $8 $9 X,Y pos of 4 corners*
0 Add a 4 corners polygon primitive as box body*
4,1,4,$2,$3,$4,$5,$6,$7,$8,$9,$2,$3,0*
0 Add four circle primitives for the rounded corners*
1,1,$1+$1,$2,$3*
1,1,$1+$1,$4,$5*
1,1,$1+$1,$6,$7*
1,1,$1+$1,$8,$9*
0 Add four rect primitives between the rounded corners*
20,1,$1+$1,$2,$3,$4,$5,0*
20,1,$1+$1,$4,$5,$6,$7,0*
20,1,$1+$1,$6,$7,$8,$9,0*
20,1,$1+$1,$8,$9,$2,$3,0*%
%AMFreePoly0*
4,1,5,1.125000,-1.125000,-1.125000,-1.125000,-1.125000,1.125000,1.125000,1.125000,1.125000,-1.125000,1.125000,-1.125000,$1*%
G04 Aperture macros list end*
%TA.AperFunction,ComponentPad*%
%ADD10C,1.600000*%
%TD*%
%TA.AperFunction,ComponentPad*%
%ADD11R,1.800000X1.800000*%
%TD*%
%TA.AperFunction,ComponentPad*%
%ADD12C,1.800000*%
%TD*%
%TA.AperFunction,ComponentPad*%
%ADD13RoundRect,0.250000X0.625000X-0.350000X0.625000X0.350000X-0.625000X0.350000X-0.625000X-0.350000X0*%
%TD*%
%TA.AperFunction,ComponentPad*%
%ADD14O,1.750000X1.200000*%
%TD*%
%TA.AperFunction,ComponentPad*%
%ADD15C,2.010000*%
%TD*%
%TA.AperFunction,ComponentPad*%
%ADD16RoundRect,0.250000X0.350000X0.625000X-0.350000X0.625000X-0.350000X-0.625000X0.350000X-0.625000X0*%
%TD*%
%TA.AperFunction,ComponentPad*%
%ADD17O,1.200000X1.750000*%
%TD*%
%TA.AperFunction,ComponentPad*%
%ADD18RoundRect,0.250000X-0.550000X-0.550000X0.550000X-0.550000X0.550000X0.550000X-0.550000X0.550000X0*%
%TD*%
%TA.AperFunction,ComponentPad*%
%ADD19O,1.700000X1.100000*%
%TD*%
%TA.AperFunction,ComponentPad*%
%ADD20FreePoly0,0.000000*%
%TD*%
%TA.AperFunction,ComponentPad*%
%ADD21RoundRect,0.250000X-0.600000X-0.725000X0.600000X-0.725000X0.600000X0.725000X-0.600000X0.725000X0*%
%TD*%
%TA.AperFunction,ComponentPad*%
%ADD22O,1.700000X1.950000*%
%TD*%
%TA.AperFunction,ComponentPad*%
%ADD23RoundRect,0.250000X0.550000X0.550000X-0.550000X0.550000X-0.550000X-0.550000X0.550000X-0.550000X0*%
%TD*%
%TA.AperFunction,ViaPad*%
%ADD24C,0.300000*%
%TD*%
%TA.AperFunction,ViaPad*%
%ADD25C,0.600000*%
%TD*%
%TA.AperFunction,ViaPad*%
%ADD26C,0.900000*%
%TD*%
%TA.AperFunction,ViaPad*%
%ADD27C,0.800000*%
%TD*%
%TA.AperFunction,Conductor*%
%ADD28C,0.250000*%
%TD*%
%TA.AperFunction,Conductor*%
%ADD29C,0.900000*%
%TD*%
%TA.AperFunction,Conductor*%
%ADD30C,0.200000*%
%TD*%
%TA.AperFunction,Conductor*%
%ADD31C,0.800000*%
%TD*%
%TA.AperFunction,Conductor*%
%ADD32C,0.500000*%
%TD*%
%TA.AperFunction,Conductor*%
%ADD33C,1.200000*%
%TD*%
%TA.AperFunction,Conductor*%
%ADD34C,0.760000*%
%TD*%
%TA.AperFunction,Conductor*%
%ADD35C,0.300000*%
%TD*%
%TA.AperFunction,Profile*%
%ADD36C,0.050000*%
%TD*%
G04 APERTURE END LIST*
D10*
%TO.P,R2,1*%
%TO.N,GND*%
X232800000Y-45320000D03*
%TO.P,R2,2*%
%TO.N,Net-(J1-CC2)*%
X232800000Y-55480000D03*
%TD*%
D11*
%TO.P,D2,1,K_1*%
%TO.N,Net-(D2-K)*%
X228650000Y-88875000D03*
D12*
%TO.P,D2,2,A_2*%
%TO.N,/IN*%
X231190000Y-88875000D03*
%TD*%
D13*
%TO.P,BT1,1,BAT+_1*%
%TO.N,Net-(BT1-BAT+)*%
X240700000Y-45075000D03*
D14*
%TO.P,BT1,2,BAT-_2*%
%TO.N,GND*%
X240700000Y-43075000D03*
%TD*%
D15*
%TO.P,F1,1*%
%TO.N,Net-(BT1-BAT+)*%
X235850000Y-37600000D03*
%TO.P,F1,2*%
%TO.N,Net-(C4-Pad1)*%
X230750000Y-36400000D03*
%TD*%
D10*
%TO.P,R8,1*%
%TO.N,GND*%
X187420000Y-73100000D03*
%TO.P,R8,2*%
%TO.N,Net-(U8-THERM)*%
X197580000Y-73100000D03*
%TD*%
%TO.P,R7,1*%
%TO.N,Net-(U8-PROG1)*%
X220520000Y-64600000D03*
%TO.P,R7,2*%
%TO.N,GND*%
X230680000Y-64600000D03*
%TD*%
D16*
%TO.P,LS1,1,1_1*%
%TO.N,Net-(U3-SPK_1)*%
X96200000Y-41950000D03*
D17*
%TO.P,LS1,2,2_2*%
%TO.N,Net-(U3-SPK_2)*%
X94200000Y-41950000D03*
%TD*%
D18*
%TO.P,C6,1*%
%TO.N,GND*%
X203800000Y-58100000D03*
D10*
%TO.P,C6,2*%
%TO.N,/IN*%
X205800000Y-58100000D03*
%TD*%
%TO.P,U3,1,VCC_1*%
%TO.N,+5V*%
X81010000Y-54520000D03*
%TO.P,U3,2,RX_2*%
%TO.N,/G16*%
X81010000Y-51980000D03*
%TO.P,U3,3,TX_3*%
%TO.N,/G17*%
X81010000Y-49440000D03*
%TO.P,U3,4,DAC_R_4*%
%TO.N,unconnected-(U3-DAC_R-Pad4)*%
X81010000Y-46900000D03*
%TO.P,U3,5,DAC_L_5*%
%TO.N,unconnected-(U3-DAC_L-Pad5)*%
X81010000Y-44360000D03*
%TO.P,U3,6,SPK_1_6*%
%TO.N,Net-(U3-SPK_1)*%
X81010000Y-41820000D03*
%TO.P,U3,7,GND_7*%
%TO.N,GND*%
X81010000Y-39280000D03*
%TO.P,U3,8,SPK_2_8*%
%TO.N,Net-(U3-SPK_2)*%
X81010000Y-36740000D03*
%TO.P,U3,9,IO_1_9*%
%TO.N,unconnected-(U3-IO_1-Pad9)*%
X63230000Y-36740000D03*
%TO.P,U3,10,GND_10*%
%TO.N,GND*%
X63230000Y-39280000D03*
%TO.P,U3,11,IO2_11*%
%TO.N,unconnected-(U3-IO2-Pad11)*%
X63230000Y-41820000D03*
%TO.P,U3,12,ADKEY_1_12*%
%TO.N,unconnected-(U3-ADKEY_1-Pad12)*%
X63230000Y-44360000D03*
%TO.P,U3,13,ADKEY_2_13*%
%TO.N,unconnected-(U3-ADKEY_2-Pad13)*%
X63230000Y-46900000D03*
%TO.P,U3,14,USB+_14*%
%TO.N,unconnected-(U3-USB+-Pad14)*%
X63230000Y-49440000D03*
%TO.P,U3,15,USB-_15*%
%TO.N,unconnected-(U3-USB--Pad15)*%
X63230000Y-51980000D03*
%TO.P,U3,16,BUSY_16*%
%TO.N,unconnected-(U3-BUSY-Pad16)*%
X63230000Y-54520000D03*
%TD*%
D12*
%TO.P,U1,1,3V3_1*%
%TO.N,+3.3V*%
X96840000Y-76130000D03*
%TO.P,U1,2,EN_2*%
%TO.N,Net-(U1-EN)*%
X99380000Y-76130000D03*
%TO.P,U1,3,SP_3*%
%TO.N,unconnected-(U1-SP-Pad3)*%
X101920000Y-76130000D03*
%TO.P,U1,4,SM_4*%
%TO.N,unconnected-(U1-SM-Pad4)*%
X104460000Y-76130000D03*
%TO.P,U1,5,G34_5*%
%TO.N,/G34*%
X107000000Y-76130000D03*
%TO.P,U1,6,G35_6*%
%TO.N,unconnected-(U1-G35-Pad6)*%
X109540000Y-76130000D03*
%TO.P,U1,7,G32_7*%
%TO.N,unconnected-(U1-G32-Pad7)*%
X112080000Y-76130000D03*
%TO.P,U1,8,G33_8*%
%TO.N,unconnected-(U1-G33-Pad8)*%
X114620000Y-76130000D03*
%TO.P,U1,9,G25_9*%
%TO.N,unconnected-(U1-G25-Pad9)*%
X117160000Y-76130000D03*
%TO.P,U1,10,G26_10*%
%TO.N,/G26*%
X119700000Y-76130000D03*
%TO.P,U1,11,G27_11*%
%TO.N,/G27*%
X122240000Y-76130000D03*
%TO.P,U1,12,G14_12*%
%TO.N,unconnected-(U1-G14-Pad12)*%
X124780000Y-76130000D03*
%TO.P,U1,13,G12_13*%
%TO.N,unconnected-(U1-G12-Pad13)*%
X127320000Y-76130000D03*
%TO.P,U1,14,GND_14*%
%TO.N,GND*%
X129860000Y-76130000D03*
%TO.P,U1,15,G13_15*%
%TO.N,unconnected-(U1-G13-Pad15)*%
X132400000Y-76130000D03*
%TO.P,U1,16,SD2_16*%
%TO.N,unconnected-(U1-SD2-Pad16)*%
X134940000Y-76130000D03*
%TO.P,U1,17,SD3_17*%
%TO.N,unconnected-(U1-SD3-Pad17)*%
X137480000Y-76130000D03*
%TO.P,U1,18,CMD_18*%
%TO.N,unconnected-(U1-CMD-Pad18)*%
X140020000Y-76130000D03*
%TO.P,U1,19,V5_19*%
%TO.N,+5V*%
X142560000Y-76130000D03*
%TO.P,U1,20,GND_20*%
%TO.N,GND*%
X96840000Y-53270000D03*
%TO.P,U1,21,G23_21*%
%TO.N,unconnected-(U1-G23-Pad21)*%
X99380000Y-53270000D03*
%TO.P,U1,22,G22_22*%
%TO.N,unconnected-(U1-G22-Pad22)*%
X101920000Y-53270000D03*
%TO.P,U1,23,TXD_23*%
%TO.N,unconnected-(U1-TXD-Pad23)*%
X104460000Y-53270000D03*
%TO.P,U1,24,RXD_24*%
%TO.N,unconnected-(U1-RXD-Pad24)*%
X107000000Y-53270000D03*
%TO.P,U1,25,G21_25*%
%TO.N,unconnected-(U1-G21-Pad25)*%
X109540000Y-53270000D03*
%TO.P,U1,26,GND_26*%
%TO.N,GND*%
X112080000Y-53270000D03*
%TO.P,U1,27,G19_27*%
%TO.N,unconnected-(U1-G19-Pad27)*%
X114620000Y-53270000D03*
%TO.P,U1,28,G18_28*%
%TO.N,unconnected-(U1-G18-Pad28)*%
X117160000Y-53270000D03*
%TO.P,U1,29,G5_29*%
%TO.N,unconnected-(U1-G5-Pad29)*%
X119700000Y-53270000D03*
%TO.P,U1,30,G17_30*%
%TO.N,/G17*%
X122240000Y-53270000D03*
%TO.P,U1,31,G16_31*%
%TO.N,/G16*%
X124780000Y-53270000D03*
%TO.P,U1,32,G4_32*%
%TO.N,unconnected-(U1-G4-Pad32)*%
X127320000Y-53270000D03*
%TO.P,U1,33,G0_33*%
%TO.N,unconnected-(U1-G0-Pad33)*%
X129860000Y-53270000D03*
%TO.P,U1,34,G2_34*%
%TO.N,unconnected-(U1-G2-Pad34)*%
X132400000Y-53270000D03*
%TO.P,U1,35,G15_35*%
%TO.N,unconnected-(U1-G15-Pad35)*%
X134940000Y-53270000D03*
%TO.P,U1,36,SD1_36*%
%TO.N,unconnected-(U1-SD1-Pad36)*%
X137480000Y-53270000D03*
%TO.P,U1,37,SD0_37*%
%TO.N,unconnected-(U1-SD0-Pad37)*%
X140020000Y-53270000D03*
%TO.P,U1,38,CLK_38*%
%TO.N,unconnected-(U1-CLK-Pad38)*%
X142560000Y-53270000D03*
%TD*%
D10*
%TO.P,R4,1*%
%TO.N,Net-(U8-STAT2)*%
X207650000Y-77195000D03*
%TO.P,R4,2*%
%TO.N,Net-(D2-K)*%
X207650000Y-87355000D03*
%TD*%
D11*
%TO.P,D1,1,K_1*%
%TO.N,Net-(D1-K)*%
X220450000Y-88775000D03*
D12*
%TO.P,D1,2,A_2*%
%TO.N,/IN*%
X222990000Y-88775000D03*
%TD*%
D18*
%TO.P,C4,1*%
%TO.N,Net-(C4-Pad1)*%
X213694888Y-57975000D03*
D10*
%TO.P,C4,2*%
%TO.N,GND*%
X215694888Y-57975000D03*
%TD*%
D18*
%TO.P,C5,1*%
%TO.N,GND*%
X194844888Y-64600000D03*
D10*
%TO.P,C5,2*%
%TO.N,/OUT*%
X196844888Y-64600000D03*
%TD*%
%TO.P,R1,1*%
%TO.N,Net-(J1-CC1)*%
X234800000Y-70820000D03*
%TO.P,R1,2*%
%TO.N,GND*%
X234800000Y-80980000D03*
%TD*%
%TO.P,C3,1*%
%TO.N,GND*%
X117000000Y-40100000D03*
%TO.P,C3,2*%
%TO.N,+3.3V*%
X122000000Y-40100000D03*
%TD*%
%TO.P,R9,1*%
%TO.N,+3.3V*%
X83420000Y-81200000D03*
%TO.P,R9,2*%
%TO.N,Net-(U1-EN)*%
X93580000Y-81200000D03*
%TD*%
%TO.P,R6,1*%
%TO.N,Net-(U8-PROG3)*%
X220520000Y-73100000D03*
%TO.P,R6,2*%
%TO.N,GND*%
X230680000Y-73100000D03*
%TD*%
%TO.P,C2,1*%
%TO.N,+5V*%
X79100000Y-63800000D03*
%TO.P,C2,2*%
%TO.N,GND*%
X84100000Y-63800000D03*
%TD*%
D19*
%TO.P,J1,SH,SHIELD_SH*%
%TO.N,GND*%
X240450000Y-68295000D03*
X244250000Y-68295000D03*
X240450000Y-59655000D03*
X244250000Y-59655000D03*
%TD*%
D10*
%TO.P,R3,1*%
%TO.N,Net-(U8-~PG)*%
X200950000Y-77195000D03*
%TO.P,R3,2*%
%TO.N,Net-(D1-K)*%
X200950000Y-87355000D03*
%TD*%
D11*
%TO.P,D3,1,K_1*%
%TO.N,Net-(D3-K)*%
X236315000Y-88875000D03*
D12*
%TO.P,D3,2,A_2*%
%TO.N,/IN*%
X238855000Y-88875000D03*
%TD*%
D16*
%TO.P,U4,1,GND_1*%
%TO.N,GND*%
X141300000Y-42050000D03*
D17*
%TO.P,U4,2,RX_2*%
%TO.N,/G26*%
X139300000Y-42050000D03*
%TO.P,U4,3,TX_3*%
%TO.N,/G27*%
X137300000Y-42050000D03*
%TO.P,U4,4,3V3_4*%
%TO.N,+3.3V*%
X135300000Y-42050000D03*
%TO.P,U4,5,T-OUT_5*%
%TO.N,/G34*%
X133300000Y-42050000D03*
%TO.P,U4,6,T-3V3_6*%
%TO.N,+3.3V*%
X131300000Y-42050000D03*
%TD*%
D20*
%TO.P,U7,1,VOUT+_1*%
%TO.N,+5V*%
X188675000Y-37765000D03*
%TO.P,U7,2,VOUT-_2*%
%TO.N,GND*%
X188675000Y-45385000D03*
%TO.P,U7,3,VIN+_3*%
%TO.N,/OUT*%
X220425000Y-37765000D03*
%TO.P,U7,4,VIN-_4*%
%TO.N,GND*%
X220425000Y-45385000D03*
%TD*%
D16*
%TO.P,U2,1,+5V_1*%
%TO.N,+5V*%
X109000000Y-41950000D03*
D17*
%TO.P,U2,2,GND_2*%
%TO.N,GND*%
X107000000Y-41950000D03*
%TD*%
D21*
%TO.P,U6,1,+3.3V_1*%
%TO.N,+3.3V*%
X64600000Y-75155000D03*
D22*
%TO.P,U6,2,+5V_2*%
%TO.N,+5V*%
X67100000Y-75155000D03*
%TO.P,U6,3,GND_3*%
%TO.N,GND*%
X69600000Y-75155000D03*
%TD*%
D21*
%TO.P,U5,1,+3.3V_1*%
%TO.N,+3.3V*%
X189750000Y-85530000D03*
D22*
%TO.P,U5,2,+5v_2*%
%TO.N,+5V*%
X192250000Y-85530000D03*
%TO.P,U5,3,GND_3*%
%TO.N,GND*%
X194750000Y-85530000D03*
%TD*%
D10*
%TO.P,R5,1*%
%TO.N,Net-(U8-STAT1{slash}~LBO)*%
X214650000Y-77295000D03*
%TO.P,R5,2*%
%TO.N,Net-(D3-K)*%
X214650000Y-87455000D03*
%TD*%
D23*
%TO.P,C1,1*%
%TO.N,+5V*%
X71852651Y-63500000D03*
D10*
%TO.P,C1,2*%
%TO.N,GND*%
X68352651Y-63500000D03*
%TD*%
D24*
%TO.N,GND*%
X215500000Y-90500000D03*
D25*
X74200000Y-84080000D03*
D24*
X199500000Y-90200000D03*
D25*
X97300000Y-81800000D03*
D26*
%TO.N,/IN*%
X234700000Y-64600000D03*
D25*
X199300000Y-65300000D03*
X199500000Y-63900000D03*
D26*
X237500000Y-65500000D03*
D25*
%TO.N,+3.3V*%
X68700000Y-68400000D03*
X64600000Y-69400000D03*
X208700000Y-54300000D03*
X186900000Y-79500000D03*
X86100000Y-74200000D03*
X89900000Y-74100000D03*
X186900000Y-76400000D03*
X195600000Y-54300000D03*
D26*
%TO.N,Net-(C4-Pad1)*%
X225200000Y-54100000D03*
X226500000Y-50300000D03*
D25*
%TO.N,Net-(D2-K)*%
X209500000Y-94675000D03*
X207700000Y-92000000D03*
%TO.N,Net-(U3-SPK_1)*%
X94000000Y-37800000D03*
X84100000Y-40600000D03*
X91300000Y-37800000D03*
X85900000Y-38800000D03*
%TO.N,+5V*%
X88100000Y-40900000D03*
D27*
X77266800Y-82194400D03*
X78689200Y-80111600D03*
D25*
X85200000Y-42000000D03*
%TO.N,/G16*%
X122400000Y-50500000D03*
X85200000Y-50600000D03*
%TO.N,/G17*%
X85400000Y-49500000D03*
X113800000Y-49500000D03*
%TO.N,Net-(U1-EN)*%
X95600000Y-81200000D03*
X98100000Y-79200000D03*
%TO.N,/G34*%
X135800000Y-47600000D03*
X138400000Y-47500000D03*
%TO.N,/G27*%
X138300000Y-45500000D03*
X141100000Y-45500000D03*
%TO.N,Net-(D3-K)*%
X229600000Y-93200000D03*
X218900000Y-93200000D03*
%TD*%
%TO.N,GND*%
D28*
X215500000Y-90500000D02*
X199800000Y-90500000D01*
X199800000Y-90500000D02*
X199500000Y-90200000D01*
D29*
X95100000Y-84080000D02*
X97300000Y-81880000D01*
X74200000Y-84080000D02*
X95100000Y-84080000D01*
X97300000Y-81880000D02*
X97300000Y-81800000D01*
%TO.N,/IN*%
D30*
X199300000Y-64100000D02*
X199500000Y-63900000D01*
D31*
X237500000Y-65500000D02*
X235600000Y-65500000D01*
X235600000Y-65500000D02*
X234700000Y-64600000D01*
D30*
X199300000Y-65300000D02*
X199300000Y-64100000D01*
%TO.N,+3.3V*%
D32*
X64600000Y-69400000D02*
X64600000Y-68800000D01*
D28*
X208700000Y-54300000D02*
X195600000Y-54300000D01*
X186900000Y-76400000D02*
X186900000Y-79500000D01*
D32*
X86200000Y-74100000D02*
X86100000Y-74200000D01*
X64600000Y-68800000D02*
X65000000Y-68400000D01*
X89900000Y-74100000D02*
X86200000Y-74100000D01*
X65000000Y-68400000D02*
X68700000Y-68400000D01*
%TO.N,Net-(C4-Pad1)*%
D33*
X226500000Y-50300000D02*
X226500000Y-52800000D01*
X226500000Y-52800000D02*
X225200000Y-54100000D01*
%TO.N,Net-(D2-K)*%
D28*
X207700000Y-92000000D02*
X207700000Y-92875000D01*
X207700000Y-92875000D02*
X209500000Y-94675000D01*
%TO.N,Net-(U3-SPK_1)*%
D32*
X85900000Y-38800000D02*
X84100000Y-40600000D01*
X94000000Y-37800000D02*
X91300000Y-37800000D01*
%TO.N,+5V*%
D34*
X78689200Y-80111600D02*
X78689200Y-80772000D01*
D35*
X86300000Y-40900000D02*
X85200000Y-42000000D01*
D34*
X78689200Y-80772000D02*
X77266800Y-82194400D01*
D35*
X88100000Y-40900000D02*
X86300000Y-40900000D01*
%TO.N,/G16*%
D28*
X122300000Y-50600000D02*
X85200000Y-50600000D01*
X122400000Y-50500000D02*
X122300000Y-50600000D01*
%TO.N,/G17*%
X113800000Y-49500000D02*
X85400000Y-49500000D01*
%TO.N,Net-(U1-EN)*%
X98100000Y-79200000D02*
X96100000Y-81200000D01*
X96100000Y-81200000D02*
X95600000Y-81200000D01*
%TO.N,/G34*%
X135900000Y-47500000D02*
X135800000Y-47600000D01*
X138400000Y-47500000D02*
X135900000Y-47500000D01*
%TO.N,/G27*%
X141100000Y-45500000D02*
X138300000Y-45500000D01*
%TO.N,Net-(D3-K)*%
X229600000Y-93200000D02*
X218900000Y-93200000D01*
%TD*%
%TA.AperFunction,Conductor*%
%TO.N,GND*%
G36*
X62368403Y-35550185D02*
G01*
X62414158Y-35602989D01*
X62424102Y-35672147D01*
X62395077Y-35735703D01*
X62386177Y-35744540D01*
X62386226Y-35744589D01*
X62238032Y-35892782D01*
X62238028Y-35892786D01*
X62117715Y-36058386D01*
X62024781Y-36240776D01*
X61961522Y-36435465D01*
X61929500Y-36637648D01*
X61929500Y-36842351D01*
X61961522Y-37044534D01*
X62024781Y-37239223D01*
X62088691Y-37364653D01*
X62117314Y-37420827D01*
X62117715Y-37421613D01*
X62238028Y-37587213D01*
X62382786Y-37731971D01*
X62537749Y-37844556D01*
X62548390Y-37852287D01*
X62664607Y-37911503D01*
X62730776Y-37945218D01*
X62730778Y-37945218D01*
X62730781Y-37945220D01*
X62835137Y-37979127D01*
X62925465Y-38008477D01*
X63026557Y-38024488D01*
X63127648Y-38040500D01*
X63127649Y-38040500D01*
X63332351Y-38040500D01*
X63332352Y-38040500D01*
X63534534Y-38008477D01*
X63729219Y-37945220D01*
X63911610Y-37852287D01*
X64004590Y-37784732D01*
X64077213Y-37731971D01*
X64077215Y-37731968D01*
X64077219Y-37731966D01*
X64221966Y-37587219D01*
X64221968Y-37587215D01*
X64221971Y-37587213D01*
X64297363Y-37483443D01*
X64342287Y-37421610D01*
X64435220Y-37239219D01*
X64498477Y-37044534D01*
X64530500Y-36842352D01*
X64530500Y-36637648D01*
X64498477Y-36435466D01*
X64435220Y-36240781D01*
X64435218Y-36240778D01*
X64435218Y-36240776D01*
X64401503Y-36174607D01*
X64342287Y-36058390D01*
X64334556Y-36047749D01*
X64221971Y-35892786D01*
X64073774Y-35744589D01*
X64074733Y-35743629D01*
X64039909Y-35690275D01*
X64039415Y-35620407D01*
X64076773Y-35561363D01*
X64140122Y-35531890D01*
X64158636Y-35530500D01*
X80081364Y-35530500D01*
X80148403Y-35550185D01*
X80194158Y-35602989D01*
X80204102Y-35672147D01*
X80175077Y-35735703D01*
X80166177Y-35744540D01*
X80166226Y-35744589D01*
X80018032Y-35892782D01*
X80018028Y-35892786D01*
X79897715Y-36058386D01*
X79804781Y-36240776D01*
X79741522Y-36435465D01*
X79709500Y-36637648D01*
X79709500Y-36842351D01*
X79741522Y-37044534D01*
X79804781Y-37239223D01*
X79868691Y-37364653D01*
X79897314Y-37420827D01*
X79897715Y-37421613D01*
X80018028Y-37587213D01*
X80162786Y-37731971D01*
X80317749Y-37844556D01*
X80328390Y-37852287D01*
X80444607Y-37911503D01*
X80510776Y-37945218D01*
X80510778Y-37945218D01*
X80510781Y-37945220D01*
X80615137Y-37979127D01*
X80705465Y-38008477D01*
X80806557Y-38024488D01*
X80907648Y-38040500D01*
X80907649Y-38040500D01*
X81112351Y-38040500D01*
X81112352Y-38040500D01*
X81314534Y-38008477D01*
X81509219Y-37945220D01*
X81691610Y-37852287D01*
X81784590Y-37784732D01*
X81857213Y-37731971D01*
X81857215Y-37731968D01*
X81857219Y-37731966D01*
X81868032Y-37721153D01*
X90499500Y-37721153D01*
X90499500Y-37878846D01*
X90530261Y-38033489D01*
X90530264Y-38033501D01*
X90590602Y-38179172D01*
X90590609Y-38179185D01*
X90678210Y-38310288D01*
X90678213Y-38310292D01*
X90789707Y-38421786D01*
X90789711Y-38421789D01*
X90920814Y-38509390D01*
X90920827Y-38509397D01*
X91020060Y-38550500D01*
X91066503Y-38569737D01*
X91221153Y-38600499D01*
X91221156Y-38600500D01*
X91221158Y-38600500D01*
X91378844Y-38600500D01*
X91378845Y-38600499D01*
X91455152Y-38585320D01*
X91533488Y-38569739D01*
X91533489Y-38569738D01*
X91533497Y-38569737D01*
X91557155Y-38559937D01*
X91604604Y-38550500D01*
X93695396Y-38550500D01*
X93742844Y-38559937D01*
X93766503Y-38569737D01*
X93766508Y-38569738D01*
X93766511Y-38569739D01*
X93921153Y-38600499D01*
X93921156Y-38600500D01*
X93921158Y-38600500D01*
X94078844Y-38600500D01*
X94078845Y-38600499D01*
X94233497Y-38569737D01*
X94379179Y-38509394D01*
X94510289Y-38421789D01*
X94621789Y-38310289D01*
X94709394Y-38179179D01*
X94769737Y-38033497D01*
X94800500Y-37878842D01*
X94800500Y-37721158D01*
X94800500Y-37721155D01*
X94800499Y-37721153D01*
X94781847Y-37627385D01*
X94769737Y-37566503D01*
X94735333Y-37483443D01*
X94709397Y-37420827D01*
X94709390Y-37420814D01*
X94621789Y-37289711D01*
X94621786Y-37289707D01*
X94510292Y-37178213D01*
X94510288Y-37178210D01*
X94379185Y-37090609D01*
X94379172Y-37090602D01*
X94233501Y-37030264D01*
X94233489Y-37030261D01*
X94078845Y-36999500D01*
X94078842Y-36999500D01*
X93921158Y-36999500D01*
X93921155Y-36999500D01*
X93766511Y-37030260D01*
X93766506Y-37030262D01*
X93766504Y-37030262D01*
X93766503Y-37030263D01*
X93742844Y-37040062D01*
X93695396Y-37049500D01*
X91604604Y-37049500D01*
X91557155Y-37040062D01*
X91533497Y-37030263D01*
X91533493Y-37030262D01*
X91533488Y-37030260D01*
X91378845Y-36999500D01*
X91378842Y-36999500D01*
X91221158Y-36999500D01*
X91221155Y-36999500D01*
X91066510Y-37030261D01*
X91066498Y-37030264D01*
X90920827Y-37090602D01*
X90920814Y-37090609D01*
X90789711Y-37178210D01*
X90789707Y-37178213D01*
X90678213Y-37289707D01*
X90678210Y-37289711D01*
X90590609Y-37420814D01*
X90590602Y-37420827D01*
X90530264Y-37566498D01*
X90530261Y-37566510D01*
X90499500Y-37721153D01*
X81868032Y-37721153D01*
X82001966Y-37587219D01*
X82001968Y-37587215D01*
X82001971Y-37587213D01*
X82077363Y-37483443D01*
X82122287Y-37421610D01*
X82215220Y-37239219D01*
X82278477Y-37044534D01*
X82310500Y-36842352D01*
X82310500Y-36637648D01*
X82278477Y-36435466D01*
X82215220Y-36240781D01*
X82215218Y-36240778D01*
X82215218Y-36240776D01*
X82181503Y-36174607D01*
X82122287Y-36058390D01*
X82114556Y-36047749D01*
X82001971Y-35892786D01*
X81853774Y-35744589D01*
X81854733Y-35743629D01*
X81819909Y-35690275D01*
X81819415Y-35620407D01*
X81856773Y-35561363D01*
X81920122Y-35531890D01*
X81938636Y-35530500D01*
X154095500Y-35530500D01*
X154162539Y-35550185D01*
X154208294Y-35602989D01*
X154219500Y-35654500D01*
X154219500Y-84405500D01*
X154199815Y-84472539D01*
X154147011Y-84518294D01*
X154095500Y-84529500D01*
X55344500Y-84529500D01*
X55277461Y-84509815D01*
X55231706Y-84457011D01*
X55220500Y-84405500D01*
X55220500Y-81808713D01*
X57069500Y-81808713D01*
X57069500Y-82021287D01*
X57102754Y-82231243D01*
X57159282Y-82405218D01*
X57168444Y-82433414D01*
X57264951Y-82622820D01*
X57389890Y-82794786D01*
X57540213Y-82945109D01*
X57712179Y-83070048D01*
X57712181Y-83070049D01*
X57712184Y-83070051D01*
X57901588Y-83166557D01*
X58103757Y-83232246D01*
X58313713Y-83265500D01*
X58313714Y-83265500D01*
X58526286Y-83265500D01*
X58526287Y-83265500D01*
X58736243Y-83232246D01*
X58938412Y-83166557D01*
X59127816Y-83070051D01*
X59149789Y-83054086D01*
X59299786Y-82945109D01*
X59299788Y-82945106D01*
X59299792Y-82945104D01*
X59450104Y-82794792D01*
X59450106Y-82794788D01*
X59450109Y-82794786D01*
X59575048Y-82622820D01*
X59575047Y-82622820D01*
X59575051Y-82622816D01*
X59671557Y-82433412D01*
X59737246Y-82231243D01*
X59757130Y-82105704D01*
X76366300Y-82105704D01*
X76366300Y-82283092D01*
X76400903Y-82457058D01*
X76400906Y-82457067D01*
X76468783Y-82620940D01*
X76468790Y-82620953D01*
X76567335Y-82768434D01*
X76567338Y-82768438D01*
X76692761Y-82893861D01*
X76692765Y-82893864D01*
X76840246Y-82992409D01*
X76840259Y-82992416D01*
X76963163Y-83043323D01*
X77004134Y-83060294D01*
X77004136Y-83060294D01*
X77004141Y-83060296D01*
X77178104Y-83094899D01*
X77178107Y-83094900D01*
X77178109Y-83094900D01*
X77355493Y-83094900D01*
X77355494Y-83094899D01*
X77413482Y-83083364D01*
X77529458Y-83060296D01*
X77529461Y-83060294D01*
X77529466Y-83060294D01*
X77693347Y-82992413D01*
X77840835Y-82893864D01*
X77966264Y-82768435D01*
X78016439Y-82693341D01*
X78031851Y-82674562D01*
X79373129Y-81333286D01*
X79469489Y-81189074D01*
X79507359Y-81097648D01*
X82119500Y-81097648D01*
X82119500Y-81302351D01*
X82151522Y-81504534D01*
X82214781Y-81699223D01*
X82307715Y-81881613D01*
X82428028Y-82047213D01*
X82572786Y-82191971D01*
X82698206Y-82283092D01*
X82738390Y-82312287D01*
X82854607Y-82371503D01*
X82920776Y-82405218D01*
X82920778Y-82405218D01*
X82920781Y-82405220D01*
X83025137Y-82439127D01*
X83115465Y-82468477D01*
X83216557Y-82484488D01*
X83317648Y-82500500D01*
X83317649Y-82500500D01*
X83522351Y-82500500D01*
X83522352Y-82500500D01*
X83724534Y-82468477D01*
X83919219Y-82405220D01*
X84101610Y-82312287D01*
X84194590Y-82244732D01*
X84267213Y-82191971D01*
X84267215Y-82191968D01*
X84267219Y-82191966D01*
X84411966Y-82047219D01*
X84411968Y-82047215D01*
X84411971Y-82047213D01*
X84468259Y-81969738D01*
X84532287Y-81881610D01*
X84625220Y-81699219D01*
X84688477Y-81504534D01*
X84720500Y-81302352D01*
X84720500Y-81097648D01*
X92279500Y-81097648D01*
X92279500Y-81302351D01*
X92311522Y-81504534D01*
X92374781Y-81699223D01*
X92467715Y-81881613D01*
X92588028Y-82047213D01*
X92732786Y-82191971D01*
X92858206Y-82283092D01*
X92898390Y-82312287D01*
X93014607Y-82371503D01*
X93080776Y-82405218D01*
X93080778Y-82405218D01*
X93080781Y-82405220D01*
X93185137Y-82439127D01*
X93275465Y-82468477D01*
X93376557Y-82484488D01*
X93477648Y-82500500D01*
X93477649Y-82500500D01*
X93682351Y-82500500D01*
X93682352Y-82500500D01*
X93884534Y-82468477D01*
X94079219Y-82405220D01*
X94261610Y-82312287D01*
X94354590Y-82244732D01*
X94427213Y-82191971D01*
X94427215Y-82191968D01*
X94427219Y-82191966D01*
X94571966Y-82047219D01*
X94571968Y-82047215D01*
X94571971Y-82047213D01*
X94692284Y-81881614D01*
X94692285Y-81881613D01*
X94692287Y-81881610D01*
X94769595Y-81729883D01*
X94817569Y-81679088D01*
X94885390Y-81662293D01*
X94951525Y-81684830D01*
X94975933Y-81707514D01*
X94978211Y-81710290D01*
X95089707Y-81821786D01*
X95089711Y-81821789D01*
X95220814Y-81909390D01*
X95220827Y-81909397D01*
X95366498Y-81969735D01*
X95366503Y-81969737D01*
X95521153Y-82000499D01*
X95521156Y-82000500D01*
X95521158Y-82000500D01*
X95678844Y-82000500D01*
X95678845Y-82000499D01*
X95833497Y-81969737D01*
X95979179Y-81909394D01*
X96073459Y-81846398D01*
X96084860Y-81842062D01*
X96091405Y-81836448D01*
X96110296Y-81832388D01*
X96125319Y-81826675D01*
X96133793Y-81825500D01*
X96161607Y-81825500D01*
X96222029Y-81813481D01*
X96282452Y-81801463D01*
X96282455Y-81801461D01*
X96282458Y-81801461D01*
X96315787Y-81787654D01*
X96315786Y-81787654D01*
X96315792Y-81787652D01*
X96396286Y-81754312D01*
X96462169Y-81710289D01*
X96498733Y-81685858D01*
X96585858Y-81598733D01*
X96585859Y-81598731D01*
X96592925Y-81591665D01*
X96592928Y-81591661D01*
X97010876Y-81173713D01*
X149779500Y-81173713D01*
X149779500Y-81386286D01*
X149812027Y-81591657D01*
X149812754Y-81596243D01*
X149874947Y-81787654D01*
X149878444Y-81798414D01*
X149974951Y-81987820D01*
X150099890Y-82159786D01*
X150250213Y-82310109D01*
X150422179Y-82435048D01*
X150422181Y-82435049D01*
X150422184Y-82435051D01*
X150611588Y-82531557D01*
X150813757Y-82597246D01*
X151023713Y-82630500D01*
X151023714Y-82630500D01*
X151236286Y-82630500D01*
X151236287Y-82630500D01*
X151446243Y-82597246D01*
X151648412Y-82531557D01*
X151837816Y-82435051D01*
X151878878Y-82405218D01*
X152009786Y-82310109D01*
X152009788Y-82310106D01*
X152009792Y-82310104D01*
X152160104Y-82159792D01*
X152160106Y-82159788D01*
X152160109Y-82159786D01*
X152285048Y-81987820D01*
X152285047Y-81987820D01*
X152285051Y-81987816D01*
X152381557Y-81798412D01*
X152447246Y-81596243D01*
X152480500Y-81386287D01*
X152480500Y-81173713D01*
X152447246Y-80963757D01*
X152381557Y-80761588D01*
X152285051Y-80572184D01*
X152285049Y-80572181D01*
X152285048Y-80572179D01*
X152160109Y-80400213D01*
X152009786Y-80249890D01*
X151837820Y-80124951D01*
X151648414Y-80028444D01*
X151648413Y-80028443D01*
X151648412Y-80028443D01*
X151446243Y-79962754D01*
X151446241Y-79962753D01*
X151446240Y-79962753D01*
X151284957Y-79937208D01*
X151236287Y-79929500D01*
X151023713Y-79929500D01*
X150975042Y-79937208D01*
X150813760Y-79962753D01*
X150611585Y-80028444D01*
X150422179Y-80124951D01*
X150250213Y-80249890D01*
X150099890Y-80400213D01*
X149974951Y-80572179D01*
X149878444Y-80761585D01*
X149812753Y-80963760D01*
X149779500Y-81173713D01*
X97010876Y-81173713D01*
X98158797Y-80025791D01*
X98220118Y-79992308D01*
X98222128Y-79991889D01*
X98333497Y-79969737D01*
X98479179Y-79909394D01*
X98610289Y-79821789D01*
X98721789Y-79710289D01*
X98809394Y-79579179D01*
X98869737Y-79433497D01*
X98900500Y-79278842D01*
X98900500Y-79121158D01*
X98900500Y-79121155D01*
X98900499Y-79121153D01*
X98869738Y-78966510D01*
X98869738Y-78966508D01*
X98869737Y-78966503D01*
X98869735Y-78966498D01*
X98809397Y-78820827D01*
X98809390Y-78820814D01*
X98721789Y-78689711D01*
X98721786Y-78689707D01*
X98610292Y-78578213D01*
X98610288Y-78578210D01*
X98479185Y-78490609D01*
X98479172Y-78490602D01*
X98333501Y-78430264D01*
X98333489Y-78430261D01*
X98178845Y-78399500D01*
X98178842Y-78399500D01*
X98021158Y-78399500D01*
X98021155Y-78399500D01*
X97866510Y-78430261D01*
X97866498Y-78430264D01*
X97720827Y-78490602D01*
X97720814Y-78490609D01*
X97589711Y-78578210D01*
X97589707Y-78578213D01*
X97478213Y-78689707D01*
X97478210Y-78689711D01*
X97390609Y-78820814D01*
X97390602Y-78820827D01*
X97330264Y-78966498D01*
X97330261Y-78966508D01*
X97308141Y-79077714D01*
X97275756Y-79139625D01*
X97274205Y-79141203D01*
X95999315Y-80416093D01*
X95937992Y-80449578D01*
X95868300Y-80444594D01*
X95864193Y-80442977D01*
X95833497Y-80430263D01*
X95833489Y-80430261D01*
X95678845Y-80399500D01*
X95678842Y-80399500D01*
X95521158Y-80399500D01*
X95521155Y-80399500D01*
X95366510Y-80430261D01*
X95366498Y-80430264D01*
X95220827Y-80490602D01*
X95220814Y-80490609D01*
X95089711Y-80578210D01*
X95089707Y-80578213D01*
X94978208Y-80689712D01*
X94975928Y-80692491D01*
X94974366Y-80693554D01*
X94973903Y-80694018D01*
X94973815Y-80693930D01*
X94918179Y-80731822D01*
X94848335Y-80733688D01*
X94788569Y-80697496D01*
X94769595Y-80670115D01*
X94732725Y-80597754D01*
X94692287Y-80518390D01*
X94637494Y-80442973D01*
X94571971Y-80352786D01*
X94427213Y-80208028D01*
X94261613Y-80087715D01*
X94261612Y-80087714D01*
X94261610Y-80087713D01*
X94204653Y-80058691D01*
X94079223Y-79994781D01*
X93884534Y-79931522D01*
X93709995Y-79903878D01*
X93682352Y-79899500D01*
X93477648Y-79899500D01*
X93453329Y-79903351D01*
X93275465Y-79931522D01*
X93080776Y-79994781D01*
X92898386Y-80087715D01*
X92732786Y-80208028D01*
X92588028Y-80352786D01*
X92467715Y-80518386D01*
X92374781Y-80700776D01*
X92311522Y-80895465D01*
X92279500Y-81097648D01*
X84720500Y-81097648D01*
X84699294Y-80963760D01*
X84688477Y-80895465D01*
X84644976Y-80761585D01*
X84625220Y-80700781D01*
X84625218Y-80700778D01*
X84625218Y-80700776D01*
X84572725Y-80597754D01*
X84532287Y-80518390D01*
X84477494Y-80442973D01*
X84411971Y-80352786D01*
X84267213Y-80208028D01*
X84101613Y-80087715D01*
X84101612Y-80087714D01*
X84101610Y-80087713D01*
X84044653Y-80058691D01*
X83919223Y-79994781D01*
X83724534Y-79931522D01*
X83549995Y-79903878D01*
X83522352Y-79899500D01*
X83317648Y-79899500D01*
X83293329Y-79903351D01*
X83115465Y-79931522D01*
X82920776Y-79994781D01*
X82738386Y-80087715D01*
X82572786Y-80208028D01*
X82428028Y-80352786D01*
X82307715Y-80518386D01*
X82214781Y-80700776D01*
X82151522Y-80895465D01*
X82119500Y-81097648D01*
X79507359Y-81097648D01*
X79535863Y-81028833D01*
X79569700Y-80858722D01*
X79569700Y-80685279D01*
X79569700Y-80313048D01*
X79572083Y-80288856D01*
X79589700Y-80200293D01*
X79589700Y-80022906D01*
X79589699Y-80022904D01*
X79555096Y-79848941D01*
X79555093Y-79848932D01*
X79487216Y-79685059D01*
X79487209Y-79685046D01*
X79388664Y-79537565D01*
X79388661Y-79537561D01*
X79263238Y-79412138D01*
X79263234Y-79412135D01*
X79115753Y-79313590D01*
X79115740Y-79313583D01*
X78951867Y-79245706D01*
X78951858Y-79245703D01*
X78777894Y-79211100D01*
X78777891Y-79211100D01*
X78600509Y-79211100D01*
X78600506Y-79211100D01*
X78426541Y-79245703D01*
X78426532Y-79245706D01*
X78262659Y-79313583D01*
X78262646Y-79313590D01*
X78115165Y-79412135D01*
X78115161Y-79412138D01*
X77989738Y-79537561D01*
X77989735Y-79537565D01*
X77891190Y-79685046D01*
X77891183Y-79685059D01*
X77823306Y-79848932D01*
X77823303Y-79848941D01*
X77788700Y-80022904D01*
X77788700Y-80200293D01*
X77806317Y-80288856D01*
X77808700Y-80313048D01*
X77808700Y-80355922D01*
X77789015Y-80422961D01*
X77772381Y-80443603D01*
X76786642Y-81429341D01*
X76767855Y-81444760D01*
X76692763Y-81494937D01*
X76692758Y-81494942D01*
X76567338Y-81620361D01*
X76567335Y-81620365D01*
X76468790Y-81767846D01*
X76468783Y-81767859D01*
X76400906Y-81931732D01*
X76400903Y-81931741D01*
X76366300Y-82105704D01*
X59757130Y-82105704D01*
X59770500Y-82021287D01*
X59770500Y-81808713D01*
X59737246Y-81598757D01*
X59671557Y-81396588D01*
X59575051Y-81207184D01*
X59575049Y-81207181D01*
X59575048Y-81207179D01*
X59450109Y-81035213D01*
X59299786Y-80884890D01*
X59127820Y-80759951D01*
X58938414Y-80663444D01*
X58938413Y-80663443D01*
X58938412Y-80663443D01*
X58736243Y-80597754D01*
X58736241Y-80597753D01*
X58736240Y-80597753D01*
X58574770Y-80572179D01*
X58526287Y-80564500D01*
X58313713Y-80564500D01*
X58265230Y-80572179D01*
X58103760Y-80597753D01*
X57901585Y-80663444D01*
X57712179Y-80759951D01*
X57540213Y-80884890D01*
X57389890Y-81035213D01*
X57264951Y-81207179D01*
X57168444Y-81396585D01*
X57102753Y-81598760D01*
X57085528Y-81707514D01*
X57069500Y-81808713D01*
X55220500Y-81808713D01*
X55220500Y-74379983D01*
X63249500Y-74379983D01*
X63249500Y-75930001D01*
X63249501Y-75930018D01*
X63260000Y-76032796D01*
X63260001Y-76032799D01*
X63305894Y-76171294D01*
X63315186Y-76199334D01*
X63407288Y-76348656D01*
X63531344Y-76472712D01*
X63680666Y-76564814D01*
X63847203Y-76619999D01*
X63949991Y-76630500D01*
X65250008Y-76630499D01*
X65352797Y-76619999D01*
X65519334Y-76564814D01*
X65668656Y-76472712D01*
X65792712Y-76348656D01*
X65884814Y-76199334D01*
X65884814Y-76199331D01*
X65888178Y-76193879D01*
X65940126Y-76147154D01*
X66009088Y-76135931D01*
X66073170Y-76163774D01*
X66081398Y-76171294D01*
X66220213Y-76310109D01*
X66392179Y-76435048D01*
X66392181Y-76435049D01*
X66392184Y-76435051D01*
X66581588Y-76531557D01*
X66783757Y-76597246D01*
X66993713Y-76630500D01*
X66993714Y-76630500D01*
X67206286Y-76630500D01*
X67206287Y-76630500D01*
X67416243Y-76597246D01*
X67618412Y-76531557D01*
X67807816Y-76435051D01*
X67829789Y-76419086D01*
X67979786Y-76310109D01*
X67979788Y-76310106D01*
X67979792Y-76310104D01*
X68130104Y-76159792D01*
X68130106Y-76159788D01*
X68130109Y-76159786D01*
X68231829Y-76019778D01*
X95439500Y-76019778D01*
X95439500Y-76240221D01*
X95473985Y-76457952D01*
X95542103Y-76667603D01*
X95542104Y-76667606D01*
X95610122Y-76801096D01*
X95637129Y-76854100D01*
X95642187Y-76864025D01*
X95771752Y-77042358D01*
X95771756Y-77042363D01*
X95927636Y-77198243D01*
X95927641Y-77198247D01*
X96083192Y-77311260D01*
X96105978Y-77327815D01*
X96234375Y-77393237D01*
X96302393Y-77427895D01*
X96302396Y-77427896D01*
X96407221Y-77461955D01*
X96512049Y-77496015D01*
X96729778Y-77530500D01*
X96729779Y-77530500D01*
X96950221Y-77530500D01*
X96950222Y-77530500D01*
X97167951Y-77496015D01*
X97377606Y-77427895D01*
X97574022Y-77327815D01*
X97752365Y-77198242D01*
X97908242Y-77042365D01*
X97918804Y-77027826D01*
X98009682Y-76902745D01*
X98065011Y-76860079D01*
X98134625Y-76854100D01*
X98196420Y-76886705D01*
X98210318Y-76902745D01*
X98311752Y-77042358D01*
X98311756Y-77042363D01*
X98467636Y-77198243D01*
X98467641Y-77198247D01*
X98623192Y-77311260D01*
X98645978Y-77327815D01*
X98774375Y-77393237D01*
X98842393Y-77427895D01*
X98842396Y-77427896D01*
X98947221Y-77461955D01*
X99052049Y-77496015D01*
X99269778Y-77530500D01*
X99269779Y-77530500D01*
X99490221Y-77530500D01*
X99490222Y-77530500D01*
X99707951Y-77496015D01*
X99917606Y-77427895D01*
X100114022Y-77327815D01*
X100292365Y-77198242D01*
X100448242Y-77042365D01*
X100458804Y-77027826D01*
X100549682Y-76902745D01*
X100605011Y-76860079D01*
X100674625Y-76854100D01*
X100736420Y-76886705D01*
X100750318Y-76902745D01*
X100851752Y-77042358D01*
X100851756Y-77042363D01*
X101007636Y-77198243D01*
X101007641Y-77198247D01*
X101163192Y-77311260D01*
X101185978Y-77327815D01*
X101314375Y-77393237D01*
X101382393Y-77427895D01*
X101382396Y-77427896D01*
X101487221Y-77461955D01*
X101592049Y-77496015D01*
X101809778Y-77530500D01*
X101809779Y-77530500D01*
X102030221Y-77530500D01*
X102030222Y-77530500D01*
X102247951Y-77496015D01*
X102457606Y-77427895D01*
X102654022Y-77327815D01*
X102832365Y-77198242D01*
X102988242Y-77042365D01*
X102998804Y-77027826D01*
X103089682Y-76902745D01*
X103145011Y-76860079D01*
X103214625Y-76854100D01*
X103276420Y-76886705D01*
X103290318Y-76902745D01*
X103391752Y-77042358D01*
X103391756Y-77042363D01*
X103547636Y-77198243D01*
X103547641Y-77198247D01*
X103703192Y-77311260D01*
X103725978Y-77327815D01*
X103854375Y-77393237D01*
X103922393Y-77427895D01*
X103922396Y-77427896D01*
X104027221Y-77461955D01*
X104132049Y-77496015D01*
X104349778Y-77530500D01*
X104349779Y-77530500D01*
X104570221Y-77530500D01*
X104570222Y-77530500D01*
X104787951Y-77496015D01*
X104997606Y-77427895D01*
X105194022Y-77327815D01*
X105372365Y-77198242D01*
X105528242Y-77042365D01*
X105538804Y-77027826D01*
X105629682Y-76902745D01*
X105685011Y-76860079D01*
X105754625Y-76854100D01*
X105816420Y-76886705D01*
X105830318Y-76902745D01*
X105931752Y-77042358D01*
X105931756Y-77042363D01*
X106087636Y-77198243D01*
X106087641Y-77198247D01*
X106243192Y-77311260D01*
X106265978Y-77327815D01*
X106394375Y-77393237D01*
X106462393Y-77427895D01*
X106462396Y-77427896D01*
X106567221Y-77461955D01*
X106672049Y-77496015D01*
X106889778Y-77530500D01*
X106889779Y-77530500D01*
X107110221Y-77530500D01*
X107110222Y-77530500D01*
X107327951Y-77496015D01*
X107537606Y-77427895D01*
X107734022Y-77327815D01*
X107912365Y-77198242D01*
X108068242Y-77042365D01*
X108078804Y-77027826D01*
X108169682Y-76902745D01*
X108225011Y-76860079D01*
X108294625Y-76854100D01*
X108356420Y-76886705D01*
X108370318Y-76902745D01*
X108471752Y-77042358D01*
X108471756Y-77042363D01*
X108627636Y-77198243D01*
X108627641Y-77198247D01*
X108783192Y-77311260D01*
X108805978Y-77327815D01*
X108934375Y-77393237D01*
X109002393Y-77427895D01*
X109002396Y-77427896D01*
X109107221Y-77461955D01*
X109212049Y-77496015D01*
X109429778Y-77530500D01*
X109429779Y-77530500D01*
X109650221Y-77530500D01*
X109650222Y-77530500D01*
X109867951Y-77496015D01*
X110077606Y-77427895D01*
X110274022Y-77327815D01*
X110452365Y-77198242D01*
X110608242Y-77042365D01*
X110618804Y-77027826D01*
X110709682Y-76902745D01*
X110765011Y-76860079D01*
X110834625Y-76854100D01*
X110896420Y-76886705D01*
X110910318Y-76902745D01*
X111011752Y-77042358D01*
X111011756Y-77042363D01*
X111167636Y-77198243D01*
X111167641Y-77198247D01*
X111323192Y-77311260D01*
X111345978Y-77327815D01*
X111474375Y-77393237D01*
X111542393Y-77427895D01*
X111542396Y-77427896D01*
X111647221Y-77461955D01*
X111752049Y-77496015D01*
X111969778Y-77530500D01*
X111969779Y-77530500D01*
X112190221Y-77530500D01*
X112190222Y-77530500D01*
X112407951Y-77496015D01*
X112617606Y-77427895D01*
X112814022Y-77327815D01*
X112992365Y-77198242D01*
X113148242Y-77042365D01*
X113158804Y-77027826D01*
X113249682Y-76902745D01*
X113305011Y-76860079D01*
X113374625Y-76854100D01*
X113436420Y-76886705D01*
X113450318Y-76902745D01*
X113551752Y-77042358D01*
X113551756Y-77042363D01*
X113707636Y-77198243D01*
X113707641Y-77198247D01*
X113863192Y-77311260D01*
X113885978Y-77327815D01*
X114014375Y-77393237D01*
X114082393Y-77427895D01*
X114082396Y-77427896D01*
X114187221Y-77461955D01*
X114292049Y-77496015D01*
X114509778Y-77530500D01*
X114509779Y-77530500D01*
X114730221Y-77530500D01*
X114730222Y-77530500D01*
X114947951Y-77496015D01*
X115157606Y-77427895D01*
X115354022Y-77327815D01*
X115532365Y-77198242D01*
X115688242Y-77042365D01*
X115698804Y-77027826D01*
X115789682Y-76902745D01*
X115845011Y-76860079D01*
X115914625Y-76854100D01*
X115976420Y-76886705D01*
X115990318Y-76902745D01*
X116091752Y-77042358D01*
X116091756Y-77042363D01*
X116247636Y-77198243D01*
X116247641Y-77198247D01*
X116403192Y-77311260D01*
X116425978Y-77327815D01*
X116554375Y-77393237D01*
X116622393Y-77427895D01*
X116622396Y-77427896D01*
X116727221Y-77461955D01*
X116832049Y-77496015D01*
X117049778Y-77530500D01*
X117049779Y-77530500D01*
X117270221Y-77530500D01*
X117270222Y-77530500D01*
X117487951Y-77496015D01*
X117697606Y-77427895D01*
X117894022Y-77327815D01*
X118072365Y-77198242D01*
X118228242Y-77042365D01*
X118238804Y-77027826D01*
X118329682Y-76902745D01*
X118385011Y-76860079D01*
X118454625Y-76854100D01*
X118516420Y-76886705D01*
X118530318Y-76902745D01*
X118631752Y-77042358D01*
X118631756Y-77042363D01*
X118787636Y-77198243D01*
X118787641Y-77198247D01*
X118943192Y-77311260D01*
X118965978Y-77327815D01*
X119094375Y-77393237D01*
X119162393Y-77427895D01*
X119162396Y-77427896D01*
X119267221Y-77461955D01*
X119372049Y-77496015D01*
X119589778Y-77530500D01*
X119589779Y-77530500D01*
X119810221Y-77530500D01*
X119810222Y-77530500D01*
X120027951Y-77496015D01*
X120237606Y-77427895D01*
X120434022Y-77327815D01*
X120612365Y-77198242D01*
X120768242Y-77042365D01*
X120778804Y-77027826D01*
X120869682Y-76902745D01*
X120925011Y-76860079D01*
X120994625Y-76854100D01*
X121056420Y-76886705D01*
X121070318Y-76902745D01*
X121171752Y-77042358D01*
X121171756Y-77042363D01*
X121327636Y-77198243D01*
X121327641Y-77198247D01*
X121483192Y-77311260D01*
X121505978Y-77327815D01*
X121634375Y-77393237D01*
X121702393Y-77427895D01*
X121702396Y-77427896D01*
X121807221Y-77461955D01*
X121912049Y-77496015D01*
X122129778Y-77530500D01*
X122129779Y-77530500D01*
X122350221Y-77530500D01*
X122350222Y-77530500D01*
X122567951Y-77496015D01*
X122777606Y-77427895D01*
X122974022Y-77327815D01*
X123152365Y-77198242D01*
X123308242Y-77042365D01*
X123318804Y-77027826D01*
X123409682Y-76902745D01*
X123465011Y-76860079D01*
X123534625Y-76854100D01*
X123596420Y-76886705D01*
X123610318Y-76902745D01*
X123711752Y-77042358D01*
X123711756Y-77042363D01*
X123867636Y-77198243D01*
X123867641Y-77198247D01*
X124023192Y-77311260D01*
X124045978Y-77327815D01*
X124174375Y-77393237D01*
X124242393Y-77427895D01*
X124242396Y-77427896D01*
X124347221Y-77461955D01*
X124452049Y-77496015D01*
X124669778Y-77530500D01*
X124669779Y-77530500D01*
X124890221Y-77530500D01*
X124890222Y-77530500D01*
X125107951Y-77496015D01*
X125317606Y-77427895D01*
X125514022Y-77327815D01*
X125692365Y-77198242D01*
X125848242Y-77042365D01*
X125858804Y-77027826D01*
X125949682Y-76902745D01*
X126005011Y-76860079D01*
X126074625Y-76854100D01*
X126136420Y-76886705D01*
X126150318Y-76902745D01*
X126251752Y-77042358D01*
X126251756Y-77042363D01*
X126407636Y-77198243D01*
X126407641Y-77198247D01*
X126563192Y-77311260D01*
X126585978Y-77327815D01*
X126714375Y-77393237D01*
X126782393Y-77427895D01*
X126782396Y-77427896D01*
X126887221Y-77461955D01*
X126992049Y-77496015D01*
X127209778Y-77530500D01*
X127209779Y-77530500D01*
X127430221Y-77530500D01*
X127430222Y-77530500D01*
X127647951Y-77496015D01*
X127857606Y-77427895D01*
X128054022Y-77327815D01*
X128232365Y-77198242D01*
X128388242Y-77042365D01*
X128517815Y-76864022D01*
X128617895Y-76667606D01*
X128686015Y-76457951D01*
X128720500Y-76240222D01*
X128720500Y-76019778D01*
X130999500Y-76019778D01*
X130999500Y-76240221D01*
X131033985Y-76457952D01*
X131102103Y-76667603D01*
X131102104Y-76667606D01*
X131170122Y-76801096D01*
X131197129Y-76854100D01*
X131202187Y-76864025D01*
X131331752Y-77042358D01*
X131331756Y-77042363D01*
X131487636Y-77198243D01*
X131487641Y-77198247D01*
X131643192Y-77311260D01*
X131665978Y-77327815D01*
X131794375Y-77393237D01*
X131862393Y-77427895D01*
X131862396Y-77427896D01*
X131967221Y-77461955D01*
X132072049Y-77496015D01*
X132289778Y-77530500D01*
X132289779Y-77530500D01*
X132510221Y-77530500D01*
X132510222Y-77530500D01*
X132727951Y-77496015D01*
X132937606Y-77427895D01*
X133134022Y-77327815D01*
X133312365Y-77198242D01*
X133468242Y-77042365D01*
X133478804Y-77027826D01*
X133569682Y-76902745D01*
X133625011Y-76860079D01*
X133694625Y-76854100D01*
X133756420Y-76886705D01*
X133770318Y-76902745D01*
X133871752Y-77042358D01*
X133871756Y-77042363D01*
X134027636Y-77198243D01*
X134027641Y-77198247D01*
X134183192Y-77311260D01*
X134205978Y-77327815D01*
X134334375Y-77393237D01*
X134402393Y-77427895D01*
X134402396Y-77427896D01*
X134507221Y-77461955D01*
X134612049Y-77496015D01*
X134829778Y-77530500D01*
X134829779Y-77530500D01*
X135050221Y-77530500D01*
X135050222Y-77530500D01*
X135267951Y-77496015D01*
X135477606Y-77427895D01*
X135674022Y-77327815D01*
X135852365Y-77198242D01*
X136008242Y-77042365D01*
X136018804Y-77027826D01*
X136109682Y-76902745D01*
X136165011Y-76860079D01*
X136234625Y-76854100D01*
X136296420Y-76886705D01*
X136310318Y-76902745D01*
X136411752Y-77042358D01*
X136411756Y-77042363D01*
X136567636Y-77198243D01*
X136567641Y-77198247D01*
X136723192Y-77311260D01*
X136745978Y-77327815D01*
X136874375Y-77393237D01*
X136942393Y-77427895D01*
X136942396Y-77427896D01*
X137047221Y-77461955D01*
X137152049Y-77496015D01*
X137369778Y-77530500D01*
X137369779Y-77530500D01*
X137590221Y-77530500D01*
X137590222Y-77530500D01*
X137807951Y-77496015D01*
X138017606Y-77427895D01*
X138214022Y-77327815D01*
X138392365Y-77198242D01*
X138548242Y-77042365D01*
X138558804Y-77027826D01*
X138649682Y-76902745D01*
X138705011Y-76860079D01*
X138774625Y-76854100D01*
X138836420Y-76886705D01*
X138850318Y-76902745D01*
X138951752Y-77042358D01*
X138951756Y-77042363D01*
X139107636Y-77198243D01*
X139107641Y-77198247D01*
X139263192Y-77311260D01*
X139285978Y-77327815D01*
X139414375Y-77393237D01*
X139482393Y-77427895D01*
X139482396Y-77427896D01*
X139587221Y-77461955D01*
X139692049Y-77496015D01*
X139909778Y-77530500D01*
X139909779Y-77530500D01*
X140130221Y-77530500D01*
X140130222Y-77530500D01*
X140347951Y-77496015D01*
X140557606Y-77427895D01*
X140754022Y-77327815D01*
X140932365Y-77198242D01*
X141088242Y-77042365D01*
X141098804Y-77027826D01*
X141189682Y-76902745D01*
X141245011Y-76860079D01*
X141314625Y-76854100D01*
X141376420Y-76886705D01*
X141390318Y-76902745D01*
X141491752Y-77042358D01*
X141491756Y-77042363D01*
X141647636Y-77198243D01*
X141647641Y-77198247D01*
X141803192Y-77311260D01*
X141825978Y-77327815D01*
X141954375Y-77393237D01*
X142022393Y-77427895D01*
X142022396Y-77427896D01*
X142127221Y-77461955D01*
X142232049Y-77496015D01*
X142449778Y-77530500D01*
X142449779Y-77530500D01*
X142670221Y-77530500D01*
X142670222Y-77530500D01*
X142887951Y-77496015D01*
X143097606Y-77427895D01*
X143294022Y-77327815D01*
X143472365Y-77198242D01*
X143628242Y-77042365D01*
X143757815Y-76864022D01*
X143857895Y-76667606D01*
X143926015Y-76457951D01*
X143960500Y-76240222D01*
X143960500Y-76019778D01*
X143926015Y-75802049D01*
X143859146Y-75596243D01*
X143857896Y-75592396D01*
X143857895Y-75592393D01*
X143823237Y-75524375D01*
X143757815Y-75395978D01*
X143729681Y-75357254D01*
X143628247Y-75217641D01*
X143628243Y-75217636D01*
X143472363Y-75061756D01*
X143472358Y-75061752D01*
X143294025Y-74932187D01*
X143294024Y-74932186D01*
X143294022Y-74932185D01*
X143231096Y-74900122D01*
X143097606Y-74832104D01*
X143097603Y-74832103D01*
X142887952Y-74763985D01*
X142779086Y-74746742D01*
X142670222Y-74729500D01*
X142449778Y-74729500D01*
X142377201Y-74740995D01*
X142232047Y-74763985D01*
X142022396Y-74832103D01*
X142022393Y-74832104D01*
X141825974Y-74932187D01*
X141647641Y-75061752D01*
X141647636Y-75061756D01*
X141491756Y-75217636D01*
X141491752Y-75217641D01*
X141390318Y-75357254D01*
X141334988Y-75399920D01*
X141265375Y-75405899D01*
X141203580Y-75373293D01*
X141189682Y-75357254D01*
X141088247Y-75217641D01*
X141088243Y-75217636D01*
X140932363Y-75061756D01*
X140932358Y-75061752D01*
X140754025Y-74932187D01*
X140754024Y-74932186D01*
X140754022Y-74932185D01*
X140691096Y-74900122D01*
X140557606Y-74832104D01*
X140557603Y-74832103D01*
X140347952Y-74763985D01*
X140239086Y-74746742D01*
X140130222Y-74729500D01*
X139909778Y-74729500D01*
X139837201Y-74740995D01*
X139692047Y-74763985D01*
X139482396Y-74832103D01*
X139482393Y-74832104D01*
X139285974Y-74932187D01*
X139107641Y-75061752D01*
X139107636Y-75061756D01*
X138951756Y-75217636D01*
X138951752Y-75217641D01*
X138850318Y-75357254D01*
X138794988Y-75399920D01*
X138725375Y-75405899D01*
X138663580Y-75373293D01*
X138649682Y-75357254D01*
X138548247Y-75217641D01*
X138548243Y-75217636D01*
X138392363Y-75061756D01*
X138392358Y-75061752D01*
X138214025Y-74932187D01*
X138214024Y-74932186D01*
X138214022Y-74932185D01*
X138151096Y-74900122D01*
X138017606Y-74832104D01*
X138017603Y-74832103D01*
X137807952Y-74763985D01*
X137699086Y-74746742D01*
X137590222Y-74729500D01*
X137369778Y-74729500D01*
X137297201Y-74740995D01*
X137152047Y-74763985D01*
X136942396Y-74832103D01*
X136942393Y-74832104D01*
X136745974Y-74932187D01*
X136567641Y-75061752D01*
X136567636Y-75061756D01*
X136411756Y-75217636D01*
X136411752Y-75217641D01*
X136310318Y-75357254D01*
X136254988Y-75399920D01*
X136185375Y-75405899D01*
X136123580Y-75373293D01*
X136109682Y-75357254D01*
X136008247Y-75217641D01*
X136008243Y-75217636D01*
X135852363Y-75061756D01*
X135852358Y-75061752D01*
X135674025Y-74932187D01*
X135674024Y-74932186D01*
X135674022Y-74932185D01*
X135611096Y-74900122D01*
X135477606Y-74832104D01*
X135477603Y-74832103D01*
X135267952Y-74763985D01*
X135159086Y-74746742D01*
X135050222Y-74729500D01*
X134829778Y-74729500D01*
X134757201Y-74740995D01*
X134612047Y-74763985D01*
X134402396Y-74832103D01*
X134402393Y-74832104D01*
X134205974Y-74932187D01*
X134027641Y-75061752D01*
X134027636Y-75061756D01*
X133871756Y-75217636D01*
X133871752Y-75217641D01*
X133770318Y-75357254D01*
X133714988Y-75399920D01*
X133645375Y-75405899D01*
X133583580Y-75373293D01*
X133569682Y-75357254D01*
X133468247Y-75217641D01*
X133468243Y-75217636D01*
X133312363Y-75061756D01*
X133312358Y-75061752D01*
X133134025Y-74932187D01*
X133134024Y-74932186D01*
X133134022Y-74932185D01*
X133071096Y-74900122D01*
X132937606Y-74832104D01*
X132937603Y-74832103D01*
X132727952Y-74763985D01*
X132619086Y-74746742D01*
X132510222Y-74729500D01*
X132289778Y-74729500D01*
X132217201Y-74740995D01*
X132072047Y-74763985D01*
X131862396Y-74832103D01*
X131862393Y-74832104D01*
X131665974Y-74932187D01*
X131487641Y-75061752D01*
X131487636Y-75061756D01*
X131331756Y-75217636D01*
X131331752Y-75217641D01*
X131202187Y-75395974D01*
X131102104Y-75592393D01*
X131102103Y-75592396D01*
X131033985Y-75802047D01*
X130999500Y-76019778D01*
X128720500Y-76019778D01*
X128686015Y-75802049D01*
X128619146Y-75596243D01*
X128617896Y-75592396D01*
X128617895Y-75592393D01*
X128583237Y-75524375D01*
X128517815Y-75395978D01*
X128489681Y-75357254D01*
X128388247Y-75217641D01*
X128388243Y-75217636D01*
X128232363Y-75061756D01*
X128232358Y-75061752D01*
X128054025Y-74932187D01*
X128054024Y-74932186D01*
X128054022Y-74932185D01*
X127991096Y-74900122D01*
X127857606Y-74832104D01*
X127857603Y-74832103D01*
X127647952Y-74763985D01*
X127539086Y-74746742D01*
X127430222Y-74729500D01*
X127209778Y-74729500D01*
X127137201Y-74740995D01*
X126992047Y-74763985D01*
X126782396Y-74832103D01*
X126782393Y-74832104D01*
X126585974Y-74932187D01*
X126407641Y-75061752D01*
X126407636Y-75061756D01*
X126251756Y-75217636D01*
X126251752Y-75217641D01*
X126150318Y-75357254D01*
X126094988Y-75399920D01*
X126025375Y-75405899D01*
X125963580Y-75373293D01*
X125949682Y-75357254D01*
X125848247Y-75217641D01*
X125848243Y-75217636D01*
X125692363Y-75061756D01*
X125692358Y-75061752D01*
X125514025Y-74932187D01*
X125514024Y-74932186D01*
X125514022Y-74932185D01*
X125451096Y-74900122D01*
X125317606Y-74832104D01*
X125317603Y-74832103D01*
X125107952Y-74763985D01*
X124999086Y-74746742D01*
X124890222Y-74729500D01*
X124669778Y-74729500D01*
X124597201Y-74740995D01*
X124452047Y-74763985D01*
X124242396Y-74832103D01*
X124242393Y-74832104D01*
X124045974Y-74932187D01*
X123867641Y-75061752D01*
X123867636Y-75061756D01*
X123711756Y-75217636D01*
X123711752Y-75217641D01*
X123610318Y-75357254D01*
X123554988Y-75399920D01*
X123485375Y-75405899D01*
X123423580Y-75373293D01*
X123409682Y-75357254D01*
X123308247Y-75217641D01*
X123308243Y-75217636D01*
X123152363Y-75061756D01*
X123152358Y-75061752D01*
X122974025Y-74932187D01*
X122974024Y-74932186D01*
X122974022Y-74932185D01*
X122911096Y-74900122D01*
X122777606Y-74832104D01*
X122777603Y-74832103D01*
X122567952Y-74763985D01*
X122459086Y-74746742D01*
X122350222Y-74729500D01*
X122129778Y-74729500D01*
X122057201Y-74740995D01*
X121912047Y-74763985D01*
X121702396Y-74832103D01*
X121702393Y-74832104D01*
X121505974Y-74932187D01*
X121327641Y-75061752D01*
X121327636Y-75061756D01*
X121171756Y-75217636D01*
X121171752Y-75217641D01*
X121070318Y-75357254D01*
X121014988Y-75399920D01*
X120945375Y-75405899D01*
X120883580Y-75373293D01*
X120869682Y-75357254D01*
X120768247Y-75217641D01*
X120768243Y-75217636D01*
X120612363Y-75061756D01*
X120612358Y-75061752D01*
X120434025Y-74932187D01*
X120434024Y-74932186D01*
X120434022Y-74932185D01*
X120371096Y-74900122D01*
X120237606Y-74832104D01*
X120237603Y-74832103D01*
X120027952Y-74763985D01*
X119919086Y-74746742D01*
X119810222Y-74729500D01*
X119589778Y-74729500D01*
X119517201Y-74740995D01*
X119372047Y-74763985D01*
X119162396Y-74832103D01*
X119162393Y-74832104D01*
X118965974Y-74932187D01*
X118787641Y-75061752D01*
X118787636Y-75061756D01*
X118631756Y-75217636D01*
X118631752Y-75217641D01*
X118530318Y-75357254D01*
X118474988Y-75399920D01*
X118405375Y-75405899D01*
X118343580Y-75373293D01*
X118329682Y-75357254D01*
X118228247Y-75217641D01*
X118228243Y-75217636D01*
X118072363Y-75061756D01*
X118072358Y-75061752D01*
X117894025Y-74932187D01*
X117894024Y-74932186D01*
X117894022Y-74932185D01*
X117831096Y-74900122D01*
X117697606Y-74832104D01*
X117697603Y-74832103D01*
X117487952Y-74763985D01*
X117379086Y-74746742D01*
X117270222Y-74729500D01*
X117049778Y-74729500D01*
X116977201Y-74740995D01*
X116832047Y-74763985D01*
X116622396Y-74832103D01*
X116622393Y-74832104D01*
X116425974Y-74932187D01*
X116247641Y-75061752D01*
X116247636Y-75061756D01*
X116091756Y-75217636D01*
X116091752Y-75217641D01*
X115990318Y-75357254D01*
X115934988Y-75399920D01*
X115865375Y-75405899D01*
X115803580Y-75373293D01*
X115789682Y-75357254D01*
X115688247Y-75217641D01*
X115688243Y-75217636D01*
X115532363Y-75061756D01*
X115532358Y-75061752D01*
X115354025Y-74932187D01*
X115354024Y-74932186D01*
X115354022Y-74932185D01*
X115291096Y-74900122D01*
X115157606Y-74832104D01*
X115157603Y-74832103D01*
X114947952Y-74763985D01*
X114839086Y-74746742D01*
X114730222Y-74729500D01*
X114509778Y-74729500D01*
X114437201Y-74740995D01*
X114292047Y-74763985D01*
X114082396Y-74832103D01*
X114082393Y-74832104D01*
X113885974Y-74932187D01*
X113707641Y-75061752D01*
X113707636Y-75061756D01*
X113551756Y-75217636D01*
X113551752Y-75217641D01*
X113450318Y-75357254D01*
X113394988Y-75399920D01*
X113325375Y-75405899D01*
X113263580Y-75373293D01*
X113249682Y-75357254D01*
X113148247Y-75217641D01*
X113148243Y-75217636D01*
X112992363Y-75061756D01*
X112992358Y-75061752D01*
X112814025Y-74932187D01*
X112814024Y-74932186D01*
X112814022Y-74932185D01*
X112751096Y-74900122D01*
X112617606Y-74832104D01*
X112617603Y-74832103D01*
X112407952Y-74763985D01*
X112299086Y-74746742D01*
X112190222Y-74729500D01*
X111969778Y-74729500D01*
X111897201Y-74740995D01*
X111752047Y-74763985D01*
X111542396Y-74832103D01*
X111542393Y-74832104D01*
X111345974Y-74932187D01*
X111167641Y-75061752D01*
X111167636Y-75061756D01*
X111011756Y-75217636D01*
X111011752Y-75217641D01*
X110910318Y-75357254D01*
X110854988Y-75399920D01*
X110785375Y-75405899D01*
X110723580Y-75373293D01*
X110709682Y-75357254D01*
X110608247Y-75217641D01*
X110608243Y-75217636D01*
X110452363Y-75061756D01*
X110452358Y-75061752D01*
X110274025Y-74932187D01*
X110274024Y-74932186D01*
X110274022Y-74932185D01*
X110211096Y-74900122D01*
X110077606Y-74832104D01*
X110077603Y-74832103D01*
X109867952Y-74763985D01*
X109759086Y-74746742D01*
X109650222Y-74729500D01*
X109429778Y-74729500D01*
X109357201Y-74740995D01*
X109212047Y-74763985D01*
X109002396Y-74832103D01*
X109002393Y-74832104D01*
X108805974Y-74932187D01*
X108627641Y-75061752D01*
X108627636Y-75061756D01*
X108471756Y-75217636D01*
X108471752Y-75217641D01*
X108370318Y-75357254D01*
X108314988Y-75399920D01*
X108245375Y-75405899D01*
X108183580Y-75373293D01*
X108169682Y-75357254D01*
X108068247Y-75217641D01*
X108068243Y-75217636D01*
X107912363Y-75061756D01*
X107912358Y-75061752D01*
X107734025Y-74932187D01*
X107734024Y-74932186D01*
X107734022Y-74932185D01*
X107671096Y-74900122D01*
X107537606Y-74832104D01*
X107537603Y-74832103D01*
X107327952Y-74763985D01*
X107219086Y-74746742D01*
X107110222Y-74729500D01*
X106889778Y-74729500D01*
X106817201Y-74740995D01*
X106672047Y-74763985D01*
X106462396Y-74832103D01*
X106462393Y-74832104D01*
X106265974Y-74932187D01*
X106087641Y-75061752D01*
X106087636Y-75061756D01*
X105931756Y-75217636D01*
X105931752Y-75217641D01*
X105830318Y-75357254D01*
X105774988Y-75399920D01*
X105705375Y-75405899D01*
X105643580Y-75373293D01*
X105629682Y-75357254D01*
X105528247Y-75217641D01*
X105528243Y-75217636D01*
X105372363Y-75061756D01*
X105372358Y-75061752D01*
X105194025Y-74932187D01*
X105194024Y-74932186D01*
X105194022Y-74932185D01*
X105131096Y-74900122D01*
X104997606Y-74832104D01*
X104997603Y-74832103D01*
X104787952Y-74763985D01*
X104679086Y-74746742D01*
X104570222Y-74729500D01*
X104349778Y-74729500D01*
X104277201Y-74740995D01*
X104132047Y-74763985D01*
X103922396Y-74832103D01*
X103922393Y-74832104D01*
X103725974Y-74932187D01*
X103547641Y-75061752D01*
X103547636Y-75061756D01*
X103391756Y-75217636D01*
X103391752Y-75217641D01*
X103290318Y-75357254D01*
X103234988Y-75399920D01*
X103165375Y-75405899D01*
X103103580Y-75373293D01*
X103089682Y-75357254D01*
X102988247Y-75217641D01*
X102988243Y-75217636D01*
X102832363Y-75061756D01*
X102832358Y-75061752D01*
X102654025Y-74932187D01*
X102654024Y-74932186D01*
X102654022Y-74932185D01*
X102591096Y-74900122D01*
X102457606Y-74832104D01*
X102457603Y-74832103D01*
X102247952Y-74763985D01*
X102139086Y-74746742D01*
X102030222Y-74729500D01*
X101809778Y-74729500D01*
X101737201Y-74740995D01*
X101592047Y-74763985D01*
X101382396Y-74832103D01*
X101382393Y-74832104D01*
X101185974Y-74932187D01*
X101007641Y-75061752D01*
X101007636Y-75061756D01*
X100851756Y-75217636D01*
X100851752Y-75217641D01*
X100750318Y-75357254D01*
X100694988Y-75399920D01*
X100625375Y-75405899D01*
X100563580Y-75373293D01*
X100549682Y-75357254D01*
X100448247Y-75217641D01*
X100448243Y-75217636D01*
X100292363Y-75061756D01*
X100292358Y-75061752D01*
X100114025Y-74932187D01*
X100114024Y-74932186D01*
X100114022Y-74932185D01*
X100051096Y-74900122D01*
X99917606Y-74832104D01*
X99917603Y-74832103D01*
X99707952Y-74763985D01*
X99599086Y-74746742D01*
X99490222Y-74729500D01*
X99269778Y-74729500D01*
X99197201Y-74740995D01*
X99052047Y-74763985D01*
X98842396Y-74832103D01*
X98842393Y-74832104D01*
X98645974Y-74932187D01*
X98467641Y-75061752D01*
X98467636Y-75061756D01*
X98311756Y-75217636D01*
X98311752Y-75217641D01*
X98210318Y-75357254D01*
X98154988Y-75399920D01*
X98085375Y-75405899D01*
X98023580Y-75373293D01*
X98009682Y-75357254D01*
X97908247Y-75217641D01*
X97908243Y-75217636D01*
X97752363Y-75061756D01*
X97752358Y-75061752D01*
X97574025Y-74932187D01*
X97574024Y-74932186D01*
X97574022Y-74932185D01*
X97511096Y-74900122D01*
X97377606Y-74832104D01*
X97377603Y-74832103D01*
X97167952Y-74763985D01*
X97059086Y-74746742D01*
X96950222Y-74729500D01*
X96729778Y-74729500D01*
X96657201Y-74740995D01*
X96512047Y-74763985D01*
X96302396Y-74832103D01*
X96302393Y-74832104D01*
X96105974Y-74932187D01*
X95927641Y-75061752D01*
X95927636Y-75061756D01*
X95771756Y-75217636D01*
X95771752Y-75217641D01*
X95642187Y-75395974D01*
X95542104Y-75592393D01*
X95542103Y-75592396D01*
X95473985Y-75802047D01*
X95439500Y-76019778D01*
X68231829Y-76019778D01*
X68255050Y-75987817D01*
X68255347Y-75987236D01*
X68260602Y-75976919D01*
X68269933Y-75958610D01*
X68307198Y-75885471D01*
X68351557Y-75798412D01*
X68417246Y-75596243D01*
X68450500Y-75386287D01*
X68450500Y-74923713D01*
X68417246Y-74713757D01*
X68351557Y-74511588D01*
X68255051Y-74322184D01*
X68223564Y-74278846D01*
X68157526Y-74187951D01*
X68157525Y-74187948D01*
X68130109Y-74150214D01*
X68130105Y-74150209D01*
X68101049Y-74121153D01*
X85299500Y-74121153D01*
X85299500Y-74278846D01*
X85330261Y-74433489D01*
X85330264Y-74433501D01*
X85390602Y-74579172D01*
X85390609Y-74579185D01*
X85478210Y-74710288D01*
X85478213Y-74710292D01*
X85589707Y-74821786D01*
X85589711Y-74821789D01*
X85720814Y-74909390D01*
X85720827Y-74909397D01*
X85866498Y-74969735D01*
X85866503Y-74969737D01*
X86021153Y-75000499D01*
X86021156Y-75000500D01*
X86021158Y-75000500D01*
X86178844Y-75000500D01*
X86178845Y-75000499D01*
X86333497Y-74969737D01*
X86479179Y-74909394D01*
X86536044Y-74871397D01*
X86602721Y-74850520D01*
X86604935Y-74850500D01*
X89595396Y-74850500D01*
X89642844Y-74859937D01*
X89666503Y-74869737D01*
X89666508Y-74869738D01*
X89666511Y-74869739D01*
X89821153Y-74900499D01*
X89821156Y-74900500D01*
X89821158Y-74900500D01*
X89978844Y-74900500D01*
X89978845Y-74900499D01*
X90133497Y-74869737D01*
X90279179Y-74809394D01*
X90410289Y-74721789D01*
X90521789Y-74610289D01*
X90609394Y-74479179D01*
X90669737Y-74333497D01*
X90700500Y-74178842D01*
X90700500Y-74021158D01*
X90700500Y-74021155D01*
X90700499Y-74021153D01*
X90696271Y-73999896D01*
X90669737Y-73866503D01*
X90619487Y-73745187D01*
X90609397Y-73720827D01*
X90609390Y-73720814D01*
X90521789Y-73589711D01*
X90521786Y-73589707D01*
X90410292Y-73478213D01*
X90410288Y-73478210D01*
X90279185Y-73390609D01*
X90279172Y-73390602D01*
X90133501Y-73330264D01*
X90133489Y-73330261D01*
X89978845Y-73299500D01*
X89978842Y-73299500D01*
X89821158Y-73299500D01*
X89821155Y-73299500D01*
X89666511Y-73330260D01*
X89666506Y-73330262D01*
X89666504Y-73330262D01*
X89666503Y-73330263D01*
X89642844Y-73340062D01*
X89595396Y-73349500D01*
X86126080Y-73349500D01*
X85981092Y-73378340D01*
X85981086Y-73378342D01*
X85844503Y-73434917D01*
X85844493Y-73434922D01*
X85837092Y-73439867D01*
X85815666Y-73451319D01*
X85720819Y-73490606D01*
X85720818Y-73490607D01*
X85589715Y-73578207D01*
X85589707Y-73578213D01*
X85478213Y-73689707D01*
X85478210Y-73689711D01*
X85390609Y-73820814D01*
X85390602Y-73820827D01*
X85330264Y-73966498D01*
X85330261Y-73966510D01*
X85299500Y-74121153D01*
X68101049Y-74121153D01*
X67979786Y-73999890D01*
X67807820Y-73874951D01*
X67618414Y-73778444D01*
X67618413Y-73778443D01*
X67618412Y-73778443D01*
X67416243Y-73712754D01*
X67416241Y-73712753D01*
X67416240Y-73712753D01*
X67254957Y-73687208D01*
X67206287Y-73679500D01*
X66993713Y-73679500D01*
X66945042Y-73687208D01*
X66783760Y-73712753D01*
X66581585Y-73778444D01*
X66392179Y-73874951D01*
X66220215Y-73999889D01*
X66081398Y-74138706D01*
X66020075Y-74172190D01*
X65950383Y-74167206D01*
X65894450Y-74125334D01*
X65888178Y-74116120D01*
X65829603Y-74021155D01*
X65792712Y-73961344D01*
X65668656Y-73837288D01*
X65519334Y-73745186D01*
X65352797Y-73690001D01*
X65352795Y-73690000D01*
X65250010Y-73679500D01*
X63949998Y-73679500D01*
X63949981Y-73679501D01*
X63847203Y-73690000D01*
X63847200Y-73690001D01*
X63680668Y-73745185D01*
X63680663Y-73745187D01*
X63531342Y-73837289D01*
X63407289Y-73961342D01*
X63315187Y-74110663D01*
X63315185Y-74110668D01*
X63311711Y-74121153D01*
X63260001Y-74277203D01*
X63260001Y-74277204D01*
X63260000Y-74277204D01*
X63249500Y-74379983D01*
X55220500Y-74379983D01*
X55220500Y-69321158D01*
X63799500Y-69321158D01*
X63799500Y-69329001D01*
X63799500Y-69478846D01*
X63830261Y-69633489D01*
X63830264Y-69633501D01*
X63890602Y-69779172D01*
X63890609Y-69779185D01*
X63978210Y-69910288D01*
X63978213Y-69910292D01*
X64089707Y-70021786D01*
X64089711Y-70021789D01*
X64220814Y-70109390D01*
X64220827Y-70109397D01*
X64366498Y-70169735D01*
X64366503Y-70169737D01*
X64521153Y-70200499D01*
X64521156Y-70200500D01*
X64521158Y-70200500D01*
X64678844Y-70200500D01*
X64678845Y-70200499D01*
X64833497Y-70169737D01*
X64979179Y-70109394D01*
X65110289Y-70021789D01*
X65221789Y-69910289D01*
X65309394Y-69779179D01*
X65369737Y-69633497D01*
X65400500Y-69478842D01*
X65400500Y-69321158D01*
X65396031Y-69298690D01*
X65402260Y-69229099D01*
X65445123Y-69173922D01*
X65511013Y-69150678D01*
X65517649Y-69150500D01*
X68395396Y-69150500D01*
X68442844Y-69159937D01*
X68466503Y-69169737D01*
X68466508Y-69169738D01*
X68466511Y-69169739D01*
X68621153Y-69200499D01*
X68621156Y-69200500D01*
X68621158Y-69200500D01*
X68778844Y-69200500D01*
X68778845Y-69200499D01*
X68933497Y-69169737D01*
X69079179Y-69109394D01*
X69210289Y-69021789D01*
X69321789Y-68910289D01*
X69409394Y-68779179D01*
X69469737Y-68633497D01*
X69500500Y-68478842D01*
X69500500Y-68321158D01*
X69500500Y-68321155D01*
X69500499Y-68321153D01*
X69469738Y-68166510D01*
X69469737Y-68166503D01*
X69469735Y-68166498D01*
X69409397Y-68020827D01*
X69409390Y-68020814D01*
X69321789Y-67889711D01*
X69321786Y-67889707D01*
X69210292Y-67778213D01*
X69210288Y-67778210D01*
X69079185Y-67690609D01*
X69079172Y-67690602D01*
X68933501Y-67630264D01*
X68933489Y-67630261D01*
X68778845Y-67599500D01*
X68778842Y-67599500D01*
X68621158Y-67599500D01*
X68621155Y-67599500D01*
X68466511Y-67630260D01*
X68466506Y-67630262D01*
X68466504Y-67630262D01*
X68466503Y-67630263D01*
X68442844Y-67640062D01*
X68395396Y-67649500D01*
X64926080Y-67649500D01*
X64781092Y-67678340D01*
X64781082Y-67678343D01*
X64644511Y-67734912D01*
X64644498Y-67734919D01*
X64521584Y-67817048D01*
X64521580Y-67817051D01*
X64017050Y-68321580D01*
X64017044Y-68321588D01*
X63967812Y-68395268D01*
X63967813Y-68395269D01*
X63934921Y-68444496D01*
X63934914Y-68444508D01*
X63878342Y-68581086D01*
X63878340Y-68581092D01*
X63849500Y-68726079D01*
X63849500Y-69095396D01*
X63848049Y-69102687D01*
X63846408Y-69122916D01*
X63844079Y-69133147D01*
X63830263Y-69166503D01*
X63799500Y-69321158D01*
X55220500Y-69321158D01*
X55220500Y-62899983D01*
X70552151Y-62899983D01*
X70552151Y-64100001D01*
X70552152Y-64100018D01*
X70562651Y-64202796D01*
X70562652Y-64202799D01*
X70594603Y-64299219D01*
X70617837Y-64369334D01*
X70709939Y-64518656D01*
X70833995Y-64642712D01*
X70983317Y-64734814D01*
X71149854Y-64789999D01*
X71252642Y-64800500D01*
X72452659Y-64800499D01*
X72555448Y-64789999D01*
X72721985Y-64734814D01*
X72871307Y-64642712D01*
X72995363Y-64518656D01*
X73087465Y-64369334D01*
X73142650Y-64202797D01*
X73153151Y-64100009D01*
X73153150Y-63697648D01*
X77799500Y-63697648D01*
X77799500Y-63902351D01*
X77831522Y-64104534D01*
X77894781Y-64299223D01*
X77987715Y-64481613D01*
X78108028Y-64647213D01*
X78252786Y-64791971D01*
X78407749Y-64904556D01*
X78418390Y-64912287D01*
X78534607Y-64971503D01*
X78600776Y-65005218D01*
X78600778Y-65005218D01*
X78600781Y-65005220D01*
X78705137Y-65039127D01*
X78795465Y-65068477D01*
X78896557Y-65084488D01*
X78997648Y-65100500D01*
X78997649Y-65100500D01*
X79202351Y-65100500D01*
X79202352Y-65100500D01*
X79404534Y-65068477D01*
X79599219Y-65005220D01*
X79781610Y-64912287D01*
X79874590Y-64844732D01*
X79947213Y-64791971D01*
X79947215Y-64791968D01*
X79947219Y-64791966D01*
X80091966Y-64647219D01*
X80091968Y-64647215D01*
X80091971Y-64647213D01*
X80185371Y-64518657D01*
X80212287Y-64481610D01*
X80305220Y-64299219D01*
X80368477Y-64104534D01*
X80400500Y-63902352D01*
X80400500Y-63697648D01*
X80368477Y-63495466D01*
X80305220Y-63300781D01*
X80305218Y-63300778D01*
X80305218Y-63300776D01*
X80271503Y-63234607D01*
X80212287Y-63118390D01*
X80204556Y-63107749D01*
X80091971Y-62952786D01*
X79947213Y-62808028D01*
X79781613Y-62687715D01*
X79781612Y-62687714D01*
X79781610Y-62687713D01*
X79724653Y-62658691D01*
X79599223Y-62594781D01*
X79404534Y-62531522D01*
X79229995Y-62503878D01*
X79202352Y-62499500D01*
X78997648Y-62499500D01*
X78973329Y-62503351D01*
X78795465Y-62531522D01*
X78600776Y-62594781D01*
X78418386Y-62687715D01*
X78252786Y-62808028D01*
X78108028Y-62952786D01*
X77987715Y-63118386D01*
X77894781Y-63300776D01*
X77831522Y-63495465D01*
X77799500Y-63697648D01*
X73153150Y-63697648D01*
X73153150Y-63495466D01*
X73153150Y-62899998D01*
X73153149Y-62899981D01*
X73142650Y-62797203D01*
X73142649Y-62797200D01*
X73106369Y-62687715D01*
X73087465Y-62630666D01*
X72995363Y-62481344D01*
X72871307Y-62357288D01*
X72721985Y-62265186D01*
X72555448Y-62210001D01*
X72555446Y-62210000D01*
X72452661Y-62199500D01*
X71252649Y-62199500D01*
X71252632Y-62199501D01*
X71149854Y-62210000D01*
X71149851Y-62210001D01*
X70983319Y-62265185D01*
X70983314Y-62265187D01*
X70833993Y-62357289D01*
X70709940Y-62481342D01*
X70617838Y-62630663D01*
X70617837Y-62630666D01*
X70562652Y-62797203D01*
X70562652Y-62797204D01*
X70562651Y-62797204D01*
X70552151Y-62899983D01*
X55220500Y-62899983D01*
X55220500Y-41717648D01*
X61929500Y-41717648D01*
X61929500Y-41922351D01*
X61961522Y-42124534D01*
X62024781Y-42319223D01*
X62071856Y-42411611D01*
X62108078Y-42482701D01*
X62117715Y-42501613D01*
X62238028Y-42667213D01*
X62382786Y-42811971D01*
X62506411Y-42901788D01*
X62548390Y-42932287D01*
X62622881Y-42970242D01*
X62641080Y-42979515D01*
X62691876Y-43027490D01*
X62708671Y-43095311D01*
X62686134Y-43161446D01*
X62641080Y-43200485D01*
X62548386Y-43247715D01*
X62382786Y-43368028D01*
X62238028Y-43512786D01*
X62117715Y-43678386D01*
X62024781Y-43860776D01*
X61961522Y-44055465D01*
X61929500Y-44257648D01*
X61929500Y-44462351D01*
X61961522Y-44664534D01*
X62024781Y-44859223D01*
X62117715Y-45041613D01*
X62238028Y-45207213D01*
X62382786Y-45351971D01*
X62478012Y-45421155D01*
X62548390Y-45472287D01*
X62639840Y-45518883D01*
X62641080Y-45519515D01*
X62691876Y-45567490D01*
X62708671Y-45635311D01*
X62686134Y-45701446D01*
X62641080Y-45740485D01*
X62548386Y-45787715D01*
X62382786Y-45908028D01*
X62238028Y-46052786D01*
X62117715Y-46218386D01*
X62024781Y-46400776D01*
X61961522Y-46595465D01*
X61929500Y-46797648D01*
X61929500Y-47002351D01*
X61961522Y-47204534D01*
X62024781Y-47399223D01*
X62117715Y-47581613D01*
X62238028Y-47747213D01*
X62382786Y-47891971D01*
X62537749Y-48004556D01*
X62548390Y-48012287D01*
X62639840Y-48058883D01*
X62641080Y-48059515D01*
X62691876Y-48107490D01*
X62708671Y-48175311D01*
X62686134Y-48241446D01*
X62641080Y-48280485D01*
X62548386Y-48327715D01*
X62382786Y-48448028D01*
X62238028Y-48592786D01*
X62117715Y-48758386D01*
X62024781Y-48940776D01*
X61961522Y-49135465D01*
X61929500Y-49337648D01*
X61929500Y-49542351D01*
X61961522Y-49744534D01*
X62024781Y-49939223D01*
X62088691Y-50064653D01*
X62117314Y-50120827D01*
X62117715Y-50121613D01*
X62238028Y-50287213D01*
X62382786Y-50431971D01*
X62505537Y-50521153D01*
X62548390Y-50552287D01*
X62639840Y-50598883D01*
X62641080Y-50599515D01*
X62691876Y-50647490D01*
X62708671Y-50715311D01*
X62686134Y-50781446D01*
X62641080Y-50820485D01*
X62548386Y-50867715D01*
X62382786Y-50988028D01*
X62238028Y-51132786D01*
X62117715Y-51298386D01*
X62024781Y-51480776D01*
X61961522Y-51675465D01*
X61929500Y-51877648D01*
X61929500Y-52082351D01*
X61961522Y-52284534D01*
X62024781Y-52479223D01*
X62117715Y-52661613D01*
X62238028Y-52827213D01*
X62382786Y-52971971D01*
X62537749Y-53084556D01*
X62548390Y-53092287D01*
X62639840Y-53138883D01*
X62641080Y-53139515D01*
X62691876Y-53187490D01*
X62708671Y-53255311D01*
X62686134Y-53321446D01*
X62641080Y-53360485D01*
X62548386Y-53407715D01*
X62382786Y-53528028D01*
X62238028Y-53672786D01*
X62117715Y-53838386D01*
X62024781Y-54020776D01*
X61961522Y-54215465D01*
X61929500Y-54417648D01*
X61929500Y-54622351D01*
X61961522Y-54824534D01*
X62024781Y-55019223D01*
X62117715Y-55201613D01*
X62238028Y-55367213D01*
X62382786Y-55511971D01*
X62537749Y-55624556D01*
X62548390Y-55632287D01*
X62664607Y-55691503D01*
X62730776Y-55725218D01*
X62730778Y-55725218D01*
X62730781Y-55725220D01*
X62835137Y-55759127D01*
X62925465Y-55788477D01*
X63026557Y-55804488D01*
X63127648Y-55820500D01*
X63127649Y-55820500D01*
X63332351Y-55820500D01*
X63332352Y-55820500D01*
X63534534Y-55788477D01*
X63729219Y-55725220D01*
X63911610Y-55632287D01*
X64004590Y-55564732D01*
X64077213Y-55511971D01*
X64077215Y-55511968D01*
X64077219Y-55511966D01*
X64221966Y-55367219D01*
X64221968Y-55367215D01*
X64221971Y-55367213D01*
X64274732Y-55294590D01*
X64342287Y-55201610D01*
X64435220Y-55019219D01*
X64498477Y-54824534D01*
X64530500Y-54622352D01*
X64530500Y-54417648D01*
X64498477Y-54215466D01*
X64435220Y-54020781D01*
X64435218Y-54020778D01*
X64435218Y-54020776D01*
X64354496Y-53862352D01*
X64342287Y-53838390D01*
X64319919Y-53807603D01*
X64221971Y-53672786D01*
X64077213Y-53528028D01*
X63911614Y-53407715D01*
X63905006Y-53404348D01*
X63818917Y-53360483D01*
X63768123Y-53312511D01*
X63751328Y-53244690D01*
X63773865Y-53178555D01*
X63818917Y-53139516D01*
X63911610Y-53092287D01*
X63968280Y-53051114D01*
X64077213Y-52971971D01*
X64077215Y-52971968D01*
X64077219Y-52971966D01*
X64221966Y-52827219D01*
X64221968Y-52827215D01*
X64221971Y-52827213D01*
X64290860Y-52732394D01*
X64342287Y-52661610D01*
X64435220Y-52479219D01*
X64498477Y-52284534D01*
X64530500Y-52082352D01*
X64530500Y-51877648D01*
X64498477Y-51675466D01*
X64435220Y-51480781D01*
X64435218Y-51480778D01*
X64435218Y-51480776D01*
X64394314Y-51400499D01*
X64342287Y-51298390D01*
X64296188Y-51234939D01*
X64221971Y-51132786D01*
X64077213Y-50988028D01*
X63911614Y-50867715D01*
X63844457Y-50833497D01*
X63818917Y-50820483D01*
X63768123Y-50772511D01*
X63751328Y-50704690D01*
X63773865Y-50638555D01*
X63818917Y-50599516D01*
X63911610Y-50552287D01*
X63954463Y-50521153D01*
X64077213Y-50431971D01*
X64077215Y-50431968D01*
X64077219Y-50431966D01*
X64221966Y-50287219D01*
X64221968Y-50287215D01*
X64221971Y-50287213D01*
X64274732Y-50214590D01*
X64342287Y-50121610D01*
X64435220Y-49939219D01*
X64498477Y-49744534D01*
X64530500Y-49542352D01*
X64530500Y-49337648D01*
X64498477Y-49135466D01*
X64493720Y-49120827D01*
X64435218Y-48940776D01*
X64358703Y-48790609D01*
X64342287Y-48758390D01*
X64334556Y-48747749D01*
X64221971Y-48592786D01*
X64077213Y-48448028D01*
X63911614Y-48327715D01*
X63875649Y-48309390D01*
X63818917Y-48280483D01*
X63768123Y-48232511D01*
X63751328Y-48164690D01*
X63773865Y-48098555D01*
X63818917Y-48059516D01*
X63911610Y-48012287D01*
X63932770Y-47996913D01*
X64077213Y-47891971D01*
X64077215Y-47891968D01*
X64077219Y-47891966D01*
X64221966Y-47747219D01*
X64221968Y-47747215D01*
X64221971Y-47747213D01*
X64274732Y-47674590D01*
X64342287Y-47581610D01*
X64435220Y-47399219D01*
X64498477Y-47204534D01*
X64530500Y-47002352D01*
X64530500Y-46797648D01*
X64498477Y-46595466D01*
X64435220Y-46400781D01*
X64435218Y-46400778D01*
X64435218Y-46400776D01*
X64384124Y-46300500D01*
X64342287Y-46218390D01*
X64334556Y-46207749D01*
X64221971Y-46052786D01*
X64077213Y-45908028D01*
X63911614Y-45787715D01*
X63905006Y-45784348D01*
X63818917Y-45740483D01*
X63768123Y-45692511D01*
X63751328Y-45624690D01*
X63773865Y-45558555D01*
X63818917Y-45519516D01*
X63911610Y-45472287D01*
X63981988Y-45421155D01*
X64077213Y-45351971D01*
X64077215Y-45351968D01*
X64077219Y-45351966D01*
X64221966Y-45207219D01*
X64221968Y-45207215D01*
X64221971Y-45207213D01*
X64284742Y-45120814D01*
X64342287Y-45041610D01*
X64435220Y-44859219D01*
X64498477Y-44664534D01*
X64530500Y-44462352D01*
X64530500Y-44257648D01*
X64498477Y-44055466D01*
X64435220Y-43860781D01*
X64435218Y-43860778D01*
X64435218Y-43860776D01*
X64401503Y-43794607D01*
X64342287Y-43678390D01*
X64334556Y-43667749D01*
X64221971Y-43512786D01*
X64077213Y-43368028D01*
X63911614Y-43247715D01*
X63905006Y-43244348D01*
X63818917Y-43200483D01*
X63768123Y-43152511D01*
X63751328Y-43084690D01*
X63773865Y-43018555D01*
X63818917Y-42979516D01*
X63911610Y-42932287D01*
X63953589Y-42901788D01*
X64077213Y-42811971D01*
X64077215Y-42811968D01*
X64077219Y-42811966D01*
X64221966Y-42667219D01*
X64221968Y-42667215D01*
X64221971Y-42667213D01*
X64283374Y-42582697D01*
X64342287Y-42501610D01*
X64435220Y-42319219D01*
X64498477Y-42124534D01*
X64530500Y-41922352D01*
X64530500Y-41717648D01*
X79709500Y-41717648D01*
X79709500Y-41922351D01*
X79741522Y-42124534D01*
X79804781Y-42319223D01*
X79851856Y-42411611D01*
X79888078Y-42482701D01*
X79897715Y-42501613D01*
X80018028Y-42667213D01*
X80162786Y-42811971D01*
X80286411Y-42901788D01*
X80328390Y-42932287D01*
X80402881Y-42970242D01*
X80421080Y-42979515D01*
X80471876Y-43027490D01*
X80488671Y-43095311D01*
X80466134Y-43161446D01*
X80421080Y-43200485D01*
X80328386Y-43247715D01*
X80162786Y-43368028D01*
X80018028Y-43512786D01*
X79897715Y-43678386D01*
X79804781Y-43860776D01*
X79741522Y-44055465D01*
X79709500Y-44257648D01*
X79709500Y-44462351D01*
X79741522Y-44664534D01*
X79804781Y-44859223D01*
X79897715Y-45041613D01*
X80018028Y-45207213D01*
X80162786Y-45351971D01*
X80258012Y-45421155D01*
X80328390Y-45472287D01*
X80419840Y-45518883D01*
X80421080Y-45519515D01*
X80471876Y-45567490D01*
X80488671Y-45635311D01*
X80466134Y-45701446D01*
X80421080Y-45740485D01*
X80328386Y-45787715D01*
X80162786Y-45908028D01*
X80018028Y-46052786D01*
X79897715Y-46218386D01*
X79804781Y-46400776D01*
X79741522Y-46595465D01*
X79709500Y-46797648D01*
X79709500Y-47002351D01*
X79741522Y-47204534D01*
X79804781Y-47399223D01*
X79897715Y-47581613D01*
X80018028Y-47747213D01*
X80162786Y-47891971D01*
X80317749Y-48004556D01*
X80328390Y-48012287D01*
X80419840Y-48058883D01*
X80421080Y-48059515D01*
X80471876Y-48107490D01*
X80488671Y-48175311D01*
X80466134Y-48241446D01*
X80421080Y-48280485D01*
X80328386Y-48327715D01*
X80162786Y-48448028D01*
X80018028Y-48592786D01*
X79897715Y-48758386D01*
X79804781Y-48940776D01*
X79741522Y-49135465D01*
X79709500Y-49337648D01*
X79709500Y-49542351D01*
X79741522Y-49744534D01*
X79804781Y-49939223D01*
X79868691Y-50064653D01*
X79897314Y-50120827D01*
X79897715Y-50121613D01*
X80018028Y-50287213D01*
X80162786Y-50431971D01*
X80285537Y-50521153D01*
X80328390Y-50552287D01*
X80419840Y-50598883D01*
X80421080Y-50599515D01*
X80471876Y-50647490D01*
X80488671Y-50715311D01*
X80466134Y-50781446D01*
X80421080Y-50820485D01*
X80328386Y-50867715D01*
X80162786Y-50988028D01*
X80018028Y-51132786D01*
X79897715Y-51298386D01*
X79804781Y-51480776D01*
X79741522Y-51675465D01*
X79709500Y-51877648D01*
X79709500Y-52082351D01*
X79741522Y-52284534D01*
X79804781Y-52479223D01*
X79897715Y-52661613D01*
X80018028Y-52827213D01*
X80162786Y-52971971D01*
X80317749Y-53084556D01*
X80328390Y-53092287D01*
X80419840Y-53138883D01*
X80421080Y-53139515D01*
X80471876Y-53187490D01*
X80488671Y-53255311D01*
X80466134Y-53321446D01*
X80421080Y-53360485D01*
X80328386Y-53407715D01*
X80162786Y-53528028D01*
X80018028Y-53672786D01*
X79897715Y-53838386D01*
X79804781Y-54020776D01*
X79741522Y-54215465D01*
X79709500Y-54417648D01*
X79709500Y-54622351D01*
X79741522Y-54824534D01*
X79804781Y-55019223D01*
X79897715Y-55201613D01*
X80018028Y-55367213D01*
X80162786Y-55511971D01*
X80317749Y-55624556D01*
X80328390Y-55632287D01*
X80444607Y-55691503D01*
X80510776Y-55725218D01*
X80510778Y-55725218D01*
X80510781Y-55725220D01*
X80615137Y-55759127D01*
X80705465Y-55788477D01*
X80806557Y-55804488D01*
X80907648Y-55820500D01*
X80907649Y-55820500D01*
X81112351Y-55820500D01*
X81112352Y-55820500D01*
X81314534Y-55788477D01*
X81509219Y-55725220D01*
X81691610Y-55632287D01*
X81784590Y-55564732D01*
X81857213Y-55511971D01*
X81857215Y-55511968D01*
X81857219Y-55511966D01*
X82001966Y-55367219D01*
X82001968Y-55367215D01*
X82001971Y-55367213D01*
X82054732Y-55294590D01*
X82122287Y-55201610D01*
X82215220Y-55019219D01*
X82278477Y-54824534D01*
X82310500Y-54622352D01*
X82310500Y-54417648D01*
X82278477Y-54215466D01*
X82215220Y-54020781D01*
X82215218Y-54020778D01*
X82215218Y-54020776D01*
X82134496Y-53862352D01*
X82122287Y-53838390D01*
X82099919Y-53807603D01*
X82001971Y-53672786D01*
X81857213Y-53528028D01*
X81691614Y-53407715D01*
X81685006Y-53404348D01*
X81598917Y-53360483D01*
X81592549Y-53354469D01*
X81584245Y-53351683D01*
X81567540Y-53330849D01*
X81548123Y-53312511D01*
X81546016Y-53304006D01*
X81540537Y-53297172D01*
X81537747Y-53270613D01*
X81531328Y-53244690D01*
X81534154Y-53236396D01*
X81533239Y-53227684D01*
X81545251Y-53203832D01*
X81553865Y-53178555D01*
X81561550Y-53171468D01*
X81564666Y-53165282D01*
X81571982Y-53159778D01*
X97979500Y-53159778D01*
X97979500Y-53380222D01*
X97996742Y-53489086D01*
X98013985Y-53597952D01*
X98082103Y-53807603D01*
X98082104Y-53807606D01*
X98150122Y-53941096D01*
X98177129Y-53994100D01*
X98182187Y-54004025D01*
X98311752Y-54182358D01*
X98311756Y-54182363D01*
X98467636Y-54338243D01*
X98467641Y-54338247D01*
X98623192Y-54451260D01*
X98645978Y-54467815D01*
X98774375Y-54533237D01*
X98842393Y-54567895D01*
X98842396Y-54567896D01*
X98947221Y-54601955D01*
X99052049Y-54636015D01*
X99269778Y-54670500D01*
X99269779Y-54670500D01*
X99490221Y-54670500D01*
X99490222Y-54670500D01*
X99707951Y-54636015D01*
X99917606Y-54567895D01*
X100114022Y-54467815D01*
X100292365Y-54338242D01*
X100448242Y-54182365D01*
X100458804Y-54167826D01*
X100549682Y-54042745D01*
X100605011Y-54000079D01*
X100674625Y-53994100D01*
X100736420Y-54026705D01*
X100750318Y-54042745D01*
X100851752Y-54182358D01*
X100851756Y-54182363D01*
X101007636Y-54338243D01*
X101007641Y-54338247D01*
X101163192Y-54451260D01*
X101185978Y-54467815D01*
X101314375Y-54533237D01*
X101382393Y-54567895D01*
X101382396Y-54567896D01*
X101487221Y-54601955D01*
X101592049Y-54636015D01*
X101809778Y-54670500D01*
X101809779Y-54670500D01*
X102030221Y-54670500D01*
X102030222Y-54670500D01*
X102247951Y-54636015D01*
X102457606Y-54567895D01*
X102654022Y-54467815D01*
X102832365Y-54338242D01*
X102988242Y-54182365D01*
X102998804Y-54167826D01*
X103089682Y-54042745D01*
X103145011Y-54000079D01*
X103214625Y-53994100D01*
X103276420Y-54026705D01*
X103290318Y-54042745D01*
X103391752Y-54182358D01*
X103391756Y-54182363D01*
X103547636Y-54338243D01*
X103547641Y-54338247D01*
X103703192Y-54451260D01*
X103725978Y-54467815D01*
X103854375Y-54533237D01*
X103922393Y-54567895D01*
X103922396Y-54567896D01*
X104027221Y-54601955D01*
X104132049Y-54636015D01*
X104349778Y-54670500D01*
X104349779Y-54670500D01*
X104570221Y-54670500D01*
X104570222Y-54670500D01*
X104787951Y-54636015D01*
X104997606Y-54567895D01*
X105194022Y-54467815D01*
X105372365Y-54338242D01*
X105528242Y-54182365D01*
X105538804Y-54167826D01*
X105629682Y-54042745D01*
X105685011Y-54000079D01*
X105754625Y-53994100D01*
X105816420Y-54026705D01*
X105830318Y-54042745D01*
X105931752Y-54182358D01*
X105931756Y-54182363D01*
X106087636Y-54338243D01*
X106087641Y-54338247D01*
X106243192Y-54451260D01*
X106265978Y-54467815D01*
X106394375Y-54533237D01*
X106462393Y-54567895D01*
X106462396Y-54567896D01*
X106567221Y-54601955D01*
X106672049Y-54636015D01*
X106889778Y-54670500D01*
X106889779Y-54670500D01*
X107110221Y-54670500D01*
X107110222Y-54670500D01*
X107327951Y-54636015D01*
X107537606Y-54567895D01*
X107734022Y-54467815D01*
X107912365Y-54338242D01*
X108068242Y-54182365D01*
X108078804Y-54167826D01*
X108169682Y-54042745D01*
X108225011Y-54000079D01*
X108294625Y-53994100D01*
X108356420Y-54026705D01*
X108370318Y-54042745D01*
X108471752Y-54182358D01*
X108471756Y-54182363D01*
X108627636Y-54338243D01*
X108627641Y-54338247D01*
X108783192Y-54451260D01*
X108805978Y-54467815D01*
X108934375Y-54533237D01*
X109002393Y-54567895D01*
X109002396Y-54567896D01*
X109107221Y-54601955D01*
X109212049Y-54636015D01*
X109429778Y-54670500D01*
X109429779Y-54670500D01*
X109650221Y-54670500D01*
X109650222Y-54670500D01*
X109867951Y-54636015D01*
X110077606Y-54567895D01*
X110274022Y-54467815D01*
X110452365Y-54338242D01*
X110608242Y-54182365D01*
X110737815Y-54004022D01*
X110837895Y-53807606D01*
X110906015Y-53597951D01*
X110940500Y-53380222D01*
X110940500Y-53159778D01*
X113219500Y-53159778D01*
X113219500Y-53380222D01*
X113236742Y-53489086D01*
X113253985Y-53597952D01*
X113322103Y-53807603D01*
X113322104Y-53807606D01*
X113390122Y-53941096D01*
X113417129Y-53994100D01*
X113422187Y-54004025D01*
X113551752Y-54182358D01*
X113551756Y-54182363D01*
X113707636Y-54338243D01*
X113707641Y-54338247D01*
X113863192Y-54451260D01*
X113885978Y-54467815D01*
X114014375Y-54533237D01*
X114082393Y-54567895D01*
X114082396Y-54567896D01*
X114187221Y-54601955D01*
X114292049Y-54636015D01*
X114509778Y-54670500D01*
X114509779Y-54670500D01*
X114730221Y-54670500D01*
X114730222Y-54670500D01*
X114947951Y-54636015D01*
X115157606Y-54567895D01*
X115354022Y-54467815D01*
X115532365Y-54338242D01*
X115688242Y-54182365D01*
X115698804Y-54167826D01*
X115789682Y-54042745D01*
X115845011Y-54000079D01*
X115914625Y-53994100D01*
X115976420Y-54026705D01*
X115990318Y-54042745D01*
X116091752Y-54182358D01*
X116091756Y-54182363D01*
X116247636Y-54338243D01*
X116247641Y-54338247D01*
X116403192Y-54451260D01*
X116425978Y-54467815D01*
X116554375Y-54533237D01*
X116622393Y-54567895D01*
X116622396Y-54567896D01*
X116727221Y-54601955D01*
X116832049Y-54636015D01*
X117049778Y-54670500D01*
X117049779Y-54670500D01*
X117270221Y-54670500D01*
X117270222Y-54670500D01*
X117487951Y-54636015D01*
X117697606Y-54567895D01*
X117894022Y-54467815D01*
X118072365Y-54338242D01*
X118228242Y-54182365D01*
X118238804Y-54167826D01*
X118329682Y-54042745D01*
X118385011Y-54000079D01*
X118454625Y-53994100D01*
X118516420Y-54026705D01*
X118530318Y-54042745D01*
X118631752Y-54182358D01*
X118631756Y-54182363D01*
X118787636Y-54338243D01*
X118787641Y-54338247D01*
X118943192Y-54451260D01*
X118965978Y-54467815D01*
X119094375Y-54533237D01*
X119162393Y-54567895D01*
X119162396Y-54567896D01*
X119267221Y-54601955D01*
X119372049Y-54636015D01*
X119589778Y-54670500D01*
X119589779Y-54670500D01*
X119810221Y-54670500D01*
X119810222Y-54670500D01*
X120027951Y-54636015D01*
X120237606Y-54567895D01*
X120434022Y-54467815D01*
X120612365Y-54338242D01*
X120768242Y-54182365D01*
X120778804Y-54167826D01*
X120869682Y-54042745D01*
X120925011Y-54000079D01*
X120994625Y-53994100D01*
X121056420Y-54026705D01*
X121070318Y-54042745D01*
X121171752Y-54182358D01*
X121171756Y-54182363D01*
X121327636Y-54338243D01*
X121327641Y-54338247D01*
X121483192Y-54451260D01*
X121505978Y-54467815D01*
X121634375Y-54533237D01*
X121702393Y-54567895D01*
X121702396Y-54567896D01*
X121807221Y-54601955D01*
X121912049Y-54636015D01*
X122129778Y-54670500D01*
X122129779Y-54670500D01*
X122350221Y-54670500D01*
X122350222Y-54670500D01*
X122567951Y-54636015D01*
X122777606Y-54567895D01*
X122974022Y-54467815D01*
X123152365Y-54338242D01*
X123308242Y-54182365D01*
X123318804Y-54167826D01*
X123409682Y-54042745D01*
X123465011Y-54000079D01*
X123534625Y-53994100D01*
X123596420Y-54026705D01*
X123610318Y-54042745D01*
X123711752Y-54182358D01*
X123711756Y-54182363D01*
X123867636Y-54338243D01*
X123867641Y-54338247D01*
X124023192Y-54451260D01*
X124045978Y-54467815D01*
X124174375Y-54533237D01*
X124242393Y-54567895D01*
X124242396Y-54567896D01*
X124347221Y-54601955D01*
X124452049Y-54636015D01*
X124669778Y-54670500D01*
X124669779Y-54670500D01*
X124890221Y-54670500D01*
X124890222Y-54670500D01*
X125107951Y-54636015D01*
X125317606Y-54567895D01*
X125514022Y-54467815D01*
X125692365Y-54338242D01*
X125848242Y-54182365D01*
X125858804Y-54167826D01*
X125949682Y-54042745D01*
X126005011Y-54000079D01*
X126074625Y-53994100D01*
X126136420Y-54026705D01*
X126150318Y-54042745D01*
X126251752Y-54182358D01*
X126251756Y-54182363D01*
X126407636Y-54338243D01*
X126407641Y-54338247D01*
X126563192Y-54451260D01*
X126585978Y-54467815D01*
X126714375Y-54533237D01*
X126782393Y-54567895D01*
X126782396Y-54567896D01*
X126887221Y-54601955D01*
X126992049Y-54636015D01*
X127209778Y-54670500D01*
X127209779Y-54670500D01*
X127430221Y-54670500D01*
X127430222Y-54670500D01*
X127647951Y-54636015D01*
X127857606Y-54567895D01*
X128054022Y-54467815D01*
X128232365Y-54338242D01*
X128388242Y-54182365D01*
X128398804Y-54167826D01*
X128489682Y-54042745D01*
X128545011Y-54000079D01*
X128614625Y-53994100D01*
X128676420Y-54026705D01*
X128690318Y-54042745D01*
X128791752Y-54182358D01*
X128791756Y-54182363D01*
X128947636Y-54338243D01*
X128947641Y-54338247D01*
X129103192Y-54451260D01*
X129125978Y-54467815D01*
X129254375Y-54533237D01*
X129322393Y-54567895D01*
X129322396Y-54567896D01*
X129427221Y-54601955D01*
X129532049Y-54636015D01*
X129749778Y-54670500D01*
X129749779Y-54670500D01*
X129970221Y-54670500D01*
X129970222Y-54670500D01*
X130187951Y-54636015D01*
X130397606Y-54567895D01*
X130594022Y-54467815D01*
X130772365Y-54338242D01*
X130928242Y-54182365D01*
X130938804Y-54167826D01*
X131029682Y-54042745D01*
X131085011Y-54000079D01*
X131154625Y-53994100D01*
X131216420Y-54026705D01*
X131230318Y-54042745D01*
X131331752Y-54182358D01*
X131331756Y-54182363D01*
X131487636Y-54338243D01*
X131487641Y-54338247D01*
X131643192Y-54451260D01*
X131665978Y-54467815D01*
X131794375Y-54533237D01*
X131862393Y-54567895D01*
X131862396Y-54567896D01*
X131967221Y-54601955D01*
X132072049Y-54636015D01*
X132289778Y-54670500D01*
X132289779Y-54670500D01*
X132510221Y-54670500D01*
X132510222Y-54670500D01*
X132727951Y-54636015D01*
X132937606Y-54567895D01*
X133134022Y-54467815D01*
X133312365Y-54338242D01*
X133468242Y-54182365D01*
X133478804Y-54167826D01*
X133569682Y-54042745D01*
X133625011Y-54000079D01*
X133694625Y-53994100D01*
X133756420Y-54026705D01*
X133770318Y-54042745D01*
X133871752Y-54182358D01*
X133871756Y-54182363D01*
X134027636Y-54338243D01*
X134027641Y-54338247D01*
X134183192Y-54451260D01*
X134205978Y-54467815D01*
X134334375Y-54533237D01*
X134402393Y-54567895D01*
X134402396Y-54567896D01*
X134507221Y-54601955D01*
X134612049Y-54636015D01*
X134829778Y-54670500D01*
X134829779Y-54670500D01*
X135050221Y-54670500D01*
X135050222Y-54670500D01*
X135267951Y-54636015D01*
X135477606Y-54567895D01*
X135674022Y-54467815D01*
X135852365Y-54338242D01*
X136008242Y-54182365D01*
X136018804Y-54167826D01*
X136109682Y-54042745D01*
X136165011Y-54000079D01*
X136234625Y-53994100D01*
X136296420Y-54026705D01*
X136310318Y-54042745D01*
X136411752Y-54182358D01*
X136411756Y-54182363D01*
X136567636Y-54338243D01*
X136567641Y-54338247D01*
X136723192Y-54451260D01*
X136745978Y-54467815D01*
X136874375Y-54533237D01*
X136942393Y-54567895D01*
X136942396Y-54567896D01*
X137047221Y-54601955D01*
X137152049Y-54636015D01*
X137369778Y-54670500D01*
X137369779Y-54670500D01*
X137590221Y-54670500D01*
X137590222Y-54670500D01*
X137807951Y-54636015D01*
X138017606Y-54567895D01*
X138214022Y-54467815D01*
X138392365Y-54338242D01*
X138548242Y-54182365D01*
X138558804Y-54167826D01*
X138649682Y-54042745D01*
X138705011Y-54000079D01*
X138774625Y-53994100D01*
X138836420Y-54026705D01*
X138850318Y-54042745D01*
X138951752Y-54182358D01*
X138951756Y-54182363D01*
X139107636Y-54338243D01*
X139107641Y-54338247D01*
X139263192Y-54451260D01*
X139285978Y-54467815D01*
X139414375Y-54533237D01*
X139482393Y-54567895D01*
X139482396Y-54567896D01*
X139587221Y-54601955D01*
X139692049Y-54636015D01*
X139909778Y-54670500D01*
X139909779Y-54670500D01*
X140130221Y-54670500D01*
X140130222Y-54670500D01*
X140347951Y-54636015D01*
X140557606Y-54567895D01*
X140754022Y-54467815D01*
X140932365Y-54338242D01*
X141088242Y-54182365D01*
X141098804Y-54167826D01*
X141189682Y-54042745D01*
X141245011Y-54000079D01*
X141314625Y-53994100D01*
X141376420Y-54026705D01*
X141390318Y-54042745D01*
X141491752Y-54182358D01*
X141491756Y-54182363D01*
X141647636Y-54338243D01*
X141647641Y-54338247D01*
X141803192Y-54451260D01*
X141825978Y-54467815D01*
X141954375Y-54533237D01*
X142022393Y-54567895D01*
X142022396Y-54567896D01*
X142127221Y-54601955D01*
X142232049Y-54636015D01*
X142449778Y-54670500D01*
X142449779Y-54670500D01*
X142670221Y-54670500D01*
X142670222Y-54670500D01*
X142887951Y-54636015D01*
X143097606Y-54567895D01*
X143294022Y-54467815D01*
X143472365Y-54338242D01*
X143628242Y-54182365D01*
X143757815Y-54004022D01*
X143857895Y-53807606D01*
X143926015Y-53597951D01*
X143960500Y-53380222D01*
X143960500Y-53159778D01*
X143926015Y-52942049D01*
X143857895Y-52732394D01*
X143857895Y-52732393D01*
X143821828Y-52661610D01*
X143757815Y-52535978D01*
X143716580Y-52479223D01*
X143628247Y-52357641D01*
X143628243Y-52357636D01*
X143472363Y-52201756D01*
X143472358Y-52201752D01*
X143294025Y-52072187D01*
X143294024Y-52072186D01*
X143294022Y-52072185D01*
X143231096Y-52040122D01*
X143097606Y-51972104D01*
X143097603Y-51972103D01*
X142887952Y-51903985D01*
X142721666Y-51877648D01*
X142670222Y-51869500D01*
X142449778Y-51869500D01*
X142398334Y-51877648D01*
X142232047Y-51903985D01*
X142022396Y-51972103D01*
X142022393Y-51972104D01*
X141825974Y-52072187D01*
X141647641Y-52201752D01*
X141647636Y-52201756D01*
X141491756Y-52357636D01*
X141491752Y-52357641D01*
X141390318Y-52497254D01*
X141334988Y-52539920D01*
X141265375Y-52545899D01*
X141203580Y-52513293D01*
X141189682Y-52497254D01*
X141088247Y-52357641D01*
X141088243Y-52357636D01*
X140932363Y-52201756D01*
X140932358Y-52201752D01*
X140754025Y-52072187D01*
X140754024Y-52072186D01*
X140754022Y-52072185D01*
X140691096Y-52040122D01*
X140557606Y-51972104D01*
X140557603Y-51972103D01*
X140347952Y-51903985D01*
X140181666Y-51877648D01*
X140130222Y-51869500D01*
X139909778Y-51869500D01*
X139858334Y-51877648D01*
X139692047Y-51903985D01*
X139482396Y-51972103D01*
X139482393Y-51972104D01*
X139285974Y-52072187D01*
X139107641Y-52201752D01*
X139107636Y-52201756D01*
X138951756Y-52357636D01*
X138951752Y-52357641D01*
X138850318Y-52497254D01*
X138794988Y-52539920D01*
X138725375Y-52545899D01*
X138663580Y-52513293D01*
X138649682Y-52497254D01*
X138548247Y-52357641D01*
X138548243Y-52357636D01*
X138392363Y-52201756D01*
X138392358Y-52201752D01*
X138214025Y-52072187D01*
X138214024Y-52072186D01*
X138214022Y-52072185D01*
X138151096Y-52040122D01*
X138017606Y-51972104D01*
X138017603Y-51972103D01*
X137807952Y-51903985D01*
X137641666Y-51877648D01*
X137590222Y-51869500D01*
X137369778Y-51869500D01*
X137318334Y-51877648D01*
X137152047Y-51903985D01*
X136942396Y-51972103D01*
X136942393Y-51972104D01*
X136745974Y-52072187D01*
X136567641Y-52201752D01*
X136567636Y-52201756D01*
X136411756Y-52357636D01*
X136411752Y-52357641D01*
X136310318Y-52497254D01*
X136254988Y-52539920D01*
X136185375Y-52545899D01*
X136123580Y-52513293D01*
X136109682Y-52497254D01*
X136008247Y-52357641D01*
X136008243Y-52357636D01*
X135852363Y-52201756D01*
X135852358Y-52201752D01*
X135674025Y-52072187D01*
X135674024Y-52072186D01*
X135674022Y-52072185D01*
X135611096Y-52040122D01*
X135477606Y-51972104D01*
X135477603Y-51972103D01*
X135267952Y-51903985D01*
X135101666Y-51877648D01*
X135050222Y-51869500D01*
X134829778Y-51869500D01*
X134778334Y-51877648D01*
X134612047Y-51903985D01*
X134402396Y-51972103D01*
X134402393Y-51972104D01*
X134205974Y-52072187D01*
X134027641Y-52201752D01*
X134027636Y-52201756D01*
X133871756Y-52357636D01*
X133871752Y-52357641D01*
X133770318Y-52497254D01*
X133714988Y-52539920D01*
X133645375Y-52545899D01*
X133583580Y-52513293D01*
X133569682Y-52497254D01*
X133468247Y-52357641D01*
X133468243Y-52357636D01*
X133312363Y-52201756D01*
X133312358Y-52201752D01*
X133134025Y-52072187D01*
X133134024Y-52072186D01*
X133134022Y-52072185D01*
X133071096Y-52040122D01*
X132937606Y-51972104D01*
X132937603Y-51972103D01*
X132727952Y-51903985D01*
X132561666Y-51877648D01*
X132510222Y-51869500D01*
X132289778Y-51869500D01*
X132238334Y-51877648D01*
X132072047Y-51903985D01*
X131862396Y-51972103D01*
X131862393Y-51972104D01*
X131665974Y-52072187D01*
X131487641Y-52201752D01*
X131487636Y-52201756D01*
X131331756Y-52357636D01*
X131331752Y-52357641D01*
X131230318Y-52497254D01*
X131174988Y-52539920D01*
X131105375Y-52545899D01*
X131043580Y-52513293D01*
X131029682Y-52497254D01*
X130928247Y-52357641D01*
X130928243Y-52357636D01*
X130772363Y-52201756D01*
X130772358Y-52201752D01*
X130594025Y-52072187D01*
X130594024Y-52072186D01*
X130594022Y-52072185D01*
X130531096Y-52040122D01*
X130397606Y-51972104D01*
X130397603Y-51972103D01*
X130187952Y-51903985D01*
X130021666Y-51877648D01*
X129970222Y-51869500D01*
X129749778Y-51869500D01*
X129698334Y-51877648D01*
X129532047Y-51903985D01*
X129322396Y-51972103D01*
X129322393Y-51972104D01*
X129125974Y-52072187D01*
X128947641Y-52201752D01*
X128947636Y-52201756D01*
X128791756Y-52357636D01*
X128791752Y-52357641D01*
X128690318Y-52497254D01*
X128634988Y-52539920D01*
X128565375Y-52545899D01*
X128503580Y-52513293D01*
X128489682Y-52497254D01*
X128388247Y-52357641D01*
X128388243Y-52357636D01*
X128232363Y-52201756D01*
X128232358Y-52201752D01*
X128054025Y-52072187D01*
X128054024Y-52072186D01*
X128054022Y-52072185D01*
X127991096Y-52040122D01*
X127857606Y-51972104D01*
X127857603Y-51972103D01*
X127647952Y-51903985D01*
X127481666Y-51877648D01*
X127430222Y-51869500D01*
X127209778Y-51869500D01*
X127158334Y-51877648D01*
X126992047Y-51903985D01*
X126782396Y-51972103D01*
X126782393Y-51972104D01*
X126585974Y-52072187D01*
X126407641Y-52201752D01*
X126407636Y-52201756D01*
X126251756Y-52357636D01*
X126251752Y-52357641D01*
X126150318Y-52497254D01*
X126094988Y-52539920D01*
X126025375Y-52545899D01*
X125963580Y-52513293D01*
X125949682Y-52497254D01*
X125848247Y-52357641D01*
X125848243Y-52357636D01*
X125692363Y-52201756D01*
X125692358Y-52201752D01*
X125514025Y-52072187D01*
X125514024Y-52072186D01*
X125514022Y-52072185D01*
X125451096Y-52040122D01*
X125317606Y-51972104D01*
X125317603Y-51972103D01*
X125107952Y-51903985D01*
X124941666Y-51877648D01*
X124890222Y-51869500D01*
X124669778Y-51869500D01*
X124618334Y-51877648D01*
X124452047Y-51903985D01*
X124242396Y-51972103D01*
X124242393Y-51972104D01*
X124045974Y-52072187D01*
X123867641Y-52201752D01*
X123867636Y-52201756D01*
X123711756Y-52357636D01*
X123711752Y-52357641D01*
X123610318Y-52497254D01*
X123554988Y-52539920D01*
X123485375Y-52545899D01*
X123423580Y-52513293D01*
X123409682Y-52497254D01*
X123308247Y-52357641D01*
X123308243Y-52357636D01*
X123152363Y-52201756D01*
X123152358Y-52201752D01*
X122974025Y-52072187D01*
X122974024Y-52072186D01*
X122974022Y-52072185D01*
X122911096Y-52040122D01*
X122777606Y-51972104D01*
X122777603Y-51972103D01*
X122567952Y-51903985D01*
X122401666Y-51877648D01*
X122350222Y-51869500D01*
X122129778Y-51869500D01*
X122078334Y-51877648D01*
X121912047Y-51903985D01*
X121702396Y-51972103D01*
X121702393Y-51972104D01*
X121505974Y-52072187D01*
X121327641Y-52201752D01*
X121327636Y-52201756D01*
X121171756Y-52357636D01*
X121171752Y-52357641D01*
X121070318Y-52497254D01*
X121014988Y-52539920D01*
X120945375Y-52545899D01*
X120883580Y-52513293D01*
X120869682Y-52497254D01*
X120768247Y-52357641D01*
X120768243Y-52357636D01*
X120612363Y-52201756D01*
X120612358Y-52201752D01*
X120434025Y-52072187D01*
X120434024Y-52072186D01*
X120434022Y-52072185D01*
X120371096Y-52040122D01*
X120237606Y-51972104D01*
X120237603Y-51972103D01*
X120027952Y-51903985D01*
X119861666Y-51877648D01*
X119810222Y-51869500D01*
X119589778Y-51869500D01*
X119538334Y-51877648D01*
X119372047Y-51903985D01*
X119162396Y-51972103D01*
X119162393Y-51972104D01*
X118965974Y-52072187D01*
X118787641Y-52201752D01*
X118787636Y-52201756D01*
X118631756Y-52357636D01*
X118631752Y-52357641D01*
X118530318Y-52497254D01*
X118474988Y-52539920D01*
X118405375Y-52545899D01*
X118343580Y-52513293D01*
X118329682Y-52497254D01*
X118228247Y-52357641D01*
X118228243Y-52357636D01*
X118072363Y-52201756D01*
X118072358Y-52201752D01*
X117894025Y-52072187D01*
X117894024Y-52072186D01*
X117894022Y-52072185D01*
X117831096Y-52040122D01*
X117697606Y-51972104D01*
X117697603Y-51972103D01*
X117487952Y-51903985D01*
X117321666Y-51877648D01*
X117270222Y-51869500D01*
X117049778Y-51869500D01*
X116998334Y-51877648D01*
X116832047Y-51903985D01*
X116622396Y-51972103D01*
X116622393Y-51972104D01*
X116425974Y-52072187D01*
X116247641Y-52201752D01*
X116247636Y-52201756D01*
X116091756Y-52357636D01*
X116091752Y-52357641D01*
X115990318Y-52497254D01*
X115934988Y-52539920D01*
X115865375Y-52545899D01*
X115803580Y-52513293D01*
X115789682Y-52497254D01*
X115688247Y-52357641D01*
X115688243Y-52357636D01*
X115532363Y-52201756D01*
X115532358Y-52201752D01*
X115354025Y-52072187D01*
X115354024Y-52072186D01*
X115354022Y-52072185D01*
X115291096Y-52040122D01*
X115157606Y-51972104D01*
X115157603Y-51972103D01*
X114947952Y-51903985D01*
X114781666Y-51877648D01*
X114730222Y-51869500D01*
X114509778Y-51869500D01*
X114458334Y-51877648D01*
X114292047Y-51903985D01*
X114082396Y-51972103D01*
X114082393Y-51972104D01*
X113885974Y-52072187D01*
X113707641Y-52201752D01*
X113707636Y-52201756D01*
X113551756Y-52357636D01*
X113551752Y-52357641D01*
X113422187Y-52535974D01*
X113322104Y-52732393D01*
X113322103Y-52732396D01*
X113253985Y-52942047D01*
X113222709Y-53139515D01*
X113219500Y-53159778D01*
X110940500Y-53159778D01*
X110906015Y-52942049D01*
X110837895Y-52732394D01*
X110837895Y-52732393D01*
X110801828Y-52661610D01*
X110737815Y-52535978D01*
X110696580Y-52479223D01*
X110608247Y-52357641D01*
X110608243Y-52357636D01*
X110452363Y-52201756D01*
X110452358Y-52201752D01*
X110274025Y-52072187D01*
X110274024Y-52072186D01*
X110274022Y-52072185D01*
X110211096Y-52040122D01*
X110077606Y-51972104D01*
X110077603Y-51972103D01*
X109867952Y-51903985D01*
X109701666Y-51877648D01*
X109650222Y-51869500D01*
X109429778Y-51869500D01*
X109378334Y-51877648D01*
X109212047Y-51903985D01*
X109002396Y-51972103D01*
X109002393Y-51972104D01*
X108805974Y-52072187D01*
X108627641Y-52201752D01*
X108627636Y-52201756D01*
X108471756Y-52357636D01*
X108471752Y-52357641D01*
X108370318Y-52497254D01*
X108314988Y-52539920D01*
X108245375Y-52545899D01*
X108183580Y-52513293D01*
X108169682Y-52497254D01*
X108068247Y-52357641D01*
X108068243Y-52357636D01*
X107912363Y-52201756D01*
X107912358Y-52201752D01*
X107734025Y-52072187D01*
X107734024Y-52072186D01*
X107734022Y-52072185D01*
X107671096Y-52040122D01*
X107537606Y-51972104D01*
X107537603Y-51972103D01*
X107327952Y-51903985D01*
X107161666Y-51877648D01*
X107110222Y-51869500D01*
X106889778Y-51869500D01*
X106838334Y-51877648D01*
X106672047Y-51903985D01*
X106462396Y-51972103D01*
X106462393Y-51972104D01*
X106265974Y-52072187D01*
X106087641Y-52201752D01*
X106087636Y-52201756D01*
X105931756Y-52357636D01*
X105931752Y-52357641D01*
X105830318Y-52497254D01*
X105774988Y-52539920D01*
X105705375Y-52545899D01*
X105643580Y-52513293D01*
X105629682Y-52497254D01*
X105528247Y-52357641D01*
X105528243Y-52357636D01*
X105372363Y-52201756D01*
X105372358Y-52201752D01*
X105194025Y-52072187D01*
X105194024Y-52072186D01*
X105194022Y-52072185D01*
X105131096Y-52040122D01*
X104997606Y-51972104D01*
X104997603Y-51972103D01*
X104787952Y-51903985D01*
X104621666Y-51877648D01*
X104570222Y-51869500D01*
X104349778Y-51869500D01*
X104298334Y-51877648D01*
X104132047Y-51903985D01*
X103922396Y-51972103D01*
X103922393Y-51972104D01*
X103725974Y-52072187D01*
X103547641Y-52201752D01*
X103547636Y-52201756D01*
X103391756Y-52357636D01*
X103391752Y-52357641D01*
X103290318Y-52497254D01*
X103234988Y-52539920D01*
X103165375Y-52545899D01*
X103103580Y-52513293D01*
X103089682Y-52497254D01*
X102988247Y-52357641D01*
X102988243Y-52357636D01*
X102832363Y-52201756D01*
X102832358Y-52201752D01*
X102654025Y-52072187D01*
X102654024Y-52072186D01*
X102654022Y-52072185D01*
X102591096Y-52040122D01*
X102457606Y-51972104D01*
X102457603Y-51972103D01*
X102247952Y-51903985D01*
X102081666Y-51877648D01*
X102030222Y-51869500D01*
X101809778Y-51869500D01*
X101758334Y-51877648D01*
X101592047Y-51903985D01*
X101382396Y-51972103D01*
X101382393Y-51972104D01*
X101185974Y-52072187D01*
X101007641Y-52201752D01*
X101007636Y-52201756D01*
X100851756Y-52357636D01*
X100851752Y-52357641D01*
X100750318Y-52497254D01*
X100694988Y-52539920D01*
X100625375Y-52545899D01*
X100563580Y-52513293D01*
X100549682Y-52497254D01*
X100448247Y-52357641D01*
X100448243Y-52357636D01*
X100292363Y-52201756D01*
X100292358Y-52201752D01*
X100114025Y-52072187D01*
X100114024Y-52072186D01*
X100114022Y-52072185D01*
X100051096Y-52040122D01*
X99917606Y-51972104D01*
X99917603Y-51972103D01*
X99707952Y-51903985D01*
X99541666Y-51877648D01*
X99490222Y-51869500D01*
X99269778Y-51869500D01*
X99218334Y-51877648D01*
X99052047Y-51903985D01*
X98842396Y-51972103D01*
X98842393Y-51972104D01*
X98645974Y-52072187D01*
X98467641Y-52201752D01*
X98467636Y-52201756D01*
X98311756Y-52357636D01*
X98311752Y-52357641D01*
X98182187Y-52535974D01*
X98082104Y-52732393D01*
X98082103Y-52732396D01*
X98013985Y-52942047D01*
X97982709Y-53139515D01*
X97979500Y-53159778D01*
X81571982Y-53159778D01*
X81584172Y-53150608D01*
X81592202Y-53143204D01*
X81595506Y-53141254D01*
X81691610Y-53092287D01*
X81748276Y-53051116D01*
X81748281Y-53051114D01*
X81857212Y-52971971D01*
X81857210Y-52971971D01*
X81857219Y-52971966D01*
X82001966Y-52827219D01*
X82001968Y-52827215D01*
X82001971Y-52827213D01*
X82070860Y-52732394D01*
X82122287Y-52661610D01*
X82215220Y-52479219D01*
X82278477Y-52284534D01*
X82310500Y-52082352D01*
X82310500Y-51877648D01*
X82278477Y-51675466D01*
X82215220Y-51480781D01*
X82215218Y-51480778D01*
X82215218Y-51480776D01*
X82174314Y-51400499D01*
X82122287Y-51298390D01*
X82076188Y-51234939D01*
X82001971Y-51132786D01*
X81857213Y-50988028D01*
X81691614Y-50867715D01*
X81624457Y-50833497D01*
X81598917Y-50820483D01*
X81548123Y-50772511D01*
X81531328Y-50704690D01*
X81553865Y-50638555D01*
X81598917Y-50599516D01*
X81691610Y-50552287D01*
X81734463Y-50521153D01*
X84399500Y-50521153D01*
X84399500Y-50678846D01*
X84430261Y-50833489D01*
X84430264Y-50833501D01*
X84490602Y-50979172D01*
X84490609Y-50979185D01*
X84578210Y-51110288D01*
X84578213Y-51110292D01*
X84689707Y-51221786D01*
X84689711Y-51221789D01*
X84820814Y-51309390D01*
X84820827Y-51309397D01*
X84966498Y-51369735D01*
X84966503Y-51369737D01*
X85121153Y-51400499D01*
X85121156Y-51400500D01*
X85121158Y-51400500D01*
X85278844Y-51400500D01*
X85278845Y-51400499D01*
X85433497Y-51369737D01*
X85579179Y-51309394D01*
X85673459Y-51246398D01*
X85740136Y-51225520D01*
X85742350Y-51225500D01*
X122035040Y-51225500D01*
X122082492Y-51234939D01*
X122110157Y-51246398D01*
X122166503Y-51269737D01*
X122321153Y-51300499D01*
X122321156Y-51300500D01*
X122321158Y-51300500D01*
X122478844Y-51300500D01*
X122478845Y-51300499D01*
X122633497Y-51269737D01*
X122779179Y-51209394D01*
X122910289Y-51121789D01*
X123021789Y-51010289D01*
X123109394Y-50879179D01*
X123169737Y-50733497D01*
X123200500Y-50578842D01*
X123200500Y-50421158D01*
X123200500Y-50421155D01*
X123200499Y-50421153D01*
X123189627Y-50366498D01*
X123169737Y-50266503D01*
X123150812Y-50220814D01*
X123109397Y-50120827D01*
X123109390Y-50120814D01*
X123021789Y-49989711D01*
X123021786Y-49989707D01*
X122910292Y-49878213D01*
X122910288Y-49878210D01*
X122779185Y-49790609D01*
X122779172Y-49790602D01*
X122633501Y-49730264D01*
X122633489Y-49730261D01*
X122478845Y-49699500D01*
X122478842Y-49699500D01*
X122321158Y-49699500D01*
X122321155Y-49699500D01*
X122166510Y-49730261D01*
X122166498Y-49730264D01*
X122020827Y-49790602D01*
X122020814Y-49790609D01*
X121889712Y-49878209D01*
X121865911Y-49902011D01*
X121829739Y-49938182D01*
X121768419Y-49971666D01*
X121742060Y-49974500D01*
X114655490Y-49974500D01*
X114588451Y-49954815D01*
X114542696Y-49902011D01*
X114532752Y-49832853D01*
X114540929Y-49803048D01*
X114569735Y-49733501D01*
X114569737Y-49733497D01*
X114600500Y-49578842D01*
X114600500Y-49421158D01*
X114600500Y-49421155D01*
X114600499Y-49421153D01*
X114569738Y-49266510D01*
X114569737Y-49266503D01*
X114569735Y-49266498D01*
X114509397Y-49120827D01*
X114509390Y-49120814D01*
X114421789Y-48989711D01*
X114421786Y-48989707D01*
X114310292Y-48878213D01*
X114310288Y-48878210D01*
X114179185Y-48790609D01*
X114179172Y-48790602D01*
X114033501Y-48730264D01*
X114033489Y-48730261D01*
X113878845Y-48699500D01*
X113878842Y-48699500D01*
X113721158Y-48699500D01*
X113721155Y-48699500D01*
X113566510Y-48730261D01*
X113566498Y-48730264D01*
X113420827Y-48790602D01*
X113420815Y-48790609D01*
X113326541Y-48853602D01*
X113259864Y-48874480D01*
X113257650Y-48874500D01*
X85942350Y-48874500D01*
X85875311Y-48854815D01*
X85873459Y-48853602D01*
X85779184Y-48790609D01*
X85779172Y-48790602D01*
X85633501Y-48730264D01*
X85633489Y-48730261D01*
X85478845Y-48699500D01*
X85478842Y-48699500D01*
X85321158Y-48699500D01*
X85321155Y-48699500D01*
X85166510Y-48730261D01*
X85166498Y-48730264D01*
X85020827Y-48790602D01*
X85020814Y-48790609D01*
X84889711Y-48878210D01*
X84889707Y-48878213D01*
X84778213Y-48989707D01*
X84778210Y-48989711D01*
X84690609Y-49120814D01*
X84690602Y-49120827D01*
X84630264Y-49266498D01*
X84630261Y-49266510D01*
X84599500Y-49421153D01*
X84599500Y-49578846D01*
X84630261Y-49733489D01*
X84630264Y-49733501D01*
X84687642Y-49872025D01*
X84695111Y-49941494D01*
X84663835Y-50003973D01*
X84660763Y-50007158D01*
X84578210Y-50089711D01*
X84490609Y-50220814D01*
X84490602Y-50220827D01*
X84430264Y-50366498D01*
X84430261Y-50366510D01*
X84399500Y-50521153D01*
X81734463Y-50521153D01*
X81857213Y-50431971D01*
X81857215Y-50431968D01*
X81857219Y-50431966D01*
X82001966Y-50287219D01*
X82001968Y-50287215D01*
X82001971Y-50287213D01*
X82054732Y-50214590D01*
X82122287Y-50121610D01*
X82215220Y-49939219D01*
X82278477Y-49744534D01*
X82310500Y-49542352D01*
X82310500Y-49337648D01*
X82278477Y-49135466D01*
X82273720Y-49120827D01*
X82215218Y-48940776D01*
X82138703Y-48790609D01*
X82122287Y-48758390D01*
X82114556Y-48747749D01*
X82001971Y-48592786D01*
X81857213Y-48448028D01*
X81691614Y-48327715D01*
X81655649Y-48309390D01*
X81598917Y-48280483D01*
X81548123Y-48232511D01*
X81531328Y-48164690D01*
X81553865Y-48098555D01*
X81598917Y-48059516D01*
X81691610Y-48012287D01*
X81712770Y-47996913D01*
X81857213Y-47891971D01*
X81857215Y-47891968D01*
X81857219Y-47891966D01*
X82001966Y-47747219D01*
X82001968Y-47747215D01*
X82001971Y-47747213D01*
X82054732Y-47674590D01*
X82122287Y-47581610D01*
X82153091Y-47521153D01*
X134999500Y-47521153D01*
X134999500Y-47678846D01*
X135030261Y-47833489D01*
X135030264Y-47833501D01*
X135090602Y-47979172D01*
X135090609Y-47979185D01*
X135178210Y-48110288D01*
X135178213Y-48110292D01*
X135289707Y-48221786D01*
X135289711Y-48221789D01*
X135420814Y-48309390D01*
X135420827Y-48309397D01*
X135566498Y-48369735D01*
X135566503Y-48369737D01*
X135721153Y-48400499D01*
X135721156Y-48400500D01*
X135721158Y-48400500D01*
X135878844Y-48400500D01*
X135878845Y-48400499D01*
X136033497Y-48369737D01*
X136179179Y-48309394D01*
X136310289Y-48221789D01*
X136370260Y-48161817D01*
X136431581Y-48128334D01*
X136457940Y-48125500D01*
X137857650Y-48125500D01*
X137924689Y-48145185D01*
X137926541Y-48146398D01*
X137959584Y-48168477D01*
X138020821Y-48209394D01*
X138020823Y-48209395D01*
X138020827Y-48209397D01*
X138166498Y-48269735D01*
X138166503Y-48269737D01*
X138321153Y-48300499D01*
X138321156Y-48300500D01*
X138321158Y-48300500D01*
X138478844Y-48300500D01*
X138478845Y-48300499D01*
X138633497Y-48269737D01*
X138779179Y-48209394D01*
X138910289Y-48121789D01*
X139021789Y-48010289D01*
X139109394Y-47879179D01*
X139169737Y-47733497D01*
X139200500Y-47578842D01*
X139200500Y-47421158D01*
X139200500Y-47421155D01*
X139200499Y-47421153D01*
X139169738Y-47266510D01*
X139169737Y-47266503D01*
X139144069Y-47204534D01*
X139109397Y-47120827D01*
X139109390Y-47120814D01*
X139021789Y-46989711D01*
X139021786Y-46989707D01*
X138910292Y-46878213D01*
X138910288Y-46878210D01*
X138779185Y-46790609D01*
X138779172Y-46790602D01*
X138633501Y-46730264D01*
X138633489Y-46730261D01*
X138478845Y-46699500D01*
X138478842Y-46699500D01*
X138321158Y-46699500D01*
X138321155Y-46699500D01*
X138166510Y-46730261D01*
X138166498Y-46730264D01*
X138020827Y-46790602D01*
X138020815Y-46790609D01*
X137926541Y-46853602D01*
X137859864Y-46874480D01*
X137857650Y-46874500D01*
X136164960Y-46874500D01*
X136117508Y-46865061D01*
X136033501Y-46830264D01*
X136033489Y-46830261D01*
X135878845Y-46799500D01*
X135878842Y-46799500D01*
X135721158Y-46799500D01*
X135721155Y-46799500D01*
X135566510Y-46830261D01*
X135566498Y-46830264D01*
X135420827Y-46890602D01*
X135420814Y-46890609D01*
X135289711Y-46978210D01*
X135289707Y-46978213D01*
X135178213Y-47089707D01*
X135178210Y-47089711D01*
X135090609Y-47220814D01*
X135090602Y-47220827D01*
X135030264Y-47366498D01*
X135030261Y-47366510D01*
X134999500Y-47521153D01*
X82153091Y-47521153D01*
X82215220Y-47399219D01*
X82278477Y-47204534D01*
X82310500Y-47002352D01*
X82310500Y-46797648D01*
X82278477Y-46595466D01*
X82215220Y-46400781D01*
X82215218Y-46400778D01*
X82215218Y-46400776D01*
X82164124Y-46300500D01*
X82122287Y-46218390D01*
X82114556Y-46207749D01*
X82001971Y-46052786D01*
X81857213Y-45908028D01*
X81691614Y-45787715D01*
X81685006Y-45784348D01*
X81598917Y-45740483D01*
X81548123Y-45692511D01*
X81531328Y-45624690D01*
X81553865Y-45558555D01*
X81598917Y-45519516D01*
X81691610Y-45472287D01*
X81761988Y-45421155D01*
X81761991Y-45421153D01*
X137499500Y-45421153D01*
X137499500Y-45578846D01*
X137530261Y-45733489D01*
X137530264Y-45733501D01*
X137590602Y-45879172D01*
X137590609Y-45879185D01*
X137678210Y-46010288D01*
X137678213Y-46010292D01*
X137789707Y-46121786D01*
X137789711Y-46121789D01*
X137920814Y-46209390D01*
X137920827Y-46209397D01*
X138066498Y-46269735D01*
X138066503Y-46269737D01*
X138221153Y-46300499D01*
X138221156Y-46300500D01*
X138221158Y-46300500D01*
X138378844Y-46300500D01*
X138378845Y-46300499D01*
X138533497Y-46269737D01*
X138679179Y-46209394D01*
X138773459Y-46146398D01*
X138840136Y-46125520D01*
X138842350Y-46125500D01*
X140557650Y-46125500D01*
X140624689Y-46145185D01*
X140626541Y-46146398D01*
X140720821Y-46209394D01*
X140720823Y-46209395D01*
X140720827Y-46209397D01*
X140866498Y-46269735D01*
X140866503Y-46269737D01*
X141021153Y-46300499D01*
X141021156Y-46300500D01*
X141021158Y-46300500D01*
X141178844Y-46300500D01*
X141178845Y-46300499D01*
X141333497Y-46269737D01*
X141479179Y-46209394D01*
X141610289Y-46121789D01*
X141721789Y-46010289D01*
X141809394Y-45879179D01*
X141869737Y-45733497D01*
X141900500Y-45578842D01*
X141900500Y-45421158D01*
X141900500Y-45421155D01*
X141900499Y-45421153D01*
X141869738Y-45266510D01*
X141869737Y-45266503D01*
X141845180Y-45207217D01*
X141809397Y-45120827D01*
X141809390Y-45120814D01*
X141721789Y-44989711D01*
X141721786Y-44989707D01*
X141610292Y-44878213D01*
X141610288Y-44878210D01*
X141479185Y-44790609D01*
X141479172Y-44790602D01*
X141333501Y-44730264D01*
X141333489Y-44730261D01*
X141178845Y-44699500D01*
X141178842Y-44699500D01*
X141021158Y-44699500D01*
X141021155Y-44699500D01*
X140866510Y-44730261D01*
X140866498Y-44730264D01*
X140720827Y-44790602D01*
X140720815Y-44790609D01*
X140626541Y-44853602D01*
X140559864Y-44874480D01*
X140557650Y-44874500D01*
X138842350Y-44874500D01*
X138775311Y-44854815D01*
X138773459Y-44853602D01*
X138679184Y-44790609D01*
X138679172Y-44790602D01*
X138533501Y-44730264D01*
X138533489Y-44730261D01*
X138378845Y-44699500D01*
X138378842Y-44699500D01*
X138221158Y-44699500D01*
X138221155Y-44699500D01*
X138066510Y-44730261D01*
X138066498Y-44730264D01*
X137920827Y-44790602D01*
X137920814Y-44790609D01*
X137789711Y-44878210D01*
X137789707Y-44878213D01*
X137678213Y-44989707D01*
X137678210Y-44989711D01*
X137590609Y-45120814D01*
X137590602Y-45120827D01*
X137530264Y-45266498D01*
X137530261Y-45266510D01*
X137499500Y-45421153D01*
X81761991Y-45421153D01*
X81857213Y-45351971D01*
X81857215Y-45351968D01*
X81857219Y-45351966D01*
X82001966Y-45207219D01*
X82001968Y-45207215D01*
X82001971Y-45207213D01*
X82064742Y-45120814D01*
X82122287Y-45041610D01*
X82215220Y-44859219D01*
X82278477Y-44664534D01*
X82310500Y-44462352D01*
X82310500Y-44257648D01*
X82278477Y-44055466D01*
X82215220Y-43860781D01*
X82215218Y-43860778D01*
X82215218Y-43860776D01*
X82181503Y-43794607D01*
X82122287Y-43678390D01*
X82114556Y-43667749D01*
X82001971Y-43512786D01*
X81857213Y-43368028D01*
X81691614Y-43247715D01*
X81685006Y-43244348D01*
X81598917Y-43200483D01*
X81548123Y-43152511D01*
X81531328Y-43084690D01*
X81553865Y-43018555D01*
X81598917Y-42979516D01*
X81691610Y-42932287D01*
X81733589Y-42901788D01*
X81857213Y-42811971D01*
X81857215Y-42811968D01*
X81857219Y-42811966D01*
X82001966Y-42667219D01*
X82001968Y-42667215D01*
X82001971Y-42667213D01*
X82063374Y-42582697D01*
X82122287Y-42501610D01*
X82215220Y-42319219D01*
X82278477Y-42124534D01*
X82310500Y-41922352D01*
X82310500Y-41717648D01*
X82295163Y-41620814D01*
X82278477Y-41515465D01*
X82225543Y-41352552D01*
X82215220Y-41320781D01*
X82215218Y-41320778D01*
X82215218Y-41320776D01*
X82169099Y-41230263D01*
X82122287Y-41138390D01*
X82093096Y-41098212D01*
X82001971Y-40972786D01*
X81857213Y-40828028D01*
X81691614Y-40707715D01*
X81530358Y-40625551D01*
X81530356Y-40625549D01*
X81509225Y-40614782D01*
X81314534Y-40551522D01*
X81139995Y-40523878D01*
X81122789Y-40521153D01*
X83299500Y-40521153D01*
X83299500Y-40678846D01*
X83330261Y-40833489D01*
X83330264Y-40833501D01*
X83390602Y-40979172D01*
X83390609Y-40979185D01*
X83478210Y-41110288D01*
X83478213Y-41110292D01*
X83589707Y-41221786D01*
X83589711Y-41221789D01*
X83720814Y-41309390D01*
X83720827Y-41309397D01*
X83852430Y-41363908D01*
X83866503Y-41369737D01*
X84021153Y-41400499D01*
X84021156Y-41400500D01*
X84021158Y-41400500D01*
X84178844Y-41400500D01*
X84178845Y-41400499D01*
X84333497Y-41369737D01*
X84405043Y-41340101D01*
X84474512Y-41332633D01*
X84536991Y-41363908D01*
X84572643Y-41423997D01*
X84570149Y-41493822D01*
X84555597Y-41523554D01*
X84490609Y-41620814D01*
X84490602Y-41620827D01*
X84430264Y-41766498D01*
X84430261Y-41766510D01*
X84399500Y-41921153D01*
X84399500Y-42078846D01*
X84430261Y-42233489D01*
X84430264Y-42233501D01*
X84490602Y-42379172D01*
X84490609Y-42379185D01*
X84578210Y-42510288D01*
X84578213Y-42510292D01*
X84689707Y-42621786D01*
X84689711Y-42621789D01*
X84820814Y-42709390D01*
X84820827Y-42709397D01*
X84966498Y-42769735D01*
X84966503Y-42769737D01*
X85121153Y-42800499D01*
X85121156Y-42800500D01*
X85121158Y-42800500D01*
X85278844Y-42800500D01*
X85278845Y-42800499D01*
X85433497Y-42769737D01*
X85579179Y-42709394D01*
X85710289Y-42621789D01*
X85821789Y-42510289D01*
X85909394Y-42379179D01*
X85969737Y-42233497D01*
X85983079Y-42166416D01*
X86015463Y-42104509D01*
X86016957Y-42102988D01*
X86533127Y-41586819D01*
X86594450Y-41553334D01*
X86620808Y-41550500D01*
X87595065Y-41550500D01*
X87662104Y-41570185D01*
X87663909Y-41571366D01*
X87720821Y-41609394D01*
X87720823Y-41609395D01*
X87720827Y-41609397D01*
X87866498Y-41669735D01*
X87866503Y-41669737D01*
X88021153Y-41700499D01*
X88021156Y-41700500D01*
X88021158Y-41700500D01*
X88178844Y-41700500D01*
X88178845Y-41700499D01*
X88333497Y-41669737D01*
X88451592Y-41620821D01*
X88479172Y-41609397D01*
X88479172Y-41609396D01*
X88479179Y-41609394D01*
X88510615Y-41588389D01*
X93099500Y-41588389D01*
X93099500Y-42311611D01*
X93126598Y-42482701D01*
X93180127Y-42647445D01*
X93258768Y-42801788D01*
X93360586Y-42941928D01*
X93483072Y-43064414D01*
X93623212Y-43166232D01*
X93777555Y-43244873D01*
X93942299Y-43298402D01*
X94113389Y-43325500D01*
X94113390Y-43325500D01*
X94286610Y-43325500D01*
X94286611Y-43325500D01*
X94457701Y-43298402D01*
X94622445Y-43244873D01*
X94776788Y-43166232D01*
X94916928Y-43064414D01*
X95024472Y-42956869D01*
X95085791Y-42923387D01*
X95155483Y-42928371D01*
X95211417Y-42970242D01*
X95217688Y-42979456D01*
X95257285Y-43043652D01*
X95257288Y-43043656D01*
X95381344Y-43167712D01*
X95530666Y-43259814D01*
X95697203Y-43314999D01*
X95799991Y-43325500D01*
X96600008Y-43325499D01*
X96600016Y-43325498D01*
X96600019Y-43325498D01*
X96656302Y-43319748D01*
X96702797Y-43314999D01*
X96869334Y-43259814D01*
X97018656Y-43167712D01*
X97142712Y-43043656D01*
X97234814Y-42894334D01*
X97289999Y-42727797D01*
X97300500Y-42625009D01*
X97300499Y-41274992D01*
X97300498Y-41274983D01*
X107899500Y-41274983D01*
X107899500Y-42625001D01*
X107899501Y-42625018D01*
X107910000Y-42727796D01*
X107910001Y-42727799D01*
X107965185Y-42894331D01*
X107965187Y-42894336D01*
X107978741Y-42916311D01*
X108057288Y-43043656D01*
X108181344Y-43167712D01*
X108330666Y-43259814D01*
X108497203Y-43314999D01*
X108599991Y-43325500D01*
X109400008Y-43325499D01*
X109400016Y-43325498D01*
X109400019Y-43325498D01*
X109456302Y-43319748D01*
X109502797Y-43314999D01*
X109669334Y-43259814D01*
X109818656Y-43167712D01*
X109942712Y-43043656D01*
X110034814Y-42894334D01*
X110089999Y-42727797D01*
X110100500Y-42625009D01*
X110100499Y-41688389D01*
X130199500Y-41688389D01*
X130199500Y-42411610D01*
X130215129Y-42510292D01*
X130226598Y-42582701D01*
X130280127Y-42747445D01*
X130358768Y-42901788D01*
X130460586Y-43041928D01*
X130583072Y-43164414D01*
X130723212Y-43266232D01*
X130877555Y-43344873D01*
X131042299Y-43398402D01*
X131213389Y-43425500D01*
X131213390Y-43425500D01*
X131386610Y-43425500D01*
X131386611Y-43425500D01*
X131557701Y-43398402D01*
X131722445Y-43344873D01*
X131876788Y-43266232D01*
X132016928Y-43164414D01*
X132139414Y-43041928D01*
X132199682Y-42958975D01*
X132255012Y-42916311D01*
X132324626Y-42910332D01*
X132386421Y-42942938D01*
X132400315Y-42958973D01*
X132460586Y-43041928D01*
X132583072Y-43164414D01*
X132723212Y-43266232D01*
X132877555Y-43344873D01*
X133042299Y-43398402D01*
X133213389Y-43425500D01*
X133213390Y-43425500D01*
X133386610Y-43425500D01*
X133386611Y-43425500D01*
X133557701Y-43398402D01*
X133722445Y-43344873D01*
X133876788Y-43266232D01*
X134016928Y-43164414D01*
X134139414Y-43041928D01*
X134199682Y-42958975D01*
X134255012Y-42916311D01*
X134324626Y-42910332D01*
X134386421Y-42942938D01*
X134400315Y-42958973D01*
X134460586Y-43041928D01*
X134583072Y-43164414D01*
X134723212Y-43266232D01*
X134877555Y-43344873D01*
X135042299Y-43398402D01*
X135213389Y-43425500D01*
X135213390Y-43425500D01*
X135386610Y-43425500D01*
X135386611Y-43425500D01*
X135557701Y-43398402D01*
X135722445Y-43344873D01*
X135876788Y-43266232D01*
X136016928Y-43164414D01*
X136139414Y-43041928D01*
X136199682Y-42958975D01*
X136255012Y-42916311D01*
X136324626Y-42910332D01*
X136386421Y-42942938D01*
X136400315Y-42958973D01*
X136460586Y-43041928D01*
X136583072Y-43164414D01*
X136723212Y-43266232D01*
X136877555Y-43344873D01*
X137042299Y-43398402D01*
X137213389Y-43425500D01*
X137213390Y-43425500D01*
X137386610Y-43425500D01*
X137386611Y-43425500D01*
X137557701Y-43398402D01*
X137722445Y-43344873D01*
X137876788Y-43266232D01*
X138016928Y-43164414D01*
X138139414Y-43041928D01*
X138199682Y-42958975D01*
X138255012Y-42916311D01*
X138324626Y-42910332D01*
X138386421Y-42942938D01*
X138400315Y-42958973D01*
X138460586Y-43041928D01*
X138583072Y-43164414D01*
X138723212Y-43266232D01*
X138877555Y-43344873D01*
X139042299Y-43398402D01*
X139213389Y-43425500D01*
X139213390Y-43425500D01*
X139386610Y-43425500D01*
X139386611Y-43425500D01*
X139557701Y-43398402D01*
X139722445Y-43344873D01*
X139876788Y-43266232D01*
X140016928Y-43164414D01*
X140139414Y-43041928D01*
X140241232Y-42901788D01*
X140319873Y-42747445D01*
X140373402Y-42582701D01*
X140400500Y-42411611D01*
X140400500Y-41688389D01*
X140373402Y-41517299D01*
X140319873Y-41352555D01*
X140241232Y-41198212D01*
X140139414Y-41058072D01*
X140016928Y-40935586D01*
X139876788Y-40833768D01*
X139722445Y-40755127D01*
X139557701Y-40701598D01*
X139557699Y-40701597D01*
X139557698Y-40701597D01*
X139426271Y-40680781D01*
X139386611Y-40674500D01*
X139213389Y-40674500D01*
X139173728Y-40680781D01*
X139042302Y-40701597D01*
X138877552Y-40755128D01*
X138723211Y-40833768D01*
X138643256Y-40891859D01*
X138583072Y-40935586D01*
X138583070Y-40935588D01*
X138583069Y-40935588D01*
X138460588Y-41058069D01*
X138460581Y-41058078D01*
X138400317Y-41141023D01*
X138344987Y-41183689D01*
X138275374Y-41189667D01*
X138213579Y-41157061D01*
X138199683Y-41141023D01*
X138139418Y-41058078D01*
X138139414Y-41058072D01*
X138016928Y-40935586D01*
X137876788Y-40833768D01*
X137722445Y-40755127D01*
X137557701Y-40701598D01*
X137557699Y-40701597D01*
X137557698Y-40701597D01*
X137426271Y-40680781D01*
X137386611Y-40674500D01*
X137213389Y-40674500D01*
X137173728Y-40680781D01*
X137042302Y-40701597D01*
X136877552Y-40755128D01*
X136723211Y-40833768D01*
X136643256Y-40891859D01*
X136583072Y-40935586D01*
X136583070Y-40935588D01*
X136583069Y-40935588D01*
X136460588Y-41058069D01*
X136460581Y-41058078D01*
X136400317Y-41141023D01*
X136344987Y-41183689D01*
X136275374Y-41189667D01*
X136213579Y-41157061D01*
X136199683Y-41141023D01*
X136139418Y-41058078D01*
X136139414Y-41058072D01*
X136016928Y-40935586D01*
X135876788Y-40833768D01*
X135722445Y-40755127D01*
X135557701Y-40701598D01*
X135557699Y-40701597D01*
X135557698Y-40701597D01*
X135426271Y-40680781D01*
X135386611Y-40674500D01*
X135213389Y-40674500D01*
X135173728Y-40680781D01*
X135042302Y-40701597D01*
X134877552Y-40755128D01*
X134723211Y-40833768D01*
X134643256Y-40891859D01*
X134583072Y-40935586D01*
X134583070Y-40935588D01*
X134583069Y-40935588D01*
X134460588Y-41058069D01*
X134460581Y-41058078D01*
X134400317Y-41141023D01*
X134344987Y-41183689D01*
X134275374Y-41189667D01*
X134213579Y-41157061D01*
X134199683Y-41141023D01*
X134139418Y-41058078D01*
X134139414Y-41058072D01*
X134016928Y-40935586D01*
X133876788Y-40833768D01*
X133722445Y-40755127D01*
X133557701Y-40701598D01*
X133557699Y-40701597D01*
X133557698Y-40701597D01*
X133426271Y-40680781D01*
X133386611Y-40674500D01*
X133213389Y-40674500D01*
X133173728Y-40680781D01*
X133042302Y-40701597D01*
X132877552Y-40755128D01*
X132723211Y-40833768D01*
X132643256Y-40891859D01*
X132583072Y-40935586D01*
X132583070Y-40935588D01*
X132583069Y-40935588D01*
X132460588Y-41058069D01*
X132460581Y-41058078D01*
X132400317Y-41141023D01*
X132344987Y-41183689D01*
X132275374Y-41189667D01*
X132213579Y-41157061D01*
X132199683Y-41141023D01*
X132139418Y-41058078D01*
X132139414Y-41058072D01*
X132016928Y-40935586D01*
X131876788Y-40833768D01*
X131722445Y-40755127D01*
X131557701Y-40701598D01*
X131557699Y-40701597D01*
X131557698Y-40701597D01*
X131426271Y-40680781D01*
X131386611Y-40674500D01*
X131213389Y-40674500D01*
X131173728Y-40680781D01*
X131042302Y-40701597D01*
X130877552Y-40755128D01*
X130723211Y-40833768D01*
X130643256Y-40891859D01*
X130583072Y-40935586D01*
X130583070Y-40935588D01*
X130583069Y-40935588D01*
X130460588Y-41058069D01*
X130460588Y-41058070D01*
X130460586Y-41058072D01*
X130425637Y-41106175D01*
X130358768Y-41198211D01*
X130280128Y-41352552D01*
X130226597Y-41517302D01*
X130199500Y-41688389D01*
X110100499Y-41688389D01*
X110100499Y-41274992D01*
X110089999Y-41172203D01*
X110034814Y-41005666D01*
X109942712Y-40856344D01*
X109818656Y-40732288D01*
X109693559Y-40655128D01*
X109669336Y-40640187D01*
X109669331Y-40640185D01*
X109667862Y-40639698D01*
X109502797Y-40585001D01*
X109502795Y-40585000D01*
X109400010Y-40574500D01*
X108599998Y-40574500D01*
X108599980Y-40574501D01*
X108497203Y-40585000D01*
X108497200Y-40585001D01*
X108330668Y-40640185D01*
X108330663Y-40640187D01*
X108181342Y-40732289D01*
X108057289Y-40856342D01*
X107965187Y-41005663D01*
X107965186Y-41005666D01*
X107910001Y-41172203D01*
X107910001Y-41172204D01*
X107910000Y-41172204D01*
X107899500Y-41274983D01*
X97300498Y-41274983D01*
X97289999Y-41172203D01*
X97234814Y-41005666D01*
X97142712Y-40856344D01*
X97018656Y-40732288D01*
X96893559Y-40655128D01*
X96869336Y-40640187D01*
X96869331Y-40640185D01*
X96867862Y-40639698D01*
X96702797Y-40585001D01*
X96702795Y-40585000D01*
X96600010Y-40574500D01*
X95799998Y-40574500D01*
X95799980Y-40574501D01*
X95697203Y-40585000D01*
X95697200Y-40585001D01*
X95530668Y-40640185D01*
X95530663Y-40640187D01*
X95381342Y-40732289D01*
X95257287Y-40856344D01*
X95217688Y-40920544D01*
X95165739Y-40967268D01*
X95096777Y-40978489D01*
X95032695Y-40950645D01*
X95024469Y-40943127D01*
X94916930Y-40835588D01*
X94916928Y-40835586D01*
X94776788Y-40733768D01*
X94622445Y-40655127D01*
X94457701Y-40601598D01*
X94457699Y-40601597D01*
X94457698Y-40601597D01*
X94326271Y-40580781D01*
X94286611Y-40574500D01*
X94113389Y-40574500D01*
X94073728Y-40580781D01*
X93942302Y-40601597D01*
X93777552Y-40655128D01*
X93623211Y-40733768D01*
X93557363Y-40781610D01*
X93483072Y-40835586D01*
X93483070Y-40835588D01*
X93483069Y-40835588D01*
X93360588Y-40958069D01*
X93360588Y-40958070D01*
X93360586Y-40958072D01*
X93326009Y-41005663D01*
X93258768Y-41098211D01*
X93180128Y-41252552D01*
X93126597Y-41417302D01*
X93110759Y-41517302D01*
X93099500Y-41588389D01*
X88510615Y-41588389D01*
X88610289Y-41521789D01*
X88616613Y-41515465D01*
X88636243Y-41495836D01*
X88721786Y-41410292D01*
X88721789Y-41410289D01*
X88809394Y-41279179D01*
X88814288Y-41267365D01*
X88827242Y-41236090D01*
X88869737Y-41133497D01*
X88900500Y-40978842D01*
X88900500Y-40821158D01*
X88900500Y-40821155D01*
X88900499Y-40821153D01*
X88887366Y-40755128D01*
X88869737Y-40666503D01*
X88852774Y-40625551D01*
X88809397Y-40520827D01*
X88809390Y-40520814D01*
X88721789Y-40389711D01*
X88721786Y-40389707D01*
X88610292Y-40278213D01*
X88610288Y-40278210D01*
X88479185Y-40190609D01*
X88479172Y-40190602D01*
X88333501Y-40130264D01*
X88333491Y-40130261D01*
X88253716Y-40114393D01*
X88253715Y-40114392D01*
X88178845Y-40099500D01*
X88178842Y-40099500D01*
X88021158Y-40099500D01*
X88021155Y-40099500D01*
X87866510Y-40130261D01*
X87866498Y-40130264D01*
X87720827Y-40190602D01*
X87720820Y-40190606D01*
X87691928Y-40209911D01*
X87663955Y-40228602D01*
X87597279Y-40249480D01*
X87595065Y-40249500D01*
X86235929Y-40249500D01*
X86110261Y-40274497D01*
X86110255Y-40274499D01*
X85991874Y-40323534D01*
X85885326Y-40394726D01*
X85097068Y-41182984D01*
X85083759Y-41190251D01*
X85073515Y-41201433D01*
X85038202Y-41215126D01*
X85035745Y-41216469D01*
X85034898Y-41216408D01*
X85033579Y-41216920D01*
X84966508Y-41230261D01*
X84966502Y-41230263D01*
X84894955Y-41259898D01*
X84825485Y-41267365D01*
X84763007Y-41236090D01*
X84727355Y-41176000D01*
X84729850Y-41106175D01*
X84744399Y-41076449D01*
X84809394Y-40979179D01*
X84819191Y-40955524D01*
X84821889Y-40951487D01*
X84822427Y-40948363D01*
X84828152Y-40942113D01*
X84846070Y-40915296D01*
X85763717Y-39997648D01*
X120699500Y-39997648D01*
X120699500Y-40202351D01*
X120731522Y-40404534D01*
X120794781Y-40599223D01*
X120887715Y-40781613D01*
X121008028Y-40947213D01*
X121152786Y-41091971D01*
X121279028Y-41183689D01*
X121318390Y-41212287D01*
X121434607Y-41271503D01*
X121500776Y-41305218D01*
X121500778Y-41305218D01*
X121500781Y-41305220D01*
X121548673Y-41320781D01*
X121695465Y-41368477D01*
X121756923Y-41378211D01*
X121897648Y-41400500D01*
X121897649Y-41400500D01*
X122102351Y-41400500D01*
X122102352Y-41400500D01*
X122304534Y-41368477D01*
X122499219Y-41305220D01*
X122681610Y-41212287D01*
X122790067Y-41133489D01*
X122847213Y-41091971D01*
X122847215Y-41091968D01*
X122847219Y-41091966D01*
X122991966Y-40947219D01*
X122991968Y-40947215D01*
X122991971Y-40947213D01*
X123078558Y-40828034D01*
X123112287Y-40781610D01*
X123205220Y-40599219D01*
X123268477Y-40404534D01*
X123300500Y-40202352D01*
X123300500Y-39997648D01*
X123280499Y-39871369D01*
X123268477Y-39795465D01*
X123209772Y-39614792D01*
X123205220Y-39600781D01*
X123205218Y-39600778D01*
X123205218Y-39600776D01*
X123158654Y-39509390D01*
X123112287Y-39418390D01*
X123104556Y-39407749D01*
X122991971Y-39252786D01*
X122847213Y-39108028D01*
X122681613Y-38987715D01*
X122681612Y-38987714D01*
X122681610Y-38987713D01*
X122624653Y-38958691D01*
X122499223Y-38894781D01*
X122304534Y-38831522D01*
X122129995Y-38803878D01*
X122102352Y-38799500D01*
X121897648Y-38799500D01*
X121873329Y-38803351D01*
X121695465Y-38831522D01*
X121500776Y-38894781D01*
X121318386Y-38987715D01*
X121152786Y-39108028D01*
X121008028Y-39252786D01*
X120887715Y-39418386D01*
X120794781Y-39600776D01*
X120731522Y-39795465D01*
X120699500Y-39997648D01*
X85763717Y-39997648D01*
X86215295Y-39546070D01*
X86255519Y-39519193D01*
X86279179Y-39509394D01*
X86410289Y-39421789D01*
X86521789Y-39310289D01*
X86609394Y-39179179D01*
X86669737Y-39033497D01*
X86700500Y-38878842D01*
X86700500Y-38721158D01*
X86700500Y-38721155D01*
X86700499Y-38721153D01*
X86682111Y-38628713D01*
X149779500Y-38628713D01*
X149779500Y-38841287D01*
X149785449Y-38878846D01*
X149812753Y-39051239D01*
X149878444Y-39253414D01*
X149974951Y-39442820D01*
X150099890Y-39614786D01*
X150250213Y-39765109D01*
X150422179Y-39890048D01*
X150422181Y-39890049D01*
X150422184Y-39890051D01*
X150611588Y-39986557D01*
X150813757Y-40052246D01*
X151023713Y-40085500D01*
X151023714Y-40085500D01*
X151236286Y-40085500D01*
X151236287Y-40085500D01*
X151446243Y-40052246D01*
X151648412Y-39986557D01*
X151837816Y-39890051D01*
X151887537Y-39853927D01*
X152009786Y-39765109D01*
X152009788Y-39765106D01*
X152009792Y-39765104D01*
X152160104Y-39614792D01*
X152160106Y-39614788D01*
X152160109Y-39614786D01*
X152285048Y-39442820D01*
X152285047Y-39442820D01*
X152285051Y-39442816D01*
X152381557Y-39253412D01*
X152447246Y-39051243D01*
X152480500Y-38841287D01*
X152480500Y-38628713D01*
X152447246Y-38418757D01*
X152381557Y-38216588D01*
X152285051Y-38027184D01*
X152285049Y-38027181D01*
X152285048Y-38027179D01*
X152160109Y-37855213D01*
X152009786Y-37704890D01*
X151837820Y-37579951D01*
X151648414Y-37483444D01*
X151648413Y-37483443D01*
X151648412Y-37483443D01*
X151446243Y-37417754D01*
X151446241Y-37417753D01*
X151446240Y-37417753D01*
X151284957Y-37392208D01*
X151236287Y-37384500D01*
X151023713Y-37384500D01*
X150975042Y-37392208D01*
X150813760Y-37417753D01*
X150611585Y-37483444D01*
X150422179Y-37579951D01*
X150250213Y-37704890D01*
X150099890Y-37855213D01*
X149974951Y-38027179D01*
X149878444Y-38216585D01*
X149812753Y-38418760D01*
X149779500Y-38628713D01*
X86682111Y-38628713D01*
X86676499Y-38600499D01*
X86669737Y-38566503D01*
X86667018Y-38559938D01*
X86609397Y-38420827D01*
X86609390Y-38420814D01*
X86521789Y-38289711D01*
X86521786Y-38289707D01*
X86410292Y-38178213D01*
X86410288Y-38178210D01*
X86279185Y-38090609D01*
X86279172Y-38090602D01*
X86133501Y-38030264D01*
X86133489Y-38030261D01*
X85978845Y-37999500D01*
X85978842Y-37999500D01*
X85821158Y-37999500D01*
X85821155Y-37999500D01*
X85666510Y-38030261D01*
X85666498Y-38030264D01*
X85520827Y-38090602D01*
X85520814Y-38090609D01*
X85389711Y-38178210D01*
X85389707Y-38178213D01*
X85278213Y-38289707D01*
X85278207Y-38289715D01*
X85190607Y-38420818D01*
X85190605Y-38420822D01*
X85180805Y-38444480D01*
X85153927Y-38484704D01*
X83784703Y-39853927D01*
X83744480Y-39880805D01*
X83720819Y-39890606D01*
X83720818Y-39890607D01*
X83589715Y-39978207D01*
X83589707Y-39978213D01*
X83478213Y-40089707D01*
X83478210Y-40089711D01*
X83390609Y-40220814D01*
X83390602Y-40220827D01*
X83330264Y-40366498D01*
X83330261Y-40366510D01*
X83299500Y-40521153D01*
X81122789Y-40521153D01*
X81112352Y-40519500D01*
X80907648Y-40519500D01*
X80883329Y-40523351D01*
X80705465Y-40551522D01*
X80510776Y-40614781D01*
X80328386Y-40707715D01*
X80162786Y-40828028D01*
X80018028Y-40972786D01*
X79897715Y-41138386D01*
X79804781Y-41320776D01*
X79741522Y-41515465D01*
X79709500Y-41717648D01*
X64530500Y-41717648D01*
X64515163Y-41620814D01*
X64498477Y-41515465D01*
X64445543Y-41352552D01*
X64435220Y-41320781D01*
X64435218Y-41320778D01*
X64435218Y-41320776D01*
X64389099Y-41230263D01*
X64342287Y-41138390D01*
X64313096Y-41098212D01*
X64221971Y-40972786D01*
X64077213Y-40828028D01*
X63911613Y-40707715D01*
X63911612Y-40707714D01*
X63911610Y-40707713D01*
X63830731Y-40666503D01*
X63729223Y-40614781D01*
X63534534Y-40551522D01*
X63359995Y-40523878D01*
X63332352Y-40519500D01*
X63127648Y-40519500D01*
X63103329Y-40523351D01*
X62925465Y-40551522D01*
X62730776Y-40614781D01*
X62548386Y-40707715D01*
X62382786Y-40828028D01*
X62238028Y-40972786D01*
X62117715Y-41138386D01*
X62024781Y-41320776D01*
X61961522Y-41515465D01*
X61929500Y-41717648D01*
X55220500Y-41717648D01*
X55220500Y-38628713D01*
X57069500Y-38628713D01*
X57069500Y-38841287D01*
X57075449Y-38878846D01*
X57102753Y-39051239D01*
X57168444Y-39253414D01*
X57264951Y-39442820D01*
X57389890Y-39614786D01*
X57540213Y-39765109D01*
X57712179Y-39890048D01*
X57712181Y-39890049D01*
X57712184Y-39890051D01*
X57901588Y-39986557D01*
X58103757Y-40052246D01*
X58313713Y-40085500D01*
X58313714Y-40085500D01*
X58526286Y-40085500D01*
X58526287Y-40085500D01*
X58736243Y-40052246D01*
X58938412Y-39986557D01*
X59127816Y-39890051D01*
X59177537Y-39853927D01*
X59299786Y-39765109D01*
X59299788Y-39765106D01*
X59299792Y-39765104D01*
X59450104Y-39614792D01*
X59450106Y-39614788D01*
X59450109Y-39614786D01*
X59575048Y-39442820D01*
X59575047Y-39442820D01*
X59575051Y-39442816D01*
X59671557Y-39253412D01*
X59737246Y-39051243D01*
X59770500Y-38841287D01*
X59770500Y-38628713D01*
X59737246Y-38418757D01*
X59671557Y-38216588D01*
X59575051Y-38027184D01*
X59575049Y-38027181D01*
X59575048Y-38027179D01*
X59450109Y-37855213D01*
X59299786Y-37704890D01*
X59127820Y-37579951D01*
X58938414Y-37483444D01*
X58938413Y-37483443D01*
X58938412Y-37483443D01*
X58736243Y-37417754D01*
X58736241Y-37417753D01*
X58736240Y-37417753D01*
X58574957Y-37392208D01*
X58526287Y-37384500D01*
X58313713Y-37384500D01*
X58265042Y-37392208D01*
X58103760Y-37417753D01*
X57901585Y-37483444D01*
X57712179Y-37579951D01*
X57540213Y-37704890D01*
X57389890Y-37855213D01*
X57264951Y-38027179D01*
X57168444Y-38216585D01*
X57102753Y-38418760D01*
X57069500Y-38628713D01*
X55220500Y-38628713D01*
X55220500Y-35654500D01*
X55240185Y-35587461D01*
X55292989Y-35541706D01*
X55344500Y-35530500D01*
X62301364Y-35530500D01*
X62368403Y-35550185D01*
G37*
%TD.AperFunction*%
%TD*%
%TA.AperFunction,Conductor*%
%TO.N,GND*%
G36*
X242552702Y-30175617D02*
G01*
X242936773Y-30192386D01*
X242947505Y-30193326D01*
X243325963Y-30243150D01*
X243336601Y-30245025D01*
X243709279Y-30327647D01*
X243719720Y-30330445D01*
X244083765Y-30445227D01*
X244093911Y-30448920D01*
X244446578Y-30595000D01*
X244456369Y-30599566D01*
X244794942Y-30775816D01*
X244804310Y-30781224D01*
X245126244Y-30986318D01*
X245135105Y-30992523D01*
X245437930Y-31224889D01*
X245446217Y-31231843D01*
X245727635Y-31489715D01*
X245735284Y-31497364D01*
X245993156Y-31778782D01*
X246000110Y-31787069D01*
X246232476Y-32089894D01*
X246238681Y-32098755D01*
X246443775Y-32420689D01*
X246449183Y-32430057D01*
X246625430Y-32768623D01*
X246630002Y-32778427D01*
X246776075Y-33131078D01*
X246779775Y-33141244D01*
X246894553Y-33505276D01*
X246897353Y-33515724D01*
X246979972Y-33888390D01*
X246981850Y-33899044D01*
X247031671Y-34277472D01*
X247032614Y-34288248D01*
X247049382Y-34672297D01*
X247049500Y-34677706D01*
X247049500Y-90472293D01*
X247049382Y-90477702D01*
X247032614Y-90861751D01*
X247031671Y-90872527D01*
X246981850Y-91250955D01*
X246979972Y-91261609D01*
X246897353Y-91634275D01*
X246894553Y-91644723D01*
X246779775Y-92008755D01*
X246776075Y-92018921D01*
X246630002Y-92371572D01*
X246625430Y-92381376D01*
X246449183Y-92719942D01*
X246443775Y-92729310D01*
X246238681Y-93051244D01*
X246232476Y-93060105D01*
X246000110Y-93362930D01*
X245993156Y-93371217D01*
X245735284Y-93652635D01*
X245727635Y-93660284D01*
X245446217Y-93918156D01*
X245437930Y-93925110D01*
X245135105Y-94157476D01*
X245126244Y-94163681D01*
X244804310Y-94368775D01*
X244794942Y-94374183D01*
X244456376Y-94550430D01*
X244446572Y-94555002D01*
X244093921Y-94701075D01*
X244083755Y-94704775D01*
X243719723Y-94819553D01*
X243709275Y-94822353D01*
X243336609Y-94904972D01*
X243325955Y-94906850D01*
X242947527Y-94956671D01*
X242936751Y-94957614D01*
X242552703Y-94974382D01*
X242547294Y-94974500D01*
X210407703Y-94974500D01*
X210340664Y-94954815D01*
X210294909Y-94902011D01*
X210284965Y-94832853D01*
X210286086Y-94826309D01*
X210300499Y-94753846D01*
X210300500Y-94753844D01*
X210300500Y-94596155D01*
X210300499Y-94596153D01*
X210269737Y-94441503D01*
X210269735Y-94441498D01*
X210209397Y-94295827D01*
X210209390Y-94295814D01*
X210121789Y-94164711D01*
X210121786Y-94164707D01*
X210010292Y-94053213D01*
X210010288Y-94053210D01*
X209879185Y-93965609D01*
X209879172Y-93965602D01*
X209733501Y-93905264D01*
X209733489Y-93905261D01*
X209622286Y-93883141D01*
X209560375Y-93850756D01*
X209558796Y-93849205D01*
X208830744Y-93121153D01*
X218099500Y-93121153D01*
X218099500Y-93278846D01*
X218130261Y-93433489D01*
X218130264Y-93433501D01*
X218190602Y-93579172D01*
X218190609Y-93579185D01*
X218278210Y-93710288D01*
X218278213Y-93710292D01*
X218389707Y-93821786D01*
X218389711Y-93821789D01*
X218520814Y-93909390D01*
X218520827Y-93909397D01*
X218656520Y-93965602D01*
X218666503Y-93969737D01*
X218821153Y-94000499D01*
X218821156Y-94000500D01*
X218821158Y-94000500D01*
X218978844Y-94000500D01*
X218978845Y-94000499D01*
X219133497Y-93969737D01*
X219249187Y-93921817D01*
X219279172Y-93909397D01*
X219279172Y-93909396D01*
X219279179Y-93909394D01*
X219373459Y-93846398D01*
X219440136Y-93825520D01*
X219442350Y-93825500D01*
X229057650Y-93825500D01*
X229124689Y-93845185D01*
X229126541Y-93846398D01*
X229220821Y-93909394D01*
X229220823Y-93909395D01*
X229220827Y-93909397D01*
X229356520Y-93965602D01*
X229366503Y-93969737D01*
X229521153Y-94000499D01*
X229521156Y-94000500D01*
X229521158Y-94000500D01*
X229678844Y-94000500D01*
X229678845Y-94000499D01*
X229833497Y-93969737D01*
X229949187Y-93921817D01*
X229979172Y-93909397D01*
X229979172Y-93909396D01*
X229979179Y-93909394D01*
X230110289Y-93821789D01*
X230221789Y-93710289D01*
X230309394Y-93579179D01*
X230369737Y-93433497D01*
X230400500Y-93278842D01*
X230400500Y-93121158D01*
X230400500Y-93121155D01*
X230400499Y-93121153D01*
X230369738Y-92966510D01*
X230369737Y-92966503D01*
X230369735Y-92966498D01*
X230309397Y-92820827D01*
X230309390Y-92820814D01*
X230221789Y-92689711D01*
X230221786Y-92689707D01*
X230110292Y-92578213D01*
X230110288Y-92578210D01*
X229979185Y-92490609D01*
X229979172Y-92490602D01*
X229833501Y-92430264D01*
X229833489Y-92430261D01*
X229678845Y-92399500D01*
X229678842Y-92399500D01*
X229521158Y-92399500D01*
X229521155Y-92399500D01*
X229366510Y-92430261D01*
X229366498Y-92430264D01*
X229220827Y-92490602D01*
X229220815Y-92490609D01*
X229126541Y-92553602D01*
X229059864Y-92574480D01*
X229057650Y-92574500D01*
X219442350Y-92574500D01*
X219375311Y-92554815D01*
X219373459Y-92553602D01*
X219279184Y-92490609D01*
X219279172Y-92490602D01*
X219133501Y-92430264D01*
X219133489Y-92430261D01*
X218978845Y-92399500D01*
X218978842Y-92399500D01*
X218821158Y-92399500D01*
X218821155Y-92399500D01*
X218666510Y-92430261D01*
X218666498Y-92430264D01*
X218520827Y-92490602D01*
X218520814Y-92490609D01*
X218389711Y-92578210D01*
X218389707Y-92578213D01*
X218278213Y-92689707D01*
X218278210Y-92689711D01*
X218190609Y-92820814D01*
X218190602Y-92820827D01*
X218130264Y-92966498D01*
X218130261Y-92966510D01*
X218099500Y-93121153D01*
X208830744Y-93121153D01*
X208361819Y-92652228D01*
X208347115Y-92625300D01*
X208330523Y-92599482D01*
X208329631Y-92593281D01*
X208328334Y-92590905D01*
X208325500Y-92564547D01*
X208325500Y-92542350D01*
X208345185Y-92475311D01*
X208346398Y-92473459D01*
X208375260Y-92430264D01*
X208409394Y-92379179D01*
X208469737Y-92233497D01*
X208500500Y-92078842D01*
X208500500Y-91921158D01*
X208500500Y-91921155D01*
X208500499Y-91921153D01*
X208469737Y-91766503D01*
X208469735Y-91766498D01*
X208409397Y-91620827D01*
X208409390Y-91620814D01*
X208321789Y-91489711D01*
X208321786Y-91489707D01*
X208210292Y-91378213D01*
X208210288Y-91378210D01*
X208079185Y-91290609D01*
X208079172Y-91290602D01*
X207933501Y-91230264D01*
X207933489Y-91230261D01*
X207778845Y-91199500D01*
X207778842Y-91199500D01*
X207621158Y-91199500D01*
X207621155Y-91199500D01*
X207466510Y-91230261D01*
X207466498Y-91230264D01*
X207320827Y-91290602D01*
X207320814Y-91290609D01*
X207189711Y-91378210D01*
X207189707Y-91378213D01*
X207078213Y-91489707D01*
X207078210Y-91489711D01*
X206990609Y-91620814D01*
X206990602Y-91620827D01*
X206930264Y-91766498D01*
X206930261Y-91766510D01*
X206899500Y-91921153D01*
X206899500Y-92078846D01*
X206930261Y-92233489D01*
X206930264Y-92233501D01*
X206990602Y-92379172D01*
X206990609Y-92379184D01*
X207053602Y-92473459D01*
X207074480Y-92540136D01*
X207074500Y-92542350D01*
X207074500Y-92936611D01*
X207098535Y-93057444D01*
X207098540Y-93057461D01*
X207145685Y-93171280D01*
X207145687Y-93171283D01*
X207145688Y-93171286D01*
X207179915Y-93222509D01*
X207214142Y-93273733D01*
X207301267Y-93360858D01*
X207301269Y-93360859D01*
X207311232Y-93370822D01*
X208674205Y-94733796D01*
X208707690Y-94795119D01*
X208708141Y-94797286D01*
X208713914Y-94826309D01*
X208707687Y-94895901D01*
X208664824Y-94951078D01*
X208598934Y-94974322D01*
X208592297Y-94974500D01*
X183877706Y-94974500D01*
X183872297Y-94974382D01*
X183488248Y-94957614D01*
X183477474Y-94956671D01*
X183415007Y-94948447D01*
X183099044Y-94906850D01*
X183088390Y-94904972D01*
X182715724Y-94822353D01*
X182705276Y-94819553D01*
X182341244Y-94704775D01*
X182331078Y-94701075D01*
X181978427Y-94555002D01*
X181968623Y-94550430D01*
X181630057Y-94374183D01*
X181620689Y-94368775D01*
X181298755Y-94163681D01*
X181289894Y-94157476D01*
X180987069Y-93925110D01*
X180978782Y-93918156D01*
X180697364Y-93660284D01*
X180689715Y-93652635D01*
X180431843Y-93371217D01*
X180424889Y-93362930D01*
X180192523Y-93060105D01*
X180186318Y-93051244D01*
X179981224Y-92729310D01*
X179975816Y-92719942D01*
X179909880Y-92593281D01*
X179799566Y-92381369D01*
X179794997Y-92371572D01*
X179737806Y-92233501D01*
X179648920Y-92018911D01*
X179645224Y-92008755D01*
X179617603Y-91921153D01*
X179530445Y-91644720D01*
X179527646Y-91634275D01*
X179524665Y-91620827D01*
X179445025Y-91261601D01*
X179443149Y-91250955D01*
X179430642Y-91155953D01*
X179393326Y-90872505D01*
X179392386Y-90861773D01*
X179385267Y-90698713D01*
X181529500Y-90698713D01*
X181529500Y-90911287D01*
X181562754Y-91121243D01*
X181617782Y-91290602D01*
X181628444Y-91323414D01*
X181724951Y-91512820D01*
X181849890Y-91684786D01*
X182000213Y-91835109D01*
X182172179Y-91960048D01*
X182172181Y-91960049D01*
X182172184Y-91960051D01*
X182361588Y-92056557D01*
X182563757Y-92122246D01*
X182773713Y-92155500D01*
X182773714Y-92155500D01*
X182986286Y-92155500D01*
X182986287Y-92155500D01*
X183196243Y-92122246D01*
X183398412Y-92056557D01*
X183587816Y-91960051D01*
X183641355Y-91921153D01*
X183759786Y-91835109D01*
X183759788Y-91835106D01*
X183759792Y-91835104D01*
X183910104Y-91684792D01*
X183910106Y-91684788D01*
X183910109Y-91684786D01*
X184035048Y-91512820D01*
X184035047Y-91512820D01*
X184035051Y-91512816D01*
X184131557Y-91323412D01*
X184197246Y-91121243D01*
X184230500Y-90911287D01*
X184230500Y-90698713D01*
X241854500Y-90698713D01*
X241854500Y-90911287D01*
X241887754Y-91121243D01*
X241942782Y-91290602D01*
X241953444Y-91323414D01*
X242049951Y-91512820D01*
X242174890Y-91684786D01*
X242325213Y-91835109D01*
X242497179Y-91960048D01*
X242497181Y-91960049D01*
X242497184Y-91960051D01*
X242686588Y-92056557D01*
X242888757Y-92122246D01*
X243098713Y-92155500D01*
X243098714Y-92155500D01*
X243311286Y-92155500D01*
X243311287Y-92155500D01*
X243521243Y-92122246D01*
X243723412Y-92056557D01*
X243912816Y-91960051D01*
X243966355Y-91921153D01*
X244084786Y-91835109D01*
X244084788Y-91835106D01*
X244084792Y-91835104D01*
X244235104Y-91684792D01*
X244235106Y-91684788D01*
X244235109Y-91684786D01*
X244360048Y-91512820D01*
X244360047Y-91512820D01*
X244360051Y-91512816D01*
X244456557Y-91323412D01*
X244522246Y-91121243D01*
X244555500Y-90911287D01*
X244555500Y-90698713D01*
X244522246Y-90488757D01*
X244456557Y-90286588D01*
X244360051Y-90097184D01*
X244360049Y-90097181D01*
X244360048Y-90097179D01*
X244235109Y-89925213D01*
X244084786Y-89774890D01*
X243912820Y-89649951D01*
X243723414Y-89553444D01*
X243723413Y-89553443D01*
X243723412Y-89553443D01*
X243521243Y-89487754D01*
X243521241Y-89487753D01*
X243521240Y-89487753D01*
X243359957Y-89462208D01*
X243311287Y-89454500D01*
X243098713Y-89454500D01*
X243050042Y-89462208D01*
X242888760Y-89487753D01*
X242686585Y-89553444D01*
X242497179Y-89649951D01*
X242325213Y-89774890D01*
X242174890Y-89925213D01*
X242049951Y-90097179D01*
X241953444Y-90286585D01*
X241887753Y-90488760D01*
X241854500Y-90698713D01*
X184230500Y-90698713D01*
X184197246Y-90488757D01*
X184131557Y-90286588D01*
X184035051Y-90097184D01*
X184035049Y-90097181D01*
X184035048Y-90097179D01*
X183910109Y-89925213D01*
X183759786Y-89774890D01*
X183587820Y-89649951D01*
X183398414Y-89553444D01*
X183398413Y-89553443D01*
X183398412Y-89553443D01*
X183196243Y-89487754D01*
X183196241Y-89487753D01*
X183196240Y-89487753D01*
X183034957Y-89462208D01*
X182986287Y-89454500D01*
X182773713Y-89454500D01*
X182725042Y-89462208D01*
X182563760Y-89487753D01*
X182361585Y-89553444D01*
X182172179Y-89649951D01*
X182000213Y-89774890D01*
X181849890Y-89925213D01*
X181724951Y-90097179D01*
X181628444Y-90286585D01*
X181562753Y-90488760D01*
X181529500Y-90698713D01*
X179385267Y-90698713D01*
X179375618Y-90477701D01*
X179375500Y-90472293D01*
X179375500Y-87252648D01*
X199649500Y-87252648D01*
X199649500Y-87457352D01*
X199652629Y-87477105D01*
X199681522Y-87659534D01*
X199744781Y-87854223D01*
X199837715Y-88036613D01*
X199958028Y-88202213D01*
X200102786Y-88346971D01*
X200257749Y-88459556D01*
X200268390Y-88467287D01*
X200384607Y-88526503D01*
X200450776Y-88560218D01*
X200450778Y-88560218D01*
X200450781Y-88560220D01*
X200555137Y-88594127D01*
X200645465Y-88623477D01*
X200746557Y-88639488D01*
X200847648Y-88655500D01*
X200847649Y-88655500D01*
X201052351Y-88655500D01*
X201052352Y-88655500D01*
X201254534Y-88623477D01*
X201449219Y-88560220D01*
X201631610Y-88467287D01*
X201724590Y-88399732D01*
X201797213Y-88346971D01*
X201797215Y-88346968D01*
X201797219Y-88346966D01*
X201941966Y-88202219D01*
X201941968Y-88202215D01*
X201941971Y-88202213D01*
X201994732Y-88129590D01*
X202062287Y-88036610D01*
X202155220Y-87854219D01*
X202218477Y-87659534D01*
X202250500Y-87457352D01*
X202250500Y-87252648D01*
X206349500Y-87252648D01*
X206349500Y-87457352D01*
X206352629Y-87477105D01*
X206381522Y-87659534D01*
X206444781Y-87854223D01*
X206537715Y-88036613D01*
X206658028Y-88202213D01*
X206802786Y-88346971D01*
X206957749Y-88459556D01*
X206968390Y-88467287D01*
X207084607Y-88526503D01*
X207150776Y-88560218D01*
X207150778Y-88560218D01*
X207150781Y-88560220D01*
X207255137Y-88594127D01*
X207345465Y-88623477D01*
X207446557Y-88639488D01*
X207547648Y-88655500D01*
X207547649Y-88655500D01*
X207752351Y-88655500D01*
X207752352Y-88655500D01*
X207954534Y-88623477D01*
X208149219Y-88560220D01*
X208331610Y-88467287D01*
X208424590Y-88399732D01*
X208497213Y-88346971D01*
X208497215Y-88346968D01*
X208497219Y-88346966D01*
X208641966Y-88202219D01*
X208641968Y-88202215D01*
X208641971Y-88202213D01*
X208694732Y-88129590D01*
X208762287Y-88036610D01*
X208855220Y-87854219D01*
X208918477Y-87659534D01*
X208950500Y-87457352D01*
X208950500Y-87352648D01*
X213349500Y-87352648D01*
X213349500Y-87557352D01*
X213352629Y-87577105D01*
X213381522Y-87759534D01*
X213444781Y-87954223D01*
X213537715Y-88136613D01*
X213658028Y-88302213D01*
X213802786Y-88446971D01*
X213957749Y-88559556D01*
X213968390Y-88567287D01*
X214078669Y-88623477D01*
X214150776Y-88660218D01*
X214150778Y-88660218D01*
X214150781Y-88660220D01*
X214255137Y-88694127D01*
X214345465Y-88723477D01*
X214446557Y-88739488D01*
X214547648Y-88755500D01*
X214547649Y-88755500D01*
X214752351Y-88755500D01*
X214752352Y-88755500D01*
X214954534Y-88723477D01*
X215149219Y-88660220D01*
X215331610Y-88567287D01*
X215424590Y-88499732D01*
X215497213Y-88446971D01*
X215497215Y-88446968D01*
X215497219Y-88446966D01*
X215641966Y-88302219D01*
X215641968Y-88302215D01*
X215641971Y-88302213D01*
X215694732Y-88229590D01*
X215762287Y-88136610D01*
X215855220Y-87954219D01*
X215884977Y-87862635D01*
X215896512Y-87827135D01*
X219049500Y-87827135D01*
X219049500Y-89722870D01*
X219049501Y-89722876D01*
X219055908Y-89782483D01*
X219106202Y-89917328D01*
X219106206Y-89917335D01*
X219192452Y-90032544D01*
X219192455Y-90032547D01*
X219307664Y-90118793D01*
X219307671Y-90118797D01*
X219442517Y-90169091D01*
X219442516Y-90169091D01*
X219449444Y-90169835D01*
X219502127Y-90175500D01*
X221397872Y-90175499D01*
X221457483Y-90169091D01*
X221592331Y-90118796D01*
X221707546Y-90032546D01*
X221793796Y-89917331D01*
X221793798Y-89917326D01*
X221823601Y-89837420D01*
X221865471Y-89781486D01*
X221930936Y-89757068D01*
X221999209Y-89771919D01*
X222027464Y-89793071D01*
X222077636Y-89843243D01*
X222077641Y-89843247D01*
X222146219Y-89893071D01*
X222255978Y-89972815D01*
X222384375Y-90038237D01*
X222452393Y-90072895D01*
X222452396Y-90072896D01*
X222527149Y-90097184D01*
X222662049Y-90141015D01*
X222879778Y-90175500D01*
X222879779Y-90175500D01*
X223100221Y-90175500D01*
X223100222Y-90175500D01*
X223317951Y-90141015D01*
X223527606Y-90072895D01*
X223724022Y-89972815D01*
X223902365Y-89843242D01*
X224058242Y-89687365D01*
X224187815Y-89509022D01*
X224287895Y-89312606D01*
X224356015Y-89102951D01*
X224390500Y-88885222D01*
X224390500Y-88664778D01*
X224356015Y-88447049D01*
X224287895Y-88237394D01*
X224287895Y-88237393D01*
X224235909Y-88135367D01*
X224187815Y-88040978D01*
X224184644Y-88036613D01*
X224155639Y-87996690D01*
X224155638Y-87996689D01*
X224105104Y-87927135D01*
X227249500Y-87927135D01*
X227249500Y-89822870D01*
X227249501Y-89822876D01*
X227255908Y-89882483D01*
X227306202Y-90017328D01*
X227306206Y-90017335D01*
X227392452Y-90132544D01*
X227392455Y-90132547D01*
X227507664Y-90218793D01*
X227507671Y-90218797D01*
X227642517Y-90269091D01*
X227642516Y-90269091D01*
X227649444Y-90269835D01*
X227702127Y-90275500D01*
X229597872Y-90275499D01*
X229657483Y-90269091D01*
X229792331Y-90218796D01*
X229907546Y-90132546D01*
X229993796Y-90017331D01*
X229993798Y-90017326D01*
X230023601Y-89937420D01*
X230065471Y-89881486D01*
X230130936Y-89857068D01*
X230199209Y-89871919D01*
X230227464Y-89893071D01*
X230277636Y-89943243D01*
X230277641Y-89943247D01*
X230433192Y-90056260D01*
X230455978Y-90072815D01*
X230584375Y-90138237D01*
X230652393Y-90172895D01*
X230652396Y-90172896D01*
X230757221Y-90206955D01*
X230862049Y-90241015D01*
X231079778Y-90275500D01*
X231079779Y-90275500D01*
X231300221Y-90275500D01*
X231300222Y-90275500D01*
X231517951Y-90241015D01*
X231727606Y-90172895D01*
X231924022Y-90072815D01*
X232102365Y-89943242D01*
X232258242Y-89787365D01*
X232387815Y-89609022D01*
X232487895Y-89412606D01*
X232556015Y-89202951D01*
X232590500Y-88985222D01*
X232590500Y-88764778D01*
X232556015Y-88547049D01*
X232487895Y-88337394D01*
X232487895Y-88337393D01*
X232419016Y-88202213D01*
X232387815Y-88140978D01*
X232329501Y-88060715D01*
X232282986Y-87996691D01*
X232258247Y-87962641D01*
X232258243Y-87962636D01*
X232222742Y-87927135D01*
X234914500Y-87927135D01*
X234914500Y-89822870D01*
X234914501Y-89822876D01*
X234920908Y-89882483D01*
X234971202Y-90017328D01*
X234971206Y-90017335D01*
X235057452Y-90132544D01*
X235057455Y-90132547D01*
X235172664Y-90218793D01*
X235172671Y-90218797D01*
X235307517Y-90269091D01*
X235307516Y-90269091D01*
X235314444Y-90269835D01*
X235367127Y-90275500D01*
X237262872Y-90275499D01*
X237322483Y-90269091D01*
X237457331Y-90218796D01*
X237572546Y-90132546D01*
X237658796Y-90017331D01*
X237658798Y-90017326D01*
X237688601Y-89937420D01*
X237730471Y-89881486D01*
X237795936Y-89857068D01*
X237864209Y-89871919D01*
X237892464Y-89893071D01*
X237942636Y-89943243D01*
X237942641Y-89943247D01*
X238098192Y-90056260D01*
X238120978Y-90072815D01*
X238249375Y-90138237D01*
X238317393Y-90172895D01*
X238317396Y-90172896D01*
X238422221Y-90206955D01*
X238527049Y-90241015D01*
X238744778Y-90275500D01*
X238744779Y-90275500D01*
X238965221Y-90275500D01*
X238965222Y-90275500D01*
X239182951Y-90241015D01*
X239392606Y-90172895D01*
X239589022Y-90072815D01*
X239767365Y-89943242D01*
X239923242Y-89787365D01*
X240052815Y-89609022D01*
X240152895Y-89412606D01*
X240221015Y-89202951D01*
X240255500Y-88985222D01*
X240255500Y-88764778D01*
X240221015Y-88547049D01*
X240152895Y-88337394D01*
X240152895Y-88337393D01*
X240084016Y-88202213D01*
X240052815Y-88140978D01*
X239947985Y-87996691D01*
X239923247Y-87962641D01*
X239923243Y-87962636D01*
X239767363Y-87806756D01*
X239767358Y-87806752D01*
X239589025Y-87677187D01*
X239589024Y-87677186D01*
X239589022Y-87677185D01*
X239526096Y-87645122D01*
X239392606Y-87577104D01*
X239392603Y-87577103D01*
X239182952Y-87508985D01*
X239074086Y-87491742D01*
X238965222Y-87474500D01*
X238744778Y-87474500D01*
X238672201Y-87485995D01*
X238527047Y-87508985D01*
X238317396Y-87577103D01*
X238317393Y-87577104D01*
X238120974Y-87677187D01*
X237942641Y-87806752D01*
X237942636Y-87806756D01*
X237892463Y-87856929D01*
X237831140Y-87890413D01*
X237761448Y-87885428D01*
X237705515Y-87843557D01*
X237688601Y-87812580D01*
X237658797Y-87732671D01*
X237658793Y-87732664D01*
X237572547Y-87617455D01*
X237572544Y-87617452D01*
X237457335Y-87531206D01*
X237457328Y-87531202D01*
X237322482Y-87480908D01*
X237322483Y-87480908D01*
X237262883Y-87474501D01*
X237262881Y-87474500D01*
X237262873Y-87474500D01*
X237262864Y-87474500D01*
X235367129Y-87474500D01*
X235367123Y-87474501D01*
X235307516Y-87480908D01*
X235172671Y-87531202D01*
X235172664Y-87531206D01*
X235057455Y-87617452D01*
X235057452Y-87617455D01*
X234971206Y-87732664D01*
X234971202Y-87732671D01*
X234920908Y-87867517D01*
X234914501Y-87927116D01*
X234914500Y-87927135D01*
X232222742Y-87927135D01*
X232102363Y-87806756D01*
X232102358Y-87806752D01*
X231924025Y-87677187D01*
X231924024Y-87677186D01*
X231924022Y-87677185D01*
X231861096Y-87645122D01*
X231727606Y-87577104D01*
X231727603Y-87577103D01*
X231517952Y-87508985D01*
X231409086Y-87491742D01*
X231300222Y-87474500D01*
X231079778Y-87474500D01*
X231007201Y-87485995D01*
X230862047Y-87508985D01*
X230652396Y-87577103D01*
X230652393Y-87577104D01*
X230455974Y-87677187D01*
X230277641Y-87806752D01*
X230277636Y-87806756D01*
X230227463Y-87856929D01*
X230166140Y-87890413D01*
X230096448Y-87885428D01*
X230040515Y-87843557D01*
X230023601Y-87812580D01*
X229993797Y-87732671D01*
X229993793Y-87732664D01*
X229907547Y-87617455D01*
X229907544Y-87617452D01*
X229792335Y-87531206D01*
X229792328Y-87531202D01*
X229657482Y-87480908D01*
X229657483Y-87480908D01*
X229597883Y-87474501D01*
X229597881Y-87474500D01*
X229597873Y-87474500D01*
X229597864Y-87474500D01*
X227702129Y-87474500D01*
X227702123Y-87474501D01*
X227642516Y-87480908D01*
X227507671Y-87531202D01*
X227507664Y-87531206D01*
X227392455Y-87617452D01*
X227392452Y-87617455D01*
X227306206Y-87732664D01*
X227306202Y-87732671D01*
X227255908Y-87867517D01*
X227249501Y-87927116D01*
X227249500Y-87927135D01*
X224105104Y-87927135D01*
X224058247Y-87862641D01*
X224058243Y-87862636D01*
X223902363Y-87706756D01*
X223902358Y-87706752D01*
X223724025Y-87577187D01*
X223724024Y-87577186D01*
X223724022Y-87577185D01*
X223633784Y-87531206D01*
X223527606Y-87477104D01*
X223527603Y-87477103D01*
X223317952Y-87408985D01*
X223209086Y-87391742D01*
X223100222Y-87374500D01*
X222879778Y-87374500D01*
X222807201Y-87385995D01*
X222662047Y-87408985D01*
X222452396Y-87477103D01*
X222452393Y-87477104D01*
X222255974Y-87577187D01*
X222077641Y-87706752D01*
X222077636Y-87706756D01*
X222027463Y-87756929D01*
X221966140Y-87790413D01*
X221896448Y-87785428D01*
X221840515Y-87743557D01*
X221823601Y-87712580D01*
X221793797Y-87632671D01*
X221793793Y-87632664D01*
X221707547Y-87517455D01*
X221707544Y-87517452D01*
X221592335Y-87431206D01*
X221592328Y-87431202D01*
X221457482Y-87380908D01*
X221457483Y-87380908D01*
X221397883Y-87374501D01*
X221397881Y-87374500D01*
X221397873Y-87374500D01*
X221397864Y-87374500D01*
X219502129Y-87374500D01*
X219502123Y-87374501D01*
X219442516Y-87380908D01*
X219307671Y-87431202D01*
X219307664Y-87431206D01*
X219192455Y-87517452D01*
X219192452Y-87517455D01*
X219106206Y-87632664D01*
X219106202Y-87632671D01*
X219055908Y-87767517D01*
X219049501Y-87827116D01*
X219049500Y-87827135D01*
X215896512Y-87827135D01*
X215910045Y-87785487D01*
X215910046Y-87785485D01*
X215918475Y-87759542D01*
X215918475Y-87759538D01*
X215918477Y-87759534D01*
X215950500Y-87557352D01*
X215950500Y-87352648D01*
X215918477Y-87150466D01*
X215855220Y-86955781D01*
X215855218Y-86955778D01*
X215855218Y-86955776D01*
X215800155Y-86847710D01*
X215762287Y-86773390D01*
X215754556Y-86762749D01*
X215641971Y-86607786D01*
X215497213Y-86463028D01*
X215331613Y-86342715D01*
X215331612Y-86342714D01*
X215331610Y-86342713D01*
X215257596Y-86305001D01*
X215149223Y-86249781D01*
X214954534Y-86186522D01*
X214779995Y-86158878D01*
X214752352Y-86154500D01*
X214547648Y-86154500D01*
X214523329Y-86158351D01*
X214345465Y-86186522D01*
X214150776Y-86249781D01*
X213968386Y-86342715D01*
X213802786Y-86463028D01*
X213658028Y-86607786D01*
X213537715Y-86773386D01*
X213444781Y-86955776D01*
X213381522Y-87150465D01*
X213349500Y-87352648D01*
X208950500Y-87352648D01*
X208950500Y-87252648D01*
X208918477Y-87050466D01*
X208855220Y-86855781D01*
X208855218Y-86855778D01*
X208855218Y-86855776D01*
X208821503Y-86789607D01*
X208762287Y-86673390D01*
X208754556Y-86662749D01*
X208641971Y-86507786D01*
X208497213Y-86363028D01*
X208331613Y-86242715D01*
X208331612Y-86242714D01*
X208331610Y-86242713D01*
X208274653Y-86213691D01*
X208149223Y-86149781D01*
X207954534Y-86086522D01*
X207779995Y-86058878D01*
X207752352Y-86054500D01*
X207547648Y-86054500D01*
X207523329Y-86058351D01*
X207345465Y-86086522D01*
X207150776Y-86149781D01*
X206968386Y-86242715D01*
X206802786Y-86363028D01*
X206658028Y-86507786D01*
X206537715Y-86673386D01*
X206444781Y-86855776D01*
X206381522Y-87050465D01*
X206365684Y-87150465D01*
X206349500Y-87252648D01*
X202250500Y-87252648D01*
X202218477Y-87050466D01*
X202155220Y-86855781D01*
X202155218Y-86855778D01*
X202155218Y-86855776D01*
X202121503Y-86789607D01*
X202062287Y-86673390D01*
X202054556Y-86662749D01*
X201941971Y-86507786D01*
X201797213Y-86363028D01*
X201631613Y-86242715D01*
X201631612Y-86242714D01*
X201631610Y-86242713D01*
X201574653Y-86213691D01*
X201449223Y-86149781D01*
X201254534Y-86086522D01*
X201079995Y-86058878D01*
X201052352Y-86054500D01*
X200847648Y-86054500D01*
X200823329Y-86058351D01*
X200645465Y-86086522D01*
X200450776Y-86149781D01*
X200268386Y-86242715D01*
X200102786Y-86363028D01*
X199958028Y-86507786D01*
X199837715Y-86673386D01*
X199744781Y-86855776D01*
X199681522Y-87050465D01*
X199665684Y-87150465D01*
X199649500Y-87252648D01*
X179375500Y-87252648D01*
X179375500Y-84754983D01*
X188399500Y-84754983D01*
X188399500Y-86305001D01*
X188399501Y-86305018D01*
X188410000Y-86407796D01*
X188410001Y-86407799D01*
X188455894Y-86546294D01*
X188465186Y-86574334D01*
X188557288Y-86723656D01*
X188681344Y-86847712D01*
X188830666Y-86939814D01*
X188997203Y-86994999D01*
X189099991Y-87005500D01*
X190400008Y-87005499D01*
X190502797Y-86994999D01*
X190669334Y-86939814D01*
X190818656Y-86847712D01*
X190942712Y-86723656D01*
X191034814Y-86574334D01*
X191034814Y-86574331D01*
X191038178Y-86568879D01*
X191090126Y-86522154D01*
X191159088Y-86510931D01*
X191223170Y-86538774D01*
X191231398Y-86546294D01*
X191370213Y-86685109D01*
X191542179Y-86810048D01*
X191542181Y-86810049D01*
X191542184Y-86810051D01*
X191731588Y-86906557D01*
X191933757Y-86972246D01*
X192143713Y-87005500D01*
X192143714Y-87005500D01*
X192356286Y-87005500D01*
X192356287Y-87005500D01*
X192566243Y-86972246D01*
X192768412Y-86906557D01*
X192957816Y-86810051D01*
X193008276Y-86773390D01*
X193129786Y-86685109D01*
X193129788Y-86685106D01*
X193129792Y-86685104D01*
X193280104Y-86534792D01*
X193280106Y-86534788D01*
X193280109Y-86534786D01*
X193405048Y-86362820D01*
X193405047Y-86362820D01*
X193405051Y-86362816D01*
X193501557Y-86173412D01*
X193567246Y-85971243D01*
X193600500Y-85761287D01*
X193600500Y-85298713D01*
X193567246Y-85088757D01*
X193501557Y-84886588D01*
X193405051Y-84697184D01*
X193405049Y-84697181D01*
X193405048Y-84697179D01*
X193280109Y-84525213D01*
X193129786Y-84374890D01*
X192957820Y-84249951D01*
X192768414Y-84153444D01*
X192768413Y-84153443D01*
X192768412Y-84153443D01*
X192566243Y-84087754D01*
X192566241Y-84087753D01*
X192566240Y-84087753D01*
X192404957Y-84062208D01*
X192356287Y-84054500D01*
X192143713Y-84054500D01*
X192095042Y-84062208D01*
X191933760Y-84087753D01*
X191731585Y-84153444D01*
X191542179Y-84249951D01*
X191370215Y-84374889D01*
X191231398Y-84513706D01*
X191170075Y-84547190D01*
X191100383Y-84542206D01*
X191044450Y-84500334D01*
X191038178Y-84491120D01*
X190942712Y-84336344D01*
X190818657Y-84212289D01*
X190818656Y-84212288D01*
X190669334Y-84120186D01*
X190502797Y-84065001D01*
X190502795Y-84065000D01*
X190400010Y-84054500D01*
X189099998Y-84054500D01*
X189099981Y-84054501D01*
X188997203Y-84065000D01*
X188997200Y-84065001D01*
X188830668Y-84120185D01*
X188830663Y-84120187D01*
X188681342Y-84212289D01*
X188557289Y-84336342D01*
X188465187Y-84485663D01*
X188465185Y-84485668D01*
X188460325Y-84500334D01*
X188410001Y-84652203D01*
X188410001Y-84652204D01*
X188410000Y-84652204D01*
X188399500Y-84754983D01*
X179375500Y-84754983D01*
X179375500Y-76321153D01*
X186099500Y-76321153D01*
X186099500Y-76478846D01*
X186130261Y-76633489D01*
X186130264Y-76633501D01*
X186190602Y-76779172D01*
X186190609Y-76779184D01*
X186253602Y-76873459D01*
X186274480Y-76940136D01*
X186274500Y-76942350D01*
X186274500Y-78957650D01*
X186254815Y-79024689D01*
X186253602Y-79026541D01*
X186190609Y-79120815D01*
X186190602Y-79120828D01*
X186130264Y-79266498D01*
X186130261Y-79266510D01*
X186099500Y-79421153D01*
X186099500Y-79578846D01*
X186130261Y-79733489D01*
X186130264Y-79733501D01*
X186190602Y-79879172D01*
X186190609Y-79879185D01*
X186278210Y-80010288D01*
X186278213Y-80010292D01*
X186389707Y-80121786D01*
X186389711Y-80121789D01*
X186520814Y-80209390D01*
X186520827Y-80209397D01*
X186666498Y-80269735D01*
X186666503Y-80269737D01*
X186821153Y-80300499D01*
X186821156Y-80300500D01*
X186821158Y-80300500D01*
X186978844Y-80300500D01*
X186978845Y-80300499D01*
X187133497Y-80269737D01*
X187279179Y-80209394D01*
X187410289Y-80121789D01*
X187521789Y-80010289D01*
X187609394Y-79879179D01*
X187669737Y-79733497D01*
X187700500Y-79578842D01*
X187700500Y-79421158D01*
X187700500Y-79421155D01*
X187700499Y-79421153D01*
X187669738Y-79266510D01*
X187669737Y-79266503D01*
X187609394Y-79120821D01*
X187546397Y-79026539D01*
X187525520Y-78959863D01*
X187525500Y-78957650D01*
X187525500Y-77092648D01*
X199649500Y-77092648D01*
X199649500Y-77297351D01*
X199681522Y-77499534D01*
X199744781Y-77694223D01*
X199837715Y-77876613D01*
X199958028Y-78042213D01*
X200102786Y-78186971D01*
X200240420Y-78286966D01*
X200268390Y-78307287D01*
X200384607Y-78366503D01*
X200450776Y-78400218D01*
X200450778Y-78400218D01*
X200450781Y-78400220D01*
X200555137Y-78434127D01*
X200645465Y-78463477D01*
X200746557Y-78479488D01*
X200847648Y-78495500D01*
X200847649Y-78495500D01*
X201052351Y-78495500D01*
X201052352Y-78495500D01*
X201254534Y-78463477D01*
X201449219Y-78400220D01*
X201631610Y-78307287D01*
X201724590Y-78239732D01*
X201797213Y-78186971D01*
X201797215Y-78186968D01*
X201797219Y-78186966D01*
X201941966Y-78042219D01*
X201941968Y-78042215D01*
X201941971Y-78042213D01*
X201994732Y-77969590D01*
X202062287Y-77876610D01*
X202155220Y-77694219D01*
X202218477Y-77499534D01*
X202250500Y-77297352D01*
X202250500Y-77092648D01*
X206349500Y-77092648D01*
X206349500Y-77297351D01*
X206381522Y-77499534D01*
X206444781Y-77694223D01*
X206537715Y-77876613D01*
X206658028Y-78042213D01*
X206802786Y-78186971D01*
X206940420Y-78286966D01*
X206968390Y-78307287D01*
X207084607Y-78366503D01*
X207150776Y-78400218D01*
X207150778Y-78400218D01*
X207150781Y-78400220D01*
X207255137Y-78434127D01*
X207345465Y-78463477D01*
X207446557Y-78479488D01*
X207547648Y-78495500D01*
X207547649Y-78495500D01*
X207752351Y-78495500D01*
X207752352Y-78495500D01*
X207954534Y-78463477D01*
X208149219Y-78400220D01*
X208331610Y-78307287D01*
X208424590Y-78239732D01*
X208497213Y-78186971D01*
X208497215Y-78186968D01*
X208497219Y-78186966D01*
X208641966Y-78042219D01*
X208641968Y-78042215D01*
X208641971Y-78042213D01*
X208694732Y-77969590D01*
X208762287Y-77876610D01*
X208855220Y-77694219D01*
X208918477Y-77499534D01*
X208950500Y-77297352D01*
X208950500Y-77192648D01*
X213349500Y-77192648D01*
X213349500Y-77397351D01*
X213381522Y-77599534D01*
X213444781Y-77794223D01*
X213537715Y-77976613D01*
X213658028Y-78142213D01*
X213802786Y-78286971D01*
X213957749Y-78399556D01*
X213968390Y-78407287D01*
X214078669Y-78463477D01*
X214150776Y-78500218D01*
X214150778Y-78500218D01*
X214150781Y-78500220D01*
X214255137Y-78534127D01*
X214345465Y-78563477D01*
X214446557Y-78579488D01*
X214547648Y-78595500D01*
X214547649Y-78595500D01*
X214752351Y-78595500D01*
X214752352Y-78595500D01*
X214954534Y-78563477D01*
X215149219Y-78500220D01*
X215331610Y-78407287D01*
X215424590Y-78339732D01*
X215497213Y-78286971D01*
X215497215Y-78286968D01*
X215497219Y-78286966D01*
X215641966Y-78142219D01*
X215641968Y-78142215D01*
X215641971Y-78142213D01*
X215694732Y-78069590D01*
X215762287Y-77976610D01*
X215855220Y-77794219D01*
X215918477Y-77599534D01*
X215950500Y-77397352D01*
X215950500Y-77192648D01*
X215918477Y-76990466D01*
X215855220Y-76795781D01*
X215855218Y-76795778D01*
X215855218Y-76795776D01*
X215804265Y-76695776D01*
X215762287Y-76613390D01*
X215754556Y-76602749D01*
X215641971Y-76447786D01*
X215497213Y-76303028D01*
X215331613Y-76182715D01*
X215331612Y-76182714D01*
X215331610Y-76182713D01*
X215274653Y-76153691D01*
X215149223Y-76089781D01*
X214954534Y-76026522D01*
X214779995Y-75998878D01*
X214752352Y-75994500D01*
X214547648Y-75994500D01*
X214523329Y-75998351D01*
X214345465Y-76026522D01*
X214150776Y-76089781D01*
X213968386Y-76182715D01*
X213802786Y-76303028D01*
X213658028Y-76447786D01*
X213537715Y-76613386D01*
X213444781Y-76795776D01*
X213381522Y-76990465D01*
X213349500Y-77192648D01*
X208950500Y-77192648D01*
X208950500Y-77092648D01*
X208918477Y-76890466D01*
X208855220Y-76695781D01*
X208855218Y-76695778D01*
X208855218Y-76695776D01*
X208821503Y-76629607D01*
X208762287Y-76513390D01*
X208737187Y-76478842D01*
X208641971Y-76347786D01*
X208497213Y-76203028D01*
X208331613Y-76082715D01*
X208331612Y-76082714D01*
X208331610Y-76082713D01*
X208274653Y-76053691D01*
X208149223Y-75989781D01*
X207954534Y-75926522D01*
X207779995Y-75898878D01*
X207752352Y-75894500D01*
X207547648Y-75894500D01*
X207523329Y-75898351D01*
X207345465Y-75926522D01*
X207150776Y-75989781D01*
X206968386Y-76082715D01*
X206802786Y-76203028D01*
X206658028Y-76347786D01*
X206537715Y-76513386D01*
X206444781Y-76695776D01*
X206381522Y-76890465D01*
X206349500Y-77092648D01*
X202250500Y-77092648D01*
X202218477Y-76890466D01*
X202155220Y-76695781D01*
X202155218Y-76695778D01*
X202155218Y-76695776D01*
X202121503Y-76629607D01*
X202062287Y-76513390D01*
X202037187Y-76478842D01*
X201941971Y-76347786D01*
X201797213Y-76203028D01*
X201631613Y-76082715D01*
X201631612Y-76082714D01*
X201631610Y-76082713D01*
X201574653Y-76053691D01*
X201449223Y-75989781D01*
X201254534Y-75926522D01*
X201079995Y-75898878D01*
X201052352Y-75894500D01*
X200847648Y-75894500D01*
X200823329Y-75898351D01*
X200645465Y-75926522D01*
X200450776Y-75989781D01*
X200268386Y-76082715D01*
X200102786Y-76203028D01*
X199958028Y-76347786D01*
X199837715Y-76513386D01*
X199744781Y-76695776D01*
X199681522Y-76890465D01*
X199649500Y-77092648D01*
X187525500Y-77092648D01*
X187525500Y-76942350D01*
X187545185Y-76875311D01*
X187546398Y-76873459D01*
X187546809Y-76872843D01*
X187609394Y-76779179D01*
X187669737Y-76633497D01*
X187700500Y-76478842D01*
X187700500Y-76321158D01*
X187700500Y-76321155D01*
X187700499Y-76321153D01*
X187696894Y-76303028D01*
X187669737Y-76166503D01*
X187635031Y-76082715D01*
X187609397Y-76020827D01*
X187609390Y-76020814D01*
X187521789Y-75889711D01*
X187521786Y-75889707D01*
X187410292Y-75778213D01*
X187410288Y-75778210D01*
X187279185Y-75690609D01*
X187279172Y-75690602D01*
X187133501Y-75630264D01*
X187133489Y-75630261D01*
X186978845Y-75599500D01*
X186978842Y-75599500D01*
X186821158Y-75599500D01*
X186821155Y-75599500D01*
X186666510Y-75630261D01*
X186666498Y-75630264D01*
X186520827Y-75690602D01*
X186520814Y-75690609D01*
X186389711Y-75778210D01*
X186389707Y-75778213D01*
X186278213Y-75889707D01*
X186278210Y-75889711D01*
X186190609Y-76020814D01*
X186190602Y-76020827D01*
X186130264Y-76166498D01*
X186130261Y-76166510D01*
X186099500Y-76321153D01*
X179375500Y-76321153D01*
X179375500Y-72997648D01*
X196279500Y-72997648D01*
X196279500Y-73202351D01*
X196311522Y-73404534D01*
X196374781Y-73599223D01*
X196467715Y-73781613D01*
X196588028Y-73947213D01*
X196732786Y-74091971D01*
X196887749Y-74204556D01*
X196898390Y-74212287D01*
X197014607Y-74271503D01*
X197080776Y-74305218D01*
X197080778Y-74305218D01*
X197080781Y-74305220D01*
X197185137Y-74339127D01*
X197275465Y-74368477D01*
X197376557Y-74384488D01*
X197477648Y-74400500D01*
X197477649Y-74400500D01*
X197682351Y-74400500D01*
X197682352Y-74400500D01*
X197884534Y-74368477D01*
X198079219Y-74305220D01*
X198261610Y-74212287D01*
X198354590Y-74144732D01*
X198427213Y-74091971D01*
X198427215Y-74091968D01*
X198427219Y-74091966D01*
X198571966Y-73947219D01*
X198571968Y-73947215D01*
X198571971Y-73947213D01*
X198624732Y-73874590D01*
X198692287Y-73781610D01*
X198785220Y-73599219D01*
X198848477Y-73404534D01*
X198880500Y-73202352D01*
X198880500Y-72997648D01*
X219219500Y-72997648D01*
X219219500Y-73202351D01*
X219251522Y-73404534D01*
X219314781Y-73599223D01*
X219407715Y-73781613D01*
X219528028Y-73947213D01*
X219672786Y-74091971D01*
X219827749Y-74204556D01*
X219838390Y-74212287D01*
X219954607Y-74271503D01*
X220020776Y-74305218D01*
X220020778Y-74305218D01*
X220020781Y-74305220D01*
X220125137Y-74339127D01*
X220215465Y-74368477D01*
X220316557Y-74384488D01*
X220417648Y-74400500D01*
X220417649Y-74400500D01*
X220622351Y-74400500D01*
X220622352Y-74400500D01*
X220824534Y-74368477D01*
X221019219Y-74305220D01*
X221201610Y-74212287D01*
X221294590Y-74144732D01*
X221367213Y-74091971D01*
X221367215Y-74091968D01*
X221367219Y-74091966D01*
X221511966Y-73947219D01*
X221511968Y-73947215D01*
X221511971Y-73947213D01*
X221564732Y-73874590D01*
X221632287Y-73781610D01*
X221725220Y-73599219D01*
X221788477Y-73404534D01*
X221820500Y-73202352D01*
X221820500Y-72997648D01*
X221788477Y-72795466D01*
X221725220Y-72600781D01*
X221725218Y-72600778D01*
X221725218Y-72600776D01*
X221691503Y-72534607D01*
X221632287Y-72418390D01*
X221624556Y-72407749D01*
X221511971Y-72252786D01*
X221367213Y-72108028D01*
X221201613Y-71987715D01*
X221201612Y-71987714D01*
X221201610Y-71987713D01*
X221092825Y-71932284D01*
X221019223Y-71894781D01*
X220824534Y-71831522D01*
X220649995Y-71803878D01*
X220622352Y-71799500D01*
X220417648Y-71799500D01*
X220393329Y-71803351D01*
X220215465Y-71831522D01*
X220020776Y-71894781D01*
X219838386Y-71987715D01*
X219672786Y-72108028D01*
X219528028Y-72252786D01*
X219407715Y-72418386D01*
X219314781Y-72600776D01*
X219251522Y-72795465D01*
X219219500Y-72997648D01*
X198880500Y-72997648D01*
X198848477Y-72795466D01*
X198785220Y-72600781D01*
X198785218Y-72600778D01*
X198785218Y-72600776D01*
X198751503Y-72534607D01*
X198692287Y-72418390D01*
X198684556Y-72407749D01*
X198571971Y-72252786D01*
X198427213Y-72108028D01*
X198261613Y-71987715D01*
X198261612Y-71987714D01*
X198261610Y-71987713D01*
X198152825Y-71932284D01*
X198079223Y-71894781D01*
X197884534Y-71831522D01*
X197709995Y-71803878D01*
X197682352Y-71799500D01*
X197477648Y-71799500D01*
X197453329Y-71803351D01*
X197275465Y-71831522D01*
X197080776Y-71894781D01*
X196898386Y-71987715D01*
X196732786Y-72108028D01*
X196588028Y-72252786D01*
X196467715Y-72418386D01*
X196374781Y-72600776D01*
X196311522Y-72795465D01*
X196279500Y-72997648D01*
X179375500Y-72997648D01*
X179375500Y-70717648D01*
X233499500Y-70717648D01*
X233499500Y-70922351D01*
X233531522Y-71124534D01*
X233594781Y-71319223D01*
X233687715Y-71501613D01*
X233808028Y-71667213D01*
X233952786Y-71811971D01*
X234066767Y-71894781D01*
X234118390Y-71932287D01*
X234234607Y-71991503D01*
X234300776Y-72025218D01*
X234300778Y-72025218D01*
X234300781Y-72025220D01*
X234405137Y-72059127D01*
X234495465Y-72088477D01*
X234596557Y-72104488D01*
X234697648Y-72120500D01*
X234697649Y-72120500D01*
X234902351Y-72120500D01*
X234902352Y-72120500D01*
X235104534Y-72088477D01*
X235299219Y-72025220D01*
X235481610Y-71932287D01*
X235620301Y-71831523D01*
X235647213Y-71811971D01*
X235647215Y-71811968D01*
X235647219Y-71811966D01*
X235791966Y-71667219D01*
X235791968Y-71667215D01*
X235791971Y-71667213D01*
X235844732Y-71594590D01*
X235912287Y-71501610D01*
X236005220Y-71319219D01*
X236068477Y-71124534D01*
X236100500Y-70922352D01*
X236100500Y-70717648D01*
X236068477Y-70515466D01*
X236005220Y-70320781D01*
X236005218Y-70320778D01*
X236005218Y-70320776D01*
X235971503Y-70254607D01*
X235912287Y-70138390D01*
X235904556Y-70127749D01*
X235791971Y-69972786D01*
X235647213Y-69828028D01*
X235481613Y-69707715D01*
X235481612Y-69707714D01*
X235481610Y-69707713D01*
X235424653Y-69678691D01*
X235299223Y-69614781D01*
X235104534Y-69551522D01*
X234929995Y-69523878D01*
X234902352Y-69519500D01*
X234697648Y-69519500D01*
X234673329Y-69523351D01*
X234495465Y-69551522D01*
X234300776Y-69614781D01*
X234118386Y-69707715D01*
X233952786Y-69828028D01*
X233808028Y-69972786D01*
X233687715Y-70138386D01*
X233594781Y-70320776D01*
X233531522Y-70515465D01*
X233499500Y-70717648D01*
X179375500Y-70717648D01*
X179375500Y-64497648D01*
X195544388Y-64497648D01*
X195544388Y-64702351D01*
X195576410Y-64904534D01*
X195639669Y-65099223D01*
X195732603Y-65281613D01*
X195852916Y-65447213D01*
X195997674Y-65591971D01*
X196152637Y-65704556D01*
X196163278Y-65712287D01*
X196279495Y-65771503D01*
X196345664Y-65805218D01*
X196345666Y-65805218D01*
X196345669Y-65805220D01*
X196450025Y-65839127D01*
X196540353Y-65868477D01*
X196641445Y-65884488D01*
X196742536Y-65900500D01*
X196742537Y-65900500D01*
X196947239Y-65900500D01*
X196947240Y-65900500D01*
X197149422Y-65868477D01*
X197344107Y-65805220D01*
X197526498Y-65712287D01*
X197619478Y-65644732D01*
X197692101Y-65591971D01*
X197692103Y-65591968D01*
X197692107Y-65591966D01*
X197836854Y-65447219D01*
X197836856Y-65447215D01*
X197836859Y-65447213D01*
X197915986Y-65338302D01*
X197957175Y-65281610D01*
X197987979Y-65221153D01*
X198499500Y-65221153D01*
X198499500Y-65378846D01*
X198530261Y-65533489D01*
X198530264Y-65533501D01*
X198590602Y-65679172D01*
X198590609Y-65679185D01*
X198678210Y-65810288D01*
X198678213Y-65810292D01*
X198789707Y-65921786D01*
X198789711Y-65921789D01*
X198920814Y-66009390D01*
X198920827Y-66009397D01*
X199066498Y-66069735D01*
X199066503Y-66069737D01*
X199221153Y-66100499D01*
X199221156Y-66100500D01*
X199221158Y-66100500D01*
X199378844Y-66100500D01*
X199378845Y-66100499D01*
X199533497Y-66069737D01*
X199679179Y-66009394D01*
X199810289Y-65921789D01*
X199921789Y-65810289D01*
X200009394Y-65679179D01*
X200069737Y-65533497D01*
X200100500Y-65378842D01*
X200100500Y-65221158D01*
X200100500Y-65221155D01*
X200100499Y-65221153D01*
X200076245Y-65099223D01*
X200069737Y-65066503D01*
X200069735Y-65066498D01*
X200009397Y-64920827D01*
X200009390Y-64920814D01*
X199921398Y-64789125D01*
X199915747Y-64771078D01*
X199905523Y-64755169D01*
X199901071Y-64724207D01*
X199900520Y-64722447D01*
X199900500Y-64720234D01*
X199900500Y-64661426D01*
X199920185Y-64594387D01*
X199955607Y-64558325D01*
X200010289Y-64521789D01*
X200034430Y-64497648D01*
X219219500Y-64497648D01*
X219219500Y-64702351D01*
X219251522Y-64904534D01*
X219314781Y-65099223D01*
X219407715Y-65281613D01*
X219528028Y-65447213D01*
X219672786Y-65591971D01*
X219827749Y-65704556D01*
X219838390Y-65712287D01*
X219954607Y-65771503D01*
X220020776Y-65805218D01*
X220020778Y-65805218D01*
X220020781Y-65805220D01*
X220125137Y-65839127D01*
X220215465Y-65868477D01*
X220316557Y-65884488D01*
X220417648Y-65900500D01*
X220417649Y-65900500D01*
X220622351Y-65900500D01*
X220622352Y-65900500D01*
X220824534Y-65868477D01*
X221019219Y-65805220D01*
X221201610Y-65712287D01*
X221294590Y-65644732D01*
X221367213Y-65591971D01*
X221367215Y-65591968D01*
X221367219Y-65591966D01*
X221511966Y-65447219D01*
X221511968Y-65447215D01*
X221511971Y-65447213D01*
X221591098Y-65338302D01*
X221632287Y-65281610D01*
X221725220Y-65099219D01*
X221788477Y-64904534D01*
X221820500Y-64702352D01*
X221820500Y-64506379D01*
X233749500Y-64506379D01*
X233749500Y-64693620D01*
X233786025Y-64877243D01*
X233786027Y-64877251D01*
X233857676Y-65050228D01*
X233857681Y-65050237D01*
X233961697Y-65205907D01*
X233961700Y-65205911D01*
X234094091Y-65338302D01*
X234154764Y-65378842D01*
X234249769Y-65442322D01*
X234259505Y-65446354D01*
X234299735Y-65473235D01*
X235025958Y-66199459D01*
X235025961Y-66199462D01*
X235025964Y-66199464D01*
X235084090Y-66238302D01*
X235173453Y-66298013D01*
X235255393Y-66331953D01*
X235337334Y-66365895D01*
X235511303Y-66400499D01*
X235511307Y-66400500D01*
X235511308Y-66400500D01*
X235511309Y-66400500D01*
X237165558Y-66400500D01*
X237213006Y-66409937D01*
X237222749Y-66413973D01*
X237222753Y-66413973D01*
X237222756Y-66413975D01*
X237406379Y-66450499D01*
X237406383Y-66450500D01*
X237406384Y-66450500D01*
X237593617Y-66450500D01*
X237593618Y-66450499D01*
X237777251Y-66413973D01*
X237950231Y-66342322D01*
X238105908Y-66238302D01*
X238238302Y-66105908D01*
X238342322Y-65950231D01*
X238413973Y-65777251D01*
X238450500Y-65593616D01*
X238450500Y-65406384D01*
X238413973Y-65222749D01*
X238349256Y-65066510D01*
X238342323Y-65049771D01*
X238342318Y-65049762D01*
X238238302Y-64894092D01*
X238238299Y-64894088D01*
X238105911Y-64761700D01*
X238105907Y-64761697D01*
X237950237Y-64657681D01*
X237950228Y-64657676D01*
X237777251Y-64586027D01*
X237777243Y-64586025D01*
X237593620Y-64549500D01*
X237593616Y-64549500D01*
X237406384Y-64549500D01*
X237406379Y-64549500D01*
X237222756Y-64586024D01*
X237222752Y-64586026D01*
X237222750Y-64586026D01*
X237222749Y-64586027D01*
X237213006Y-64590062D01*
X237165558Y-64599500D01*
X236024362Y-64599500D01*
X235957323Y-64579815D01*
X235936681Y-64563181D01*
X235573235Y-64199735D01*
X235546354Y-64159504D01*
X235542322Y-64149769D01*
X235509586Y-64100776D01*
X235438302Y-63994091D01*
X235305911Y-63861700D01*
X235305907Y-63861697D01*
X235150237Y-63757681D01*
X235150228Y-63757676D01*
X234977251Y-63686027D01*
X234977243Y-63686025D01*
X234793620Y-63649500D01*
X234793616Y-63649500D01*
X234606384Y-63649500D01*
X234606379Y-63649500D01*
X234422756Y-63686025D01*
X234422748Y-63686027D01*
X234249771Y-63757676D01*
X234249762Y-63757681D01*
X234094092Y-63861697D01*
X234094088Y-63861700D01*
X233961700Y-63994088D01*
X233961697Y-63994092D01*
X233857681Y-64149762D01*
X233857676Y-64149771D01*
X233786027Y-64322748D01*
X233786025Y-64322756D01*
X233749500Y-64506379D01*
X221820500Y-64506379D01*
X221820500Y-64497648D01*
X221806664Y-64410290D01*
X221788477Y-64295465D01*
X221725218Y-64100776D01*
X221684540Y-64020943D01*
X221632287Y-63918390D01*
X221591100Y-63861700D01*
X221511971Y-63752786D01*
X221367213Y-63608028D01*
X221201613Y-63487715D01*
X221201612Y-63487714D01*
X221201610Y-63487713D01*
X221144653Y-63458691D01*
X221019223Y-63394781D01*
X220824534Y-63331522D01*
X220649995Y-63303878D01*
X220622352Y-63299500D01*
X220417648Y-63299500D01*
X220393329Y-63303351D01*
X220215465Y-63331522D01*
X220020776Y-63394781D01*
X219838386Y-63487715D01*
X219672786Y-63608028D01*
X219528028Y-63752786D01*
X219407715Y-63918386D01*
X219314781Y-64100776D01*
X219251522Y-64295465D01*
X219219500Y-64497648D01*
X200034430Y-64497648D01*
X200121789Y-64410289D01*
X200209394Y-64279179D01*
X200269737Y-64133497D01*
X200300500Y-63978842D01*
X200300500Y-63821158D01*
X200300500Y-63821155D01*
X200300499Y-63821153D01*
X200269737Y-63666503D01*
X200245516Y-63608028D01*
X200209397Y-63520827D01*
X200209390Y-63520814D01*
X200121789Y-63389711D01*
X200121786Y-63389707D01*
X200010292Y-63278213D01*
X200010288Y-63278210D01*
X199879185Y-63190609D01*
X199879172Y-63190602D01*
X199733501Y-63130264D01*
X199733489Y-63130261D01*
X199578845Y-63099500D01*
X199578842Y-63099500D01*
X199421158Y-63099500D01*
X199421155Y-63099500D01*
X199266510Y-63130261D01*
X199266498Y-63130264D01*
X199120827Y-63190602D01*
X199120814Y-63190609D01*
X198989711Y-63278210D01*
X198989707Y-63278213D01*
X198878213Y-63389707D01*
X198878210Y-63389711D01*
X198790609Y-63520814D01*
X198790602Y-63520827D01*
X198730264Y-63666498D01*
X198730261Y-63666510D01*
X198699500Y-63821153D01*
X198699500Y-63978844D01*
X198700097Y-63984907D01*
X198699724Y-63984943D01*
X198701218Y-64000847D01*
X198701089Y-64015008D01*
X198699499Y-64020943D01*
X198699499Y-64179057D01*
X198699500Y-64179060D01*
X198699500Y-64189637D01*
X198699500Y-64720234D01*
X198679815Y-64787273D01*
X198678602Y-64789125D01*
X198590609Y-64920814D01*
X198590602Y-64920827D01*
X198530264Y-65066498D01*
X198530261Y-65066510D01*
X198499500Y-65221153D01*
X197987979Y-65221153D01*
X198050108Y-65099219D01*
X198113365Y-64904534D01*
X198145388Y-64702352D01*
X198145388Y-64497648D01*
X198131552Y-64410290D01*
X198113365Y-64295465D01*
X198050106Y-64100776D01*
X198009428Y-64020943D01*
X197957175Y-63918390D01*
X197915988Y-63861700D01*
X197836859Y-63752786D01*
X197692101Y-63608028D01*
X197526501Y-63487715D01*
X197526500Y-63487714D01*
X197526498Y-63487713D01*
X197469541Y-63458691D01*
X197344111Y-63394781D01*
X197149422Y-63331522D01*
X196974883Y-63303878D01*
X196947240Y-63299500D01*
X196742536Y-63299500D01*
X196718217Y-63303351D01*
X196540353Y-63331522D01*
X196345664Y-63394781D01*
X196163274Y-63487715D01*
X195997674Y-63608028D01*
X195852916Y-63752786D01*
X195732603Y-63918386D01*
X195639669Y-64100776D01*
X195576410Y-64295465D01*
X195544388Y-64497648D01*
X179375500Y-64497648D01*
X179375500Y-57997648D01*
X204499500Y-57997648D01*
X204499500Y-58202351D01*
X204531522Y-58404534D01*
X204594781Y-58599223D01*
X204687715Y-58781613D01*
X204808028Y-58947213D01*
X204952786Y-59091971D01*
X205107749Y-59204556D01*
X205118390Y-59212287D01*
X205221841Y-59264998D01*
X205300776Y-59305218D01*
X205300778Y-59305218D01*
X205300781Y-59305220D01*
X205405137Y-59339127D01*
X205495465Y-59368477D01*
X205596557Y-59384488D01*
X205697648Y-59400500D01*
X205697649Y-59400500D01*
X205902351Y-59400500D01*
X205902352Y-59400500D01*
X206104534Y-59368477D01*
X206299219Y-59305220D01*
X206481610Y-59212287D01*
X206574590Y-59144732D01*
X206647213Y-59091971D01*
X206647215Y-59091968D01*
X206647219Y-59091966D01*
X206791966Y-58947219D01*
X206791968Y-58947215D01*
X206791971Y-58947213D01*
X206866714Y-58844336D01*
X206912287Y-58781610D01*
X207005220Y-58599219D01*
X207068477Y-58404534D01*
X207100500Y-58202352D01*
X207100500Y-57997648D01*
X207068477Y-57795466D01*
X207005220Y-57600781D01*
X207005218Y-57600778D01*
X207005218Y-57600776D01*
X206917249Y-57428129D01*
X206917248Y-57428127D01*
X206912286Y-57418388D01*
X206880751Y-57374983D01*
X212394388Y-57374983D01*
X212394388Y-58575001D01*
X212394389Y-58575018D01*
X212404888Y-58677796D01*
X212404889Y-58677799D01*
X212439289Y-58781610D01*
X212460074Y-58844334D01*
X212552176Y-58993656D01*
X212676232Y-59117712D01*
X212825554Y-59209814D01*
X212992091Y-59264999D01*
X213094879Y-59275500D01*
X214294896Y-59275499D01*
X214397685Y-59264999D01*
X214564222Y-59209814D01*
X214713544Y-59117712D01*
X214837600Y-58993656D01*
X214929702Y-58844334D01*
X214984887Y-58677797D01*
X214995388Y-58575009D01*
X214995387Y-57374992D01*
X214984887Y-57272203D01*
X214929702Y-57105666D01*
X214837600Y-56956344D01*
X214713544Y-56832288D01*
X214564222Y-56740186D01*
X214397685Y-56685001D01*
X214397683Y-56685000D01*
X214294898Y-56674500D01*
X213094886Y-56674500D01*
X213094869Y-56674501D01*
X212992091Y-56685000D01*
X212992088Y-56685001D01*
X212825556Y-56740185D01*
X212825551Y-56740187D01*
X212676230Y-56832289D01*
X212552177Y-56956342D01*
X212460075Y-57105663D01*
X212460074Y-57105666D01*
X212404889Y-57272203D01*
X212404889Y-57272204D01*
X212404888Y-57272204D01*
X212394388Y-57374983D01*
X206880751Y-57374983D01*
X206791971Y-57252786D01*
X206647213Y-57108028D01*
X206481613Y-56987715D01*
X206481612Y-56987714D01*
X206481610Y-56987713D01*
X206420041Y-56956342D01*
X206299223Y-56894781D01*
X206104534Y-56831522D01*
X205929995Y-56803878D01*
X205902352Y-56799500D01*
X205697648Y-56799500D01*
X205673329Y-56803351D01*
X205495465Y-56831522D01*
X205300776Y-56894781D01*
X205118386Y-56987715D01*
X204952786Y-57108028D01*
X204808028Y-57252786D01*
X204687715Y-57418386D01*
X204594781Y-57600776D01*
X204531522Y-57795465D01*
X204499500Y-57997648D01*
X179375500Y-57997648D01*
X179375500Y-55377648D01*
X231499500Y-55377648D01*
X231499500Y-55582351D01*
X231531522Y-55784534D01*
X231594781Y-55979223D01*
X231687715Y-56161613D01*
X231808028Y-56327213D01*
X231952786Y-56471971D01*
X232107749Y-56584556D01*
X232118390Y-56592287D01*
X232234607Y-56651503D01*
X232300776Y-56685218D01*
X232300778Y-56685218D01*
X232300781Y-56685220D01*
X232405137Y-56719127D01*
X232495465Y-56748477D01*
X232596557Y-56764488D01*
X232697648Y-56780500D01*
X232697649Y-56780500D01*
X232902351Y-56780500D01*
X232902352Y-56780500D01*
X233104534Y-56748477D01*
X233299219Y-56685220D01*
X233481610Y-56592287D01*
X233574590Y-56524732D01*
X233647213Y-56471971D01*
X233647215Y-56471968D01*
X233647219Y-56471966D01*
X233791966Y-56327219D01*
X233791968Y-56327215D01*
X233791971Y-56327213D01*
X233844732Y-56254590D01*
X233912287Y-56161610D01*
X234005220Y-55979219D01*
X234068477Y-55784534D01*
X234100500Y-55582352D01*
X234100500Y-55377648D01*
X234068477Y-55175466D01*
X234067806Y-55173402D01*
X234014517Y-55009394D01*
X234005220Y-54980781D01*
X234005218Y-54980778D01*
X234005218Y-54980776D01*
X233971503Y-54914607D01*
X233912287Y-54798390D01*
X233904556Y-54787749D01*
X233791971Y-54632786D01*
X233647213Y-54488028D01*
X233481613Y-54367715D01*
X233481612Y-54367714D01*
X233481610Y-54367713D01*
X233424653Y-54338691D01*
X233299223Y-54274781D01*
X233104534Y-54211522D01*
X232929995Y-54183878D01*
X232902352Y-54179500D01*
X232697648Y-54179500D01*
X232673329Y-54183351D01*
X232495465Y-54211522D01*
X232300776Y-54274781D01*
X232118386Y-54367715D01*
X231952786Y-54488028D01*
X231808028Y-54632786D01*
X231687715Y-54798386D01*
X231594781Y-54980776D01*
X231531522Y-55175465D01*
X231499500Y-55377648D01*
X179375500Y-55377648D01*
X179375500Y-54221153D01*
X194799500Y-54221153D01*
X194799500Y-54378846D01*
X194830261Y-54533489D01*
X194830264Y-54533501D01*
X194890602Y-54679172D01*
X194890609Y-54679185D01*
X194978210Y-54810288D01*
X194978213Y-54810292D01*
X195089707Y-54921786D01*
X195089711Y-54921789D01*
X195220814Y-55009390D01*
X195220827Y-55009397D01*
X195297685Y-55041232D01*
X195366503Y-55069737D01*
X195521153Y-55100499D01*
X195521156Y-55100500D01*
X195521158Y-55100500D01*
X195678844Y-55100500D01*
X195678845Y-55100499D01*
X195833497Y-55069737D01*
X195979179Y-55009394D01*
X196073459Y-54946398D01*
X196140136Y-54925520D01*
X196142350Y-54925500D01*
X208157650Y-54925500D01*
X208224689Y-54945185D01*
X208226541Y-54946398D01*
X208320821Y-55009394D01*
X208320823Y-55009395D01*
X208320827Y-55009397D01*
X208397685Y-55041232D01*
X208466503Y-55069737D01*
X208621153Y-55100499D01*
X208621156Y-55100500D01*
X208621158Y-55100500D01*
X208778844Y-55100500D01*
X208778845Y-55100499D01*
X208933497Y-55069737D01*
X209079179Y-55009394D01*
X209210289Y-54921789D01*
X209321789Y-54810289D01*
X209409394Y-54679179D01*
X209469737Y-54533497D01*
X209500500Y-54378842D01*
X209500500Y-54221158D01*
X209500500Y-54221155D01*
X209500499Y-54221153D01*
X209469738Y-54066510D01*
X209469737Y-54066503D01*
X209447737Y-54013389D01*
X224099500Y-54013389D01*
X224099500Y-54186610D01*
X224113464Y-54274780D01*
X224126598Y-54357701D01*
X224180127Y-54522445D01*
X224258768Y-54676788D01*
X224360586Y-54816928D01*
X224483072Y-54939414D01*
X224623212Y-55041232D01*
X224777555Y-55119873D01*
X224942299Y-55173402D01*
X225113389Y-55200500D01*
X225113390Y-55200500D01*
X225286610Y-55200500D01*
X225286611Y-55200500D01*
X225457701Y-55173402D01*
X225622445Y-55119873D01*
X225776788Y-55041232D01*
X225916928Y-54939414D01*
X227339414Y-53516928D01*
X227356005Y-53494092D01*
X227441232Y-53376788D01*
X227519873Y-53222445D01*
X227573402Y-53057701D01*
X227600500Y-52886611D01*
X227600500Y-50213389D01*
X227573402Y-50042299D01*
X227519873Y-49877555D01*
X227441232Y-49723212D01*
X227339414Y-49583072D01*
X227216928Y-49460586D01*
X227076788Y-49358768D01*
X226922445Y-49280127D01*
X226757701Y-49226598D01*
X226757699Y-49226597D01*
X226757698Y-49226597D01*
X226626271Y-49205781D01*
X226586611Y-49199500D01*
X226413389Y-49199500D01*
X226373728Y-49205781D01*
X226242302Y-49226597D01*
X226077552Y-49280128D01*
X225923211Y-49358768D01*
X225843256Y-49416859D01*
X225783072Y-49460586D01*
X225783070Y-49460588D01*
X225783069Y-49460588D01*
X225660588Y-49583069D01*
X225660588Y-49583070D01*
X225660586Y-49583072D01*
X225616859Y-49643256D01*
X225558768Y-49723211D01*
X225480128Y-49877552D01*
X225426597Y-50042302D01*
X225399500Y-50213389D01*
X225399500Y-52292796D01*
X225379815Y-52359835D01*
X225363181Y-52380477D01*
X224360588Y-53383069D01*
X224360588Y-53383070D01*
X224360586Y-53383072D01*
X224316859Y-53443256D01*
X224258768Y-53523211D01*
X224180128Y-53677552D01*
X224126597Y-53842302D01*
X224099500Y-54013389D01*
X209447737Y-54013389D01*
X209409397Y-53920827D01*
X209409390Y-53920814D01*
X209321789Y-53789711D01*
X209321786Y-53789707D01*
X209210292Y-53678213D01*
X209210288Y-53678210D01*
X209079185Y-53590609D01*
X209079172Y-53590602D01*
X208933501Y-53530264D01*
X208933489Y-53530261D01*
X208778845Y-53499500D01*
X208778842Y-53499500D01*
X208621158Y-53499500D01*
X208621155Y-53499500D01*
X208466510Y-53530261D01*
X208466498Y-53530264D01*
X208320827Y-53590602D01*
X208320815Y-53590609D01*
X208226541Y-53653602D01*
X208159864Y-53674480D01*
X208157650Y-53674500D01*
X196142350Y-53674500D01*
X196075311Y-53654815D01*
X196073459Y-53653602D01*
X195979184Y-53590609D01*
X195979172Y-53590602D01*
X195833501Y-53530264D01*
X195833489Y-53530261D01*
X195678845Y-53499500D01*
X195678842Y-53499500D01*
X195521158Y-53499500D01*
X195521155Y-53499500D01*
X195366510Y-53530261D01*
X195366498Y-53530264D01*
X195220827Y-53590602D01*
X195220814Y-53590609D01*
X195089711Y-53678210D01*
X195089707Y-53678213D01*
X194978213Y-53789707D01*
X194978210Y-53789711D01*
X194890609Y-53920814D01*
X194890602Y-53920827D01*
X194830264Y-54066498D01*
X194830261Y-54066510D01*
X194799500Y-54221153D01*
X179375500Y-54221153D01*
X179375500Y-44674983D01*
X239324500Y-44674983D01*
X239324500Y-45475001D01*
X239324501Y-45475019D01*
X239335000Y-45577796D01*
X239335001Y-45577799D01*
X239390185Y-45744331D01*
X239390186Y-45744334D01*
X239482288Y-45893656D01*
X239606344Y-46017712D01*
X239755666Y-46109814D01*
X239922203Y-46164999D01*
X240024991Y-46175500D01*
X241375008Y-46175499D01*
X241477797Y-46164999D01*
X241644334Y-46109814D01*
X241793656Y-46017712D01*
X241917712Y-45893656D01*
X242009814Y-45744334D01*
X242064999Y-45577797D01*
X242075500Y-45475009D01*
X242075499Y-44674992D01*
X242064999Y-44572203D01*
X242009814Y-44405666D01*
X241917712Y-44256344D01*
X241793656Y-44132288D01*
X241644334Y-44040186D01*
X241477797Y-43985001D01*
X241477795Y-43985000D01*
X241375010Y-43974500D01*
X240024998Y-43974500D01*
X240024981Y-43974501D01*
X239922203Y-43985000D01*
X239922200Y-43985001D01*
X239755668Y-44040185D01*
X239755663Y-44040187D01*
X239606342Y-44132289D01*
X239482289Y-44256342D01*
X239390187Y-44405663D01*
X239390186Y-44405666D01*
X239335001Y-44572203D01*
X239335001Y-44572204D01*
X239335000Y-44572204D01*
X239324500Y-44674983D01*
X179375500Y-44674983D01*
X179375500Y-36640003D01*
X187044500Y-36640003D01*
X187044500Y-38890002D01*
X187049644Y-38961940D01*
X187090182Y-39099994D01*
X187167967Y-39221030D01*
X187167971Y-39221034D01*
X187276700Y-39315249D01*
X187276706Y-39315254D01*
X187317174Y-39333735D01*
X187407580Y-39375023D01*
X187407583Y-39375023D01*
X187407584Y-39375024D01*
X187550000Y-39395500D01*
X187550003Y-39395500D01*
X189800000Y-39395500D01*
X189871940Y-39390355D01*
X190009992Y-39349819D01*
X190131032Y-39272031D01*
X190225254Y-39163294D01*
X190285024Y-39032416D01*
X190305500Y-38890000D01*
X190305500Y-36640003D01*
X218794500Y-36640003D01*
X218794500Y-38890002D01*
X218799644Y-38961940D01*
X218840182Y-39099994D01*
X218917967Y-39221030D01*
X218917971Y-39221034D01*
X219026700Y-39315249D01*
X219026706Y-39315254D01*
X219067174Y-39333735D01*
X219157580Y-39375023D01*
X219157583Y-39375023D01*
X219157584Y-39375024D01*
X219300000Y-39395500D01*
X219300003Y-39395500D01*
X221550000Y-39395500D01*
X221621940Y-39390355D01*
X221759992Y-39349819D01*
X221881032Y-39272031D01*
X221975254Y-39163294D01*
X222035024Y-39032416D01*
X222055500Y-38890000D01*
X222055500Y-36640000D01*
X222050355Y-36568060D01*
X222009819Y-36430008D01*
X221932031Y-36308968D01*
X221900349Y-36281515D01*
X229244500Y-36281515D01*
X229244500Y-36518485D01*
X229281571Y-36752539D01*
X229354799Y-36977911D01*
X229462381Y-37189054D01*
X229601669Y-37380767D01*
X229769233Y-37548331D01*
X229960946Y-37687619D01*
X230172089Y-37795201D01*
X230397461Y-37868429D01*
X230631515Y-37905500D01*
X230631516Y-37905500D01*
X230868484Y-37905500D01*
X230868485Y-37905500D01*
X231102539Y-37868429D01*
X231327911Y-37795201D01*
X231539054Y-37687619D01*
X231730767Y-37548331D01*
X231797583Y-37481515D01*
X234344500Y-37481515D01*
X234344500Y-37718484D01*
X234374120Y-37905500D01*
X234381571Y-37952539D01*
X234454799Y-38177911D01*
X234562381Y-38389054D01*
X234701669Y-38580767D01*
X234869233Y-38748331D01*
X235060946Y-38887619D01*
X235272089Y-38995201D01*
X235497461Y-39068429D01*
X235731515Y-39105500D01*
X235731516Y-39105500D01*
X235968484Y-39105500D01*
X235968485Y-39105500D01*
X236202539Y-39068429D01*
X236427911Y-38995201D01*
X236639054Y-38887619D01*
X236830767Y-38748331D01*
X236998331Y-38580767D01*
X237137619Y-38389054D01*
X237245201Y-38177911D01*
X237318429Y-37952539D01*
X237355500Y-37718485D01*
X237355500Y-37481515D01*
X237318429Y-37247461D01*
X237245201Y-37022089D01*
X237137619Y-36810946D01*
X236998331Y-36619233D01*
X236830767Y-36451669D01*
X236639054Y-36312381D01*
X236427911Y-36204799D01*
X236202539Y-36131571D01*
X236202537Y-36131570D01*
X236202535Y-36131570D01*
X236039115Y-36105686D01*
X235968485Y-36094500D01*
X235731515Y-36094500D01*
X235677257Y-36103093D01*
X235497464Y-36131570D01*
X235272086Y-36204800D01*
X235060945Y-36312381D01*
X234986182Y-36366700D01*
X234869233Y-36451669D01*
X234869231Y-36451671D01*
X234869230Y-36451671D01*
X234701671Y-36619230D01*
X234701671Y-36619231D01*
X234701669Y-36619233D01*
X234686581Y-36640000D01*
X234562381Y-36810945D01*
X234454800Y-37022086D01*
X234381570Y-37247464D01*
X234344500Y-37481515D01*
X231797583Y-37481515D01*
X231898331Y-37380767D01*
X232037619Y-37189054D01*
X232145201Y-36977911D01*
X232218429Y-36752539D01*
X232255500Y-36518485D01*
X232255500Y-36281515D01*
X232218429Y-36047461D01*
X232145201Y-35822089D01*
X232037619Y-35610946D01*
X231898331Y-35419233D01*
X231730767Y-35251669D01*
X231539054Y-35112381D01*
X231327911Y-35004799D01*
X231102539Y-34931571D01*
X231102537Y-34931570D01*
X231102535Y-34931570D01*
X230939115Y-34905686D01*
X230868485Y-34894500D01*
X230631515Y-34894500D01*
X230577257Y-34903093D01*
X230397464Y-34931570D01*
X230172086Y-35004800D01*
X229960945Y-35112381D01*
X229851566Y-35191850D01*
X229769233Y-35251669D01*
X229769231Y-35251671D01*
X229769230Y-35251671D01*
X229601671Y-35419230D01*
X229601671Y-35419231D01*
X229601669Y-35419233D01*
X229541850Y-35501566D01*
X229462381Y-35610945D01*
X229354800Y-35822086D01*
X229281570Y-36047464D01*
X229255075Y-36214746D01*
X229244500Y-36281515D01*
X221900349Y-36281515D01*
X221873173Y-36257967D01*
X221823299Y-36214750D01*
X221823297Y-36214748D01*
X221823294Y-36214746D01*
X221823290Y-36214744D01*
X221692419Y-36154976D01*
X221692414Y-36154975D01*
X221550000Y-36134500D01*
X219300000Y-36134500D01*
X219299997Y-36134500D01*
X219228059Y-36139644D01*
X219090005Y-36180182D01*
X218968969Y-36257967D01*
X218968965Y-36257971D01*
X218874750Y-36366700D01*
X218874744Y-36366709D01*
X218814976Y-36497580D01*
X218814975Y-36497585D01*
X218794501Y-36639991D01*
X218794500Y-36640003D01*
X190305500Y-36640003D01*
X190305500Y-36640000D01*
X190300355Y-36568060D01*
X190259819Y-36430008D01*
X190204341Y-36343683D01*
X190182032Y-36308969D01*
X190182028Y-36308965D01*
X190073299Y-36214750D01*
X190073297Y-36214748D01*
X190073294Y-36214746D01*
X190073290Y-36214744D01*
X189942419Y-36154976D01*
X189942414Y-36154975D01*
X189800000Y-36134500D01*
X187550000Y-36134500D01*
X187549997Y-36134500D01*
X187478059Y-36139644D01*
X187340005Y-36180182D01*
X187218969Y-36257967D01*
X187218965Y-36257971D01*
X187124750Y-36366700D01*
X187124744Y-36366709D01*
X187064976Y-36497580D01*
X187064975Y-36497585D01*
X187044501Y-36639991D01*
X187044500Y-36640003D01*
X179375500Y-36640003D01*
X179375500Y-34677706D01*
X179375618Y-34672297D01*
X179378377Y-34609108D01*
X179392387Y-34288224D01*
X179393325Y-34277496D01*
X179443151Y-33899032D01*
X179445024Y-33888402D01*
X179520333Y-33548713D01*
X181529500Y-33548713D01*
X181529500Y-33761286D01*
X181562753Y-33971239D01*
X181628444Y-34173414D01*
X181724951Y-34362820D01*
X181849890Y-34534786D01*
X182000213Y-34685109D01*
X182172179Y-34810048D01*
X182172181Y-34810049D01*
X182172184Y-34810051D01*
X182361588Y-34906557D01*
X182563757Y-34972246D01*
X182773713Y-35005500D01*
X182773714Y-35005500D01*
X182986286Y-35005500D01*
X182986287Y-35005500D01*
X183196243Y-34972246D01*
X183398412Y-34906557D01*
X183587816Y-34810051D01*
X183609789Y-34794086D01*
X183759786Y-34685109D01*
X183759788Y-34685106D01*
X183759792Y-34685104D01*
X183910104Y-34534792D01*
X183910106Y-34534788D01*
X183910109Y-34534786D01*
X184035048Y-34362820D01*
X184035047Y-34362820D01*
X184035051Y-34362816D01*
X184131557Y-34173412D01*
X184197246Y-33971243D01*
X184230500Y-33761287D01*
X184230500Y-33548713D01*
X241854500Y-33548713D01*
X241854500Y-33761286D01*
X241887753Y-33971239D01*
X241953444Y-34173414D01*
X242049951Y-34362820D01*
X242174890Y-34534786D01*
X242325213Y-34685109D01*
X242497179Y-34810048D01*
X242497181Y-34810049D01*
X242497184Y-34810051D01*
X242686588Y-34906557D01*
X242888757Y-34972246D01*
X243098713Y-35005500D01*
X243098714Y-35005500D01*
X243311286Y-35005500D01*
X243311287Y-35005500D01*
X243521243Y-34972246D01*
X243723412Y-34906557D01*
X243912816Y-34810051D01*
X243934789Y-34794086D01*
X244084786Y-34685109D01*
X244084788Y-34685106D01*
X244084792Y-34685104D01*
X244235104Y-34534792D01*
X244235106Y-34534788D01*
X244235109Y-34534786D01*
X244360048Y-34362820D01*
X244360047Y-34362820D01*
X244360051Y-34362816D01*
X244456557Y-34173412D01*
X244522246Y-33971243D01*
X244555500Y-33761287D01*
X244555500Y-33548713D01*
X244522246Y-33338757D01*
X244456557Y-33136588D01*
X244360051Y-32947184D01*
X244360049Y-32947181D01*
X244360048Y-32947179D01*
X244235109Y-32775213D01*
X244084786Y-32624890D01*
X243912820Y-32499951D01*
X243723414Y-32403444D01*
X243723413Y-32403443D01*
X243723412Y-32403443D01*
X243521243Y-32337754D01*
X243521241Y-32337753D01*
X243521240Y-32337753D01*
X243359957Y-32312208D01*
X243311287Y-32304500D01*
X243098713Y-32304500D01*
X243050042Y-32312208D01*
X242888760Y-32337753D01*
X242686585Y-32403444D01*
X242497179Y-32499951D01*
X242325213Y-32624890D01*
X242174890Y-32775213D01*
X242049951Y-32947179D01*
X241953444Y-33136585D01*
X241887753Y-33338760D01*
X241854500Y-33548713D01*
X184230500Y-33548713D01*
X184197246Y-33338757D01*
X184131557Y-33136588D01*
X184035051Y-32947184D01*
X184035049Y-32947181D01*
X184035048Y-32947179D01*
X183910109Y-32775213D01*
X183759786Y-32624890D01*
X183587820Y-32499951D01*
X183398414Y-32403444D01*
X183398413Y-32403443D01*
X183398412Y-32403443D01*
X183196243Y-32337754D01*
X183196241Y-32337753D01*
X183196240Y-32337753D01*
X183034957Y-32312208D01*
X182986287Y-32304500D01*
X182773713Y-32304500D01*
X182725042Y-32312208D01*
X182563760Y-32337753D01*
X182361585Y-32403444D01*
X182172179Y-32499951D01*
X182000213Y-32624890D01*
X181849890Y-32775213D01*
X181724951Y-32947179D01*
X181628444Y-33136585D01*
X181562753Y-33338760D01*
X181529500Y-33548713D01*
X179520333Y-33548713D01*
X179527640Y-33515754D01*
X179530446Y-33505276D01*
X179645230Y-33141227D01*
X179648917Y-33131095D01*
X179795003Y-32778412D01*
X179799561Y-32768638D01*
X179975822Y-32430045D01*
X179981217Y-32420700D01*
X180186325Y-32098744D01*
X180192515Y-32089905D01*
X180424896Y-31787060D01*
X180431834Y-31778791D01*
X180689726Y-31497352D01*
X180697352Y-31489726D01*
X180978791Y-31231834D01*
X180987060Y-31224896D01*
X181289905Y-30992515D01*
X181298744Y-30986325D01*
X181620700Y-30781217D01*
X181630045Y-30775822D01*
X181968638Y-30599561D01*
X181978412Y-30595003D01*
X182331095Y-30448917D01*
X182341227Y-30445230D01*
X182705285Y-30330443D01*
X182715714Y-30327648D01*
X183088402Y-30245024D01*
X183099032Y-30243151D01*
X183477496Y-30193325D01*
X183488224Y-30192387D01*
X183872297Y-30175617D01*
X183877706Y-30175500D01*
X183940892Y-30175500D01*
X242484108Y-30175500D01*
X242547294Y-30175500D01*
X242552702Y-30175617D01*
G37*
%TD.AperFunction*%
%TD*%
D36*
X54720000Y-35030000D02*
X154720000Y-35030000D01*
X154720000Y-85030000D01*
X54720000Y-85030000D01*
X54720000Y-35030000D01*
X178875000Y-34675000D02*
X178875000Y-34675000D01*
G75*
G02*
X183875000Y-29675000I5000000J0D01*
G01*
X242550000Y-29675000D01*
G75*
G02*
X247550000Y-34675000I0J-5000000D01*
G01*
X247550000Y-90475000D01*
G75*
G02*
X242550000Y-95475000I-5000000J0D01*
G01*
X183875000Y-95475000D01*
G75*
G02*
X178875000Y-90475000I0J5000000D01*
G01*
X178875000Y-34675000D01*
M02*
