%TF.GenerationSoftware,KiCad,Pcbnew,10.0.4*%
%TF.CreationDate,2026-08-11T09:57:58+08:00*%
%TF.ProjectId,JRDraws,4a524472-6177-4732-9e6b-696361645f70,rev?*%
%TF.SameCoordinates,Original*%
%TF.FileFunction,Legend,Bot*%
%TF.FilePolarity,Positive*%
%FSLAX46Y46*%
G04 Gerber Fmt 4.6, Leading zero omitted, Abs format (unit mm)*
G04 Created by KiCad (PCBNEW 10.0.4) date 2026-08-11 09:57:58*
%MOMM*%
%LPD*%
G01*
G04 APERTURE LIST*
%ADD10C,0.100000*%
%TA.AperFunction,Profile*%
%ADD11C,0.050000*%
%TD*%
G04 APERTURE END LIST*
D10*
X67107715Y-42442819D02*
X67107715Y-41442819D01*
X66441049Y-41442819D02*
X66250573Y-41442819D01*
X66250573Y-41442819D02*
X66155335Y-41490438D01*
X66155335Y-41490438D02*
X66060097Y-41585676D01*
X66060097Y-41585676D02*
X66012478Y-41776152D01*
X66012478Y-41776152D02*
X66012478Y-42109485D01*
X66012478Y-42109485D02*
X66060097Y-42299961D01*
X66060097Y-42299961D02*
X66155335Y-42395200D01*
X66155335Y-42395200D02*
X66250573Y-42442819D01*
X66250573Y-42442819D02*
X66441049Y-42442819D01*
X66441049Y-42442819D02*
X66536287Y-42395200D01*
X66536287Y-42395200D02*
X66631525Y-42299961D01*
X66631525Y-42299961D02*
X66679144Y-42109485D01*
X66679144Y-42109485D02*
X66679144Y-41776152D01*
X66679144Y-41776152D02*
X66631525Y-41585676D01*
X66631525Y-41585676D02*
X66536287Y-41490438D01*
X66536287Y-41490438D02*
X66441049Y-41442819D01*
X65631525Y-41538057D02*
X65583906Y-41490438D01*
X65583906Y-41490438D02*
X65488668Y-41442819D01*
X65488668Y-41442819D02*
X65250573Y-41442819D01*
X65250573Y-41442819D02*
X65155335Y-41490438D01*
X65155335Y-41490438D02*
X65107716Y-41538057D01*
X65107716Y-41538057D02*
X65060097Y-41633295D01*
X65060097Y-41633295D02*
X65060097Y-41728533D01*
X65060097Y-41728533D02*
X65107716Y-41871390D01*
X65107716Y-41871390D02*
X65679144Y-42442819D01*
X65679144Y-42442819D02*
X65060097Y-42442819D01*
X66837906Y-38848838D02*
X66933144Y-38801219D01*
X66933144Y-38801219D02*
X67076001Y-38801219D01*
X67076001Y-38801219D02*
X67218858Y-38848838D01*
X67218858Y-38848838D02*
X67314096Y-38944076D01*
X67314096Y-38944076D02*
X67361715Y-39039314D01*
X67361715Y-39039314D02*
X67409334Y-39229790D01*
X67409334Y-39229790D02*
X67409334Y-39372647D01*
X67409334Y-39372647D02*
X67361715Y-39563123D01*
X67361715Y-39563123D02*
X67314096Y-39658361D01*
X67314096Y-39658361D02*
X67218858Y-39753600D01*
X67218858Y-39753600D02*
X67076001Y-39801219D01*
X67076001Y-39801219D02*
X66980763Y-39801219D01*
X66980763Y-39801219D02*
X66837906Y-39753600D01*
X66837906Y-39753600D02*
X66790287Y-39705980D01*
X66790287Y-39705980D02*
X66790287Y-39372647D01*
X66790287Y-39372647D02*
X66980763Y-39372647D01*
X66361715Y-39801219D02*
X66361715Y-38801219D01*
X66361715Y-38801219D02*
X65790287Y-39801219D01*
X65790287Y-39801219D02*
X65790287Y-38801219D01*
X65314096Y-39801219D02*
X65314096Y-38801219D01*
X65314096Y-38801219D02*
X65076001Y-38801219D01*
X65076001Y-38801219D02*
X64933144Y-38848838D01*
X64933144Y-38848838D02*
X64837906Y-38944076D01*
X64837906Y-38944076D02*
X64790287Y-39039314D01*
X64790287Y-39039314D02*
X64742668Y-39229790D01*
X64742668Y-39229790D02*
X64742668Y-39372647D01*
X64742668Y-39372647D02*
X64790287Y-39563123D01*
X64790287Y-39563123D02*
X64837906Y-39658361D01*
X64837906Y-39658361D02*
X64933144Y-39753600D01*
X64933144Y-39753600D02*
X65076001Y-39801219D01*
X65076001Y-39801219D02*
X65314096Y-39801219D01*
X67666515Y-37413619D02*
X67666515Y-36413619D01*
X66999849Y-36413619D02*
X66809373Y-36413619D01*
X66809373Y-36413619D02*
X66714135Y-36461238D01*
X66714135Y-36461238D02*
X66618897Y-36556476D01*
X66618897Y-36556476D02*
X66571278Y-36746952D01*
X66571278Y-36746952D02*
X66571278Y-37080285D01*
X66571278Y-37080285D02*
X66618897Y-37270761D01*
X66618897Y-37270761D02*
X66714135Y-37366000D01*
X66714135Y-37366000D02*
X66809373Y-37413619D01*
X66809373Y-37413619D02*
X66999849Y-37413619D01*
X66999849Y-37413619D02*
X67095087Y-37366000D01*
X67095087Y-37366000D02*
X67190325Y-37270761D01*
X67190325Y-37270761D02*
X67237944Y-37080285D01*
X67237944Y-37080285D02*
X67237944Y-36746952D01*
X67237944Y-36746952D02*
X67190325Y-36556476D01*
X67190325Y-36556476D02*
X67095087Y-36461238D01*
X67095087Y-36461238D02*
X66999849Y-36413619D01*
X66380802Y-37508857D02*
X65618897Y-37508857D01*
X64856992Y-37413619D02*
X65428420Y-37413619D01*
X65142706Y-37413619D02*
X65142706Y-36413619D01*
X65142706Y-36413619D02*
X65237944Y-36556476D01*
X65237944Y-36556476D02*
X65333182Y-36651714D01*
X65333182Y-36651714D02*
X65428420Y-36699333D01*
X68044382Y-54517409D02*
X67901525Y-54565028D01*
X67901525Y-54565028D02*
X67853906Y-54612647D01*
X67853906Y-54612647D02*
X67806287Y-54707885D01*
X67806287Y-54707885D02*
X67806287Y-54850742D01*
X67806287Y-54850742D02*
X67853906Y-54945980D01*
X67853906Y-54945980D02*
X67901525Y-54993600D01*
X67901525Y-54993600D02*
X67996763Y-55041219D01*
X67996763Y-55041219D02*
X68377715Y-55041219D01*
X68377715Y-55041219D02*
X68377715Y-54041219D01*
X68377715Y-54041219D02*
X68044382Y-54041219D01*
X68044382Y-54041219D02*
X67949144Y-54088838D01*
X67949144Y-54088838D02*
X67901525Y-54136457D01*
X67901525Y-54136457D02*
X67853906Y-54231695D01*
X67853906Y-54231695D02*
X67853906Y-54326933D01*
X67853906Y-54326933D02*
X67901525Y-54422171D01*
X67901525Y-54422171D02*
X67949144Y-54469790D01*
X67949144Y-54469790D02*
X68044382Y-54517409D01*
X68044382Y-54517409D02*
X68377715Y-54517409D01*
X67377715Y-54041219D02*
X67377715Y-54850742D01*
X67377715Y-54850742D02*
X67330096Y-54945980D01*
X67330096Y-54945980D02*
X67282477Y-54993600D01*
X67282477Y-54993600D02*
X67187239Y-55041219D01*
X67187239Y-55041219D02*
X66996763Y-55041219D01*
X66996763Y-55041219D02*
X66901525Y-54993600D01*
X66901525Y-54993600D02*
X66853906Y-54945980D01*
X66853906Y-54945980D02*
X66806287Y-54850742D01*
X66806287Y-54850742D02*
X66806287Y-54041219D01*
X66377715Y-54993600D02*
X66234858Y-55041219D01*
X66234858Y-55041219D02*
X65996763Y-55041219D01*
X65996763Y-55041219D02*
X65901525Y-54993600D01*
X65901525Y-54993600D02*
X65853906Y-54945980D01*
X65853906Y-54945980D02*
X65806287Y-54850742D01*
X65806287Y-54850742D02*
X65806287Y-54755504D01*
X65806287Y-54755504D02*
X65853906Y-54660266D01*
X65853906Y-54660266D02*
X65901525Y-54612647D01*
X65901525Y-54612647D02*
X65996763Y-54565028D01*
X65996763Y-54565028D02*
X66187239Y-54517409D01*
X66187239Y-54517409D02*
X66282477Y-54469790D01*
X66282477Y-54469790D02*
X66330096Y-54422171D01*
X66330096Y-54422171D02*
X66377715Y-54326933D01*
X66377715Y-54326933D02*
X66377715Y-54231695D01*
X66377715Y-54231695D02*
X66330096Y-54136457D01*
X66330096Y-54136457D02*
X66282477Y-54088838D01*
X66282477Y-54088838D02*
X66187239Y-54041219D01*
X66187239Y-54041219D02*
X65949144Y-54041219D01*
X65949144Y-54041219D02*
X65806287Y-54088838D01*
X65187239Y-54565028D02*
X65187239Y-55041219D01*
X65520572Y-54041219D02*
X65187239Y-54565028D01*
X65187239Y-54565028D02*
X64853906Y-54041219D01*
X68580915Y-51602819D02*
X68580915Y-52412342D01*
X68580915Y-52412342D02*
X68533296Y-52507580D01*
X68533296Y-52507580D02*
X68485677Y-52555200D01*
X68485677Y-52555200D02*
X68390439Y-52602819D01*
X68390439Y-52602819D02*
X68199963Y-52602819D01*
X68199963Y-52602819D02*
X68104725Y-52555200D01*
X68104725Y-52555200D02*
X68057106Y-52507580D01*
X68057106Y-52507580D02*
X68009487Y-52412342D01*
X68009487Y-52412342D02*
X68009487Y-51602819D01*
X67580915Y-52555200D02*
X67438058Y-52602819D01*
X67438058Y-52602819D02*
X67199963Y-52602819D01*
X67199963Y-52602819D02*
X67104725Y-52555200D01*
X67104725Y-52555200D02*
X67057106Y-52507580D01*
X67057106Y-52507580D02*
X67009487Y-52412342D01*
X67009487Y-52412342D02*
X67009487Y-52317104D01*
X67009487Y-52317104D02*
X67057106Y-52221866D01*
X67057106Y-52221866D02*
X67104725Y-52174247D01*
X67104725Y-52174247D02*
X67199963Y-52126628D01*
X67199963Y-52126628D02*
X67390439Y-52079009D01*
X67390439Y-52079009D02*
X67485677Y-52031390D01*
X67485677Y-52031390D02*
X67533296Y-51983771D01*
X67533296Y-51983771D02*
X67580915Y-51888533D01*
X67580915Y-51888533D02*
X67580915Y-51793295D01*
X67580915Y-51793295D02*
X67533296Y-51698057D01*
X67533296Y-51698057D02*
X67485677Y-51650438D01*
X67485677Y-51650438D02*
X67390439Y-51602819D01*
X67390439Y-51602819D02*
X67152344Y-51602819D01*
X67152344Y-51602819D02*
X67009487Y-51650438D01*
X66247582Y-52079009D02*
X66104725Y-52126628D01*
X66104725Y-52126628D02*
X66057106Y-52174247D01*
X66057106Y-52174247D02*
X66009487Y-52269485D01*
X66009487Y-52269485D02*
X66009487Y-52412342D01*
X66009487Y-52412342D02*
X66057106Y-52507580D01*
X66057106Y-52507580D02*
X66104725Y-52555200D01*
X66104725Y-52555200D02*
X66199963Y-52602819D01*
X66199963Y-52602819D02*
X66580915Y-52602819D01*
X66580915Y-52602819D02*
X66580915Y-51602819D01*
X66580915Y-51602819D02*
X66247582Y-51602819D01*
X66247582Y-51602819D02*
X66152344Y-51650438D01*
X66152344Y-51650438D02*
X66104725Y-51698057D01*
X66104725Y-51698057D02*
X66057106Y-51793295D01*
X66057106Y-51793295D02*
X66057106Y-51888533D01*
X66057106Y-51888533D02*
X66104725Y-51983771D01*
X66104725Y-51983771D02*
X66152344Y-52031390D01*
X66152344Y-52031390D02*
X66247582Y-52079009D01*
X66247582Y-52079009D02*
X66580915Y-52079009D01*
X65580915Y-52221866D02*
X64819011Y-52221866D01*
X68631715Y-49113619D02*
X68631715Y-49923142D01*
X68631715Y-49923142D02*
X68584096Y-50018380D01*
X68584096Y-50018380D02*
X68536477Y-50066000D01*
X68536477Y-50066000D02*
X68441239Y-50113619D01*
X68441239Y-50113619D02*
X68250763Y-50113619D01*
X68250763Y-50113619D02*
X68155525Y-50066000D01*
X68155525Y-50066000D02*
X68107906Y-50018380D01*
X68107906Y-50018380D02*
X68060287Y-49923142D01*
X68060287Y-49923142D02*
X68060287Y-49113619D01*
X67631715Y-50066000D02*
X67488858Y-50113619D01*
X67488858Y-50113619D02*
X67250763Y-50113619D01*
X67250763Y-50113619D02*
X67155525Y-50066000D01*
X67155525Y-50066000D02*
X67107906Y-50018380D01*
X67107906Y-50018380D02*
X67060287Y-49923142D01*
X67060287Y-49923142D02*
X67060287Y-49827904D01*
X67060287Y-49827904D02*
X67107906Y-49732666D01*
X67107906Y-49732666D02*
X67155525Y-49685047D01*
X67155525Y-49685047D02*
X67250763Y-49637428D01*
X67250763Y-49637428D02*
X67441239Y-49589809D01*
X67441239Y-49589809D02*
X67536477Y-49542190D01*
X67536477Y-49542190D02*
X67584096Y-49494571D01*
X67584096Y-49494571D02*
X67631715Y-49399333D01*
X67631715Y-49399333D02*
X67631715Y-49304095D01*
X67631715Y-49304095D02*
X67584096Y-49208857D01*
X67584096Y-49208857D02*
X67536477Y-49161238D01*
X67536477Y-49161238D02*
X67441239Y-49113619D01*
X67441239Y-49113619D02*
X67203144Y-49113619D01*
X67203144Y-49113619D02*
X67060287Y-49161238D01*
X66298382Y-49589809D02*
X66155525Y-49637428D01*
X66155525Y-49637428D02*
X66107906Y-49685047D01*
X66107906Y-49685047D02*
X66060287Y-49780285D01*
X66060287Y-49780285D02*
X66060287Y-49923142D01*
X66060287Y-49923142D02*
X66107906Y-50018380D01*
X66107906Y-50018380D02*
X66155525Y-50066000D01*
X66155525Y-50066000D02*
X66250763Y-50113619D01*
X66250763Y-50113619D02*
X66631715Y-50113619D01*
X66631715Y-50113619D02*
X66631715Y-49113619D01*
X66631715Y-49113619D02*
X66298382Y-49113619D01*
X66298382Y-49113619D02*
X66203144Y-49161238D01*
X66203144Y-49161238D02*
X66155525Y-49208857D01*
X66155525Y-49208857D02*
X66107906Y-49304095D01*
X66107906Y-49304095D02*
X66107906Y-49399333D01*
X66107906Y-49399333D02*
X66155525Y-49494571D01*
X66155525Y-49494571D02*
X66203144Y-49542190D01*
X66203144Y-49542190D02*
X66298382Y-49589809D01*
X66298382Y-49589809D02*
X66631715Y-49589809D01*
X65631715Y-49732666D02*
X64869811Y-49732666D01*
X65250763Y-50113619D02*
X65250763Y-49351714D01*
X70762134Y-44697104D02*
X70285944Y-44697104D01*
X70857372Y-44982819D02*
X70524039Y-43982819D01*
X70524039Y-43982819D02*
X70190706Y-44982819D01*
X69857372Y-44982819D02*
X69857372Y-43982819D01*
X69857372Y-43982819D02*
X69619277Y-43982819D01*
X69619277Y-43982819D02*
X69476420Y-44030438D01*
X69476420Y-44030438D02*
X69381182Y-44125676D01*
X69381182Y-44125676D02*
X69333563Y-44220914D01*
X69333563Y-44220914D02*
X69285944Y-44411390D01*
X69285944Y-44411390D02*
X69285944Y-44554247D01*
X69285944Y-44554247D02*
X69333563Y-44744723D01*
X69333563Y-44744723D02*
X69381182Y-44839961D01*
X69381182Y-44839961D02*
X69476420Y-44935200D01*
X69476420Y-44935200D02*
X69619277Y-44982819D01*
X69619277Y-44982819D02*
X69857372Y-44982819D01*
X68857372Y-44982819D02*
X68857372Y-43982819D01*
X68285944Y-44982819D02*
X68714515Y-44411390D01*
X68285944Y-43982819D02*
X68857372Y-44554247D01*
X67857372Y-44459009D02*
X67524039Y-44459009D01*
X67381182Y-44982819D02*
X67857372Y-44982819D01*
X67857372Y-44982819D02*
X67857372Y-43982819D01*
X67857372Y-43982819D02*
X67381182Y-43982819D01*
X66762134Y-44506628D02*
X66762134Y-44982819D01*
X67095467Y-43982819D02*
X66762134Y-44506628D01*
X66762134Y-44506628D02*
X66428801Y-43982819D01*
X66333563Y-45078057D02*
X65571658Y-45078057D01*
X64809753Y-44982819D02*
X65381181Y-44982819D01*
X65095467Y-44982819D02*
X65095467Y-43982819D01*
X65095467Y-43982819D02*
X65190705Y-44125676D01*
X65190705Y-44125676D02*
X65285943Y-44220914D01*
X65285943Y-44220914D02*
X65381181Y-44268533D01*
X70812934Y-47237104D02*
X70336744Y-47237104D01*
X70908172Y-47522819D02*
X70574839Y-46522819D01*
X70574839Y-46522819D02*
X70241506Y-47522819D01*
X69908172Y-47522819D02*
X69908172Y-46522819D01*
X69908172Y-46522819D02*
X69670077Y-46522819D01*
X69670077Y-46522819D02*
X69527220Y-46570438D01*
X69527220Y-46570438D02*
X69431982Y-46665676D01*
X69431982Y-46665676D02*
X69384363Y-46760914D01*
X69384363Y-46760914D02*
X69336744Y-46951390D01*
X69336744Y-46951390D02*
X69336744Y-47094247D01*
X69336744Y-47094247D02*
X69384363Y-47284723D01*
X69384363Y-47284723D02*
X69431982Y-47379961D01*
X69431982Y-47379961D02*
X69527220Y-47475200D01*
X69527220Y-47475200D02*
X69670077Y-47522819D01*
X69670077Y-47522819D02*
X69908172Y-47522819D01*
X68908172Y-47522819D02*
X68908172Y-46522819D01*
X68336744Y-47522819D02*
X68765315Y-46951390D01*
X68336744Y-46522819D02*
X68908172Y-47094247D01*
X67908172Y-46999009D02*
X67574839Y-46999009D01*
X67431982Y-47522819D02*
X67908172Y-47522819D01*
X67908172Y-47522819D02*
X67908172Y-46522819D01*
X67908172Y-46522819D02*
X67431982Y-46522819D01*
X66812934Y-47046628D02*
X66812934Y-47522819D01*
X67146267Y-46522819D02*
X66812934Y-47046628D01*
X66812934Y-47046628D02*
X66479601Y-46522819D01*
X66384363Y-47618057D02*
X65622458Y-47618057D01*
X65431981Y-46618057D02*
X65384362Y-46570438D01*
X65384362Y-46570438D02*
X65289124Y-46522819D01*
X65289124Y-46522819D02*
X65051029Y-46522819D01*
X65051029Y-46522819D02*
X64955791Y-46570438D01*
X64955791Y-46570438D02*
X64908172Y-46618057D01*
X64908172Y-46618057D02*
X64860553Y-46713295D01*
X64860553Y-46713295D02*
X64860553Y-46808533D01*
X64860553Y-46808533D02*
X64908172Y-46951390D01*
X64908172Y-46951390D02*
X65479600Y-47522819D01*
X65479600Y-47522819D02*
X64860553Y-47522819D01*
X79290172Y-49012019D02*
X78718744Y-49012019D01*
X79004458Y-50012019D02*
X79004458Y-49012019D01*
X78480648Y-49012019D02*
X77813982Y-50012019D01*
X77813982Y-49012019D02*
X78480648Y-50012019D01*
X79245734Y-37264400D02*
X79102877Y-37312019D01*
X79102877Y-37312019D02*
X78864782Y-37312019D01*
X78864782Y-37312019D02*
X78769544Y-37264400D01*
X78769544Y-37264400D02*
X78721925Y-37216780D01*
X78721925Y-37216780D02*
X78674306Y-37121542D01*
X78674306Y-37121542D02*
X78674306Y-37026304D01*
X78674306Y-37026304D02*
X78721925Y-36931066D01*
X78721925Y-36931066D02*
X78769544Y-36883447D01*
X78769544Y-36883447D02*
X78864782Y-36835828D01*
X78864782Y-36835828D02*
X79055258Y-36788209D01*
X79055258Y-36788209D02*
X79150496Y-36740590D01*
X79150496Y-36740590D02*
X79198115Y-36692971D01*
X79198115Y-36692971D02*
X79245734Y-36597733D01*
X79245734Y-36597733D02*
X79245734Y-36502495D01*
X79245734Y-36502495D02*
X79198115Y-36407257D01*
X79198115Y-36407257D02*
X79150496Y-36359638D01*
X79150496Y-36359638D02*
X79055258Y-36312019D01*
X79055258Y-36312019D02*
X78817163Y-36312019D01*
X78817163Y-36312019D02*
X78674306Y-36359638D01*
X78245734Y-37312019D02*
X78245734Y-36312019D01*
X78245734Y-36312019D02*
X77864782Y-36312019D01*
X77864782Y-36312019D02*
X77769544Y-36359638D01*
X77769544Y-36359638D02*
X77721925Y-36407257D01*
X77721925Y-36407257D02*
X77674306Y-36502495D01*
X77674306Y-36502495D02*
X77674306Y-36645352D01*
X77674306Y-36645352D02*
X77721925Y-36740590D01*
X77721925Y-36740590D02*
X77769544Y-36788209D01*
X77769544Y-36788209D02*
X77864782Y-36835828D01*
X77864782Y-36835828D02*
X78245734Y-36835828D01*
X77245734Y-37312019D02*
X77245734Y-36312019D01*
X76674306Y-37312019D02*
X77102877Y-36740590D01*
X76674306Y-36312019D02*
X77245734Y-36883447D01*
X76483830Y-37407257D02*
X75721925Y-37407257D01*
X75531448Y-36407257D02*
X75483829Y-36359638D01*
X75483829Y-36359638D02*
X75388591Y-36312019D01*
X75388591Y-36312019D02*
X75150496Y-36312019D01*
X75150496Y-36312019D02*
X75055258Y-36359638D01*
X75055258Y-36359638D02*
X75007639Y-36407257D01*
X75007639Y-36407257D02*
X74960020Y-36502495D01*
X74960020Y-36502495D02*
X74960020Y-36597733D01*
X74960020Y-36597733D02*
X75007639Y-36740590D01*
X75007639Y-36740590D02*
X75579067Y-37312019D01*
X75579067Y-37312019D02*
X74960020Y-37312019D01*
X79340972Y-53990419D02*
X79007639Y-54990419D01*
X79007639Y-54990419D02*
X78674306Y-53990419D01*
X77769544Y-54895180D02*
X77817163Y-54942800D01*
X77817163Y-54942800D02*
X77960020Y-54990419D01*
X77960020Y-54990419D02*
X78055258Y-54990419D01*
X78055258Y-54990419D02*
X78198115Y-54942800D01*
X78198115Y-54942800D02*
X78293353Y-54847561D01*
X78293353Y-54847561D02*
X78340972Y-54752323D01*
X78340972Y-54752323D02*
X78388591Y-54561847D01*
X78388591Y-54561847D02*
X78388591Y-54418990D01*
X78388591Y-54418990D02*
X78340972Y-54228514D01*
X78340972Y-54228514D02*
X78293353Y-54133276D01*
X78293353Y-54133276D02*
X78198115Y-54038038D01*
X78198115Y-54038038D02*
X78055258Y-53990419D01*
X78055258Y-53990419D02*
X77960020Y-53990419D01*
X77960020Y-53990419D02*
X77817163Y-54038038D01*
X77817163Y-54038038D02*
X77769544Y-54085657D01*
X76769544Y-54895180D02*
X76817163Y-54942800D01*
X76817163Y-54942800D02*
X76960020Y-54990419D01*
X76960020Y-54990419D02*
X77055258Y-54990419D01*
X77055258Y-54990419D02*
X77198115Y-54942800D01*
X77198115Y-54942800D02*
X77293353Y-54847561D01*
X77293353Y-54847561D02*
X77340972Y-54752323D01*
X77340972Y-54752323D02*
X77388591Y-54561847D01*
X77388591Y-54561847D02*
X77388591Y-54418990D01*
X77388591Y-54418990D02*
X77340972Y-54228514D01*
X77340972Y-54228514D02*
X77293353Y-54133276D01*
X77293353Y-54133276D02*
X77198115Y-54038038D01*
X77198115Y-54038038D02*
X77055258Y-53990419D01*
X77055258Y-53990419D02*
X76960020Y-53990419D01*
X76960020Y-53990419D02*
X76817163Y-54038038D01*
X76817163Y-54038038D02*
X76769544Y-54085657D01*
X79296534Y-42242800D02*
X79153677Y-42290419D01*
X79153677Y-42290419D02*
X78915582Y-42290419D01*
X78915582Y-42290419D02*
X78820344Y-42242800D01*
X78820344Y-42242800D02*
X78772725Y-42195180D01*
X78772725Y-42195180D02*
X78725106Y-42099942D01*
X78725106Y-42099942D02*
X78725106Y-42004704D01*
X78725106Y-42004704D02*
X78772725Y-41909466D01*
X78772725Y-41909466D02*
X78820344Y-41861847D01*
X78820344Y-41861847D02*
X78915582Y-41814228D01*
X78915582Y-41814228D02*
X79106058Y-41766609D01*
X79106058Y-41766609D02*
X79201296Y-41718990D01*
X79201296Y-41718990D02*
X79248915Y-41671371D01*
X79248915Y-41671371D02*
X79296534Y-41576133D01*
X79296534Y-41576133D02*
X79296534Y-41480895D01*
X79296534Y-41480895D02*
X79248915Y-41385657D01*
X79248915Y-41385657D02*
X79201296Y-41338038D01*
X79201296Y-41338038D02*
X79106058Y-41290419D01*
X79106058Y-41290419D02*
X78867963Y-41290419D01*
X78867963Y-41290419D02*
X78725106Y-41338038D01*
X78296534Y-42290419D02*
X78296534Y-41290419D01*
X78296534Y-41290419D02*
X77915582Y-41290419D01*
X77915582Y-41290419D02*
X77820344Y-41338038D01*
X77820344Y-41338038D02*
X77772725Y-41385657D01*
X77772725Y-41385657D02*
X77725106Y-41480895D01*
X77725106Y-41480895D02*
X77725106Y-41623752D01*
X77725106Y-41623752D02*
X77772725Y-41718990D01*
X77772725Y-41718990D02*
X77820344Y-41766609D01*
X77820344Y-41766609D02*
X77915582Y-41814228D01*
X77915582Y-41814228D02*
X78296534Y-41814228D01*
X77296534Y-42290419D02*
X77296534Y-41290419D01*
X76725106Y-42290419D02*
X77153677Y-41718990D01*
X76725106Y-41290419D02*
X77296534Y-41861847D01*
X76534630Y-42385657D02*
X75772725Y-42385657D01*
X75010820Y-42290419D02*
X75582248Y-42290419D01*
X75296534Y-42290419D02*
X75296534Y-41290419D01*
X75296534Y-41290419D02*
X75391772Y-41433276D01*
X75391772Y-41433276D02*
X75487010Y-41528514D01*
X75487010Y-41528514D02*
X75582248Y-41576133D01*
X79248915Y-44982819D02*
X79248915Y-43982819D01*
X79248915Y-43982819D02*
X79010820Y-43982819D01*
X79010820Y-43982819D02*
X78867963Y-44030438D01*
X78867963Y-44030438D02*
X78772725Y-44125676D01*
X78772725Y-44125676D02*
X78725106Y-44220914D01*
X78725106Y-44220914D02*
X78677487Y-44411390D01*
X78677487Y-44411390D02*
X78677487Y-44554247D01*
X78677487Y-44554247D02*
X78725106Y-44744723D01*
X78725106Y-44744723D02*
X78772725Y-44839961D01*
X78772725Y-44839961D02*
X78867963Y-44935200D01*
X78867963Y-44935200D02*
X79010820Y-44982819D01*
X79010820Y-44982819D02*
X79248915Y-44982819D01*
X78296534Y-44697104D02*
X77820344Y-44697104D01*
X78391772Y-44982819D02*
X78058439Y-43982819D01*
X78058439Y-43982819D02*
X77725106Y-44982819D01*
X76820344Y-44887580D02*
X76867963Y-44935200D01*
X76867963Y-44935200D02*
X77010820Y-44982819D01*
X77010820Y-44982819D02*
X77106058Y-44982819D01*
X77106058Y-44982819D02*
X77248915Y-44935200D01*
X77248915Y-44935200D02*
X77344153Y-44839961D01*
X77344153Y-44839961D02*
X77391772Y-44744723D01*
X77391772Y-44744723D02*
X77439391Y-44554247D01*
X77439391Y-44554247D02*
X77439391Y-44411390D01*
X77439391Y-44411390D02*
X77391772Y-44220914D01*
X77391772Y-44220914D02*
X77344153Y-44125676D01*
X77344153Y-44125676D02*
X77248915Y-44030438D01*
X77248915Y-44030438D02*
X77106058Y-43982819D01*
X77106058Y-43982819D02*
X77010820Y-43982819D01*
X77010820Y-43982819D02*
X76867963Y-44030438D01*
X76867963Y-44030438D02*
X76820344Y-44078057D01*
X76629868Y-45078057D02*
X75867963Y-45078057D01*
X75153677Y-44982819D02*
X75629867Y-44982819D01*
X75629867Y-44982819D02*
X75629867Y-43982819D01*
X79248915Y-47472019D02*
X79248915Y-46472019D01*
X79248915Y-46472019D02*
X79010820Y-46472019D01*
X79010820Y-46472019D02*
X78867963Y-46519638D01*
X78867963Y-46519638D02*
X78772725Y-46614876D01*
X78772725Y-46614876D02*
X78725106Y-46710114D01*
X78725106Y-46710114D02*
X78677487Y-46900590D01*
X78677487Y-46900590D02*
X78677487Y-47043447D01*
X78677487Y-47043447D02*
X78725106Y-47233923D01*
X78725106Y-47233923D02*
X78772725Y-47329161D01*
X78772725Y-47329161D02*
X78867963Y-47424400D01*
X78867963Y-47424400D02*
X79010820Y-47472019D01*
X79010820Y-47472019D02*
X79248915Y-47472019D01*
X78296534Y-47186304D02*
X77820344Y-47186304D01*
X78391772Y-47472019D02*
X78058439Y-46472019D01*
X78058439Y-46472019D02*
X77725106Y-47472019D01*
X76820344Y-47376780D02*
X76867963Y-47424400D01*
X76867963Y-47424400D02*
X77010820Y-47472019D01*
X77010820Y-47472019D02*
X77106058Y-47472019D01*
X77106058Y-47472019D02*
X77248915Y-47424400D01*
X77248915Y-47424400D02*
X77344153Y-47329161D01*
X77344153Y-47329161D02*
X77391772Y-47233923D01*
X77391772Y-47233923D02*
X77439391Y-47043447D01*
X77439391Y-47043447D02*
X77439391Y-46900590D01*
X77439391Y-46900590D02*
X77391772Y-46710114D01*
X77391772Y-46710114D02*
X77344153Y-46614876D01*
X77344153Y-46614876D02*
X77248915Y-46519638D01*
X77248915Y-46519638D02*
X77106058Y-46472019D01*
X77106058Y-46472019D02*
X77010820Y-46472019D01*
X77010820Y-46472019D02*
X76867963Y-46519638D01*
X76867963Y-46519638D02*
X76820344Y-46567257D01*
X76629868Y-47567257D02*
X75867963Y-47567257D01*
X75058439Y-47472019D02*
X75391772Y-46995828D01*
X75629867Y-47472019D02*
X75629867Y-46472019D01*
X75629867Y-46472019D02*
X75248915Y-46472019D01*
X75248915Y-46472019D02*
X75153677Y-46519638D01*
X75153677Y-46519638D02*
X75106058Y-46567257D01*
X75106058Y-46567257D02*
X75058439Y-46662495D01*
X75058439Y-46662495D02*
X75058439Y-46805352D01*
X75058439Y-46805352D02*
X75106058Y-46900590D01*
X75106058Y-46900590D02*
X75153677Y-46948209D01*
X75153677Y-46948209D02*
X75248915Y-46995828D01*
X75248915Y-46995828D02*
X75629867Y-46995828D01*
X78677487Y-52552019D02*
X79010820Y-52075828D01*
X79248915Y-52552019D02*
X79248915Y-51552019D01*
X79248915Y-51552019D02*
X78867963Y-51552019D01*
X78867963Y-51552019D02*
X78772725Y-51599638D01*
X78772725Y-51599638D02*
X78725106Y-51647257D01*
X78725106Y-51647257D02*
X78677487Y-51742495D01*
X78677487Y-51742495D02*
X78677487Y-51885352D01*
X78677487Y-51885352D02*
X78725106Y-51980590D01*
X78725106Y-51980590D02*
X78772725Y-52028209D01*
X78772725Y-52028209D02*
X78867963Y-52075828D01*
X78867963Y-52075828D02*
X79248915Y-52075828D01*
X78344153Y-51552019D02*
X77677487Y-52552019D01*
X77677487Y-51552019D02*
X78344153Y-52552019D01*
X78775906Y-38848838D02*
X78871144Y-38801219D01*
X78871144Y-38801219D02*
X79014001Y-38801219D01*
X79014001Y-38801219D02*
X79156858Y-38848838D01*
X79156858Y-38848838D02*
X79252096Y-38944076D01*
X79252096Y-38944076D02*
X79299715Y-39039314D01*
X79299715Y-39039314D02*
X79347334Y-39229790D01*
X79347334Y-39229790D02*
X79347334Y-39372647D01*
X79347334Y-39372647D02*
X79299715Y-39563123D01*
X79299715Y-39563123D02*
X79252096Y-39658361D01*
X79252096Y-39658361D02*
X79156858Y-39753600D01*
X79156858Y-39753600D02*
X79014001Y-39801219D01*
X79014001Y-39801219D02*
X78918763Y-39801219D01*
X78918763Y-39801219D02*
X78775906Y-39753600D01*
X78775906Y-39753600D02*
X78728287Y-39705980D01*
X78728287Y-39705980D02*
X78728287Y-39372647D01*
X78728287Y-39372647D02*
X78918763Y-39372647D01*
X78299715Y-39801219D02*
X78299715Y-38801219D01*
X78299715Y-38801219D02*
X77728287Y-39801219D01*
X77728287Y-39801219D02*
X77728287Y-38801219D01*
X77252096Y-39801219D02*
X77252096Y-38801219D01*
X77252096Y-38801219D02*
X77014001Y-38801219D01*
X77014001Y-38801219D02*
X76871144Y-38848838D01*
X76871144Y-38848838D02*
X76775906Y-38944076D01*
X76775906Y-38944076D02*
X76728287Y-39039314D01*
X76728287Y-39039314D02*
X76680668Y-39229790D01*
X76680668Y-39229790D02*
X76680668Y-39372647D01*
X76680668Y-39372647D02*
X76728287Y-39563123D01*
X76728287Y-39563123D02*
X76775906Y-39658361D01*
X76775906Y-39658361D02*
X76871144Y-39753600D01*
X76871144Y-39753600D02*
X77014001Y-39801219D01*
X77014001Y-39801219D02*
X77252096Y-39801219D01*
X196892172Y-37277219D02*
X196558839Y-38277219D01*
X196558839Y-38277219D02*
X196225506Y-37277219D01*
X195701696Y-37277219D02*
X195511220Y-37277219D01*
X195511220Y-37277219D02*
X195415982Y-37324838D01*
X195415982Y-37324838D02*
X195320744Y-37420076D01*
X195320744Y-37420076D02*
X195273125Y-37610552D01*
X195273125Y-37610552D02*
X195273125Y-37943885D01*
X195273125Y-37943885D02*
X195320744Y-38134361D01*
X195320744Y-38134361D02*
X195415982Y-38229600D01*
X195415982Y-38229600D02*
X195511220Y-38277219D01*
X195511220Y-38277219D02*
X195701696Y-38277219D01*
X195701696Y-38277219D02*
X195796934Y-38229600D01*
X195796934Y-38229600D02*
X195892172Y-38134361D01*
X195892172Y-38134361D02*
X195939791Y-37943885D01*
X195939791Y-37943885D02*
X195939791Y-37610552D01*
X195939791Y-37610552D02*
X195892172Y-37420076D01*
X195892172Y-37420076D02*
X195796934Y-37324838D01*
X195796934Y-37324838D02*
X195701696Y-37277219D01*
X194844553Y-37277219D02*
X194844553Y-38086742D01*
X194844553Y-38086742D02*
X194796934Y-38181980D01*
X194796934Y-38181980D02*
X194749315Y-38229600D01*
X194749315Y-38229600D02*
X194654077Y-38277219D01*
X194654077Y-38277219D02*
X194463601Y-38277219D01*
X194463601Y-38277219D02*
X194368363Y-38229600D01*
X194368363Y-38229600D02*
X194320744Y-38181980D01*
X194320744Y-38181980D02*
X194273125Y-38086742D01*
X194273125Y-38086742D02*
X194273125Y-37277219D01*
X193939791Y-37277219D02*
X193368363Y-37277219D01*
X193654077Y-38277219D02*
X193654077Y-37277219D01*
X193035029Y-37896266D02*
X192273125Y-37896266D01*
X192654077Y-38277219D02*
X192654077Y-37515314D01*
X196892172Y-44592419D02*
X196558839Y-45592419D01*
X196558839Y-45592419D02*
X196225506Y-44592419D01*
X195701696Y-44592419D02*
X195511220Y-44592419D01*
X195511220Y-44592419D02*
X195415982Y-44640038D01*
X195415982Y-44640038D02*
X195320744Y-44735276D01*
X195320744Y-44735276D02*
X195273125Y-44925752D01*
X195273125Y-44925752D02*
X195273125Y-45259085D01*
X195273125Y-45259085D02*
X195320744Y-45449561D01*
X195320744Y-45449561D02*
X195415982Y-45544800D01*
X195415982Y-45544800D02*
X195511220Y-45592419D01*
X195511220Y-45592419D02*
X195701696Y-45592419D01*
X195701696Y-45592419D02*
X195796934Y-45544800D01*
X195796934Y-45544800D02*
X195892172Y-45449561D01*
X195892172Y-45449561D02*
X195939791Y-45259085D01*
X195939791Y-45259085D02*
X195939791Y-44925752D01*
X195939791Y-44925752D02*
X195892172Y-44735276D01*
X195892172Y-44735276D02*
X195796934Y-44640038D01*
X195796934Y-44640038D02*
X195701696Y-44592419D01*
X194844553Y-44592419D02*
X194844553Y-45401942D01*
X194844553Y-45401942D02*
X194796934Y-45497180D01*
X194796934Y-45497180D02*
X194749315Y-45544800D01*
X194749315Y-45544800D02*
X194654077Y-45592419D01*
X194654077Y-45592419D02*
X194463601Y-45592419D01*
X194463601Y-45592419D02*
X194368363Y-45544800D01*
X194368363Y-45544800D02*
X194320744Y-45497180D01*
X194320744Y-45497180D02*
X194273125Y-45401942D01*
X194273125Y-45401942D02*
X194273125Y-44592419D01*
X193939791Y-44592419D02*
X193368363Y-44592419D01*
X193654077Y-45592419D02*
X193654077Y-44592419D01*
X193035029Y-45211466D02*
X192273125Y-45211466D01*
X217720172Y-44795619D02*
X217386839Y-45795619D01*
X217386839Y-45795619D02*
X217053506Y-44795619D01*
X216720172Y-45795619D02*
X216720172Y-44795619D01*
X216243982Y-45795619D02*
X216243982Y-44795619D01*
X216243982Y-44795619D02*
X215672554Y-45795619D01*
X215672554Y-45795619D02*
X215672554Y-44795619D01*
X215196363Y-45414666D02*
X214434459Y-45414666D01*
X217770972Y-37226419D02*
X217437639Y-38226419D01*
X217437639Y-38226419D02*
X217104306Y-37226419D01*
X216770972Y-38226419D02*
X216770972Y-37226419D01*
X216294782Y-38226419D02*
X216294782Y-37226419D01*
X216294782Y-37226419D02*
X215723354Y-38226419D01*
X215723354Y-38226419D02*
X215723354Y-37226419D01*
X215247163Y-37845466D02*
X214485259Y-37845466D01*
X214866211Y-38226419D02*
X214866211Y-37464514D01*
X96303638Y-55640893D02*
X96256019Y-55545655D01*
X96256019Y-55545655D02*
X96256019Y-55402798D01*
X96256019Y-55402798D02*
X96303638Y-55259941D01*
X96303638Y-55259941D02*
X96398876Y-55164703D01*
X96398876Y-55164703D02*
X96494114Y-55117084D01*
X96494114Y-55117084D02*
X96684590Y-55069465D01*
X96684590Y-55069465D02*
X96827447Y-55069465D01*
X96827447Y-55069465D02*
X97017923Y-55117084D01*
X97017923Y-55117084D02*
X97113161Y-55164703D01*
X97113161Y-55164703D02*
X97208400Y-55259941D01*
X97208400Y-55259941D02*
X97256019Y-55402798D01*
X97256019Y-55402798D02*
X97256019Y-55498036D01*
X97256019Y-55498036D02*
X97208400Y-55640893D01*
X97208400Y-55640893D02*
X97160780Y-55688512D01*
X97160780Y-55688512D02*
X96827447Y-55688512D01*
X96827447Y-55688512D02*
X96827447Y-55498036D01*
X97256019Y-56117084D02*
X96256019Y-56117084D01*
X96256019Y-56117084D02*
X97256019Y-56688512D01*
X97256019Y-56688512D02*
X96256019Y-56688512D01*
X97256019Y-57164703D02*
X96256019Y-57164703D01*
X96256019Y-57164703D02*
X96256019Y-57402798D01*
X96256019Y-57402798D02*
X96303638Y-57545655D01*
X96303638Y-57545655D02*
X96398876Y-57640893D01*
X96398876Y-57640893D02*
X96494114Y-57688512D01*
X96494114Y-57688512D02*
X96684590Y-57736131D01*
X96684590Y-57736131D02*
X96827447Y-57736131D01*
X96827447Y-57736131D02*
X97017923Y-57688512D01*
X97017923Y-57688512D02*
X97113161Y-57640893D01*
X97113161Y-57640893D02*
X97208400Y-57545655D01*
X97208400Y-57545655D02*
X97256019Y-57402798D01*
X97256019Y-57402798D02*
X97256019Y-57164703D01*
X96357619Y-71735046D02*
X96357619Y-72354093D01*
X96357619Y-72354093D02*
X96738571Y-72020760D01*
X96738571Y-72020760D02*
X96738571Y-72163617D01*
X96738571Y-72163617D02*
X96786190Y-72258855D01*
X96786190Y-72258855D02*
X96833809Y-72306474D01*
X96833809Y-72306474D02*
X96929047Y-72354093D01*
X96929047Y-72354093D02*
X97167142Y-72354093D01*
X97167142Y-72354093D02*
X97262380Y-72306474D01*
X97262380Y-72306474D02*
X97310000Y-72258855D01*
X97310000Y-72258855D02*
X97357619Y-72163617D01*
X97357619Y-72163617D02*
X97357619Y-71877903D01*
X97357619Y-71877903D02*
X97310000Y-71782665D01*
X97310000Y-71782665D02*
X97262380Y-71735046D01*
X96357619Y-72639808D02*
X97357619Y-72973141D01*
X97357619Y-72973141D02*
X96357619Y-73306474D01*
X96357619Y-73544570D02*
X96357619Y-74163617D01*
X96357619Y-74163617D02*
X96738571Y-73830284D01*
X96738571Y-73830284D02*
X96738571Y-73973141D01*
X96738571Y-73973141D02*
X96786190Y-74068379D01*
X96786190Y-74068379D02*
X96833809Y-74115998D01*
X96833809Y-74115998D02*
X96929047Y-74163617D01*
X96929047Y-74163617D02*
X97167142Y-74163617D01*
X97167142Y-74163617D02*
X97262380Y-74115998D01*
X97262380Y-74115998D02*
X97310000Y-74068379D01*
X97310000Y-74068379D02*
X97357619Y-73973141D01*
X97357619Y-73973141D02*
X97357619Y-73687427D01*
X97357619Y-73687427D02*
X97310000Y-73592189D01*
X97310000Y-73592189D02*
X97262380Y-73544570D01*
X99323009Y-72541484D02*
X99323009Y-72874817D01*
X99846819Y-73017674D02*
X99846819Y-72541484D01*
X99846819Y-72541484D02*
X98846819Y-72541484D01*
X98846819Y-72541484D02*
X98846819Y-73017674D01*
X99846819Y-73446246D02*
X98846819Y-73446246D01*
X98846819Y-73446246D02*
X99846819Y-74017674D01*
X99846819Y-74017674D02*
X98846819Y-74017674D01*
X98945238Y-55793293D02*
X98897619Y-55698055D01*
X98897619Y-55698055D02*
X98897619Y-55555198D01*
X98897619Y-55555198D02*
X98945238Y-55412341D01*
X98945238Y-55412341D02*
X99040476Y-55317103D01*
X99040476Y-55317103D02*
X99135714Y-55269484D01*
X99135714Y-55269484D02*
X99326190Y-55221865D01*
X99326190Y-55221865D02*
X99469047Y-55221865D01*
X99469047Y-55221865D02*
X99659523Y-55269484D01*
X99659523Y-55269484D02*
X99754761Y-55317103D01*
X99754761Y-55317103D02*
X99850000Y-55412341D01*
X99850000Y-55412341D02*
X99897619Y-55555198D01*
X99897619Y-55555198D02*
X99897619Y-55650436D01*
X99897619Y-55650436D02*
X99850000Y-55793293D01*
X99850000Y-55793293D02*
X99802380Y-55840912D01*
X99802380Y-55840912D02*
X99469047Y-55840912D01*
X99469047Y-55840912D02*
X99469047Y-55650436D01*
X98992857Y-56221865D02*
X98945238Y-56269484D01*
X98945238Y-56269484D02*
X98897619Y-56364722D01*
X98897619Y-56364722D02*
X98897619Y-56602817D01*
X98897619Y-56602817D02*
X98945238Y-56698055D01*
X98945238Y-56698055D02*
X98992857Y-56745674D01*
X98992857Y-56745674D02*
X99088095Y-56793293D01*
X99088095Y-56793293D02*
X99183333Y-56793293D01*
X99183333Y-56793293D02*
X99326190Y-56745674D01*
X99326190Y-56745674D02*
X99897619Y-56174246D01*
X99897619Y-56174246D02*
X99897619Y-56793293D01*
X98897619Y-57126627D02*
X98897619Y-57745674D01*
X98897619Y-57745674D02*
X99278571Y-57412341D01*
X99278571Y-57412341D02*
X99278571Y-57555198D01*
X99278571Y-57555198D02*
X99326190Y-57650436D01*
X99326190Y-57650436D02*
X99373809Y-57698055D01*
X99373809Y-57698055D02*
X99469047Y-57745674D01*
X99469047Y-57745674D02*
X99707142Y-57745674D01*
X99707142Y-57745674D02*
X99802380Y-57698055D01*
X99802380Y-57698055D02*
X99850000Y-57650436D01*
X99850000Y-57650436D02*
X99897619Y-57555198D01*
X99897619Y-57555198D02*
X99897619Y-57269484D01*
X99897619Y-57269484D02*
X99850000Y-57174246D01*
X99850000Y-57174246D02*
X99802380Y-57126627D01*
X101434438Y-55844093D02*
X101386819Y-55748855D01*
X101386819Y-55748855D02*
X101386819Y-55605998D01*
X101386819Y-55605998D02*
X101434438Y-55463141D01*
X101434438Y-55463141D02*
X101529676Y-55367903D01*
X101529676Y-55367903D02*
X101624914Y-55320284D01*
X101624914Y-55320284D02*
X101815390Y-55272665D01*
X101815390Y-55272665D02*
X101958247Y-55272665D01*
X101958247Y-55272665D02*
X102148723Y-55320284D01*
X102148723Y-55320284D02*
X102243961Y-55367903D01*
X102243961Y-55367903D02*
X102339200Y-55463141D01*
X102339200Y-55463141D02*
X102386819Y-55605998D01*
X102386819Y-55605998D02*
X102386819Y-55701236D01*
X102386819Y-55701236D02*
X102339200Y-55844093D01*
X102339200Y-55844093D02*
X102291580Y-55891712D01*
X102291580Y-55891712D02*
X101958247Y-55891712D01*
X101958247Y-55891712D02*
X101958247Y-55701236D01*
X101482057Y-56272665D02*
X101434438Y-56320284D01*
X101434438Y-56320284D02*
X101386819Y-56415522D01*
X101386819Y-56415522D02*
X101386819Y-56653617D01*
X101386819Y-56653617D02*
X101434438Y-56748855D01*
X101434438Y-56748855D02*
X101482057Y-56796474D01*
X101482057Y-56796474D02*
X101577295Y-56844093D01*
X101577295Y-56844093D02*
X101672533Y-56844093D01*
X101672533Y-56844093D02*
X101815390Y-56796474D01*
X101815390Y-56796474D02*
X102386819Y-56225046D01*
X102386819Y-56225046D02*
X102386819Y-56844093D01*
X101482057Y-57225046D02*
X101434438Y-57272665D01*
X101434438Y-57272665D02*
X101386819Y-57367903D01*
X101386819Y-57367903D02*
X101386819Y-57605998D01*
X101386819Y-57605998D02*
X101434438Y-57701236D01*
X101434438Y-57701236D02*
X101482057Y-57748855D01*
X101482057Y-57748855D02*
X101577295Y-57796474D01*
X101577295Y-57796474D02*
X101672533Y-57796474D01*
X101672533Y-57796474D02*
X101815390Y-57748855D01*
X101815390Y-57748855D02*
X102386819Y-57177427D01*
X102386819Y-57177427D02*
X102386819Y-57796474D01*
X104828400Y-72443065D02*
X104876019Y-72585922D01*
X104876019Y-72585922D02*
X104876019Y-72824017D01*
X104876019Y-72824017D02*
X104828400Y-72919255D01*
X104828400Y-72919255D02*
X104780780Y-72966874D01*
X104780780Y-72966874D02*
X104685542Y-73014493D01*
X104685542Y-73014493D02*
X104590304Y-73014493D01*
X104590304Y-73014493D02*
X104495066Y-72966874D01*
X104495066Y-72966874D02*
X104447447Y-72919255D01*
X104447447Y-72919255D02*
X104399828Y-72824017D01*
X104399828Y-72824017D02*
X104352209Y-72633541D01*
X104352209Y-72633541D02*
X104304590Y-72538303D01*
X104304590Y-72538303D02*
X104256971Y-72490684D01*
X104256971Y-72490684D02*
X104161733Y-72443065D01*
X104161733Y-72443065D02*
X104066495Y-72443065D01*
X104066495Y-72443065D02*
X103971257Y-72490684D01*
X103971257Y-72490684D02*
X103923638Y-72538303D01*
X103923638Y-72538303D02*
X103876019Y-72633541D01*
X103876019Y-72633541D02*
X103876019Y-72871636D01*
X103876019Y-72871636D02*
X103923638Y-73014493D01*
X104876019Y-73443065D02*
X103876019Y-73443065D01*
X103876019Y-73443065D02*
X104590304Y-73776398D01*
X104590304Y-73776398D02*
X103876019Y-74109731D01*
X103876019Y-74109731D02*
X104876019Y-74109731D01*
X103926819Y-55279027D02*
X103926819Y-55850455D01*
X104926819Y-55564741D02*
X103926819Y-55564741D01*
X103926819Y-56088551D02*
X104926819Y-56755217D01*
X103926819Y-56755217D02*
X104926819Y-56088551D01*
X104926819Y-57136170D02*
X103926819Y-57136170D01*
X103926819Y-57136170D02*
X103926819Y-57374265D01*
X103926819Y-57374265D02*
X103974438Y-57517122D01*
X103974438Y-57517122D02*
X104069676Y-57612360D01*
X104069676Y-57612360D02*
X104164914Y-57659979D01*
X104164914Y-57659979D02*
X104355390Y-57707598D01*
X104355390Y-57707598D02*
X104498247Y-57707598D01*
X104498247Y-57707598D02*
X104688723Y-57659979D01*
X104688723Y-57659979D02*
X104783961Y-57612360D01*
X104783961Y-57612360D02*
X104879200Y-57517122D01*
X104879200Y-57517122D02*
X104926819Y-57374265D01*
X104926819Y-57374265D02*
X104926819Y-57136170D01*
X106362038Y-72303293D02*
X106314419Y-72208055D01*
X106314419Y-72208055D02*
X106314419Y-72065198D01*
X106314419Y-72065198D02*
X106362038Y-71922341D01*
X106362038Y-71922341D02*
X106457276Y-71827103D01*
X106457276Y-71827103D02*
X106552514Y-71779484D01*
X106552514Y-71779484D02*
X106742990Y-71731865D01*
X106742990Y-71731865D02*
X106885847Y-71731865D01*
X106885847Y-71731865D02*
X107076323Y-71779484D01*
X107076323Y-71779484D02*
X107171561Y-71827103D01*
X107171561Y-71827103D02*
X107266800Y-71922341D01*
X107266800Y-71922341D02*
X107314419Y-72065198D01*
X107314419Y-72065198D02*
X107314419Y-72160436D01*
X107314419Y-72160436D02*
X107266800Y-72303293D01*
X107266800Y-72303293D02*
X107219180Y-72350912D01*
X107219180Y-72350912D02*
X106885847Y-72350912D01*
X106885847Y-72350912D02*
X106885847Y-72160436D01*
X106314419Y-72684246D02*
X106314419Y-73303293D01*
X106314419Y-73303293D02*
X106695371Y-72969960D01*
X106695371Y-72969960D02*
X106695371Y-73112817D01*
X106695371Y-73112817D02*
X106742990Y-73208055D01*
X106742990Y-73208055D02*
X106790609Y-73255674D01*
X106790609Y-73255674D02*
X106885847Y-73303293D01*
X106885847Y-73303293D02*
X107123942Y-73303293D01*
X107123942Y-73303293D02*
X107219180Y-73255674D01*
X107219180Y-73255674D02*
X107266800Y-73208055D01*
X107266800Y-73208055D02*
X107314419Y-73112817D01*
X107314419Y-73112817D02*
X107314419Y-72827103D01*
X107314419Y-72827103D02*
X107266800Y-72731865D01*
X107266800Y-72731865D02*
X107219180Y-72684246D01*
X106647752Y-74160436D02*
X107314419Y-74160436D01*
X106266800Y-73922341D02*
X106981085Y-73684246D01*
X106981085Y-73684246D02*
X106981085Y-74303293D01*
X107466819Y-56094912D02*
X106990628Y-55761579D01*
X107466819Y-55523484D02*
X106466819Y-55523484D01*
X106466819Y-55523484D02*
X106466819Y-55904436D01*
X106466819Y-55904436D02*
X106514438Y-55999674D01*
X106514438Y-55999674D02*
X106562057Y-56047293D01*
X106562057Y-56047293D02*
X106657295Y-56094912D01*
X106657295Y-56094912D02*
X106800152Y-56094912D01*
X106800152Y-56094912D02*
X106895390Y-56047293D01*
X106895390Y-56047293D02*
X106943009Y-55999674D01*
X106943009Y-55999674D02*
X106990628Y-55904436D01*
X106990628Y-55904436D02*
X106990628Y-55523484D01*
X106466819Y-56428246D02*
X107466819Y-57094912D01*
X106466819Y-57094912D02*
X107466819Y-56428246D01*
X107466819Y-57475865D02*
X106466819Y-57475865D01*
X106466819Y-57475865D02*
X106466819Y-57713960D01*
X106466819Y-57713960D02*
X106514438Y-57856817D01*
X106514438Y-57856817D02*
X106609676Y-57952055D01*
X106609676Y-57952055D02*
X106704914Y-57999674D01*
X106704914Y-57999674D02*
X106895390Y-58047293D01*
X106895390Y-58047293D02*
X107038247Y-58047293D01*
X107038247Y-58047293D02*
X107228723Y-57999674D01*
X107228723Y-57999674D02*
X107323961Y-57952055D01*
X107323961Y-57952055D02*
X107419200Y-57856817D01*
X107419200Y-57856817D02*
X107466819Y-57713960D01*
X107466819Y-57713960D02*
X107466819Y-57475865D01*
X109105238Y-55996493D02*
X109057619Y-55901255D01*
X109057619Y-55901255D02*
X109057619Y-55758398D01*
X109057619Y-55758398D02*
X109105238Y-55615541D01*
X109105238Y-55615541D02*
X109200476Y-55520303D01*
X109200476Y-55520303D02*
X109295714Y-55472684D01*
X109295714Y-55472684D02*
X109486190Y-55425065D01*
X109486190Y-55425065D02*
X109629047Y-55425065D01*
X109629047Y-55425065D02*
X109819523Y-55472684D01*
X109819523Y-55472684D02*
X109914761Y-55520303D01*
X109914761Y-55520303D02*
X110010000Y-55615541D01*
X110010000Y-55615541D02*
X110057619Y-55758398D01*
X110057619Y-55758398D02*
X110057619Y-55853636D01*
X110057619Y-55853636D02*
X110010000Y-55996493D01*
X110010000Y-55996493D02*
X109962380Y-56044112D01*
X109962380Y-56044112D02*
X109629047Y-56044112D01*
X109629047Y-56044112D02*
X109629047Y-55853636D01*
X109152857Y-56425065D02*
X109105238Y-56472684D01*
X109105238Y-56472684D02*
X109057619Y-56567922D01*
X109057619Y-56567922D02*
X109057619Y-56806017D01*
X109057619Y-56806017D02*
X109105238Y-56901255D01*
X109105238Y-56901255D02*
X109152857Y-56948874D01*
X109152857Y-56948874D02*
X109248095Y-56996493D01*
X109248095Y-56996493D02*
X109343333Y-56996493D01*
X109343333Y-56996493D02*
X109486190Y-56948874D01*
X109486190Y-56948874D02*
X110057619Y-56377446D01*
X110057619Y-56377446D02*
X110057619Y-56996493D01*
X110057619Y-57948874D02*
X110057619Y-57377446D01*
X110057619Y-57663160D02*
X109057619Y-57663160D01*
X109057619Y-57663160D02*
X109200476Y-57567922D01*
X109200476Y-57567922D02*
X109295714Y-57472684D01*
X109295714Y-57472684D02*
X109343333Y-57377446D01*
X109156038Y-72354093D02*
X109108419Y-72258855D01*
X109108419Y-72258855D02*
X109108419Y-72115998D01*
X109108419Y-72115998D02*
X109156038Y-71973141D01*
X109156038Y-71973141D02*
X109251276Y-71877903D01*
X109251276Y-71877903D02*
X109346514Y-71830284D01*
X109346514Y-71830284D02*
X109536990Y-71782665D01*
X109536990Y-71782665D02*
X109679847Y-71782665D01*
X109679847Y-71782665D02*
X109870323Y-71830284D01*
X109870323Y-71830284D02*
X109965561Y-71877903D01*
X109965561Y-71877903D02*
X110060800Y-71973141D01*
X110060800Y-71973141D02*
X110108419Y-72115998D01*
X110108419Y-72115998D02*
X110108419Y-72211236D01*
X110108419Y-72211236D02*
X110060800Y-72354093D01*
X110060800Y-72354093D02*
X110013180Y-72401712D01*
X110013180Y-72401712D02*
X109679847Y-72401712D01*
X109679847Y-72401712D02*
X109679847Y-72211236D01*
X109108419Y-72735046D02*
X109108419Y-73354093D01*
X109108419Y-73354093D02*
X109489371Y-73020760D01*
X109489371Y-73020760D02*
X109489371Y-73163617D01*
X109489371Y-73163617D02*
X109536990Y-73258855D01*
X109536990Y-73258855D02*
X109584609Y-73306474D01*
X109584609Y-73306474D02*
X109679847Y-73354093D01*
X109679847Y-73354093D02*
X109917942Y-73354093D01*
X109917942Y-73354093D02*
X110013180Y-73306474D01*
X110013180Y-73306474D02*
X110060800Y-73258855D01*
X110060800Y-73258855D02*
X110108419Y-73163617D01*
X110108419Y-73163617D02*
X110108419Y-72877903D01*
X110108419Y-72877903D02*
X110060800Y-72782665D01*
X110060800Y-72782665D02*
X110013180Y-72735046D01*
X109108419Y-74258855D02*
X109108419Y-73782665D01*
X109108419Y-73782665D02*
X109584609Y-73735046D01*
X109584609Y-73735046D02*
X109536990Y-73782665D01*
X109536990Y-73782665D02*
X109489371Y-73877903D01*
X109489371Y-73877903D02*
X109489371Y-74115998D01*
X109489371Y-74115998D02*
X109536990Y-74211236D01*
X109536990Y-74211236D02*
X109584609Y-74258855D01*
X109584609Y-74258855D02*
X109679847Y-74306474D01*
X109679847Y-74306474D02*
X109917942Y-74306474D01*
X109917942Y-74306474D02*
X110013180Y-74258855D01*
X110013180Y-74258855D02*
X110060800Y-74211236D01*
X110060800Y-74211236D02*
X110108419Y-74115998D01*
X110108419Y-74115998D02*
X110108419Y-73877903D01*
X110108419Y-73877903D02*
X110060800Y-73782665D01*
X110060800Y-73782665D02*
X110013180Y-73735046D01*
X111696038Y-55945693D02*
X111648419Y-55850455D01*
X111648419Y-55850455D02*
X111648419Y-55707598D01*
X111648419Y-55707598D02*
X111696038Y-55564741D01*
X111696038Y-55564741D02*
X111791276Y-55469503D01*
X111791276Y-55469503D02*
X111886514Y-55421884D01*
X111886514Y-55421884D02*
X112076990Y-55374265D01*
X112076990Y-55374265D02*
X112219847Y-55374265D01*
X112219847Y-55374265D02*
X112410323Y-55421884D01*
X112410323Y-55421884D02*
X112505561Y-55469503D01*
X112505561Y-55469503D02*
X112600800Y-55564741D01*
X112600800Y-55564741D02*
X112648419Y-55707598D01*
X112648419Y-55707598D02*
X112648419Y-55802836D01*
X112648419Y-55802836D02*
X112600800Y-55945693D01*
X112600800Y-55945693D02*
X112553180Y-55993312D01*
X112553180Y-55993312D02*
X112219847Y-55993312D01*
X112219847Y-55993312D02*
X112219847Y-55802836D01*
X112648419Y-56421884D02*
X111648419Y-56421884D01*
X111648419Y-56421884D02*
X112648419Y-56993312D01*
X112648419Y-56993312D02*
X111648419Y-56993312D01*
X112648419Y-57469503D02*
X111648419Y-57469503D01*
X111648419Y-57469503D02*
X111648419Y-57707598D01*
X111648419Y-57707598D02*
X111696038Y-57850455D01*
X111696038Y-57850455D02*
X111791276Y-57945693D01*
X111791276Y-57945693D02*
X111886514Y-57993312D01*
X111886514Y-57993312D02*
X112076990Y-58040931D01*
X112076990Y-58040931D02*
X112219847Y-58040931D01*
X112219847Y-58040931D02*
X112410323Y-57993312D01*
X112410323Y-57993312D02*
X112505561Y-57945693D01*
X112505561Y-57945693D02*
X112600800Y-57850455D01*
X112600800Y-57850455D02*
X112648419Y-57707598D01*
X112648419Y-57707598D02*
X112648419Y-57469503D01*
X111746838Y-72404893D02*
X111699219Y-72309655D01*
X111699219Y-72309655D02*
X111699219Y-72166798D01*
X111699219Y-72166798D02*
X111746838Y-72023941D01*
X111746838Y-72023941D02*
X111842076Y-71928703D01*
X111842076Y-71928703D02*
X111937314Y-71881084D01*
X111937314Y-71881084D02*
X112127790Y-71833465D01*
X112127790Y-71833465D02*
X112270647Y-71833465D01*
X112270647Y-71833465D02*
X112461123Y-71881084D01*
X112461123Y-71881084D02*
X112556361Y-71928703D01*
X112556361Y-71928703D02*
X112651600Y-72023941D01*
X112651600Y-72023941D02*
X112699219Y-72166798D01*
X112699219Y-72166798D02*
X112699219Y-72262036D01*
X112699219Y-72262036D02*
X112651600Y-72404893D01*
X112651600Y-72404893D02*
X112603980Y-72452512D01*
X112603980Y-72452512D02*
X112270647Y-72452512D01*
X112270647Y-72452512D02*
X112270647Y-72262036D01*
X111699219Y-72785846D02*
X111699219Y-73404893D01*
X111699219Y-73404893D02*
X112080171Y-73071560D01*
X112080171Y-73071560D02*
X112080171Y-73214417D01*
X112080171Y-73214417D02*
X112127790Y-73309655D01*
X112127790Y-73309655D02*
X112175409Y-73357274D01*
X112175409Y-73357274D02*
X112270647Y-73404893D01*
X112270647Y-73404893D02*
X112508742Y-73404893D01*
X112508742Y-73404893D02*
X112603980Y-73357274D01*
X112603980Y-73357274D02*
X112651600Y-73309655D01*
X112651600Y-73309655D02*
X112699219Y-73214417D01*
X112699219Y-73214417D02*
X112699219Y-72928703D01*
X112699219Y-72928703D02*
X112651600Y-72833465D01*
X112651600Y-72833465D02*
X112603980Y-72785846D01*
X111794457Y-73785846D02*
X111746838Y-73833465D01*
X111746838Y-73833465D02*
X111699219Y-73928703D01*
X111699219Y-73928703D02*
X111699219Y-74166798D01*
X111699219Y-74166798D02*
X111746838Y-74262036D01*
X111746838Y-74262036D02*
X111794457Y-74309655D01*
X111794457Y-74309655D02*
X111889695Y-74357274D01*
X111889695Y-74357274D02*
X111984933Y-74357274D01*
X111984933Y-74357274D02*
X112127790Y-74309655D01*
X112127790Y-74309655D02*
X112699219Y-73738227D01*
X112699219Y-73738227D02*
X112699219Y-74357274D01*
X114236038Y-55996493D02*
X114188419Y-55901255D01*
X114188419Y-55901255D02*
X114188419Y-55758398D01*
X114188419Y-55758398D02*
X114236038Y-55615541D01*
X114236038Y-55615541D02*
X114331276Y-55520303D01*
X114331276Y-55520303D02*
X114426514Y-55472684D01*
X114426514Y-55472684D02*
X114616990Y-55425065D01*
X114616990Y-55425065D02*
X114759847Y-55425065D01*
X114759847Y-55425065D02*
X114950323Y-55472684D01*
X114950323Y-55472684D02*
X115045561Y-55520303D01*
X115045561Y-55520303D02*
X115140800Y-55615541D01*
X115140800Y-55615541D02*
X115188419Y-55758398D01*
X115188419Y-55758398D02*
X115188419Y-55853636D01*
X115188419Y-55853636D02*
X115140800Y-55996493D01*
X115140800Y-55996493D02*
X115093180Y-56044112D01*
X115093180Y-56044112D02*
X114759847Y-56044112D01*
X114759847Y-56044112D02*
X114759847Y-55853636D01*
X115188419Y-56996493D02*
X115188419Y-56425065D01*
X115188419Y-56710779D02*
X114188419Y-56710779D01*
X114188419Y-56710779D02*
X114331276Y-56615541D01*
X114331276Y-56615541D02*
X114426514Y-56520303D01*
X114426514Y-56520303D02*
X114474133Y-56425065D01*
X115188419Y-57472684D02*
X115188419Y-57663160D01*
X115188419Y-57663160D02*
X115140800Y-57758398D01*
X115140800Y-57758398D02*
X115093180Y-57806017D01*
X115093180Y-57806017D02*
X114950323Y-57901255D01*
X114950323Y-57901255D02*
X114759847Y-57948874D01*
X114759847Y-57948874D02*
X114378895Y-57948874D01*
X114378895Y-57948874D02*
X114283657Y-57901255D01*
X114283657Y-57901255D02*
X114236038Y-57853636D01*
X114236038Y-57853636D02*
X114188419Y-57758398D01*
X114188419Y-57758398D02*
X114188419Y-57567922D01*
X114188419Y-57567922D02*
X114236038Y-57472684D01*
X114236038Y-57472684D02*
X114283657Y-57425065D01*
X114283657Y-57425065D02*
X114378895Y-57377446D01*
X114378895Y-57377446D02*
X114616990Y-57377446D01*
X114616990Y-57377446D02*
X114712228Y-57425065D01*
X114712228Y-57425065D02*
X114759847Y-57472684D01*
X114759847Y-57472684D02*
X114807466Y-57567922D01*
X114807466Y-57567922D02*
X114807466Y-57758398D01*
X114807466Y-57758398D02*
X114759847Y-57853636D01*
X114759847Y-57853636D02*
X114712228Y-57901255D01*
X114712228Y-57901255D02*
X114616990Y-57948874D01*
X114286838Y-72404893D02*
X114239219Y-72309655D01*
X114239219Y-72309655D02*
X114239219Y-72166798D01*
X114239219Y-72166798D02*
X114286838Y-72023941D01*
X114286838Y-72023941D02*
X114382076Y-71928703D01*
X114382076Y-71928703D02*
X114477314Y-71881084D01*
X114477314Y-71881084D02*
X114667790Y-71833465D01*
X114667790Y-71833465D02*
X114810647Y-71833465D01*
X114810647Y-71833465D02*
X115001123Y-71881084D01*
X115001123Y-71881084D02*
X115096361Y-71928703D01*
X115096361Y-71928703D02*
X115191600Y-72023941D01*
X115191600Y-72023941D02*
X115239219Y-72166798D01*
X115239219Y-72166798D02*
X115239219Y-72262036D01*
X115239219Y-72262036D02*
X115191600Y-72404893D01*
X115191600Y-72404893D02*
X115143980Y-72452512D01*
X115143980Y-72452512D02*
X114810647Y-72452512D01*
X114810647Y-72452512D02*
X114810647Y-72262036D01*
X114239219Y-72785846D02*
X114239219Y-73404893D01*
X114239219Y-73404893D02*
X114620171Y-73071560D01*
X114620171Y-73071560D02*
X114620171Y-73214417D01*
X114620171Y-73214417D02*
X114667790Y-73309655D01*
X114667790Y-73309655D02*
X114715409Y-73357274D01*
X114715409Y-73357274D02*
X114810647Y-73404893D01*
X114810647Y-73404893D02*
X115048742Y-73404893D01*
X115048742Y-73404893D02*
X115143980Y-73357274D01*
X115143980Y-73357274D02*
X115191600Y-73309655D01*
X115191600Y-73309655D02*
X115239219Y-73214417D01*
X115239219Y-73214417D02*
X115239219Y-72928703D01*
X115239219Y-72928703D02*
X115191600Y-72833465D01*
X115191600Y-72833465D02*
X115143980Y-72785846D01*
X114239219Y-73738227D02*
X114239219Y-74357274D01*
X114239219Y-74357274D02*
X114620171Y-74023941D01*
X114620171Y-74023941D02*
X114620171Y-74166798D01*
X114620171Y-74166798D02*
X114667790Y-74262036D01*
X114667790Y-74262036D02*
X114715409Y-74309655D01*
X114715409Y-74309655D02*
X114810647Y-74357274D01*
X114810647Y-74357274D02*
X115048742Y-74357274D01*
X115048742Y-74357274D02*
X115143980Y-74309655D01*
X115143980Y-74309655D02*
X115191600Y-74262036D01*
X115191600Y-74262036D02*
X115239219Y-74166798D01*
X115239219Y-74166798D02*
X115239219Y-73881084D01*
X115239219Y-73881084D02*
X115191600Y-73785846D01*
X115191600Y-73785846D02*
X115143980Y-73738227D01*
X116725238Y-72455693D02*
X116677619Y-72360455D01*
X116677619Y-72360455D02*
X116677619Y-72217598D01*
X116677619Y-72217598D02*
X116725238Y-72074741D01*
X116725238Y-72074741D02*
X116820476Y-71979503D01*
X116820476Y-71979503D02*
X116915714Y-71931884D01*
X116915714Y-71931884D02*
X117106190Y-71884265D01*
X117106190Y-71884265D02*
X117249047Y-71884265D01*
X117249047Y-71884265D02*
X117439523Y-71931884D01*
X117439523Y-71931884D02*
X117534761Y-71979503D01*
X117534761Y-71979503D02*
X117630000Y-72074741D01*
X117630000Y-72074741D02*
X117677619Y-72217598D01*
X117677619Y-72217598D02*
X117677619Y-72312836D01*
X117677619Y-72312836D02*
X117630000Y-72455693D01*
X117630000Y-72455693D02*
X117582380Y-72503312D01*
X117582380Y-72503312D02*
X117249047Y-72503312D01*
X117249047Y-72503312D02*
X117249047Y-72312836D01*
X116772857Y-72884265D02*
X116725238Y-72931884D01*
X116725238Y-72931884D02*
X116677619Y-73027122D01*
X116677619Y-73027122D02*
X116677619Y-73265217D01*
X116677619Y-73265217D02*
X116725238Y-73360455D01*
X116725238Y-73360455D02*
X116772857Y-73408074D01*
X116772857Y-73408074D02*
X116868095Y-73455693D01*
X116868095Y-73455693D02*
X116963333Y-73455693D01*
X116963333Y-73455693D02*
X117106190Y-73408074D01*
X117106190Y-73408074D02*
X117677619Y-72836646D01*
X117677619Y-72836646D02*
X117677619Y-73455693D01*
X116677619Y-74360455D02*
X116677619Y-73884265D01*
X116677619Y-73884265D02*
X117153809Y-73836646D01*
X117153809Y-73836646D02*
X117106190Y-73884265D01*
X117106190Y-73884265D02*
X117058571Y-73979503D01*
X117058571Y-73979503D02*
X117058571Y-74217598D01*
X117058571Y-74217598D02*
X117106190Y-74312836D01*
X117106190Y-74312836D02*
X117153809Y-74360455D01*
X117153809Y-74360455D02*
X117249047Y-74408074D01*
X117249047Y-74408074D02*
X117487142Y-74408074D01*
X117487142Y-74408074D02*
X117582380Y-74360455D01*
X117582380Y-74360455D02*
X117630000Y-74312836D01*
X117630000Y-74312836D02*
X117677619Y-74217598D01*
X117677619Y-74217598D02*
X117677619Y-73979503D01*
X117677619Y-73979503D02*
X117630000Y-73884265D01*
X117630000Y-73884265D02*
X117582380Y-73836646D01*
X116776038Y-55945693D02*
X116728419Y-55850455D01*
X116728419Y-55850455D02*
X116728419Y-55707598D01*
X116728419Y-55707598D02*
X116776038Y-55564741D01*
X116776038Y-55564741D02*
X116871276Y-55469503D01*
X116871276Y-55469503D02*
X116966514Y-55421884D01*
X116966514Y-55421884D02*
X117156990Y-55374265D01*
X117156990Y-55374265D02*
X117299847Y-55374265D01*
X117299847Y-55374265D02*
X117490323Y-55421884D01*
X117490323Y-55421884D02*
X117585561Y-55469503D01*
X117585561Y-55469503D02*
X117680800Y-55564741D01*
X117680800Y-55564741D02*
X117728419Y-55707598D01*
X117728419Y-55707598D02*
X117728419Y-55802836D01*
X117728419Y-55802836D02*
X117680800Y-55945693D01*
X117680800Y-55945693D02*
X117633180Y-55993312D01*
X117633180Y-55993312D02*
X117299847Y-55993312D01*
X117299847Y-55993312D02*
X117299847Y-55802836D01*
X117728419Y-56945693D02*
X117728419Y-56374265D01*
X117728419Y-56659979D02*
X116728419Y-56659979D01*
X116728419Y-56659979D02*
X116871276Y-56564741D01*
X116871276Y-56564741D02*
X116966514Y-56469503D01*
X116966514Y-56469503D02*
X117014133Y-56374265D01*
X117156990Y-57517122D02*
X117109371Y-57421884D01*
X117109371Y-57421884D02*
X117061752Y-57374265D01*
X117061752Y-57374265D02*
X116966514Y-57326646D01*
X116966514Y-57326646D02*
X116918895Y-57326646D01*
X116918895Y-57326646D02*
X116823657Y-57374265D01*
X116823657Y-57374265D02*
X116776038Y-57421884D01*
X116776038Y-57421884D02*
X116728419Y-57517122D01*
X116728419Y-57517122D02*
X116728419Y-57707598D01*
X116728419Y-57707598D02*
X116776038Y-57802836D01*
X116776038Y-57802836D02*
X116823657Y-57850455D01*
X116823657Y-57850455D02*
X116918895Y-57898074D01*
X116918895Y-57898074D02*
X116966514Y-57898074D01*
X116966514Y-57898074D02*
X117061752Y-57850455D01*
X117061752Y-57850455D02*
X117109371Y-57802836D01*
X117109371Y-57802836D02*
X117156990Y-57707598D01*
X117156990Y-57707598D02*
X117156990Y-57517122D01*
X117156990Y-57517122D02*
X117204609Y-57421884D01*
X117204609Y-57421884D02*
X117252228Y-57374265D01*
X117252228Y-57374265D02*
X117347466Y-57326646D01*
X117347466Y-57326646D02*
X117537942Y-57326646D01*
X117537942Y-57326646D02*
X117633180Y-57374265D01*
X117633180Y-57374265D02*
X117680800Y-57421884D01*
X117680800Y-57421884D02*
X117728419Y-57517122D01*
X117728419Y-57517122D02*
X117728419Y-57707598D01*
X117728419Y-57707598D02*
X117680800Y-57802836D01*
X117680800Y-57802836D02*
X117633180Y-57850455D01*
X117633180Y-57850455D02*
X117537942Y-57898074D01*
X117537942Y-57898074D02*
X117347466Y-57898074D01*
X117347466Y-57898074D02*
X117252228Y-57850455D01*
X117252228Y-57850455D02*
X117204609Y-57802836D01*
X117204609Y-57802836D02*
X117156990Y-57707598D01*
X119265238Y-55894893D02*
X119217619Y-55799655D01*
X119217619Y-55799655D02*
X119217619Y-55656798D01*
X119217619Y-55656798D02*
X119265238Y-55513941D01*
X119265238Y-55513941D02*
X119360476Y-55418703D01*
X119360476Y-55418703D02*
X119455714Y-55371084D01*
X119455714Y-55371084D02*
X119646190Y-55323465D01*
X119646190Y-55323465D02*
X119789047Y-55323465D01*
X119789047Y-55323465D02*
X119979523Y-55371084D01*
X119979523Y-55371084D02*
X120074761Y-55418703D01*
X120074761Y-55418703D02*
X120170000Y-55513941D01*
X120170000Y-55513941D02*
X120217619Y-55656798D01*
X120217619Y-55656798D02*
X120217619Y-55752036D01*
X120217619Y-55752036D02*
X120170000Y-55894893D01*
X120170000Y-55894893D02*
X120122380Y-55942512D01*
X120122380Y-55942512D02*
X119789047Y-55942512D01*
X119789047Y-55942512D02*
X119789047Y-55752036D01*
X119217619Y-56847274D02*
X119217619Y-56371084D01*
X119217619Y-56371084D02*
X119693809Y-56323465D01*
X119693809Y-56323465D02*
X119646190Y-56371084D01*
X119646190Y-56371084D02*
X119598571Y-56466322D01*
X119598571Y-56466322D02*
X119598571Y-56704417D01*
X119598571Y-56704417D02*
X119646190Y-56799655D01*
X119646190Y-56799655D02*
X119693809Y-56847274D01*
X119693809Y-56847274D02*
X119789047Y-56894893D01*
X119789047Y-56894893D02*
X120027142Y-56894893D01*
X120027142Y-56894893D02*
X120122380Y-56847274D01*
X120122380Y-56847274D02*
X120170000Y-56799655D01*
X120170000Y-56799655D02*
X120217619Y-56704417D01*
X120217619Y-56704417D02*
X120217619Y-56466322D01*
X120217619Y-56466322D02*
X120170000Y-56371084D01*
X120170000Y-56371084D02*
X120122380Y-56323465D01*
X119316038Y-72404893D02*
X119268419Y-72309655D01*
X119268419Y-72309655D02*
X119268419Y-72166798D01*
X119268419Y-72166798D02*
X119316038Y-72023941D01*
X119316038Y-72023941D02*
X119411276Y-71928703D01*
X119411276Y-71928703D02*
X119506514Y-71881084D01*
X119506514Y-71881084D02*
X119696990Y-71833465D01*
X119696990Y-71833465D02*
X119839847Y-71833465D01*
X119839847Y-71833465D02*
X120030323Y-71881084D01*
X120030323Y-71881084D02*
X120125561Y-71928703D01*
X120125561Y-71928703D02*
X120220800Y-72023941D01*
X120220800Y-72023941D02*
X120268419Y-72166798D01*
X120268419Y-72166798D02*
X120268419Y-72262036D01*
X120268419Y-72262036D02*
X120220800Y-72404893D01*
X120220800Y-72404893D02*
X120173180Y-72452512D01*
X120173180Y-72452512D02*
X119839847Y-72452512D01*
X119839847Y-72452512D02*
X119839847Y-72262036D01*
X119363657Y-72833465D02*
X119316038Y-72881084D01*
X119316038Y-72881084D02*
X119268419Y-72976322D01*
X119268419Y-72976322D02*
X119268419Y-73214417D01*
X119268419Y-73214417D02*
X119316038Y-73309655D01*
X119316038Y-73309655D02*
X119363657Y-73357274D01*
X119363657Y-73357274D02*
X119458895Y-73404893D01*
X119458895Y-73404893D02*
X119554133Y-73404893D01*
X119554133Y-73404893D02*
X119696990Y-73357274D01*
X119696990Y-73357274D02*
X120268419Y-72785846D01*
X120268419Y-72785846D02*
X120268419Y-73404893D01*
X119268419Y-74262036D02*
X119268419Y-74071560D01*
X119268419Y-74071560D02*
X119316038Y-73976322D01*
X119316038Y-73976322D02*
X119363657Y-73928703D01*
X119363657Y-73928703D02*
X119506514Y-73833465D01*
X119506514Y-73833465D02*
X119696990Y-73785846D01*
X119696990Y-73785846D02*
X120077942Y-73785846D01*
X120077942Y-73785846D02*
X120173180Y-73833465D01*
X120173180Y-73833465D02*
X120220800Y-73881084D01*
X120220800Y-73881084D02*
X120268419Y-73976322D01*
X120268419Y-73976322D02*
X120268419Y-74166798D01*
X120268419Y-74166798D02*
X120220800Y-74262036D01*
X120220800Y-74262036D02*
X120173180Y-74309655D01*
X120173180Y-74309655D02*
X120077942Y-74357274D01*
X120077942Y-74357274D02*
X119839847Y-74357274D01*
X119839847Y-74357274D02*
X119744609Y-74309655D01*
X119744609Y-74309655D02*
X119696990Y-74262036D01*
X119696990Y-74262036D02*
X119649371Y-74166798D01*
X119649371Y-74166798D02*
X119649371Y-73976322D01*
X119649371Y-73976322D02*
X119696990Y-73881084D01*
X119696990Y-73881084D02*
X119744609Y-73833465D01*
X119744609Y-73833465D02*
X119839847Y-73785846D01*
X121703638Y-55894893D02*
X121656019Y-55799655D01*
X121656019Y-55799655D02*
X121656019Y-55656798D01*
X121656019Y-55656798D02*
X121703638Y-55513941D01*
X121703638Y-55513941D02*
X121798876Y-55418703D01*
X121798876Y-55418703D02*
X121894114Y-55371084D01*
X121894114Y-55371084D02*
X122084590Y-55323465D01*
X122084590Y-55323465D02*
X122227447Y-55323465D01*
X122227447Y-55323465D02*
X122417923Y-55371084D01*
X122417923Y-55371084D02*
X122513161Y-55418703D01*
X122513161Y-55418703D02*
X122608400Y-55513941D01*
X122608400Y-55513941D02*
X122656019Y-55656798D01*
X122656019Y-55656798D02*
X122656019Y-55752036D01*
X122656019Y-55752036D02*
X122608400Y-55894893D01*
X122608400Y-55894893D02*
X122560780Y-55942512D01*
X122560780Y-55942512D02*
X122227447Y-55942512D01*
X122227447Y-55942512D02*
X122227447Y-55752036D01*
X122656019Y-56894893D02*
X122656019Y-56323465D01*
X122656019Y-56609179D02*
X121656019Y-56609179D01*
X121656019Y-56609179D02*
X121798876Y-56513941D01*
X121798876Y-56513941D02*
X121894114Y-56418703D01*
X121894114Y-56418703D02*
X121941733Y-56323465D01*
X121656019Y-57228227D02*
X121656019Y-57894893D01*
X121656019Y-57894893D02*
X122656019Y-57466322D01*
X121906838Y-72506493D02*
X121859219Y-72411255D01*
X121859219Y-72411255D02*
X121859219Y-72268398D01*
X121859219Y-72268398D02*
X121906838Y-72125541D01*
X121906838Y-72125541D02*
X122002076Y-72030303D01*
X122002076Y-72030303D02*
X122097314Y-71982684D01*
X122097314Y-71982684D02*
X122287790Y-71935065D01*
X122287790Y-71935065D02*
X122430647Y-71935065D01*
X122430647Y-71935065D02*
X122621123Y-71982684D01*
X122621123Y-71982684D02*
X122716361Y-72030303D01*
X122716361Y-72030303D02*
X122811600Y-72125541D01*
X122811600Y-72125541D02*
X122859219Y-72268398D01*
X122859219Y-72268398D02*
X122859219Y-72363636D01*
X122859219Y-72363636D02*
X122811600Y-72506493D01*
X122811600Y-72506493D02*
X122763980Y-72554112D01*
X122763980Y-72554112D02*
X122430647Y-72554112D01*
X122430647Y-72554112D02*
X122430647Y-72363636D01*
X121954457Y-72935065D02*
X121906838Y-72982684D01*
X121906838Y-72982684D02*
X121859219Y-73077922D01*
X121859219Y-73077922D02*
X121859219Y-73316017D01*
X121859219Y-73316017D02*
X121906838Y-73411255D01*
X121906838Y-73411255D02*
X121954457Y-73458874D01*
X121954457Y-73458874D02*
X122049695Y-73506493D01*
X122049695Y-73506493D02*
X122144933Y-73506493D01*
X122144933Y-73506493D02*
X122287790Y-73458874D01*
X122287790Y-73458874D02*
X122859219Y-72887446D01*
X122859219Y-72887446D02*
X122859219Y-73506493D01*
X121859219Y-73839827D02*
X121859219Y-74506493D01*
X121859219Y-74506493D02*
X122859219Y-74077922D01*
X124243638Y-72506493D02*
X124196019Y-72411255D01*
X124196019Y-72411255D02*
X124196019Y-72268398D01*
X124196019Y-72268398D02*
X124243638Y-72125541D01*
X124243638Y-72125541D02*
X124338876Y-72030303D01*
X124338876Y-72030303D02*
X124434114Y-71982684D01*
X124434114Y-71982684D02*
X124624590Y-71935065D01*
X124624590Y-71935065D02*
X124767447Y-71935065D01*
X124767447Y-71935065D02*
X124957923Y-71982684D01*
X124957923Y-71982684D02*
X125053161Y-72030303D01*
X125053161Y-72030303D02*
X125148400Y-72125541D01*
X125148400Y-72125541D02*
X125196019Y-72268398D01*
X125196019Y-72268398D02*
X125196019Y-72363636D01*
X125196019Y-72363636D02*
X125148400Y-72506493D01*
X125148400Y-72506493D02*
X125100780Y-72554112D01*
X125100780Y-72554112D02*
X124767447Y-72554112D01*
X124767447Y-72554112D02*
X124767447Y-72363636D01*
X125196019Y-73506493D02*
X125196019Y-72935065D01*
X125196019Y-73220779D02*
X124196019Y-73220779D01*
X124196019Y-73220779D02*
X124338876Y-73125541D01*
X124338876Y-73125541D02*
X124434114Y-73030303D01*
X124434114Y-73030303D02*
X124481733Y-72935065D01*
X124529352Y-74363636D02*
X125196019Y-74363636D01*
X124148400Y-74125541D02*
X124862685Y-73887446D01*
X124862685Y-73887446D02*
X124862685Y-74506493D01*
X124396038Y-55945693D02*
X124348419Y-55850455D01*
X124348419Y-55850455D02*
X124348419Y-55707598D01*
X124348419Y-55707598D02*
X124396038Y-55564741D01*
X124396038Y-55564741D02*
X124491276Y-55469503D01*
X124491276Y-55469503D02*
X124586514Y-55421884D01*
X124586514Y-55421884D02*
X124776990Y-55374265D01*
X124776990Y-55374265D02*
X124919847Y-55374265D01*
X124919847Y-55374265D02*
X125110323Y-55421884D01*
X125110323Y-55421884D02*
X125205561Y-55469503D01*
X125205561Y-55469503D02*
X125300800Y-55564741D01*
X125300800Y-55564741D02*
X125348419Y-55707598D01*
X125348419Y-55707598D02*
X125348419Y-55802836D01*
X125348419Y-55802836D02*
X125300800Y-55945693D01*
X125300800Y-55945693D02*
X125253180Y-55993312D01*
X125253180Y-55993312D02*
X124919847Y-55993312D01*
X124919847Y-55993312D02*
X124919847Y-55802836D01*
X125348419Y-56945693D02*
X125348419Y-56374265D01*
X125348419Y-56659979D02*
X124348419Y-56659979D01*
X124348419Y-56659979D02*
X124491276Y-56564741D01*
X124491276Y-56564741D02*
X124586514Y-56469503D01*
X124586514Y-56469503D02*
X124634133Y-56374265D01*
X124348419Y-57802836D02*
X124348419Y-57612360D01*
X124348419Y-57612360D02*
X124396038Y-57517122D01*
X124396038Y-57517122D02*
X124443657Y-57469503D01*
X124443657Y-57469503D02*
X124586514Y-57374265D01*
X124586514Y-57374265D02*
X124776990Y-57326646D01*
X124776990Y-57326646D02*
X125157942Y-57326646D01*
X125157942Y-57326646D02*
X125253180Y-57374265D01*
X125253180Y-57374265D02*
X125300800Y-57421884D01*
X125300800Y-57421884D02*
X125348419Y-57517122D01*
X125348419Y-57517122D02*
X125348419Y-57707598D01*
X125348419Y-57707598D02*
X125300800Y-57802836D01*
X125300800Y-57802836D02*
X125253180Y-57850455D01*
X125253180Y-57850455D02*
X125157942Y-57898074D01*
X125157942Y-57898074D02*
X124919847Y-57898074D01*
X124919847Y-57898074D02*
X124824609Y-57850455D01*
X124824609Y-57850455D02*
X124776990Y-57802836D01*
X124776990Y-57802836D02*
X124729371Y-57707598D01*
X124729371Y-57707598D02*
X124729371Y-57517122D01*
X124729371Y-57517122D02*
X124776990Y-57421884D01*
X124776990Y-57421884D02*
X124824609Y-57374265D01*
X124824609Y-57374265D02*
X124919847Y-57326646D01*
X126783638Y-72557293D02*
X126736019Y-72462055D01*
X126736019Y-72462055D02*
X126736019Y-72319198D01*
X126736019Y-72319198D02*
X126783638Y-72176341D01*
X126783638Y-72176341D02*
X126878876Y-72081103D01*
X126878876Y-72081103D02*
X126974114Y-72033484D01*
X126974114Y-72033484D02*
X127164590Y-71985865D01*
X127164590Y-71985865D02*
X127307447Y-71985865D01*
X127307447Y-71985865D02*
X127497923Y-72033484D01*
X127497923Y-72033484D02*
X127593161Y-72081103D01*
X127593161Y-72081103D02*
X127688400Y-72176341D01*
X127688400Y-72176341D02*
X127736019Y-72319198D01*
X127736019Y-72319198D02*
X127736019Y-72414436D01*
X127736019Y-72414436D02*
X127688400Y-72557293D01*
X127688400Y-72557293D02*
X127640780Y-72604912D01*
X127640780Y-72604912D02*
X127307447Y-72604912D01*
X127307447Y-72604912D02*
X127307447Y-72414436D01*
X127736019Y-73557293D02*
X127736019Y-72985865D01*
X127736019Y-73271579D02*
X126736019Y-73271579D01*
X126736019Y-73271579D02*
X126878876Y-73176341D01*
X126878876Y-73176341D02*
X126974114Y-73081103D01*
X126974114Y-73081103D02*
X127021733Y-72985865D01*
X126831257Y-73938246D02*
X126783638Y-73985865D01*
X126783638Y-73985865D02*
X126736019Y-74081103D01*
X126736019Y-74081103D02*
X126736019Y-74319198D01*
X126736019Y-74319198D02*
X126783638Y-74414436D01*
X126783638Y-74414436D02*
X126831257Y-74462055D01*
X126831257Y-74462055D02*
X126926495Y-74509674D01*
X126926495Y-74509674D02*
X127021733Y-74509674D01*
X127021733Y-74509674D02*
X127164590Y-74462055D01*
X127164590Y-74462055D02*
X127736019Y-73890627D01*
X127736019Y-73890627D02*
X127736019Y-74509674D01*
X126834438Y-55996493D02*
X126786819Y-55901255D01*
X126786819Y-55901255D02*
X126786819Y-55758398D01*
X126786819Y-55758398D02*
X126834438Y-55615541D01*
X126834438Y-55615541D02*
X126929676Y-55520303D01*
X126929676Y-55520303D02*
X127024914Y-55472684D01*
X127024914Y-55472684D02*
X127215390Y-55425065D01*
X127215390Y-55425065D02*
X127358247Y-55425065D01*
X127358247Y-55425065D02*
X127548723Y-55472684D01*
X127548723Y-55472684D02*
X127643961Y-55520303D01*
X127643961Y-55520303D02*
X127739200Y-55615541D01*
X127739200Y-55615541D02*
X127786819Y-55758398D01*
X127786819Y-55758398D02*
X127786819Y-55853636D01*
X127786819Y-55853636D02*
X127739200Y-55996493D01*
X127739200Y-55996493D02*
X127691580Y-56044112D01*
X127691580Y-56044112D02*
X127358247Y-56044112D01*
X127358247Y-56044112D02*
X127358247Y-55853636D01*
X127120152Y-56901255D02*
X127786819Y-56901255D01*
X126739200Y-56663160D02*
X127453485Y-56425065D01*
X127453485Y-56425065D02*
X127453485Y-57044112D01*
X129323638Y-72658893D02*
X129276019Y-72563655D01*
X129276019Y-72563655D02*
X129276019Y-72420798D01*
X129276019Y-72420798D02*
X129323638Y-72277941D01*
X129323638Y-72277941D02*
X129418876Y-72182703D01*
X129418876Y-72182703D02*
X129514114Y-72135084D01*
X129514114Y-72135084D02*
X129704590Y-72087465D01*
X129704590Y-72087465D02*
X129847447Y-72087465D01*
X129847447Y-72087465D02*
X130037923Y-72135084D01*
X130037923Y-72135084D02*
X130133161Y-72182703D01*
X130133161Y-72182703D02*
X130228400Y-72277941D01*
X130228400Y-72277941D02*
X130276019Y-72420798D01*
X130276019Y-72420798D02*
X130276019Y-72516036D01*
X130276019Y-72516036D02*
X130228400Y-72658893D01*
X130228400Y-72658893D02*
X130180780Y-72706512D01*
X130180780Y-72706512D02*
X129847447Y-72706512D01*
X129847447Y-72706512D02*
X129847447Y-72516036D01*
X130276019Y-73135084D02*
X129276019Y-73135084D01*
X129276019Y-73135084D02*
X130276019Y-73706512D01*
X130276019Y-73706512D02*
X129276019Y-73706512D01*
X130276019Y-74182703D02*
X129276019Y-74182703D01*
X129276019Y-74182703D02*
X129276019Y-74420798D01*
X129276019Y-74420798D02*
X129323638Y-74563655D01*
X129323638Y-74563655D02*
X129418876Y-74658893D01*
X129418876Y-74658893D02*
X129514114Y-74706512D01*
X129514114Y-74706512D02*
X129704590Y-74754131D01*
X129704590Y-74754131D02*
X129847447Y-74754131D01*
X129847447Y-74754131D02*
X130037923Y-74706512D01*
X130037923Y-74706512D02*
X130133161Y-74658893D01*
X130133161Y-74658893D02*
X130228400Y-74563655D01*
X130228400Y-74563655D02*
X130276019Y-74420798D01*
X130276019Y-74420798D02*
X130276019Y-74182703D01*
X129425238Y-55945693D02*
X129377619Y-55850455D01*
X129377619Y-55850455D02*
X129377619Y-55707598D01*
X129377619Y-55707598D02*
X129425238Y-55564741D01*
X129425238Y-55564741D02*
X129520476Y-55469503D01*
X129520476Y-55469503D02*
X129615714Y-55421884D01*
X129615714Y-55421884D02*
X129806190Y-55374265D01*
X129806190Y-55374265D02*
X129949047Y-55374265D01*
X129949047Y-55374265D02*
X130139523Y-55421884D01*
X130139523Y-55421884D02*
X130234761Y-55469503D01*
X130234761Y-55469503D02*
X130330000Y-55564741D01*
X130330000Y-55564741D02*
X130377619Y-55707598D01*
X130377619Y-55707598D02*
X130377619Y-55802836D01*
X130377619Y-55802836D02*
X130330000Y-55945693D01*
X130330000Y-55945693D02*
X130282380Y-55993312D01*
X130282380Y-55993312D02*
X129949047Y-55993312D01*
X129949047Y-55993312D02*
X129949047Y-55802836D01*
X129377619Y-56612360D02*
X129377619Y-56707598D01*
X129377619Y-56707598D02*
X129425238Y-56802836D01*
X129425238Y-56802836D02*
X129472857Y-56850455D01*
X129472857Y-56850455D02*
X129568095Y-56898074D01*
X129568095Y-56898074D02*
X129758571Y-56945693D01*
X129758571Y-56945693D02*
X129996666Y-56945693D01*
X129996666Y-56945693D02*
X130187142Y-56898074D01*
X130187142Y-56898074D02*
X130282380Y-56850455D01*
X130282380Y-56850455D02*
X130330000Y-56802836D01*
X130330000Y-56802836D02*
X130377619Y-56707598D01*
X130377619Y-56707598D02*
X130377619Y-56612360D01*
X130377619Y-56612360D02*
X130330000Y-56517122D01*
X130330000Y-56517122D02*
X130282380Y-56469503D01*
X130282380Y-56469503D02*
X130187142Y-56421884D01*
X130187142Y-56421884D02*
X129996666Y-56374265D01*
X129996666Y-56374265D02*
X129758571Y-56374265D01*
X129758571Y-56374265D02*
X129568095Y-56421884D01*
X129568095Y-56421884D02*
X129472857Y-56469503D01*
X129472857Y-56469503D02*
X129425238Y-56517122D01*
X129425238Y-56517122D02*
X129377619Y-56612360D01*
X131812838Y-55996493D02*
X131765219Y-55901255D01*
X131765219Y-55901255D02*
X131765219Y-55758398D01*
X131765219Y-55758398D02*
X131812838Y-55615541D01*
X131812838Y-55615541D02*
X131908076Y-55520303D01*
X131908076Y-55520303D02*
X132003314Y-55472684D01*
X132003314Y-55472684D02*
X132193790Y-55425065D01*
X132193790Y-55425065D02*
X132336647Y-55425065D01*
X132336647Y-55425065D02*
X132527123Y-55472684D01*
X132527123Y-55472684D02*
X132622361Y-55520303D01*
X132622361Y-55520303D02*
X132717600Y-55615541D01*
X132717600Y-55615541D02*
X132765219Y-55758398D01*
X132765219Y-55758398D02*
X132765219Y-55853636D01*
X132765219Y-55853636D02*
X132717600Y-55996493D01*
X132717600Y-55996493D02*
X132669980Y-56044112D01*
X132669980Y-56044112D02*
X132336647Y-56044112D01*
X132336647Y-56044112D02*
X132336647Y-55853636D01*
X131860457Y-56425065D02*
X131812838Y-56472684D01*
X131812838Y-56472684D02*
X131765219Y-56567922D01*
X131765219Y-56567922D02*
X131765219Y-56806017D01*
X131765219Y-56806017D02*
X131812838Y-56901255D01*
X131812838Y-56901255D02*
X131860457Y-56948874D01*
X131860457Y-56948874D02*
X131955695Y-56996493D01*
X131955695Y-56996493D02*
X132050933Y-56996493D01*
X132050933Y-56996493D02*
X132193790Y-56948874D01*
X132193790Y-56948874D02*
X132765219Y-56377446D01*
X132765219Y-56377446D02*
X132765219Y-56996493D01*
X131863638Y-72557293D02*
X131816019Y-72462055D01*
X131816019Y-72462055D02*
X131816019Y-72319198D01*
X131816019Y-72319198D02*
X131863638Y-72176341D01*
X131863638Y-72176341D02*
X131958876Y-72081103D01*
X131958876Y-72081103D02*
X132054114Y-72033484D01*
X132054114Y-72033484D02*
X132244590Y-71985865D01*
X132244590Y-71985865D02*
X132387447Y-71985865D01*
X132387447Y-71985865D02*
X132577923Y-72033484D01*
X132577923Y-72033484D02*
X132673161Y-72081103D01*
X132673161Y-72081103D02*
X132768400Y-72176341D01*
X132768400Y-72176341D02*
X132816019Y-72319198D01*
X132816019Y-72319198D02*
X132816019Y-72414436D01*
X132816019Y-72414436D02*
X132768400Y-72557293D01*
X132768400Y-72557293D02*
X132720780Y-72604912D01*
X132720780Y-72604912D02*
X132387447Y-72604912D01*
X132387447Y-72604912D02*
X132387447Y-72414436D01*
X132816019Y-73557293D02*
X132816019Y-72985865D01*
X132816019Y-73271579D02*
X131816019Y-73271579D01*
X131816019Y-73271579D02*
X131958876Y-73176341D01*
X131958876Y-73176341D02*
X132054114Y-73081103D01*
X132054114Y-73081103D02*
X132101733Y-72985865D01*
X131816019Y-73890627D02*
X131816019Y-74509674D01*
X131816019Y-74509674D02*
X132196971Y-74176341D01*
X132196971Y-74176341D02*
X132196971Y-74319198D01*
X132196971Y-74319198D02*
X132244590Y-74414436D01*
X132244590Y-74414436D02*
X132292209Y-74462055D01*
X132292209Y-74462055D02*
X132387447Y-74509674D01*
X132387447Y-74509674D02*
X132625542Y-74509674D01*
X132625542Y-74509674D02*
X132720780Y-74462055D01*
X132720780Y-74462055D02*
X132768400Y-74414436D01*
X132768400Y-74414436D02*
X132816019Y-74319198D01*
X132816019Y-74319198D02*
X132816019Y-74033484D01*
X132816019Y-74033484D02*
X132768400Y-73938246D01*
X132768400Y-73938246D02*
X132720780Y-73890627D01*
X134352838Y-55945693D02*
X134305219Y-55850455D01*
X134305219Y-55850455D02*
X134305219Y-55707598D01*
X134305219Y-55707598D02*
X134352838Y-55564741D01*
X134352838Y-55564741D02*
X134448076Y-55469503D01*
X134448076Y-55469503D02*
X134543314Y-55421884D01*
X134543314Y-55421884D02*
X134733790Y-55374265D01*
X134733790Y-55374265D02*
X134876647Y-55374265D01*
X134876647Y-55374265D02*
X135067123Y-55421884D01*
X135067123Y-55421884D02*
X135162361Y-55469503D01*
X135162361Y-55469503D02*
X135257600Y-55564741D01*
X135257600Y-55564741D02*
X135305219Y-55707598D01*
X135305219Y-55707598D02*
X135305219Y-55802836D01*
X135305219Y-55802836D02*
X135257600Y-55945693D01*
X135257600Y-55945693D02*
X135209980Y-55993312D01*
X135209980Y-55993312D02*
X134876647Y-55993312D01*
X134876647Y-55993312D02*
X134876647Y-55802836D01*
X135305219Y-56945693D02*
X135305219Y-56374265D01*
X135305219Y-56659979D02*
X134305219Y-56659979D01*
X134305219Y-56659979D02*
X134448076Y-56564741D01*
X134448076Y-56564741D02*
X134543314Y-56469503D01*
X134543314Y-56469503D02*
X134590933Y-56374265D01*
X134305219Y-57850455D02*
X134305219Y-57374265D01*
X134305219Y-57374265D02*
X134781409Y-57326646D01*
X134781409Y-57326646D02*
X134733790Y-57374265D01*
X134733790Y-57374265D02*
X134686171Y-57469503D01*
X134686171Y-57469503D02*
X134686171Y-57707598D01*
X134686171Y-57707598D02*
X134733790Y-57802836D01*
X134733790Y-57802836D02*
X134781409Y-57850455D01*
X134781409Y-57850455D02*
X134876647Y-57898074D01*
X134876647Y-57898074D02*
X135114742Y-57898074D01*
X135114742Y-57898074D02*
X135209980Y-57850455D01*
X135209980Y-57850455D02*
X135257600Y-57802836D01*
X135257600Y-57802836D02*
X135305219Y-57707598D01*
X135305219Y-57707598D02*
X135305219Y-57469503D01*
X135305219Y-57469503D02*
X135257600Y-57374265D01*
X135257600Y-57374265D02*
X135209980Y-57326646D01*
X135308400Y-71884265D02*
X135356019Y-72027122D01*
X135356019Y-72027122D02*
X135356019Y-72265217D01*
X135356019Y-72265217D02*
X135308400Y-72360455D01*
X135308400Y-72360455D02*
X135260780Y-72408074D01*
X135260780Y-72408074D02*
X135165542Y-72455693D01*
X135165542Y-72455693D02*
X135070304Y-72455693D01*
X135070304Y-72455693D02*
X134975066Y-72408074D01*
X134975066Y-72408074D02*
X134927447Y-72360455D01*
X134927447Y-72360455D02*
X134879828Y-72265217D01*
X134879828Y-72265217D02*
X134832209Y-72074741D01*
X134832209Y-72074741D02*
X134784590Y-71979503D01*
X134784590Y-71979503D02*
X134736971Y-71931884D01*
X134736971Y-71931884D02*
X134641733Y-71884265D01*
X134641733Y-71884265D02*
X134546495Y-71884265D01*
X134546495Y-71884265D02*
X134451257Y-71931884D01*
X134451257Y-71931884D02*
X134403638Y-71979503D01*
X134403638Y-71979503D02*
X134356019Y-72074741D01*
X134356019Y-72074741D02*
X134356019Y-72312836D01*
X134356019Y-72312836D02*
X134403638Y-72455693D01*
X135356019Y-72884265D02*
X134356019Y-72884265D01*
X134356019Y-72884265D02*
X134356019Y-73122360D01*
X134356019Y-73122360D02*
X134403638Y-73265217D01*
X134403638Y-73265217D02*
X134498876Y-73360455D01*
X134498876Y-73360455D02*
X134594114Y-73408074D01*
X134594114Y-73408074D02*
X134784590Y-73455693D01*
X134784590Y-73455693D02*
X134927447Y-73455693D01*
X134927447Y-73455693D02*
X135117923Y-73408074D01*
X135117923Y-73408074D02*
X135213161Y-73360455D01*
X135213161Y-73360455D02*
X135308400Y-73265217D01*
X135308400Y-73265217D02*
X135356019Y-73122360D01*
X135356019Y-73122360D02*
X135356019Y-72884265D01*
X134451257Y-73836646D02*
X134403638Y-73884265D01*
X134403638Y-73884265D02*
X134356019Y-73979503D01*
X134356019Y-73979503D02*
X134356019Y-74217598D01*
X134356019Y-74217598D02*
X134403638Y-74312836D01*
X134403638Y-74312836D02*
X134451257Y-74360455D01*
X134451257Y-74360455D02*
X134546495Y-74408074D01*
X134546495Y-74408074D02*
X134641733Y-74408074D01*
X134641733Y-74408074D02*
X134784590Y-74360455D01*
X134784590Y-74360455D02*
X135356019Y-73789027D01*
X135356019Y-73789027D02*
X135356019Y-74408074D01*
X137899200Y-55425065D02*
X137946819Y-55567922D01*
X137946819Y-55567922D02*
X137946819Y-55806017D01*
X137946819Y-55806017D02*
X137899200Y-55901255D01*
X137899200Y-55901255D02*
X137851580Y-55948874D01*
X137851580Y-55948874D02*
X137756342Y-55996493D01*
X137756342Y-55996493D02*
X137661104Y-55996493D01*
X137661104Y-55996493D02*
X137565866Y-55948874D01*
X137565866Y-55948874D02*
X137518247Y-55901255D01*
X137518247Y-55901255D02*
X137470628Y-55806017D01*
X137470628Y-55806017D02*
X137423009Y-55615541D01*
X137423009Y-55615541D02*
X137375390Y-55520303D01*
X137375390Y-55520303D02*
X137327771Y-55472684D01*
X137327771Y-55472684D02*
X137232533Y-55425065D01*
X137232533Y-55425065D02*
X137137295Y-55425065D01*
X137137295Y-55425065D02*
X137042057Y-55472684D01*
X137042057Y-55472684D02*
X136994438Y-55520303D01*
X136994438Y-55520303D02*
X136946819Y-55615541D01*
X136946819Y-55615541D02*
X136946819Y-55853636D01*
X136946819Y-55853636D02*
X136994438Y-55996493D01*
X137946819Y-56425065D02*
X136946819Y-56425065D01*
X136946819Y-56425065D02*
X136946819Y-56663160D01*
X136946819Y-56663160D02*
X136994438Y-56806017D01*
X136994438Y-56806017D02*
X137089676Y-56901255D01*
X137089676Y-56901255D02*
X137184914Y-56948874D01*
X137184914Y-56948874D02*
X137375390Y-56996493D01*
X137375390Y-56996493D02*
X137518247Y-56996493D01*
X137518247Y-56996493D02*
X137708723Y-56948874D01*
X137708723Y-56948874D02*
X137803961Y-56901255D01*
X137803961Y-56901255D02*
X137899200Y-56806017D01*
X137899200Y-56806017D02*
X137946819Y-56663160D01*
X137946819Y-56663160D02*
X137946819Y-56425065D01*
X137946819Y-57948874D02*
X137946819Y-57377446D01*
X137946819Y-57663160D02*
X136946819Y-57663160D01*
X136946819Y-57663160D02*
X137089676Y-57567922D01*
X137089676Y-57567922D02*
X137184914Y-57472684D01*
X137184914Y-57472684D02*
X137232533Y-57377446D01*
X137899200Y-71935065D02*
X137946819Y-72077922D01*
X137946819Y-72077922D02*
X137946819Y-72316017D01*
X137946819Y-72316017D02*
X137899200Y-72411255D01*
X137899200Y-72411255D02*
X137851580Y-72458874D01*
X137851580Y-72458874D02*
X137756342Y-72506493D01*
X137756342Y-72506493D02*
X137661104Y-72506493D01*
X137661104Y-72506493D02*
X137565866Y-72458874D01*
X137565866Y-72458874D02*
X137518247Y-72411255D01*
X137518247Y-72411255D02*
X137470628Y-72316017D01*
X137470628Y-72316017D02*
X137423009Y-72125541D01*
X137423009Y-72125541D02*
X137375390Y-72030303D01*
X137375390Y-72030303D02*
X137327771Y-71982684D01*
X137327771Y-71982684D02*
X137232533Y-71935065D01*
X137232533Y-71935065D02*
X137137295Y-71935065D01*
X137137295Y-71935065D02*
X137042057Y-71982684D01*
X137042057Y-71982684D02*
X136994438Y-72030303D01*
X136994438Y-72030303D02*
X136946819Y-72125541D01*
X136946819Y-72125541D02*
X136946819Y-72363636D01*
X136946819Y-72363636D02*
X136994438Y-72506493D01*
X137946819Y-72935065D02*
X136946819Y-72935065D01*
X136946819Y-72935065D02*
X136946819Y-73173160D01*
X136946819Y-73173160D02*
X136994438Y-73316017D01*
X136994438Y-73316017D02*
X137089676Y-73411255D01*
X137089676Y-73411255D02*
X137184914Y-73458874D01*
X137184914Y-73458874D02*
X137375390Y-73506493D01*
X137375390Y-73506493D02*
X137518247Y-73506493D01*
X137518247Y-73506493D02*
X137708723Y-73458874D01*
X137708723Y-73458874D02*
X137803961Y-73411255D01*
X137803961Y-73411255D02*
X137899200Y-73316017D01*
X137899200Y-73316017D02*
X137946819Y-73173160D01*
X137946819Y-73173160D02*
X137946819Y-72935065D01*
X136946819Y-73839827D02*
X136946819Y-74458874D01*
X136946819Y-74458874D02*
X137327771Y-74125541D01*
X137327771Y-74125541D02*
X137327771Y-74268398D01*
X137327771Y-74268398D02*
X137375390Y-74363636D01*
X137375390Y-74363636D02*
X137423009Y-74411255D01*
X137423009Y-74411255D02*
X137518247Y-74458874D01*
X137518247Y-74458874D02*
X137756342Y-74458874D01*
X137756342Y-74458874D02*
X137851580Y-74411255D01*
X137851580Y-74411255D02*
X137899200Y-74363636D01*
X137899200Y-74363636D02*
X137946819Y-74268398D01*
X137946819Y-74268398D02*
X137946819Y-73982684D01*
X137946819Y-73982684D02*
X137899200Y-73887446D01*
X137899200Y-73887446D02*
X137851580Y-73839827D01*
X140442380Y-72350912D02*
X140490000Y-72303293D01*
X140490000Y-72303293D02*
X140537619Y-72160436D01*
X140537619Y-72160436D02*
X140537619Y-72065198D01*
X140537619Y-72065198D02*
X140490000Y-71922341D01*
X140490000Y-71922341D02*
X140394761Y-71827103D01*
X140394761Y-71827103D02*
X140299523Y-71779484D01*
X140299523Y-71779484D02*
X140109047Y-71731865D01*
X140109047Y-71731865D02*
X139966190Y-71731865D01*
X139966190Y-71731865D02*
X139775714Y-71779484D01*
X139775714Y-71779484D02*
X139680476Y-71827103D01*
X139680476Y-71827103D02*
X139585238Y-71922341D01*
X139585238Y-71922341D02*
X139537619Y-72065198D01*
X139537619Y-72065198D02*
X139537619Y-72160436D01*
X139537619Y-72160436D02*
X139585238Y-72303293D01*
X139585238Y-72303293D02*
X139632857Y-72350912D01*
X140537619Y-72779484D02*
X139537619Y-72779484D01*
X139537619Y-72779484D02*
X140251904Y-73112817D01*
X140251904Y-73112817D02*
X139537619Y-73446150D01*
X139537619Y-73446150D02*
X140537619Y-73446150D01*
X140537619Y-73922341D02*
X139537619Y-73922341D01*
X139537619Y-73922341D02*
X139537619Y-74160436D01*
X139537619Y-74160436D02*
X139585238Y-74303293D01*
X139585238Y-74303293D02*
X139680476Y-74398531D01*
X139680476Y-74398531D02*
X139775714Y-74446150D01*
X139775714Y-74446150D02*
X139966190Y-74493769D01*
X139966190Y-74493769D02*
X140109047Y-74493769D01*
X140109047Y-74493769D02*
X140299523Y-74446150D01*
X140299523Y-74446150D02*
X140394761Y-74398531D01*
X140394761Y-74398531D02*
X140490000Y-74303293D01*
X140490000Y-74303293D02*
X140537619Y-74160436D01*
X140537619Y-74160436D02*
X140537619Y-73922341D01*
X140540800Y-55425065D02*
X140588419Y-55567922D01*
X140588419Y-55567922D02*
X140588419Y-55806017D01*
X140588419Y-55806017D02*
X140540800Y-55901255D01*
X140540800Y-55901255D02*
X140493180Y-55948874D01*
X140493180Y-55948874D02*
X140397942Y-55996493D01*
X140397942Y-55996493D02*
X140302704Y-55996493D01*
X140302704Y-55996493D02*
X140207466Y-55948874D01*
X140207466Y-55948874D02*
X140159847Y-55901255D01*
X140159847Y-55901255D02*
X140112228Y-55806017D01*
X140112228Y-55806017D02*
X140064609Y-55615541D01*
X140064609Y-55615541D02*
X140016990Y-55520303D01*
X140016990Y-55520303D02*
X139969371Y-55472684D01*
X139969371Y-55472684D02*
X139874133Y-55425065D01*
X139874133Y-55425065D02*
X139778895Y-55425065D01*
X139778895Y-55425065D02*
X139683657Y-55472684D01*
X139683657Y-55472684D02*
X139636038Y-55520303D01*
X139636038Y-55520303D02*
X139588419Y-55615541D01*
X139588419Y-55615541D02*
X139588419Y-55853636D01*
X139588419Y-55853636D02*
X139636038Y-55996493D01*
X140588419Y-56425065D02*
X139588419Y-56425065D01*
X139588419Y-56425065D02*
X139588419Y-56663160D01*
X139588419Y-56663160D02*
X139636038Y-56806017D01*
X139636038Y-56806017D02*
X139731276Y-56901255D01*
X139731276Y-56901255D02*
X139826514Y-56948874D01*
X139826514Y-56948874D02*
X140016990Y-56996493D01*
X140016990Y-56996493D02*
X140159847Y-56996493D01*
X140159847Y-56996493D02*
X140350323Y-56948874D01*
X140350323Y-56948874D02*
X140445561Y-56901255D01*
X140445561Y-56901255D02*
X140540800Y-56806017D01*
X140540800Y-56806017D02*
X140588419Y-56663160D01*
X140588419Y-56663160D02*
X140588419Y-56425065D01*
X139588419Y-57615541D02*
X139588419Y-57710779D01*
X139588419Y-57710779D02*
X139636038Y-57806017D01*
X139636038Y-57806017D02*
X139683657Y-57853636D01*
X139683657Y-57853636D02*
X139778895Y-57901255D01*
X139778895Y-57901255D02*
X139969371Y-57948874D01*
X139969371Y-57948874D02*
X140207466Y-57948874D01*
X140207466Y-57948874D02*
X140397942Y-57901255D01*
X140397942Y-57901255D02*
X140493180Y-57853636D01*
X140493180Y-57853636D02*
X140540800Y-57806017D01*
X140540800Y-57806017D02*
X140588419Y-57710779D01*
X140588419Y-57710779D02*
X140588419Y-57615541D01*
X140588419Y-57615541D02*
X140540800Y-57520303D01*
X140540800Y-57520303D02*
X140493180Y-57472684D01*
X140493180Y-57472684D02*
X140397942Y-57425065D01*
X140397942Y-57425065D02*
X140207466Y-57377446D01*
X140207466Y-57377446D02*
X139969371Y-57377446D01*
X139969371Y-57377446D02*
X139778895Y-57425065D01*
X139778895Y-57425065D02*
X139683657Y-57472684D01*
X139683657Y-57472684D02*
X139636038Y-57520303D01*
X139636038Y-57520303D02*
X139588419Y-57615541D01*
X142026819Y-73322474D02*
X142026819Y-72846284D01*
X142026819Y-72846284D02*
X142503009Y-72798665D01*
X142503009Y-72798665D02*
X142455390Y-72846284D01*
X142455390Y-72846284D02*
X142407771Y-72941522D01*
X142407771Y-72941522D02*
X142407771Y-73179617D01*
X142407771Y-73179617D02*
X142455390Y-73274855D01*
X142455390Y-73274855D02*
X142503009Y-73322474D01*
X142503009Y-73322474D02*
X142598247Y-73370093D01*
X142598247Y-73370093D02*
X142836342Y-73370093D01*
X142836342Y-73370093D02*
X142931580Y-73322474D01*
X142931580Y-73322474D02*
X142979200Y-73274855D01*
X142979200Y-73274855D02*
X143026819Y-73179617D01*
X143026819Y-73179617D02*
X143026819Y-72941522D01*
X143026819Y-72941522D02*
X142979200Y-72846284D01*
X142979200Y-72846284D02*
X142931580Y-72798665D01*
X142026819Y-73655808D02*
X143026819Y-73989141D01*
X143026819Y-73989141D02*
X142026819Y-74322474D01*
X142982380Y-56044112D02*
X143030000Y-55996493D01*
X143030000Y-55996493D02*
X143077619Y-55853636D01*
X143077619Y-55853636D02*
X143077619Y-55758398D01*
X143077619Y-55758398D02*
X143030000Y-55615541D01*
X143030000Y-55615541D02*
X142934761Y-55520303D01*
X142934761Y-55520303D02*
X142839523Y-55472684D01*
X142839523Y-55472684D02*
X142649047Y-55425065D01*
X142649047Y-55425065D02*
X142506190Y-55425065D01*
X142506190Y-55425065D02*
X142315714Y-55472684D01*
X142315714Y-55472684D02*
X142220476Y-55520303D01*
X142220476Y-55520303D02*
X142125238Y-55615541D01*
X142125238Y-55615541D02*
X142077619Y-55758398D01*
X142077619Y-55758398D02*
X142077619Y-55853636D01*
X142077619Y-55853636D02*
X142125238Y-55996493D01*
X142125238Y-55996493D02*
X142172857Y-56044112D01*
X143077619Y-56948874D02*
X143077619Y-56472684D01*
X143077619Y-56472684D02*
X142077619Y-56472684D01*
X143077619Y-57282208D02*
X142077619Y-57282208D01*
X143077619Y-57853636D02*
X142506190Y-57425065D01*
X142077619Y-57853636D02*
X142649047Y-57282208D01*
X102491600Y-72543506D02*
X102539219Y-72686363D01*
X102539219Y-72686363D02*
X102539219Y-72924458D01*
X102539219Y-72924458D02*
X102491600Y-73019696D01*
X102491600Y-73019696D02*
X102443980Y-73067315D01*
X102443980Y-73067315D02*
X102348742Y-73114934D01*
X102348742Y-73114934D02*
X102253504Y-73114934D01*
X102253504Y-73114934D02*
X102158266Y-73067315D01*
X102158266Y-73067315D02*
X102110647Y-73019696D01*
X102110647Y-73019696D02*
X102063028Y-72924458D01*
X102063028Y-72924458D02*
X102015409Y-72733982D01*
X102015409Y-72733982D02*
X101967790Y-72638744D01*
X101967790Y-72638744D02*
X101920171Y-72591125D01*
X101920171Y-72591125D02*
X101824933Y-72543506D01*
X101824933Y-72543506D02*
X101729695Y-72543506D01*
X101729695Y-72543506D02*
X101634457Y-72591125D01*
X101634457Y-72591125D02*
X101586838Y-72638744D01*
X101586838Y-72638744D02*
X101539219Y-72733982D01*
X101539219Y-72733982D02*
X101539219Y-72972077D01*
X101539219Y-72972077D02*
X101586838Y-73114934D01*
X102539219Y-73543506D02*
X101539219Y-73543506D01*
X101539219Y-73543506D02*
X101539219Y-73924458D01*
X101539219Y-73924458D02*
X101586838Y-74019696D01*
X101586838Y-74019696D02*
X101634457Y-74067315D01*
X101634457Y-74067315D02*
X101729695Y-74114934D01*
X101729695Y-74114934D02*
X101872552Y-74114934D01*
X101872552Y-74114934D02*
X101967790Y-74067315D01*
X101967790Y-74067315D02*
X102015409Y-74019696D01*
X102015409Y-74019696D02*
X102063028Y-73924458D01*
X102063028Y-73924458D02*
X102063028Y-73543506D01*
D11*
X54720000Y-35030000D02*
X154720000Y-35030000D01*
X154720000Y-85030000D01*
X54720000Y-85030000D01*
X54720000Y-35030000D01*
X178875000Y-34675000D02*
X178875000Y-34675000D01*
G75*
G02*
X183875000Y-29675000I5000000J0D01*
G01*
X242550000Y-29675000D01*
G75*
G02*
X247550000Y-34675000I0J-5000000D01*
G01*
X247550000Y-90475000D01*
G75*
G02*
X242550000Y-95475000I-5000000J0D01*
G01*
X183875000Y-95475000D01*
G75*
G02*
X178875000Y-90475000I0J5000000D01*
G01*
X178875000Y-34675000D01*
M02*
