M48
; DRILL file KiCad 10.0.4 date 2026-08-11T10:00:18
; FORMAT={-:-/ absolute / metric / decimal}
; #@! TF.CreationDate,2026-08-11T10:00:18+08:00
; #@! TF.GenerationSoftware,Kicad,Pcbnew,10.0.4
; #@! TF.FileFunction,Plated,1,2,PTH
FMAT,2
METRIC
; #@! TA.AperFunction,Plated,PTH,ViaDrill
T1C0.100
; #@! TA.AperFunction,Plated,PTH,ViaDrill
T2C0.300
; #@! TA.AperFunction,Plated,PTH,ViaDrill
T3C0.400
; #@! TA.AperFunction,Plated,PTH,ViaDrill
T4C0.600
; #@! TA.AperFunction,Plated,PTH,ComponentDrill
T5C0.600
; #@! TA.AperFunction,Plated,PTH,ComponentDrill
T6C0.750
; #@! TA.AperFunction,Plated,PTH,ComponentDrill
T7C0.800
; #@! TA.AperFunction,Plated,PTH,ComponentDrill
T8C0.900
; #@! TA.AperFunction,Plated,PTH,ComponentDrill
T9C0.950
; #@! TA.AperFunction,Plated,PTH,ComponentDrill
T10C1.000
; #@! TA.AperFunction,Plated,PTH,ComponentDrill
T11C1.010
; #@! TA.AperFunction,Plated,PTH,ComponentDrill
T12C1.500
%
G90
G05
T1
X199.5Y-90.2
X215.5Y-90.5
T2
X64.6Y-69.4
X68.7Y-68.4
X74.2Y-84.08
X77.267Y-82.194
X78.689Y-80.112
X84.1Y-40.6
X85.2Y-42.0
X85.2Y-50.6
X85.4Y-49.5
X85.9Y-38.8
X86.1Y-74.2
X88.1Y-40.9
X89.9Y-74.1
X91.3Y-37.8
X94.0Y-37.8
X95.6Y-81.2
X97.3Y-81.8
X98.1Y-79.2
X113.8Y-49.5
X122.4Y-50.5
X135.8Y-47.6
X138.3Y-45.5
X138.4Y-47.5
X141.1Y-45.5
X186.9Y-76.4
X186.9Y-79.5
X195.6Y-54.3
X199.3Y-65.3
X199.5Y-63.9
X207.7Y-92.0
X208.7Y-54.3
X209.5Y-94.675
X218.9Y-93.2
X229.6Y-93.2
T3
X234.7Y-64.6
X237.5Y-65.5
T4
X225.2Y-54.1
X226.5Y-50.3
T6
X94.2Y-41.95
X96.2Y-41.95
X107.0Y-41.95
X109.0Y-41.95
X131.3Y-42.05
X133.3Y-42.05
X135.3Y-42.05
X137.3Y-42.05
X139.3Y-42.05
X141.3Y-42.05
X240.7Y-43.075
X240.7Y-45.075
T7
X68.353Y-63.5
X71.853Y-63.5
X79.1Y-63.8
X83.42Y-81.2
X84.1Y-63.8
X93.58Y-81.2
X117.0Y-40.1
X122.0Y-40.1
X187.42Y-73.1
X194.845Y-64.6
X196.845Y-64.6
X197.58Y-73.1
X200.95Y-77.195
X200.95Y-87.355
X203.8Y-58.1
X205.8Y-58.1
X207.65Y-77.195
X207.65Y-87.355
X213.695Y-57.975
X214.65Y-77.295
X214.65Y-87.455
X215.695Y-57.975
X220.52Y-64.6
X220.52Y-73.1
X230.68Y-64.6
X230.68Y-73.1
X232.8Y-45.32
X232.8Y-55.48
X234.8Y-70.82
X234.8Y-80.98
T8
X220.45Y-88.775
X222.99Y-88.775
X228.65Y-88.875
X231.19Y-88.875
X236.315Y-88.875
X238.855Y-88.875
T9
X64.6Y-75.155
X67.1Y-75.155
X69.6Y-75.155
X189.75Y-85.53
X192.25Y-85.53
X194.75Y-85.53
T10
X63.23Y-36.74
X63.23Y-39.28
X63.23Y-41.82
X63.23Y-44.36
X63.23Y-46.9
X63.23Y-49.44
X63.23Y-51.98
X63.23Y-54.52
X81.01Y-36.74
X81.01Y-39.28
X81.01Y-41.82
X81.01Y-44.36
X81.01Y-46.9
X81.01Y-49.44
X81.01Y-51.98
X81.01Y-54.52
X96.84Y-53.27
X96.84Y-76.13
X99.38Y-53.27
X99.38Y-76.13
X101.92Y-53.27
X101.92Y-76.13
X104.46Y-53.27
X104.46Y-76.13
X107.0Y-53.27
X107.0Y-76.13
X109.54Y-53.27
X109.54Y-76.13
X112.08Y-53.27
X112.08Y-76.13
X114.62Y-53.27
X114.62Y-76.13
X117.16Y-53.27
X117.16Y-76.13
X119.7Y-53.27
X119.7Y-76.13
X122.24Y-53.27
X122.24Y-76.13
X124.78Y-53.27
X124.78Y-76.13
X127.32Y-53.27
X127.32Y-76.13
X129.86Y-53.27
X129.86Y-76.13
X132.4Y-53.27
X132.4Y-76.13
X134.94Y-53.27
X134.94Y-76.13
X137.48Y-53.27
X137.48Y-76.13
X140.02Y-53.27
X140.02Y-76.13
X142.56Y-53.27
X142.56Y-76.13
T11
X230.75Y-36.4
X235.85Y-37.6
T12
X188.675Y-37.765
X188.675Y-45.385
X220.425Y-37.765
X220.425Y-45.385
T5
G00X240.15Y-59.655
M15
G01X240.75Y-59.655
M16
G05
G00X240.15Y-68.295
M15
G01X240.75Y-68.295
M16
G05
G00X243.95Y-59.655
M15
G01X244.55Y-59.655
M16
G05
G00X243.95Y-68.295
M15
G01X244.55Y-68.295
M16
G05
M30
