%TF.GenerationSoftware,KiCad,Pcbnew,10.0.4*%
%TF.CreationDate,2026-08-11T09:57:58+08:00*%
%TF.ProjectId,JRDraws,4a524472-6177-4732-9e6b-696361645f70,rev?*%
%TF.SameCoordinates,Original*%
%TF.FileFunction,Soldermask,Top*%
%TF.FilePolarity,Negative*%
%FSLAX46Y46*%
G04 Gerber Fmt 4.6, Leading zero omitted, Abs format (unit mm)*
G04 Created by KiCad (PCBNEW 10.0.4) date 2026-08-11 09:57:58*
%MOMM*%
%LPD*%
G01*
G04 APERTURE LIST*
G04 Aperture macros list*
%AMRoundRect*
0 Rectangle with rounded corners*
0 $1 Rounding radius*
0 $2 $3 $4 $5 $6 $7 $8 $9 X,Y pos of 4 corners*
0 Add a 4 corners polygon primitive as box body*
4,1,4,$2,$3,$4,$5,$6,$7,$8,$9,$2,$3,0*
0 Add four circle primitives for the rounded corners*
1,1,$1+$1,$2,$3*
1,1,$1+$1,$4,$5*
1,1,$1+$1,$6,$7*
1,1,$1+$1,$8,$9*
0 Add four rect primitives between the rounded corners*
20,1,$1+$1,$2,$3,$4,$5,0*
20,1,$1+$1,$4,$5,$6,$7,0*
20,1,$1+$1,$6,$7,$8,$9,0*
20,1,$1+$1,$8,$9,$2,$3,0*%
%AMFreePoly0*
4,1,5,1.125000,-1.125000,-1.125000,-1.125000,-1.125000,1.125000,1.125000,1.125000,1.125000,-1.125000,1.125000,-1.125000,$1*%
G04 Aperture macros list end*
%ADD10C,1.600000*%
%ADD11RoundRect,0.062500X-0.362500X-0.062500X0.362500X-0.062500X0.362500X0.062500X-0.362500X0.062500X0*%
%ADD12RoundRect,0.062500X-0.062500X-0.362500X0.062500X-0.362500X0.062500X0.362500X-0.062500X0.362500X0*%
%ADD13R,2.600000X2.600000*%
%ADD14R,1.800000X1.800000*%
%ADD15C,1.800000*%
%ADD16RoundRect,0.250000X0.625000X-0.350000X0.625000X0.350000X-0.625000X0.350000X-0.625000X-0.350000X0*%
%ADD17O,1.750000X1.200000*%
%ADD18C,2.010000*%
%ADD19C,2.200000*%
%ADD20RoundRect,0.250000X0.350000X0.625000X-0.350000X0.625000X-0.350000X-0.625000X0.350000X-0.625000X0*%
%ADD21O,1.200000X1.750000*%
%ADD22RoundRect,0.250000X-0.550000X-0.550000X0.550000X-0.550000X0.550000X0.550000X-0.550000X0.550000X0*%
%ADD23RoundRect,0.175000X0.425000X-0.175000X0.425000X0.175000X-0.425000X0.175000X-0.425000X-0.175000X0*%
%ADD24RoundRect,0.190000X-0.410000X0.190000X-0.410000X-0.190000X0.410000X-0.190000X0.410000X0.190000X0*%
%ADD25RoundRect,0.200000X-0.400000X0.200000X-0.400000X-0.200000X0.400000X-0.200000X0.400000X0.200000X0*%
%ADD26RoundRect,0.175000X-0.425000X0.175000X-0.425000X-0.175000X0.425000X-0.175000X0.425000X0.175000X0*%
%ADD27RoundRect,0.190000X0.410000X-0.190000X0.410000X0.190000X-0.410000X0.190000X-0.410000X-0.190000X0*%
%ADD28RoundRect,0.200000X0.400000X-0.200000X0.400000X0.200000X-0.400000X0.200000X-0.400000X-0.200000X0*%
%ADD29O,1.700000X1.100000*%
%ADD30FreePoly0,0.000000*%
%ADD31RoundRect,0.250000X-0.600000X-0.725000X0.600000X-0.725000X0.600000X0.725000X-0.600000X0.725000X0*%
%ADD32O,1.700000X1.950000*%
%ADD33RoundRect,0.250000X0.550000X0.550000X-0.550000X0.550000X-0.550000X-0.550000X0.550000X-0.550000X0*%
%TA.AperFunction,Profile*%
%ADD34C,0.050000*%
%TD*%
G04 APERTURE END LIST*
D10*
%TO.C,R2*%
X232800000Y-45320000D03*
X232800000Y-55480000D03*
%TD*%
D11*
%TO.C,U8*%
X207675000Y-69125000D03*
X207675000Y-69625000D03*
X207675000Y-70125000D03*
X207675000Y-70625000D03*
X207675000Y-71125000D03*
D12*
X208600000Y-72050000D03*
X209100000Y-72050000D03*
X209600000Y-72050000D03*
X210100000Y-72050000D03*
X210600000Y-72050000D03*
D11*
X211525000Y-71125000D03*
X211525000Y-70625000D03*
X211525000Y-70125000D03*
X211525000Y-69625000D03*
X211525000Y-69125000D03*
D12*
X210600000Y-68200000D03*
X210100000Y-68200000D03*
X209600000Y-68200000D03*
X209100000Y-68200000D03*
X208600000Y-68200000D03*
D13*
X209600000Y-70125000D03*
%TD*%
D14*
%TO.C,D2*%
X228650000Y-88875000D03*
D15*
X231190000Y-88875000D03*
%TD*%
D16*
%TO.C,BT1*%
X240700000Y-45075000D03*
D17*
X240700000Y-43075000D03*
%TD*%
D18*
%TO.C,F1*%
X235850000Y-37600000D03*
X230750000Y-36400000D03*
%TD*%
D19*
%TO.C,REF\u002A\u002A*%
X243205000Y-33655000D03*
%TD*%
D10*
%TO.C,R8*%
X187420000Y-73100000D03*
X197580000Y-73100000D03*
%TD*%
%TO.C,R7*%
X220520000Y-64600000D03*
X230680000Y-64600000D03*
%TD*%
D19*
%TO.C,REF\u002A\u002A*%
X58420000Y-38735000D03*
%TD*%
%TO.C,REF\u002A\u002A*%
X151130000Y-38735000D03*
%TD*%
D20*
%TO.C,LS1*%
X96200000Y-41950000D03*
D21*
X94200000Y-41950000D03*
%TD*%
D22*
%TO.C,C6*%
X203800000Y-58100000D03*
D10*
X205800000Y-58100000D03*
%TD*%
%TO.C,U3*%
X81010000Y-54520000D03*
X81010000Y-51980000D03*
X81010000Y-49440000D03*
X81010000Y-46900000D03*
X81010000Y-44360000D03*
X81010000Y-41820000D03*
X81010000Y-39280000D03*
X81010000Y-36740000D03*
X63230000Y-36740000D03*
X63230000Y-39280000D03*
X63230000Y-41820000D03*
X63230000Y-44360000D03*
X63230000Y-46900000D03*
X63230000Y-49440000D03*
X63230000Y-51980000D03*
X63230000Y-54520000D03*
%TD*%
D15*
%TO.C,U1*%
X96840000Y-76130000D03*
X99380000Y-76130000D03*
X101920000Y-76130000D03*
X104460000Y-76130000D03*
X107000000Y-76130000D03*
X109540000Y-76130000D03*
X112080000Y-76130000D03*
X114620000Y-76130000D03*
X117160000Y-76130000D03*
X119700000Y-76130000D03*
X122240000Y-76130000D03*
X124780000Y-76130000D03*
X127320000Y-76130000D03*
X129860000Y-76130000D03*
X132400000Y-76130000D03*
X134940000Y-76130000D03*
X137480000Y-76130000D03*
X140020000Y-76130000D03*
X142560000Y-76130000D03*
X96840000Y-53270000D03*
X99380000Y-53270000D03*
X101920000Y-53270000D03*
X104460000Y-53270000D03*
X107000000Y-53270000D03*
X109540000Y-53270000D03*
X112080000Y-53270000D03*
X114620000Y-53270000D03*
X117160000Y-53270000D03*
X119700000Y-53270000D03*
X122240000Y-53270000D03*
X124780000Y-53270000D03*
X127320000Y-53270000D03*
X129860000Y-53270000D03*
X132400000Y-53270000D03*
X134940000Y-53270000D03*
X137480000Y-53270000D03*
X140020000Y-53270000D03*
X142560000Y-53270000D03*
%TD*%
D10*
%TO.C,R4*%
X207650000Y-77195000D03*
X207650000Y-87355000D03*
%TD*%
D14*
%TO.C,D1*%
X220450000Y-88775000D03*
D15*
X222990000Y-88775000D03*
%TD*%
D22*
%TO.C,C4*%
X213694888Y-57975000D03*
D10*
X215694888Y-57975000D03*
%TD*%
D22*
%TO.C,C5*%
X194844888Y-64600000D03*
D10*
X196844888Y-64600000D03*
%TD*%
D19*
%TO.C,REF\u002A\u002A*%
X182880000Y-90805000D03*
%TD*%
D10*
%TO.C,R1*%
X234800000Y-70820000D03*
X234800000Y-80980000D03*
%TD*%
%TO.C,C3*%
X117000000Y-40100000D03*
X122000000Y-40100000D03*
%TD*%
D19*
%TO.C,REF\u002A\u002A*%
X58420000Y-81915000D03*
%TD*%
D10*
%TO.C,R9*%
X83420000Y-81200000D03*
X93580000Y-81200000D03*
%TD*%
%TO.C,R6*%
X220520000Y-73100000D03*
X230680000Y-73100000D03*
%TD*%
%TO.C,C2*%
X79100000Y-63800000D03*
X84100000Y-63800000D03*
%TD*%
D23*
%TO.C,J1*%
X240370000Y-64475000D03*
D24*
X240370000Y-62455000D03*
D25*
X240370000Y-61225000D03*
D26*
X240370000Y-63475000D03*
D27*
X240370000Y-65495000D03*
D28*
X240370000Y-66725000D03*
D29*
X240450000Y-68295000D03*
X244250000Y-68295000D03*
X240450000Y-59655000D03*
X244250000Y-59655000D03*
%TD*%
D10*
%TO.C,R3*%
X200950000Y-77195000D03*
X200950000Y-87355000D03*
%TD*%
D14*
%TO.C,D3*%
X236315000Y-88875000D03*
D15*
X238855000Y-88875000D03*
%TD*%
D19*
%TO.C,REF\u002A\u002A*%
X151130000Y-81280000D03*
%TD*%
D20*
%TO.C,U4*%
X141300000Y-42050000D03*
D21*
X139300000Y-42050000D03*
X137300000Y-42050000D03*
X135300000Y-42050000D03*
X133300000Y-42050000D03*
X131300000Y-42050000D03*
%TD*%
D30*
%TO.C,U7*%
X188675000Y-37765000D03*
X188675000Y-45385000D03*
X220425000Y-37765000D03*
X220425000Y-45385000D03*
%TD*%
D20*
%TO.C,U2*%
X109000000Y-41950000D03*
D21*
X107000000Y-41950000D03*
%TD*%
D19*
%TO.C,REF\u002A\u002A*%
X243205000Y-90805000D03*
%TD*%
D31*
%TO.C,U6*%
X64600000Y-75155000D03*
D32*
X67100000Y-75155000D03*
X69600000Y-75155000D03*
%TD*%
D31*
%TO.C,U5*%
X189750000Y-85530000D03*
D32*
X192250000Y-85530000D03*
X194750000Y-85530000D03*
%TD*%
D19*
%TO.C,REF\u002A\u002A*%
X182880000Y-33655000D03*
%TD*%
D10*
%TO.C,R5*%
X214650000Y-77295000D03*
X214650000Y-87455000D03*
%TD*%
D33*
%TO.C,C1*%
X71852651Y-63500000D03*
D10*
X68352651Y-63500000D03*
%TD*%
D34*
X54720000Y-35030000D02*
X154720000Y-35030000D01*
X154720000Y-85030000D01*
X54720000Y-85030000D01*
X54720000Y-35030000D01*
X178875000Y-34675000D02*
X178875000Y-34675000D01*
G75*
G02*
X183875000Y-29675000I5000000J0D01*
G01*
X242550000Y-29675000D01*
G75*
G02*
X247550000Y-34675000I0J-5000000D01*
G01*
X247550000Y-90475000D01*
G75*
G02*
X242550000Y-95475000I-5000000J0D01*
G01*
X183875000Y-95475000D01*
G75*
G02*
X178875000Y-90475000I0J5000000D01*
G01*
X178875000Y-34675000D01*
M02*
